%TF.GenerationSoftware,KiCad,Pcbnew,(5.1.12)-1*%
%TF.CreationDate,2022-05-06T09:07:05-07:00*%
%TF.ProjectId,HarmonicTremolo_V01,4861726d-6f6e-4696-9354-72656d6f6c6f,rev?*%
%TF.SameCoordinates,Original*%
%TF.FileFunction,Legend,Bot*%
%TF.FilePolarity,Positive*%
%FSLAX46Y46*%
G04 Gerber Fmt 4.6, Leading zero omitted, Abs format (unit mm)*
G04 Created by KiCad (PCBNEW (5.1.12)-1) date 2022-05-06 09:07:05*
%MOMM*%
%LPD*%
G01*
G04 APERTURE LIST*
%ADD10C,0.120000*%
%ADD11C,0.150000*%
%ADD12R,0.900000X1.200000*%
%ADD13C,1.600000*%
%ADD14R,1.600000X1.600000*%
%ADD15C,3.900000*%
%ADD16C,2.250000*%
%ADD17R,1.800000X1.800000*%
%ADD18C,1.800000*%
%ADD19C,1.500000*%
%ADD20R,1.500000X1.500000*%
%ADD21O,1.600000X1.600000*%
%ADD22C,6.000000*%
%ADD23C,3.400000*%
G04 APERTURE END LIST*
D10*
%TO.C,D1*%
X161250000Y-130500000D02*
X157350000Y-130500000D01*
X161250000Y-132500000D02*
X157350000Y-132500000D01*
X161250000Y-130500000D02*
X161250000Y-132500000D01*
%TO.C,R17*%
X196702000Y-115350936D02*
X196702000Y-116805064D01*
X198522000Y-115350936D02*
X198522000Y-116805064D01*
%TO.C,D2*%
X166460000Y-116545000D02*
X166460000Y-113455000D01*
X171520000Y-115000000D02*
G75*
G03*
X171520000Y-115000000I-2500000J0D01*
G01*
X172010000Y-114999538D02*
G75*
G02*
X166460000Y-116544830I-2990000J-462D01*
G01*
X172010000Y-115000462D02*
G75*
G03*
X166460000Y-113455170I-2990000J462D01*
G01*
%TO.C,R18*%
X165090000Y-120272936D02*
X165090000Y-121727064D01*
X166910000Y-120272936D02*
X166910000Y-121727064D01*
%TO.C,R19*%
X166272936Y-133090000D02*
X167727064Y-133090000D01*
X166272936Y-134910000D02*
X167727064Y-134910000D01*
%TO.C,R20*%
X178910000Y-137727064D02*
X178910000Y-136272936D01*
X177090000Y-137727064D02*
X177090000Y-136272936D01*
%TO.C,R21*%
X160239064Y-123338000D02*
X158784936Y-123338000D01*
X160239064Y-121518000D02*
X158784936Y-121518000D01*
%TO.C,R22*%
X189227064Y-124160000D02*
X187772936Y-124160000D01*
X189227064Y-122340000D02*
X187772936Y-122340000D01*
%TO.C,R23*%
X165090000Y-130727064D02*
X165090000Y-129272936D01*
X166910000Y-130727064D02*
X166910000Y-129272936D01*
%TO.C,R24*%
X166727064Y-126910000D02*
X165272936Y-126910000D01*
X166727064Y-125090000D02*
X165272936Y-125090000D01*
%TO.C,R25*%
X185962936Y-144166000D02*
X187417064Y-144166000D01*
X185962936Y-142346000D02*
X187417064Y-142346000D01*
%TO.C,R26*%
X163090000Y-138727064D02*
X163090000Y-137272936D01*
X164910000Y-138727064D02*
X164910000Y-137272936D01*
%TO.C,R27*%
X155482936Y-144420000D02*
X156937064Y-144420000D01*
X155482936Y-142600000D02*
X156937064Y-142600000D01*
%TO.C,R28*%
X177727064Y-132090000D02*
X176272936Y-132090000D01*
X177727064Y-133910000D02*
X176272936Y-133910000D01*
%TO.C,R29*%
X171727064Y-143090000D02*
X170272936Y-143090000D01*
X171727064Y-144910000D02*
X170272936Y-144910000D01*
%TO.C,R30*%
X161763064Y-114448000D02*
X160308936Y-114448000D01*
X161763064Y-112628000D02*
X160308936Y-112628000D01*
%TO.C,U2*%
X172000000Y-131435000D02*
X168550000Y-131435000D01*
X172000000Y-131435000D02*
X173950000Y-131435000D01*
X172000000Y-122565000D02*
X170050000Y-122565000D01*
X172000000Y-122565000D02*
X173950000Y-122565000D01*
%TO.C,U3*%
X172000000Y-135440000D02*
X175450000Y-135440000D01*
X172000000Y-135440000D02*
X170050000Y-135440000D01*
X172000000Y-140560000D02*
X173950000Y-140560000D01*
X172000000Y-140560000D02*
X170050000Y-140560000D01*
%TO.C,D1*%
D11*
X159738095Y-129452380D02*
X159738095Y-128452380D01*
X159500000Y-128452380D01*
X159357142Y-128500000D01*
X159261904Y-128595238D01*
X159214285Y-128690476D01*
X159166666Y-128880952D01*
X159166666Y-129023809D01*
X159214285Y-129214285D01*
X159261904Y-129309523D01*
X159357142Y-129404761D01*
X159500000Y-129452380D01*
X159738095Y-129452380D01*
X158214285Y-129452380D02*
X158785714Y-129452380D01*
X158500000Y-129452380D02*
X158500000Y-128452380D01*
X158595238Y-128595238D01*
X158690476Y-128690476D01*
X158785714Y-128738095D01*
%TO.C,R17*%
X196244380Y-115435142D02*
X195768190Y-115101809D01*
X196244380Y-114863714D02*
X195244380Y-114863714D01*
X195244380Y-115244666D01*
X195292000Y-115339904D01*
X195339619Y-115387523D01*
X195434857Y-115435142D01*
X195577714Y-115435142D01*
X195672952Y-115387523D01*
X195720571Y-115339904D01*
X195768190Y-115244666D01*
X195768190Y-114863714D01*
X196244380Y-116387523D02*
X196244380Y-115816095D01*
X196244380Y-116101809D02*
X195244380Y-116101809D01*
X195387238Y-116006571D01*
X195482476Y-115911333D01*
X195530095Y-115816095D01*
X195244380Y-116720857D02*
X195244380Y-117387523D01*
X196244380Y-116958952D01*
%TO.C,D2*%
X169758095Y-119412380D02*
X169758095Y-118412380D01*
X169520000Y-118412380D01*
X169377142Y-118460000D01*
X169281904Y-118555238D01*
X169234285Y-118650476D01*
X169186666Y-118840952D01*
X169186666Y-118983809D01*
X169234285Y-119174285D01*
X169281904Y-119269523D01*
X169377142Y-119364761D01*
X169520000Y-119412380D01*
X169758095Y-119412380D01*
X168805714Y-118507619D02*
X168758095Y-118460000D01*
X168662857Y-118412380D01*
X168424761Y-118412380D01*
X168329523Y-118460000D01*
X168281904Y-118507619D01*
X168234285Y-118602857D01*
X168234285Y-118698095D01*
X168281904Y-118840952D01*
X168853333Y-119412380D01*
X168234285Y-119412380D01*
%TO.C,R18*%
X164632380Y-120357142D02*
X164156190Y-120023809D01*
X164632380Y-119785714D02*
X163632380Y-119785714D01*
X163632380Y-120166666D01*
X163680000Y-120261904D01*
X163727619Y-120309523D01*
X163822857Y-120357142D01*
X163965714Y-120357142D01*
X164060952Y-120309523D01*
X164108571Y-120261904D01*
X164156190Y-120166666D01*
X164156190Y-119785714D01*
X164632380Y-121309523D02*
X164632380Y-120738095D01*
X164632380Y-121023809D02*
X163632380Y-121023809D01*
X163775238Y-120928571D01*
X163870476Y-120833333D01*
X163918095Y-120738095D01*
X164060952Y-121880952D02*
X164013333Y-121785714D01*
X163965714Y-121738095D01*
X163870476Y-121690476D01*
X163822857Y-121690476D01*
X163727619Y-121738095D01*
X163680000Y-121785714D01*
X163632380Y-121880952D01*
X163632380Y-122071428D01*
X163680000Y-122166666D01*
X163727619Y-122214285D01*
X163822857Y-122261904D01*
X163870476Y-122261904D01*
X163965714Y-122214285D01*
X164013333Y-122166666D01*
X164060952Y-122071428D01*
X164060952Y-121880952D01*
X164108571Y-121785714D01*
X164156190Y-121738095D01*
X164251428Y-121690476D01*
X164441904Y-121690476D01*
X164537142Y-121738095D01*
X164584761Y-121785714D01*
X164632380Y-121880952D01*
X164632380Y-122071428D01*
X164584761Y-122166666D01*
X164537142Y-122214285D01*
X164441904Y-122261904D01*
X164251428Y-122261904D01*
X164156190Y-122214285D01*
X164108571Y-122166666D01*
X164060952Y-122071428D01*
%TO.C,R19*%
X167642857Y-136272380D02*
X167976190Y-135796190D01*
X168214285Y-136272380D02*
X168214285Y-135272380D01*
X167833333Y-135272380D01*
X167738095Y-135320000D01*
X167690476Y-135367619D01*
X167642857Y-135462857D01*
X167642857Y-135605714D01*
X167690476Y-135700952D01*
X167738095Y-135748571D01*
X167833333Y-135796190D01*
X168214285Y-135796190D01*
X166690476Y-136272380D02*
X167261904Y-136272380D01*
X166976190Y-136272380D02*
X166976190Y-135272380D01*
X167071428Y-135415238D01*
X167166666Y-135510476D01*
X167261904Y-135558095D01*
X166214285Y-136272380D02*
X166023809Y-136272380D01*
X165928571Y-136224761D01*
X165880952Y-136177142D01*
X165785714Y-136034285D01*
X165738095Y-135843809D01*
X165738095Y-135462857D01*
X165785714Y-135367619D01*
X165833333Y-135320000D01*
X165928571Y-135272380D01*
X166119047Y-135272380D01*
X166214285Y-135320000D01*
X166261904Y-135367619D01*
X166309523Y-135462857D01*
X166309523Y-135700952D01*
X166261904Y-135796190D01*
X166214285Y-135843809D01*
X166119047Y-135891428D01*
X165928571Y-135891428D01*
X165833333Y-135843809D01*
X165785714Y-135796190D01*
X165738095Y-135700952D01*
%TO.C,R20*%
X180272380Y-136357142D02*
X179796190Y-136023809D01*
X180272380Y-135785714D02*
X179272380Y-135785714D01*
X179272380Y-136166666D01*
X179320000Y-136261904D01*
X179367619Y-136309523D01*
X179462857Y-136357142D01*
X179605714Y-136357142D01*
X179700952Y-136309523D01*
X179748571Y-136261904D01*
X179796190Y-136166666D01*
X179796190Y-135785714D01*
X179367619Y-136738095D02*
X179320000Y-136785714D01*
X179272380Y-136880952D01*
X179272380Y-137119047D01*
X179320000Y-137214285D01*
X179367619Y-137261904D01*
X179462857Y-137309523D01*
X179558095Y-137309523D01*
X179700952Y-137261904D01*
X180272380Y-136690476D01*
X180272380Y-137309523D01*
X179272380Y-137928571D02*
X179272380Y-138023809D01*
X179320000Y-138119047D01*
X179367619Y-138166666D01*
X179462857Y-138214285D01*
X179653333Y-138261904D01*
X179891428Y-138261904D01*
X180081904Y-138214285D01*
X180177142Y-138166666D01*
X180224761Y-138119047D01*
X180272380Y-138023809D01*
X180272380Y-137928571D01*
X180224761Y-137833333D01*
X180177142Y-137785714D01*
X180081904Y-137738095D01*
X179891428Y-137690476D01*
X179653333Y-137690476D01*
X179462857Y-137738095D01*
X179367619Y-137785714D01*
X179320000Y-137833333D01*
X179272380Y-137928571D01*
%TO.C,R21*%
X160154857Y-121060380D02*
X160488190Y-120584190D01*
X160726285Y-121060380D02*
X160726285Y-120060380D01*
X160345333Y-120060380D01*
X160250095Y-120108000D01*
X160202476Y-120155619D01*
X160154857Y-120250857D01*
X160154857Y-120393714D01*
X160202476Y-120488952D01*
X160250095Y-120536571D01*
X160345333Y-120584190D01*
X160726285Y-120584190D01*
X159773904Y-120155619D02*
X159726285Y-120108000D01*
X159631047Y-120060380D01*
X159392952Y-120060380D01*
X159297714Y-120108000D01*
X159250095Y-120155619D01*
X159202476Y-120250857D01*
X159202476Y-120346095D01*
X159250095Y-120488952D01*
X159821523Y-121060380D01*
X159202476Y-121060380D01*
X158250095Y-121060380D02*
X158821523Y-121060380D01*
X158535809Y-121060380D02*
X158535809Y-120060380D01*
X158631047Y-120203238D01*
X158726285Y-120298476D01*
X158821523Y-120346095D01*
%TO.C,R22*%
X189142857Y-121882380D02*
X189476190Y-121406190D01*
X189714285Y-121882380D02*
X189714285Y-120882380D01*
X189333333Y-120882380D01*
X189238095Y-120930000D01*
X189190476Y-120977619D01*
X189142857Y-121072857D01*
X189142857Y-121215714D01*
X189190476Y-121310952D01*
X189238095Y-121358571D01*
X189333333Y-121406190D01*
X189714285Y-121406190D01*
X188761904Y-120977619D02*
X188714285Y-120930000D01*
X188619047Y-120882380D01*
X188380952Y-120882380D01*
X188285714Y-120930000D01*
X188238095Y-120977619D01*
X188190476Y-121072857D01*
X188190476Y-121168095D01*
X188238095Y-121310952D01*
X188809523Y-121882380D01*
X188190476Y-121882380D01*
X187809523Y-120977619D02*
X187761904Y-120930000D01*
X187666666Y-120882380D01*
X187428571Y-120882380D01*
X187333333Y-120930000D01*
X187285714Y-120977619D01*
X187238095Y-121072857D01*
X187238095Y-121168095D01*
X187285714Y-121310952D01*
X187857142Y-121882380D01*
X187238095Y-121882380D01*
%TO.C,R23*%
X168272380Y-129357142D02*
X167796190Y-129023809D01*
X168272380Y-128785714D02*
X167272380Y-128785714D01*
X167272380Y-129166666D01*
X167320000Y-129261904D01*
X167367619Y-129309523D01*
X167462857Y-129357142D01*
X167605714Y-129357142D01*
X167700952Y-129309523D01*
X167748571Y-129261904D01*
X167796190Y-129166666D01*
X167796190Y-128785714D01*
X167367619Y-129738095D02*
X167320000Y-129785714D01*
X167272380Y-129880952D01*
X167272380Y-130119047D01*
X167320000Y-130214285D01*
X167367619Y-130261904D01*
X167462857Y-130309523D01*
X167558095Y-130309523D01*
X167700952Y-130261904D01*
X168272380Y-129690476D01*
X168272380Y-130309523D01*
X167272380Y-130642857D02*
X167272380Y-131261904D01*
X167653333Y-130928571D01*
X167653333Y-131071428D01*
X167700952Y-131166666D01*
X167748571Y-131214285D01*
X167843809Y-131261904D01*
X168081904Y-131261904D01*
X168177142Y-131214285D01*
X168224761Y-131166666D01*
X168272380Y-131071428D01*
X168272380Y-130785714D01*
X168224761Y-130690476D01*
X168177142Y-130642857D01*
%TO.C,R24*%
X166642857Y-124632380D02*
X166976190Y-124156190D01*
X167214285Y-124632380D02*
X167214285Y-123632380D01*
X166833333Y-123632380D01*
X166738095Y-123680000D01*
X166690476Y-123727619D01*
X166642857Y-123822857D01*
X166642857Y-123965714D01*
X166690476Y-124060952D01*
X166738095Y-124108571D01*
X166833333Y-124156190D01*
X167214285Y-124156190D01*
X166261904Y-123727619D02*
X166214285Y-123680000D01*
X166119047Y-123632380D01*
X165880952Y-123632380D01*
X165785714Y-123680000D01*
X165738095Y-123727619D01*
X165690476Y-123822857D01*
X165690476Y-123918095D01*
X165738095Y-124060952D01*
X166309523Y-124632380D01*
X165690476Y-124632380D01*
X164833333Y-123965714D02*
X164833333Y-124632380D01*
X165071428Y-123584761D02*
X165309523Y-124299047D01*
X164690476Y-124299047D01*
%TO.C,R25*%
X187332857Y-145528380D02*
X187666190Y-145052190D01*
X187904285Y-145528380D02*
X187904285Y-144528380D01*
X187523333Y-144528380D01*
X187428095Y-144576000D01*
X187380476Y-144623619D01*
X187332857Y-144718857D01*
X187332857Y-144861714D01*
X187380476Y-144956952D01*
X187428095Y-145004571D01*
X187523333Y-145052190D01*
X187904285Y-145052190D01*
X186951904Y-144623619D02*
X186904285Y-144576000D01*
X186809047Y-144528380D01*
X186570952Y-144528380D01*
X186475714Y-144576000D01*
X186428095Y-144623619D01*
X186380476Y-144718857D01*
X186380476Y-144814095D01*
X186428095Y-144956952D01*
X186999523Y-145528380D01*
X186380476Y-145528380D01*
X185475714Y-144528380D02*
X185951904Y-144528380D01*
X185999523Y-145004571D01*
X185951904Y-144956952D01*
X185856666Y-144909333D01*
X185618571Y-144909333D01*
X185523333Y-144956952D01*
X185475714Y-145004571D01*
X185428095Y-145099809D01*
X185428095Y-145337904D01*
X185475714Y-145433142D01*
X185523333Y-145480761D01*
X185618571Y-145528380D01*
X185856666Y-145528380D01*
X185951904Y-145480761D01*
X185999523Y-145433142D01*
%TO.C,R26*%
X166272380Y-137357142D02*
X165796190Y-137023809D01*
X166272380Y-136785714D02*
X165272380Y-136785714D01*
X165272380Y-137166666D01*
X165320000Y-137261904D01*
X165367619Y-137309523D01*
X165462857Y-137357142D01*
X165605714Y-137357142D01*
X165700952Y-137309523D01*
X165748571Y-137261904D01*
X165796190Y-137166666D01*
X165796190Y-136785714D01*
X165367619Y-137738095D02*
X165320000Y-137785714D01*
X165272380Y-137880952D01*
X165272380Y-138119047D01*
X165320000Y-138214285D01*
X165367619Y-138261904D01*
X165462857Y-138309523D01*
X165558095Y-138309523D01*
X165700952Y-138261904D01*
X166272380Y-137690476D01*
X166272380Y-138309523D01*
X165272380Y-139166666D02*
X165272380Y-138976190D01*
X165320000Y-138880952D01*
X165367619Y-138833333D01*
X165510476Y-138738095D01*
X165700952Y-138690476D01*
X166081904Y-138690476D01*
X166177142Y-138738095D01*
X166224761Y-138785714D01*
X166272380Y-138880952D01*
X166272380Y-139071428D01*
X166224761Y-139166666D01*
X166177142Y-139214285D01*
X166081904Y-139261904D01*
X165843809Y-139261904D01*
X165748571Y-139214285D01*
X165700952Y-139166666D01*
X165653333Y-139071428D01*
X165653333Y-138880952D01*
X165700952Y-138785714D01*
X165748571Y-138738095D01*
X165843809Y-138690476D01*
%TO.C,R27*%
X156852857Y-145782380D02*
X157186190Y-145306190D01*
X157424285Y-145782380D02*
X157424285Y-144782380D01*
X157043333Y-144782380D01*
X156948095Y-144830000D01*
X156900476Y-144877619D01*
X156852857Y-144972857D01*
X156852857Y-145115714D01*
X156900476Y-145210952D01*
X156948095Y-145258571D01*
X157043333Y-145306190D01*
X157424285Y-145306190D01*
X156471904Y-144877619D02*
X156424285Y-144830000D01*
X156329047Y-144782380D01*
X156090952Y-144782380D01*
X155995714Y-144830000D01*
X155948095Y-144877619D01*
X155900476Y-144972857D01*
X155900476Y-145068095D01*
X155948095Y-145210952D01*
X156519523Y-145782380D01*
X155900476Y-145782380D01*
X155567142Y-144782380D02*
X154900476Y-144782380D01*
X155329047Y-145782380D01*
%TO.C,R28*%
X177642857Y-131632380D02*
X177976190Y-131156190D01*
X178214285Y-131632380D02*
X178214285Y-130632380D01*
X177833333Y-130632380D01*
X177738095Y-130680000D01*
X177690476Y-130727619D01*
X177642857Y-130822857D01*
X177642857Y-130965714D01*
X177690476Y-131060952D01*
X177738095Y-131108571D01*
X177833333Y-131156190D01*
X178214285Y-131156190D01*
X177261904Y-130727619D02*
X177214285Y-130680000D01*
X177119047Y-130632380D01*
X176880952Y-130632380D01*
X176785714Y-130680000D01*
X176738095Y-130727619D01*
X176690476Y-130822857D01*
X176690476Y-130918095D01*
X176738095Y-131060952D01*
X177309523Y-131632380D01*
X176690476Y-131632380D01*
X176119047Y-131060952D02*
X176214285Y-131013333D01*
X176261904Y-130965714D01*
X176309523Y-130870476D01*
X176309523Y-130822857D01*
X176261904Y-130727619D01*
X176214285Y-130680000D01*
X176119047Y-130632380D01*
X175928571Y-130632380D01*
X175833333Y-130680000D01*
X175785714Y-130727619D01*
X175738095Y-130822857D01*
X175738095Y-130870476D01*
X175785714Y-130965714D01*
X175833333Y-131013333D01*
X175928571Y-131060952D01*
X176119047Y-131060952D01*
X176214285Y-131108571D01*
X176261904Y-131156190D01*
X176309523Y-131251428D01*
X176309523Y-131441904D01*
X176261904Y-131537142D01*
X176214285Y-131584761D01*
X176119047Y-131632380D01*
X175928571Y-131632380D01*
X175833333Y-131584761D01*
X175785714Y-131537142D01*
X175738095Y-131441904D01*
X175738095Y-131251428D01*
X175785714Y-131156190D01*
X175833333Y-131108571D01*
X175928571Y-131060952D01*
%TO.C,R29*%
X171642857Y-142632380D02*
X171976190Y-142156190D01*
X172214285Y-142632380D02*
X172214285Y-141632380D01*
X171833333Y-141632380D01*
X171738095Y-141680000D01*
X171690476Y-141727619D01*
X171642857Y-141822857D01*
X171642857Y-141965714D01*
X171690476Y-142060952D01*
X171738095Y-142108571D01*
X171833333Y-142156190D01*
X172214285Y-142156190D01*
X171261904Y-141727619D02*
X171214285Y-141680000D01*
X171119047Y-141632380D01*
X170880952Y-141632380D01*
X170785714Y-141680000D01*
X170738095Y-141727619D01*
X170690476Y-141822857D01*
X170690476Y-141918095D01*
X170738095Y-142060952D01*
X171309523Y-142632380D01*
X170690476Y-142632380D01*
X170214285Y-142632380D02*
X170023809Y-142632380D01*
X169928571Y-142584761D01*
X169880952Y-142537142D01*
X169785714Y-142394285D01*
X169738095Y-142203809D01*
X169738095Y-141822857D01*
X169785714Y-141727619D01*
X169833333Y-141680000D01*
X169928571Y-141632380D01*
X170119047Y-141632380D01*
X170214285Y-141680000D01*
X170261904Y-141727619D01*
X170309523Y-141822857D01*
X170309523Y-142060952D01*
X170261904Y-142156190D01*
X170214285Y-142203809D01*
X170119047Y-142251428D01*
X169928571Y-142251428D01*
X169833333Y-142203809D01*
X169785714Y-142156190D01*
X169738095Y-142060952D01*
%TO.C,R30*%
X161678857Y-112170380D02*
X162012190Y-111694190D01*
X162250285Y-112170380D02*
X162250285Y-111170380D01*
X161869333Y-111170380D01*
X161774095Y-111218000D01*
X161726476Y-111265619D01*
X161678857Y-111360857D01*
X161678857Y-111503714D01*
X161726476Y-111598952D01*
X161774095Y-111646571D01*
X161869333Y-111694190D01*
X162250285Y-111694190D01*
X161345523Y-111170380D02*
X160726476Y-111170380D01*
X161059809Y-111551333D01*
X160916952Y-111551333D01*
X160821714Y-111598952D01*
X160774095Y-111646571D01*
X160726476Y-111741809D01*
X160726476Y-111979904D01*
X160774095Y-112075142D01*
X160821714Y-112122761D01*
X160916952Y-112170380D01*
X161202666Y-112170380D01*
X161297904Y-112122761D01*
X161345523Y-112075142D01*
X160107428Y-111170380D02*
X160012190Y-111170380D01*
X159916952Y-111218000D01*
X159869333Y-111265619D01*
X159821714Y-111360857D01*
X159774095Y-111551333D01*
X159774095Y-111789428D01*
X159821714Y-111979904D01*
X159869333Y-112075142D01*
X159916952Y-112122761D01*
X160012190Y-112170380D01*
X160107428Y-112170380D01*
X160202666Y-112122761D01*
X160250285Y-112075142D01*
X160297904Y-111979904D01*
X160345523Y-111789428D01*
X160345523Y-111551333D01*
X160297904Y-111360857D01*
X160250285Y-111265619D01*
X160202666Y-111218000D01*
X160107428Y-111170380D01*
%TO.C,U2*%
X172761904Y-131732380D02*
X172761904Y-132541904D01*
X172714285Y-132637142D01*
X172666666Y-132684761D01*
X172571428Y-132732380D01*
X172380952Y-132732380D01*
X172285714Y-132684761D01*
X172238095Y-132637142D01*
X172190476Y-132541904D01*
X172190476Y-131732380D01*
X171761904Y-131827619D02*
X171714285Y-131780000D01*
X171619047Y-131732380D01*
X171380952Y-131732380D01*
X171285714Y-131780000D01*
X171238095Y-131827619D01*
X171190476Y-131922857D01*
X171190476Y-132018095D01*
X171238095Y-132160952D01*
X171809523Y-132732380D01*
X171190476Y-132732380D01*
%TO.C,U3*%
X172761904Y-134052380D02*
X172761904Y-134861904D01*
X172714285Y-134957142D01*
X172666666Y-135004761D01*
X172571428Y-135052380D01*
X172380952Y-135052380D01*
X172285714Y-135004761D01*
X172238095Y-134957142D01*
X172190476Y-134861904D01*
X172190476Y-134052380D01*
X171809523Y-134052380D02*
X171190476Y-134052380D01*
X171523809Y-134433333D01*
X171380952Y-134433333D01*
X171285714Y-134480952D01*
X171238095Y-134528571D01*
X171190476Y-134623809D01*
X171190476Y-134861904D01*
X171238095Y-134957142D01*
X171285714Y-135004761D01*
X171380952Y-135052380D01*
X171666666Y-135052380D01*
X171761904Y-135004761D01*
X171809523Y-134957142D01*
%TD*%
%LPC*%
D12*
%TO.C,D1*%
X157350000Y-131500000D03*
X160650000Y-131500000D03*
%TD*%
%TO.C,R17*%
G36*
G01*
X196986999Y-116978000D02*
X198237001Y-116978000D01*
G75*
G02*
X198487000Y-117227999I0J-249999D01*
G01*
X198487000Y-118028001D01*
G75*
G02*
X198237001Y-118278000I-249999J0D01*
G01*
X196986999Y-118278000D01*
G75*
G02*
X196737000Y-118028001I0J249999D01*
G01*
X196737000Y-117227999D01*
G75*
G02*
X196986999Y-116978000I249999J0D01*
G01*
G37*
G36*
G01*
X196986999Y-113878000D02*
X198237001Y-113878000D01*
G75*
G02*
X198487000Y-114127999I0J-249999D01*
G01*
X198487000Y-114928001D01*
G75*
G02*
X198237001Y-115178000I-249999J0D01*
G01*
X196986999Y-115178000D01*
G75*
G02*
X196737000Y-114928001I0J249999D01*
G01*
X196737000Y-114127999D01*
G75*
G02*
X196986999Y-113878000I249999J0D01*
G01*
G37*
%TD*%
D13*
%TO.C,C2*%
X170180000Y-84328000D03*
X170180000Y-79328000D03*
%TD*%
%TO.C,C8*%
X137668000Y-89154000D03*
X137668000Y-94154000D03*
%TD*%
%TO.C,C5*%
X140756000Y-127000000D03*
D14*
X143256000Y-127000000D03*
%TD*%
D15*
%TO.C,Intensity1*%
X203454000Y-109876000D03*
X203454000Y-117676000D03*
G36*
G01*
X205153999Y-127426000D02*
X201754001Y-127426000D01*
G75*
G02*
X201504000Y-127175999I0J250001D01*
G01*
X201504000Y-123776001D01*
G75*
G02*
X201754001Y-123526000I250001J0D01*
G01*
X205153999Y-123526000D01*
G75*
G02*
X205404000Y-123776001I0J-250001D01*
G01*
X205404000Y-127175999D01*
G75*
G02*
X205153999Y-127426000I-250001J0D01*
G01*
G37*
%TD*%
%TO.C,Rate1*%
X133096000Y-106574000D03*
X133096000Y-114374000D03*
G36*
G01*
X134795999Y-124124000D02*
X131396001Y-124124000D01*
G75*
G02*
X131146000Y-123873999I0J250001D01*
G01*
X131146000Y-120474001D01*
G75*
G02*
X131396001Y-120224000I250001J0D01*
G01*
X134795999Y-120224000D01*
G75*
G02*
X135046000Y-120474001I0J-250001D01*
G01*
X135046000Y-123873999D01*
G75*
G02*
X134795999Y-124124000I-250001J0D01*
G01*
G37*
%TD*%
D16*
%TO.C,U4*%
X191690000Y-117302000D03*
X181690000Y-117302000D03*
X191770000Y-143302000D03*
X181690000Y-143302000D03*
%TD*%
%TO.C,U5*%
X161210000Y-117556000D03*
X151210000Y-117556000D03*
X161290000Y-143556000D03*
X151210000Y-143556000D03*
%TD*%
D13*
%TO.C,C1*%
X133000000Y-93900000D03*
X133000000Y-88900000D03*
%TD*%
%TO.C,C3*%
X172500000Y-74500000D03*
D14*
X170500000Y-74500000D03*
%TD*%
D13*
%TO.C,C4*%
X169000000Y-120000000D03*
X174000000Y-120000000D03*
%TD*%
D14*
%TO.C,C6*%
X144780000Y-118364000D03*
D13*
X146780000Y-118364000D03*
%TD*%
D14*
%TO.C,C7*%
X196250000Y-123250000D03*
D13*
X196250000Y-121250000D03*
%TD*%
D17*
%TO.C,D2*%
X167750000Y-115000000D03*
D18*
X170290000Y-115000000D03*
%TD*%
%TO.C,J1*%
G36*
G01*
X137696000Y-107671999D02*
X137696000Y-104672001D01*
G75*
G02*
X137946001Y-104422000I250001J0D01*
G01*
X140945999Y-104422000D01*
G75*
G02*
X141196000Y-104672001I0J-250001D01*
G01*
X141196000Y-107671999D01*
G75*
G02*
X140945999Y-107922000I-250001J0D01*
G01*
X137946001Y-107922000D01*
G75*
G02*
X137696000Y-107671999I0J250001D01*
G01*
G37*
%TD*%
%TO.C,J2*%
G36*
G01*
X150904000Y-111989999D02*
X150904000Y-108990001D01*
G75*
G02*
X151154001Y-108740000I250001J0D01*
G01*
X154153999Y-108740000D01*
G75*
G02*
X154404000Y-108990001I0J-250001D01*
G01*
X154404000Y-111989999D01*
G75*
G02*
X154153999Y-112240000I-250001J0D01*
G01*
X151154001Y-112240000D01*
G75*
G02*
X150904000Y-111989999I0J250001D01*
G01*
G37*
%TD*%
%TO.C,J3*%
G36*
G01*
X188750000Y-108687999D02*
X188750000Y-105688001D01*
G75*
G02*
X189000001Y-105438000I250001J0D01*
G01*
X191999999Y-105438000D01*
G75*
G02*
X192250000Y-105688001I0J-250001D01*
G01*
X192250000Y-108687999D01*
G75*
G02*
X191999999Y-108938000I-250001J0D01*
G01*
X189000001Y-108938000D01*
G75*
G02*
X188750000Y-108687999I0J250001D01*
G01*
G37*
%TD*%
%TO.C,J4*%
G36*
G01*
X140744000Y-114021999D02*
X140744000Y-111022001D01*
G75*
G02*
X140994001Y-110772000I250001J0D01*
G01*
X143993999Y-110772000D01*
G75*
G02*
X144244000Y-111022001I0J-250001D01*
G01*
X144244000Y-114021999D01*
G75*
G02*
X143993999Y-114272000I-250001J0D01*
G01*
X140994001Y-114272000D01*
G75*
G02*
X140744000Y-114021999I0J250001D01*
G01*
G37*
%TD*%
%TO.C,J5*%
G36*
G01*
X131250000Y-100813999D02*
X131250000Y-97814001D01*
G75*
G02*
X131500001Y-97564000I250001J0D01*
G01*
X134499999Y-97564000D01*
G75*
G02*
X134750000Y-97814001I0J-250001D01*
G01*
X134750000Y-100813999D01*
G75*
G02*
X134499999Y-101064000I-250001J0D01*
G01*
X131500001Y-101064000D01*
G75*
G02*
X131250000Y-100813999I0J250001D01*
G01*
G37*
%TD*%
%TO.C,J6*%
G36*
G01*
X179250000Y-75999999D02*
X179250000Y-73000001D01*
G75*
G02*
X179500001Y-72750000I250001J0D01*
G01*
X182499999Y-72750000D01*
G75*
G02*
X182750000Y-73000001I0J-250001D01*
G01*
X182750000Y-75999999D01*
G75*
G02*
X182499999Y-76250000I-250001J0D01*
G01*
X179500001Y-76250000D01*
G75*
G02*
X179250000Y-75999999I0J250001D01*
G01*
G37*
%TD*%
%TO.C,J7*%
G36*
G01*
X161750000Y-74249999D02*
X161750000Y-71250001D01*
G75*
G02*
X162000001Y-71000000I250001J0D01*
G01*
X164999999Y-71000000D01*
G75*
G02*
X165250000Y-71250001I0J-250001D01*
G01*
X165250000Y-74249999D01*
G75*
G02*
X164999999Y-74500000I-250001J0D01*
G01*
X162000001Y-74500000D01*
G75*
G02*
X161750000Y-74249999I0J250001D01*
G01*
G37*
%TD*%
D19*
%TO.C,Q1*%
X151000000Y-79540000D03*
X151000000Y-82080000D03*
D20*
X151000000Y-77000000D03*
%TD*%
D21*
%TO.C,R1*%
X152908000Y-90678000D03*
D13*
X152908000Y-100838000D03*
%TD*%
%TO.C,R2*%
G36*
G01*
X140193480Y-84596520D02*
X140193480Y-84596520D01*
G75*
G02*
X140193480Y-85727890I-565685J-565685D01*
G01*
X140193480Y-85727890D01*
G75*
G02*
X139062110Y-85727890I-565685J565685D01*
G01*
X139062110Y-85727890D01*
G75*
G02*
X139062110Y-84596520I565685J565685D01*
G01*
X139062110Y-84596520D01*
G75*
G02*
X140193480Y-84596520I565685J-565685D01*
G01*
G37*
X146812000Y-77978000D03*
%TD*%
%TO.C,R3*%
X147574000Y-89916000D03*
D21*
X147574000Y-100076000D03*
%TD*%
%TO.C,R4*%
X173482000Y-112268000D03*
D13*
X183642000Y-112268000D03*
%TD*%
%TO.C,R5*%
X173990000Y-80010000D03*
D21*
X184150000Y-80010000D03*
%TD*%
%TO.C,R6*%
X152400000Y-86614000D03*
D13*
X142240000Y-86614000D03*
%TD*%
D21*
%TO.C,R7*%
X142240000Y-89662000D03*
D13*
X142240000Y-99822000D03*
%TD*%
D21*
%TO.C,R8*%
X167090000Y-107250000D03*
D13*
X177250000Y-107250000D03*
%TD*%
%TO.C,R9*%
X187706000Y-80010000D03*
G36*
G01*
X194324520Y-86628520D02*
X194324520Y-86628520D01*
G75*
G02*
X195455890Y-86628520I565685J-565685D01*
G01*
X195455890Y-86628520D01*
G75*
G02*
X195455890Y-87759890I-565685J-565685D01*
G01*
X195455890Y-87759890D01*
G75*
G02*
X194324520Y-87759890I-565685J565685D01*
G01*
X194324520Y-87759890D01*
G75*
G02*
X194324520Y-86628520I565685J565685D01*
G01*
G37*
%TD*%
%TO.C,R10*%
X136652000Y-82042000D03*
G36*
G01*
X143270520Y-75423480D02*
X143270520Y-75423480D01*
G75*
G02*
X143270520Y-74292110I565685J565685D01*
G01*
X143270520Y-74292110D01*
G75*
G02*
X144401890Y-74292110I565685J-565685D01*
G01*
X144401890Y-74292110D01*
G75*
G02*
X144401890Y-75423480I-565685J-565685D01*
G01*
X144401890Y-75423480D01*
G75*
G02*
X143270520Y-75423480I-565685J565685D01*
G01*
G37*
%TD*%
D21*
%TO.C,R11*%
X166160000Y-79000000D03*
D13*
X156000000Y-79000000D03*
%TD*%
D21*
%TO.C,R12*%
X198160000Y-94000000D03*
D13*
X188000000Y-94000000D03*
%TD*%
%TO.C,R13*%
X166370000Y-84582000D03*
D21*
X156210000Y-84582000D03*
%TD*%
D13*
%TO.C,R14*%
X156464000Y-95758000D03*
D21*
X166624000Y-95758000D03*
%TD*%
D13*
%TO.C,R15*%
X187452000Y-99822000D03*
D21*
X197612000Y-99822000D03*
%TD*%
D13*
%TO.C,R16*%
X156464000Y-90424000D03*
D21*
X166624000Y-90424000D03*
%TD*%
%TO.C,R18*%
G36*
G01*
X165374999Y-121900000D02*
X166625001Y-121900000D01*
G75*
G02*
X166875000Y-122149999I0J-249999D01*
G01*
X166875000Y-122950001D01*
G75*
G02*
X166625001Y-123200000I-249999J0D01*
G01*
X165374999Y-123200000D01*
G75*
G02*
X165125000Y-122950001I0J249999D01*
G01*
X165125000Y-122149999D01*
G75*
G02*
X165374999Y-121900000I249999J0D01*
G01*
G37*
G36*
G01*
X165374999Y-118800000D02*
X166625001Y-118800000D01*
G75*
G02*
X166875000Y-119049999I0J-249999D01*
G01*
X166875000Y-119850001D01*
G75*
G02*
X166625001Y-120100000I-249999J0D01*
G01*
X165374999Y-120100000D01*
G75*
G02*
X165125000Y-119850001I0J249999D01*
G01*
X165125000Y-119049999D01*
G75*
G02*
X165374999Y-118800000I249999J0D01*
G01*
G37*
%TD*%
%TO.C,R19*%
G36*
G01*
X164800000Y-134625001D02*
X164800000Y-133374999D01*
G75*
G02*
X165049999Y-133125000I249999J0D01*
G01*
X165850001Y-133125000D01*
G75*
G02*
X166100000Y-133374999I0J-249999D01*
G01*
X166100000Y-134625001D01*
G75*
G02*
X165850001Y-134875000I-249999J0D01*
G01*
X165049999Y-134875000D01*
G75*
G02*
X164800000Y-134625001I0J249999D01*
G01*
G37*
G36*
G01*
X167900000Y-134625001D02*
X167900000Y-133374999D01*
G75*
G02*
X168149999Y-133125000I249999J0D01*
G01*
X168950001Y-133125000D01*
G75*
G02*
X169200000Y-133374999I0J-249999D01*
G01*
X169200000Y-134625001D01*
G75*
G02*
X168950001Y-134875000I-249999J0D01*
G01*
X168149999Y-134875000D01*
G75*
G02*
X167900000Y-134625001I0J249999D01*
G01*
G37*
%TD*%
%TO.C,R20*%
G36*
G01*
X178625001Y-136100000D02*
X177374999Y-136100000D01*
G75*
G02*
X177125000Y-135850001I0J249999D01*
G01*
X177125000Y-135049999D01*
G75*
G02*
X177374999Y-134800000I249999J0D01*
G01*
X178625001Y-134800000D01*
G75*
G02*
X178875000Y-135049999I0J-249999D01*
G01*
X178875000Y-135850001D01*
G75*
G02*
X178625001Y-136100000I-249999J0D01*
G01*
G37*
G36*
G01*
X178625001Y-139200000D02*
X177374999Y-139200000D01*
G75*
G02*
X177125000Y-138950001I0J249999D01*
G01*
X177125000Y-138149999D01*
G75*
G02*
X177374999Y-137900000I249999J0D01*
G01*
X178625001Y-137900000D01*
G75*
G02*
X178875000Y-138149999I0J-249999D01*
G01*
X178875000Y-138950001D01*
G75*
G02*
X178625001Y-139200000I-249999J0D01*
G01*
G37*
%TD*%
%TO.C,R21*%
G36*
G01*
X161712000Y-121802999D02*
X161712000Y-123053001D01*
G75*
G02*
X161462001Y-123303000I-249999J0D01*
G01*
X160661999Y-123303000D01*
G75*
G02*
X160412000Y-123053001I0J249999D01*
G01*
X160412000Y-121802999D01*
G75*
G02*
X160661999Y-121553000I249999J0D01*
G01*
X161462001Y-121553000D01*
G75*
G02*
X161712000Y-121802999I0J-249999D01*
G01*
G37*
G36*
G01*
X158612000Y-121802999D02*
X158612000Y-123053001D01*
G75*
G02*
X158362001Y-123303000I-249999J0D01*
G01*
X157561999Y-123303000D01*
G75*
G02*
X157312000Y-123053001I0J249999D01*
G01*
X157312000Y-121802999D01*
G75*
G02*
X157561999Y-121553000I249999J0D01*
G01*
X158362001Y-121553000D01*
G75*
G02*
X158612000Y-121802999I0J-249999D01*
G01*
G37*
%TD*%
%TO.C,R22*%
G36*
G01*
X190700000Y-122624999D02*
X190700000Y-123875001D01*
G75*
G02*
X190450001Y-124125000I-249999J0D01*
G01*
X189649999Y-124125000D01*
G75*
G02*
X189400000Y-123875001I0J249999D01*
G01*
X189400000Y-122624999D01*
G75*
G02*
X189649999Y-122375000I249999J0D01*
G01*
X190450001Y-122375000D01*
G75*
G02*
X190700000Y-122624999I0J-249999D01*
G01*
G37*
G36*
G01*
X187600000Y-122624999D02*
X187600000Y-123875001D01*
G75*
G02*
X187350001Y-124125000I-249999J0D01*
G01*
X186549999Y-124125000D01*
G75*
G02*
X186300000Y-123875001I0J249999D01*
G01*
X186300000Y-122624999D01*
G75*
G02*
X186549999Y-122375000I249999J0D01*
G01*
X187350001Y-122375000D01*
G75*
G02*
X187600000Y-122624999I0J-249999D01*
G01*
G37*
%TD*%
%TO.C,R23*%
G36*
G01*
X166625001Y-132200000D02*
X165374999Y-132200000D01*
G75*
G02*
X165125000Y-131950001I0J249999D01*
G01*
X165125000Y-131149999D01*
G75*
G02*
X165374999Y-130900000I249999J0D01*
G01*
X166625001Y-130900000D01*
G75*
G02*
X166875000Y-131149999I0J-249999D01*
G01*
X166875000Y-131950001D01*
G75*
G02*
X166625001Y-132200000I-249999J0D01*
G01*
G37*
G36*
G01*
X166625001Y-129100000D02*
X165374999Y-129100000D01*
G75*
G02*
X165125000Y-128850001I0J249999D01*
G01*
X165125000Y-128049999D01*
G75*
G02*
X165374999Y-127800000I249999J0D01*
G01*
X166625001Y-127800000D01*
G75*
G02*
X166875000Y-128049999I0J-249999D01*
G01*
X166875000Y-128850001D01*
G75*
G02*
X166625001Y-129100000I-249999J0D01*
G01*
G37*
%TD*%
%TO.C,R24*%
G36*
G01*
X168200000Y-125374999D02*
X168200000Y-126625001D01*
G75*
G02*
X167950001Y-126875000I-249999J0D01*
G01*
X167149999Y-126875000D01*
G75*
G02*
X166900000Y-126625001I0J249999D01*
G01*
X166900000Y-125374999D01*
G75*
G02*
X167149999Y-125125000I249999J0D01*
G01*
X167950001Y-125125000D01*
G75*
G02*
X168200000Y-125374999I0J-249999D01*
G01*
G37*
G36*
G01*
X165100000Y-125374999D02*
X165100000Y-126625001D01*
G75*
G02*
X164850001Y-126875000I-249999J0D01*
G01*
X164049999Y-126875000D01*
G75*
G02*
X163800000Y-126625001I0J249999D01*
G01*
X163800000Y-125374999D01*
G75*
G02*
X164049999Y-125125000I249999J0D01*
G01*
X164850001Y-125125000D01*
G75*
G02*
X165100000Y-125374999I0J-249999D01*
G01*
G37*
%TD*%
%TO.C,R25*%
G36*
G01*
X187590000Y-143881001D02*
X187590000Y-142630999D01*
G75*
G02*
X187839999Y-142381000I249999J0D01*
G01*
X188640001Y-142381000D01*
G75*
G02*
X188890000Y-142630999I0J-249999D01*
G01*
X188890000Y-143881001D01*
G75*
G02*
X188640001Y-144131000I-249999J0D01*
G01*
X187839999Y-144131000D01*
G75*
G02*
X187590000Y-143881001I0J249999D01*
G01*
G37*
G36*
G01*
X184490000Y-143881001D02*
X184490000Y-142630999D01*
G75*
G02*
X184739999Y-142381000I249999J0D01*
G01*
X185540001Y-142381000D01*
G75*
G02*
X185790000Y-142630999I0J-249999D01*
G01*
X185790000Y-143881001D01*
G75*
G02*
X185540001Y-144131000I-249999J0D01*
G01*
X184739999Y-144131000D01*
G75*
G02*
X184490000Y-143881001I0J249999D01*
G01*
G37*
%TD*%
%TO.C,R26*%
G36*
G01*
X164625001Y-140200000D02*
X163374999Y-140200000D01*
G75*
G02*
X163125000Y-139950001I0J249999D01*
G01*
X163125000Y-139149999D01*
G75*
G02*
X163374999Y-138900000I249999J0D01*
G01*
X164625001Y-138900000D01*
G75*
G02*
X164875000Y-139149999I0J-249999D01*
G01*
X164875000Y-139950001D01*
G75*
G02*
X164625001Y-140200000I-249999J0D01*
G01*
G37*
G36*
G01*
X164625001Y-137100000D02*
X163374999Y-137100000D01*
G75*
G02*
X163125000Y-136850001I0J249999D01*
G01*
X163125000Y-136049999D01*
G75*
G02*
X163374999Y-135800000I249999J0D01*
G01*
X164625001Y-135800000D01*
G75*
G02*
X164875000Y-136049999I0J-249999D01*
G01*
X164875000Y-136850001D01*
G75*
G02*
X164625001Y-137100000I-249999J0D01*
G01*
G37*
%TD*%
%TO.C,R27*%
G36*
G01*
X157110000Y-144135001D02*
X157110000Y-142884999D01*
G75*
G02*
X157359999Y-142635000I249999J0D01*
G01*
X158160001Y-142635000D01*
G75*
G02*
X158410000Y-142884999I0J-249999D01*
G01*
X158410000Y-144135001D01*
G75*
G02*
X158160001Y-144385000I-249999J0D01*
G01*
X157359999Y-144385000D01*
G75*
G02*
X157110000Y-144135001I0J249999D01*
G01*
G37*
G36*
G01*
X154010000Y-144135001D02*
X154010000Y-142884999D01*
G75*
G02*
X154259999Y-142635000I249999J0D01*
G01*
X155060001Y-142635000D01*
G75*
G02*
X155310000Y-142884999I0J-249999D01*
G01*
X155310000Y-144135001D01*
G75*
G02*
X155060001Y-144385000I-249999J0D01*
G01*
X154259999Y-144385000D01*
G75*
G02*
X154010000Y-144135001I0J249999D01*
G01*
G37*
%TD*%
%TO.C,R28*%
G36*
G01*
X176100000Y-132374999D02*
X176100000Y-133625001D01*
G75*
G02*
X175850001Y-133875000I-249999J0D01*
G01*
X175049999Y-133875000D01*
G75*
G02*
X174800000Y-133625001I0J249999D01*
G01*
X174800000Y-132374999D01*
G75*
G02*
X175049999Y-132125000I249999J0D01*
G01*
X175850001Y-132125000D01*
G75*
G02*
X176100000Y-132374999I0J-249999D01*
G01*
G37*
G36*
G01*
X179200000Y-132374999D02*
X179200000Y-133625001D01*
G75*
G02*
X178950001Y-133875000I-249999J0D01*
G01*
X178149999Y-133875000D01*
G75*
G02*
X177900000Y-133625001I0J249999D01*
G01*
X177900000Y-132374999D01*
G75*
G02*
X178149999Y-132125000I249999J0D01*
G01*
X178950001Y-132125000D01*
G75*
G02*
X179200000Y-132374999I0J-249999D01*
G01*
G37*
%TD*%
%TO.C,R29*%
G36*
G01*
X170100000Y-143374999D02*
X170100000Y-144625001D01*
G75*
G02*
X169850001Y-144875000I-249999J0D01*
G01*
X169049999Y-144875000D01*
G75*
G02*
X168800000Y-144625001I0J249999D01*
G01*
X168800000Y-143374999D01*
G75*
G02*
X169049999Y-143125000I249999J0D01*
G01*
X169850001Y-143125000D01*
G75*
G02*
X170100000Y-143374999I0J-249999D01*
G01*
G37*
G36*
G01*
X173200000Y-143374999D02*
X173200000Y-144625001D01*
G75*
G02*
X172950001Y-144875000I-249999J0D01*
G01*
X172149999Y-144875000D01*
G75*
G02*
X171900000Y-144625001I0J249999D01*
G01*
X171900000Y-143374999D01*
G75*
G02*
X172149999Y-143125000I249999J0D01*
G01*
X172950001Y-143125000D01*
G75*
G02*
X173200000Y-143374999I0J-249999D01*
G01*
G37*
%TD*%
%TO.C,R30*%
G36*
G01*
X163236000Y-112912999D02*
X163236000Y-114163001D01*
G75*
G02*
X162986001Y-114413000I-249999J0D01*
G01*
X162185999Y-114413000D01*
G75*
G02*
X161936000Y-114163001I0J249999D01*
G01*
X161936000Y-112912999D01*
G75*
G02*
X162185999Y-112663000I249999J0D01*
G01*
X162986001Y-112663000D01*
G75*
G02*
X163236000Y-112912999I0J-249999D01*
G01*
G37*
G36*
G01*
X160136000Y-112912999D02*
X160136000Y-114163001D01*
G75*
G02*
X159886001Y-114413000I-249999J0D01*
G01*
X159085999Y-114413000D01*
G75*
G02*
X158836000Y-114163001I0J249999D01*
G01*
X158836000Y-112912999D01*
G75*
G02*
X159085999Y-112663000I249999J0D01*
G01*
X159886001Y-112663000D01*
G75*
G02*
X160136000Y-112912999I0J-249999D01*
G01*
G37*
%TD*%
D14*
%TO.C,U1*%
X174000000Y-86000000D03*
D21*
X181620000Y-101240000D03*
X174000000Y-88540000D03*
X181620000Y-98700000D03*
X174000000Y-91080000D03*
X181620000Y-96160000D03*
X174000000Y-93620000D03*
X181620000Y-93620000D03*
X174000000Y-96160000D03*
X181620000Y-91080000D03*
X174000000Y-98700000D03*
X181620000Y-88540000D03*
X174000000Y-101240000D03*
X181620000Y-86000000D03*
%TD*%
%TO.C,U2*%
G36*
G01*
X168550000Y-130960000D02*
X168550000Y-130660000D01*
G75*
G02*
X168700000Y-130510000I150000J0D01*
G01*
X170350000Y-130510000D01*
G75*
G02*
X170500000Y-130660000I0J-150000D01*
G01*
X170500000Y-130960000D01*
G75*
G02*
X170350000Y-131110000I-150000J0D01*
G01*
X168700000Y-131110000D01*
G75*
G02*
X168550000Y-130960000I0J150000D01*
G01*
G37*
G36*
G01*
X168550000Y-129690000D02*
X168550000Y-129390000D01*
G75*
G02*
X168700000Y-129240000I150000J0D01*
G01*
X170350000Y-129240000D01*
G75*
G02*
X170500000Y-129390000I0J-150000D01*
G01*
X170500000Y-129690000D01*
G75*
G02*
X170350000Y-129840000I-150000J0D01*
G01*
X168700000Y-129840000D01*
G75*
G02*
X168550000Y-129690000I0J150000D01*
G01*
G37*
G36*
G01*
X168550000Y-128420000D02*
X168550000Y-128120000D01*
G75*
G02*
X168700000Y-127970000I150000J0D01*
G01*
X170350000Y-127970000D01*
G75*
G02*
X170500000Y-128120000I0J-150000D01*
G01*
X170500000Y-128420000D01*
G75*
G02*
X170350000Y-128570000I-150000J0D01*
G01*
X168700000Y-128570000D01*
G75*
G02*
X168550000Y-128420000I0J150000D01*
G01*
G37*
G36*
G01*
X168550000Y-127150000D02*
X168550000Y-126850000D01*
G75*
G02*
X168700000Y-126700000I150000J0D01*
G01*
X170350000Y-126700000D01*
G75*
G02*
X170500000Y-126850000I0J-150000D01*
G01*
X170500000Y-127150000D01*
G75*
G02*
X170350000Y-127300000I-150000J0D01*
G01*
X168700000Y-127300000D01*
G75*
G02*
X168550000Y-127150000I0J150000D01*
G01*
G37*
G36*
G01*
X168550000Y-125880000D02*
X168550000Y-125580000D01*
G75*
G02*
X168700000Y-125430000I150000J0D01*
G01*
X170350000Y-125430000D01*
G75*
G02*
X170500000Y-125580000I0J-150000D01*
G01*
X170500000Y-125880000D01*
G75*
G02*
X170350000Y-126030000I-150000J0D01*
G01*
X168700000Y-126030000D01*
G75*
G02*
X168550000Y-125880000I0J150000D01*
G01*
G37*
G36*
G01*
X168550000Y-124610000D02*
X168550000Y-124310000D01*
G75*
G02*
X168700000Y-124160000I150000J0D01*
G01*
X170350000Y-124160000D01*
G75*
G02*
X170500000Y-124310000I0J-150000D01*
G01*
X170500000Y-124610000D01*
G75*
G02*
X170350000Y-124760000I-150000J0D01*
G01*
X168700000Y-124760000D01*
G75*
G02*
X168550000Y-124610000I0J150000D01*
G01*
G37*
G36*
G01*
X168550000Y-123340000D02*
X168550000Y-123040000D01*
G75*
G02*
X168700000Y-122890000I150000J0D01*
G01*
X170350000Y-122890000D01*
G75*
G02*
X170500000Y-123040000I0J-150000D01*
G01*
X170500000Y-123340000D01*
G75*
G02*
X170350000Y-123490000I-150000J0D01*
G01*
X168700000Y-123490000D01*
G75*
G02*
X168550000Y-123340000I0J150000D01*
G01*
G37*
G36*
G01*
X173500000Y-123340000D02*
X173500000Y-123040000D01*
G75*
G02*
X173650000Y-122890000I150000J0D01*
G01*
X175300000Y-122890000D01*
G75*
G02*
X175450000Y-123040000I0J-150000D01*
G01*
X175450000Y-123340000D01*
G75*
G02*
X175300000Y-123490000I-150000J0D01*
G01*
X173650000Y-123490000D01*
G75*
G02*
X173500000Y-123340000I0J150000D01*
G01*
G37*
G36*
G01*
X173500000Y-124610000D02*
X173500000Y-124310000D01*
G75*
G02*
X173650000Y-124160000I150000J0D01*
G01*
X175300000Y-124160000D01*
G75*
G02*
X175450000Y-124310000I0J-150000D01*
G01*
X175450000Y-124610000D01*
G75*
G02*
X175300000Y-124760000I-150000J0D01*
G01*
X173650000Y-124760000D01*
G75*
G02*
X173500000Y-124610000I0J150000D01*
G01*
G37*
G36*
G01*
X173500000Y-125880000D02*
X173500000Y-125580000D01*
G75*
G02*
X173650000Y-125430000I150000J0D01*
G01*
X175300000Y-125430000D01*
G75*
G02*
X175450000Y-125580000I0J-150000D01*
G01*
X175450000Y-125880000D01*
G75*
G02*
X175300000Y-126030000I-150000J0D01*
G01*
X173650000Y-126030000D01*
G75*
G02*
X173500000Y-125880000I0J150000D01*
G01*
G37*
G36*
G01*
X173500000Y-127150000D02*
X173500000Y-126850000D01*
G75*
G02*
X173650000Y-126700000I150000J0D01*
G01*
X175300000Y-126700000D01*
G75*
G02*
X175450000Y-126850000I0J-150000D01*
G01*
X175450000Y-127150000D01*
G75*
G02*
X175300000Y-127300000I-150000J0D01*
G01*
X173650000Y-127300000D01*
G75*
G02*
X173500000Y-127150000I0J150000D01*
G01*
G37*
G36*
G01*
X173500000Y-128420000D02*
X173500000Y-128120000D01*
G75*
G02*
X173650000Y-127970000I150000J0D01*
G01*
X175300000Y-127970000D01*
G75*
G02*
X175450000Y-128120000I0J-150000D01*
G01*
X175450000Y-128420000D01*
G75*
G02*
X175300000Y-128570000I-150000J0D01*
G01*
X173650000Y-128570000D01*
G75*
G02*
X173500000Y-128420000I0J150000D01*
G01*
G37*
G36*
G01*
X173500000Y-129690000D02*
X173500000Y-129390000D01*
G75*
G02*
X173650000Y-129240000I150000J0D01*
G01*
X175300000Y-129240000D01*
G75*
G02*
X175450000Y-129390000I0J-150000D01*
G01*
X175450000Y-129690000D01*
G75*
G02*
X175300000Y-129840000I-150000J0D01*
G01*
X173650000Y-129840000D01*
G75*
G02*
X173500000Y-129690000I0J150000D01*
G01*
G37*
G36*
G01*
X173500000Y-130960000D02*
X173500000Y-130660000D01*
G75*
G02*
X173650000Y-130510000I150000J0D01*
G01*
X175300000Y-130510000D01*
G75*
G02*
X175450000Y-130660000I0J-150000D01*
G01*
X175450000Y-130960000D01*
G75*
G02*
X175300000Y-131110000I-150000J0D01*
G01*
X173650000Y-131110000D01*
G75*
G02*
X173500000Y-130960000I0J150000D01*
G01*
G37*
%TD*%
%TO.C,U3*%
G36*
G01*
X175450000Y-135945000D02*
X175450000Y-136245000D01*
G75*
G02*
X175300000Y-136395000I-150000J0D01*
G01*
X173650000Y-136395000D01*
G75*
G02*
X173500000Y-136245000I0J150000D01*
G01*
X173500000Y-135945000D01*
G75*
G02*
X173650000Y-135795000I150000J0D01*
G01*
X175300000Y-135795000D01*
G75*
G02*
X175450000Y-135945000I0J-150000D01*
G01*
G37*
G36*
G01*
X175450000Y-137215000D02*
X175450000Y-137515000D01*
G75*
G02*
X175300000Y-137665000I-150000J0D01*
G01*
X173650000Y-137665000D01*
G75*
G02*
X173500000Y-137515000I0J150000D01*
G01*
X173500000Y-137215000D01*
G75*
G02*
X173650000Y-137065000I150000J0D01*
G01*
X175300000Y-137065000D01*
G75*
G02*
X175450000Y-137215000I0J-150000D01*
G01*
G37*
G36*
G01*
X175450000Y-138485000D02*
X175450000Y-138785000D01*
G75*
G02*
X175300000Y-138935000I-150000J0D01*
G01*
X173650000Y-138935000D01*
G75*
G02*
X173500000Y-138785000I0J150000D01*
G01*
X173500000Y-138485000D01*
G75*
G02*
X173650000Y-138335000I150000J0D01*
G01*
X175300000Y-138335000D01*
G75*
G02*
X175450000Y-138485000I0J-150000D01*
G01*
G37*
G36*
G01*
X175450000Y-139755000D02*
X175450000Y-140055000D01*
G75*
G02*
X175300000Y-140205000I-150000J0D01*
G01*
X173650000Y-140205000D01*
G75*
G02*
X173500000Y-140055000I0J150000D01*
G01*
X173500000Y-139755000D01*
G75*
G02*
X173650000Y-139605000I150000J0D01*
G01*
X175300000Y-139605000D01*
G75*
G02*
X175450000Y-139755000I0J-150000D01*
G01*
G37*
G36*
G01*
X170500000Y-139755000D02*
X170500000Y-140055000D01*
G75*
G02*
X170350000Y-140205000I-150000J0D01*
G01*
X168700000Y-140205000D01*
G75*
G02*
X168550000Y-140055000I0J150000D01*
G01*
X168550000Y-139755000D01*
G75*
G02*
X168700000Y-139605000I150000J0D01*
G01*
X170350000Y-139605000D01*
G75*
G02*
X170500000Y-139755000I0J-150000D01*
G01*
G37*
G36*
G01*
X170500000Y-138485000D02*
X170500000Y-138785000D01*
G75*
G02*
X170350000Y-138935000I-150000J0D01*
G01*
X168700000Y-138935000D01*
G75*
G02*
X168550000Y-138785000I0J150000D01*
G01*
X168550000Y-138485000D01*
G75*
G02*
X168700000Y-138335000I150000J0D01*
G01*
X170350000Y-138335000D01*
G75*
G02*
X170500000Y-138485000I0J-150000D01*
G01*
G37*
G36*
G01*
X170500000Y-137215000D02*
X170500000Y-137515000D01*
G75*
G02*
X170350000Y-137665000I-150000J0D01*
G01*
X168700000Y-137665000D01*
G75*
G02*
X168550000Y-137515000I0J150000D01*
G01*
X168550000Y-137215000D01*
G75*
G02*
X168700000Y-137065000I150000J0D01*
G01*
X170350000Y-137065000D01*
G75*
G02*
X170500000Y-137215000I0J-150000D01*
G01*
G37*
G36*
G01*
X170500000Y-135945000D02*
X170500000Y-136245000D01*
G75*
G02*
X170350000Y-136395000I-150000J0D01*
G01*
X168700000Y-136395000D01*
G75*
G02*
X168550000Y-136245000I0J150000D01*
G01*
X168550000Y-135945000D01*
G75*
G02*
X168700000Y-135795000I150000J0D01*
G01*
X170350000Y-135795000D01*
G75*
G02*
X170500000Y-135945000I0J-150000D01*
G01*
G37*
%TD*%
D22*
%TO.C,H1*%
X203250000Y-101250000D03*
D23*
X203250000Y-101250000D03*
%TD*%
%TO.C,H2*%
X152750000Y-72000000D03*
D22*
X152750000Y-72000000D03*
%TD*%
D23*
%TO.C,H3*%
X145796000Y-136144000D03*
D22*
X145796000Y-136144000D03*
%TD*%
D14*
%TO.C,C9*%
X149098000Y-104902000D03*
D13*
X151098000Y-104902000D03*
%TD*%
D23*
%TO.C,H4*%
X198000000Y-134250000D03*
D22*
X198000000Y-134250000D03*
%TD*%
M02*
