%TF.GenerationSoftware,KiCad,Pcbnew,(5.1.12)-1*%
%TF.CreationDate,2022-05-06T09:07:05-07:00*%
%TF.ProjectId,HarmonicTremolo_V01,4861726d-6f6e-4696-9354-72656d6f6c6f,rev?*%
%TF.SameCoordinates,Original*%
%TF.FileFunction,Legend,Top*%
%TF.FilePolarity,Positive*%
%FSLAX46Y46*%
G04 Gerber Fmt 4.6, Leading zero omitted, Abs format (unit mm)*
G04 Created by KiCad (PCBNEW (5.1.12)-1) date 2022-05-06 09:07:05*
%MOMM*%
%LPD*%
G01*
G04 APERTURE LIST*
%ADD10C,0.100000*%
%ADD11C,0.120000*%
%ADD12C,0.150000*%
%ADD13C,1.600000*%
%ADD14R,1.600000X1.600000*%
%ADD15C,3.900000*%
%ADD16C,2.250000*%
%ADD17R,1.800000X1.800000*%
%ADD18C,1.800000*%
%ADD19C,1.500000*%
%ADD20R,1.500000X1.500000*%
%ADD21O,1.600000X1.600000*%
%ADD22C,6.000000*%
%ADD23C,3.400000*%
G04 APERTURE END LIST*
D10*
X165267428Y-140592285D02*
X165267428Y-139842285D01*
X165267428Y-140199428D02*
X165696000Y-140199428D01*
X165696000Y-140592285D02*
X165696000Y-139842285D01*
X166374571Y-140592285D02*
X166374571Y-140199428D01*
X166338857Y-140128000D01*
X166267428Y-140092285D01*
X166124571Y-140092285D01*
X166053142Y-140128000D01*
X166374571Y-140556571D02*
X166303142Y-140592285D01*
X166124571Y-140592285D01*
X166053142Y-140556571D01*
X166017428Y-140485142D01*
X166017428Y-140413714D01*
X166053142Y-140342285D01*
X166124571Y-140306571D01*
X166303142Y-140306571D01*
X166374571Y-140270857D01*
X166731714Y-140592285D02*
X166731714Y-140092285D01*
X166731714Y-140235142D02*
X166767428Y-140163714D01*
X166803142Y-140128000D01*
X166874571Y-140092285D01*
X166946000Y-140092285D01*
X167196000Y-140592285D02*
X167196000Y-140092285D01*
X167196000Y-140163714D02*
X167231714Y-140128000D01*
X167303142Y-140092285D01*
X167410285Y-140092285D01*
X167481714Y-140128000D01*
X167517428Y-140199428D01*
X167517428Y-140592285D01*
X167517428Y-140199428D02*
X167553142Y-140128000D01*
X167624571Y-140092285D01*
X167731714Y-140092285D01*
X167803142Y-140128000D01*
X167838857Y-140199428D01*
X167838857Y-140592285D01*
X168303142Y-140592285D02*
X168231714Y-140556571D01*
X168196000Y-140520857D01*
X168160285Y-140449428D01*
X168160285Y-140235142D01*
X168196000Y-140163714D01*
X168231714Y-140128000D01*
X168303142Y-140092285D01*
X168410285Y-140092285D01*
X168481714Y-140128000D01*
X168517428Y-140163714D01*
X168553142Y-140235142D01*
X168553142Y-140449428D01*
X168517428Y-140520857D01*
X168481714Y-140556571D01*
X168410285Y-140592285D01*
X168303142Y-140592285D01*
X168874571Y-140092285D02*
X168874571Y-140592285D01*
X168874571Y-140163714D02*
X168910285Y-140128000D01*
X168981714Y-140092285D01*
X169088857Y-140092285D01*
X169160285Y-140128000D01*
X169196000Y-140199428D01*
X169196000Y-140592285D01*
X169553142Y-140592285D02*
X169553142Y-140092285D01*
X169553142Y-139842285D02*
X169517428Y-139878000D01*
X169553142Y-139913714D01*
X169588857Y-139878000D01*
X169553142Y-139842285D01*
X169553142Y-139913714D01*
X170231714Y-140556571D02*
X170160285Y-140592285D01*
X170017428Y-140592285D01*
X169946000Y-140556571D01*
X169910285Y-140520857D01*
X169874571Y-140449428D01*
X169874571Y-140235142D01*
X169910285Y-140163714D01*
X169946000Y-140128000D01*
X170017428Y-140092285D01*
X170160285Y-140092285D01*
X170231714Y-140128000D01*
X171017428Y-139842285D02*
X171446000Y-139842285D01*
X171231714Y-140592285D02*
X171231714Y-139842285D01*
X171696000Y-140592285D02*
X171696000Y-140092285D01*
X171696000Y-140235142D02*
X171731714Y-140163714D01*
X171767428Y-140128000D01*
X171838857Y-140092285D01*
X171910285Y-140092285D01*
X172446000Y-140556571D02*
X172374571Y-140592285D01*
X172231714Y-140592285D01*
X172160285Y-140556571D01*
X172124571Y-140485142D01*
X172124571Y-140199428D01*
X172160285Y-140128000D01*
X172231714Y-140092285D01*
X172374571Y-140092285D01*
X172446000Y-140128000D01*
X172481714Y-140199428D01*
X172481714Y-140270857D01*
X172124571Y-140342285D01*
X172803142Y-140592285D02*
X172803142Y-140092285D01*
X172803142Y-140163714D02*
X172838857Y-140128000D01*
X172910285Y-140092285D01*
X173017428Y-140092285D01*
X173088857Y-140128000D01*
X173124571Y-140199428D01*
X173124571Y-140592285D01*
X173124571Y-140199428D02*
X173160285Y-140128000D01*
X173231714Y-140092285D01*
X173338857Y-140092285D01*
X173410285Y-140128000D01*
X173446000Y-140199428D01*
X173446000Y-140592285D01*
X173910285Y-140592285D02*
X173838857Y-140556571D01*
X173803142Y-140520857D01*
X173767428Y-140449428D01*
X173767428Y-140235142D01*
X173803142Y-140163714D01*
X173838857Y-140128000D01*
X173910285Y-140092285D01*
X174017428Y-140092285D01*
X174088857Y-140128000D01*
X174124571Y-140163714D01*
X174160285Y-140235142D01*
X174160285Y-140449428D01*
X174124571Y-140520857D01*
X174088857Y-140556571D01*
X174017428Y-140592285D01*
X173910285Y-140592285D01*
X174588857Y-140592285D02*
X174517428Y-140556571D01*
X174481714Y-140485142D01*
X174481714Y-139842285D01*
X174981714Y-140592285D02*
X174910285Y-140556571D01*
X174874571Y-140520857D01*
X174838857Y-140449428D01*
X174838857Y-140235142D01*
X174874571Y-140163714D01*
X174910285Y-140128000D01*
X174981714Y-140092285D01*
X175088857Y-140092285D01*
X175160285Y-140128000D01*
X175196000Y-140163714D01*
X175231714Y-140235142D01*
X175231714Y-140449428D01*
X175196000Y-140520857D01*
X175160285Y-140556571D01*
X175088857Y-140592285D01*
X174981714Y-140592285D01*
X176017428Y-139842285D02*
X176267428Y-140592285D01*
X176517428Y-139842285D01*
X177160285Y-140592285D02*
X176731714Y-140592285D01*
X176946000Y-140592285D02*
X176946000Y-139842285D01*
X176874571Y-139949428D01*
X176803142Y-140020857D01*
X176731714Y-140056571D01*
X169338857Y-141817285D02*
X169338857Y-141067285D01*
X169338857Y-141353000D02*
X169410285Y-141317285D01*
X169553142Y-141317285D01*
X169624571Y-141353000D01*
X169660285Y-141388714D01*
X169696000Y-141460142D01*
X169696000Y-141674428D01*
X169660285Y-141745857D01*
X169624571Y-141781571D01*
X169553142Y-141817285D01*
X169410285Y-141817285D01*
X169338857Y-141781571D01*
X169946000Y-141317285D02*
X170124571Y-141817285D01*
X170303142Y-141317285D02*
X170124571Y-141817285D01*
X170053142Y-141995857D01*
X170017428Y-142031571D01*
X169946000Y-142067285D01*
X171410285Y-141424428D02*
X171517428Y-141460142D01*
X171553142Y-141495857D01*
X171588857Y-141567285D01*
X171588857Y-141674428D01*
X171553142Y-141745857D01*
X171517428Y-141781571D01*
X171446000Y-141817285D01*
X171160285Y-141817285D01*
X171160285Y-141067285D01*
X171410285Y-141067285D01*
X171481714Y-141103000D01*
X171517428Y-141138714D01*
X171553142Y-141210142D01*
X171553142Y-141281571D01*
X171517428Y-141353000D01*
X171481714Y-141388714D01*
X171410285Y-141424428D01*
X171160285Y-141424428D01*
X171910285Y-141817285D02*
X171910285Y-141067285D01*
X172338857Y-141817285D02*
X172017428Y-141388714D01*
X172338857Y-141067285D02*
X171910285Y-141495857D01*
X172660285Y-141817285D02*
X172660285Y-141067285D01*
X172838857Y-141067285D01*
X172946000Y-141103000D01*
X173017428Y-141174428D01*
X173053142Y-141245857D01*
X173088857Y-141388714D01*
X173088857Y-141495857D01*
X173053142Y-141638714D01*
X173017428Y-141710142D01*
X172946000Y-141781571D01*
X172838857Y-141817285D01*
X172660285Y-141817285D01*
X169910285Y-142363714D02*
X169946000Y-142328000D01*
X170017428Y-142292285D01*
X170196000Y-142292285D01*
X170267428Y-142328000D01*
X170303142Y-142363714D01*
X170338857Y-142435142D01*
X170338857Y-142506571D01*
X170303142Y-142613714D01*
X169874571Y-143042285D01*
X170338857Y-143042285D01*
X170803142Y-142292285D02*
X170874571Y-142292285D01*
X170946000Y-142328000D01*
X170981714Y-142363714D01*
X171017428Y-142435142D01*
X171053142Y-142578000D01*
X171053142Y-142756571D01*
X171017428Y-142899428D01*
X170981714Y-142970857D01*
X170946000Y-143006571D01*
X170874571Y-143042285D01*
X170803142Y-143042285D01*
X170731714Y-143006571D01*
X170696000Y-142970857D01*
X170660285Y-142899428D01*
X170624571Y-142756571D01*
X170624571Y-142578000D01*
X170660285Y-142435142D01*
X170696000Y-142363714D01*
X170731714Y-142328000D01*
X170803142Y-142292285D01*
X171338857Y-142363714D02*
X171374571Y-142328000D01*
X171446000Y-142292285D01*
X171624571Y-142292285D01*
X171696000Y-142328000D01*
X171731714Y-142363714D01*
X171767428Y-142435142D01*
X171767428Y-142506571D01*
X171731714Y-142613714D01*
X171303142Y-143042285D01*
X171767428Y-143042285D01*
X172053142Y-142363714D02*
X172088857Y-142328000D01*
X172160285Y-142292285D01*
X172338857Y-142292285D01*
X172410285Y-142328000D01*
X172446000Y-142363714D01*
X172481714Y-142435142D01*
X172481714Y-142506571D01*
X172446000Y-142613714D01*
X172017428Y-143042285D01*
X172481714Y-143042285D01*
D11*
%TO.C,C2*%
X168810000Y-78208000D02*
X171550000Y-78208000D01*
X168810000Y-85448000D02*
X171550000Y-85448000D01*
X171550000Y-85448000D02*
X171550000Y-78208000D01*
X168810000Y-85448000D02*
X168810000Y-78208000D01*
%TO.C,C8*%
X139038000Y-88034000D02*
X139038000Y-95274000D01*
X136298000Y-88034000D02*
X136298000Y-95274000D01*
X139038000Y-88034000D02*
X136298000Y-88034000D01*
X139038000Y-95274000D02*
X136298000Y-95274000D01*
%TO.C,C5*%
X145191241Y-129154000D02*
X145191241Y-128524000D01*
X145506241Y-128839000D02*
X144876241Y-128839000D01*
X138765000Y-127402000D02*
X138765000Y-126598000D01*
X138805000Y-127633000D02*
X138805000Y-126367000D01*
X138845000Y-127802000D02*
X138845000Y-126198000D01*
X138885000Y-127940000D02*
X138885000Y-126060000D01*
X138925000Y-128059000D02*
X138925000Y-125941000D01*
X138965000Y-128165000D02*
X138965000Y-125835000D01*
X139005000Y-128262000D02*
X139005000Y-125738000D01*
X139045000Y-128350000D02*
X139045000Y-125650000D01*
X139085000Y-128432000D02*
X139085000Y-125568000D01*
X139125000Y-128509000D02*
X139125000Y-125491000D01*
X139165000Y-128581000D02*
X139165000Y-125419000D01*
X139205000Y-128650000D02*
X139205000Y-125350000D01*
X139245000Y-128714000D02*
X139245000Y-125286000D01*
X139285000Y-128776000D02*
X139285000Y-125224000D01*
X139325000Y-128834000D02*
X139325000Y-125166000D01*
X139365000Y-128890000D02*
X139365000Y-125110000D01*
X139405000Y-128944000D02*
X139405000Y-125056000D01*
X139445000Y-128995000D02*
X139445000Y-125005000D01*
X139485000Y-129044000D02*
X139485000Y-124956000D01*
X139525000Y-129092000D02*
X139525000Y-124908000D01*
X139565000Y-129137000D02*
X139565000Y-124863000D01*
X139605000Y-129182000D02*
X139605000Y-124818000D01*
X139645000Y-129224000D02*
X139645000Y-124776000D01*
X139685000Y-129265000D02*
X139685000Y-124735000D01*
X139725000Y-125960000D02*
X139725000Y-124695000D01*
X139725000Y-129305000D02*
X139725000Y-128040000D01*
X139765000Y-125960000D02*
X139765000Y-124657000D01*
X139765000Y-129343000D02*
X139765000Y-128040000D01*
X139805000Y-125960000D02*
X139805000Y-124620000D01*
X139805000Y-129380000D02*
X139805000Y-128040000D01*
X139845000Y-125960000D02*
X139845000Y-124584000D01*
X139845000Y-129416000D02*
X139845000Y-128040000D01*
X139885000Y-125960000D02*
X139885000Y-124550000D01*
X139885000Y-129450000D02*
X139885000Y-128040000D01*
X139925000Y-125960000D02*
X139925000Y-124516000D01*
X139925000Y-129484000D02*
X139925000Y-128040000D01*
X139965000Y-125960000D02*
X139965000Y-124484000D01*
X139965000Y-129516000D02*
X139965000Y-128040000D01*
X140005000Y-125960000D02*
X140005000Y-124452000D01*
X140005000Y-129548000D02*
X140005000Y-128040000D01*
X140045000Y-125960000D02*
X140045000Y-124422000D01*
X140045000Y-129578000D02*
X140045000Y-128040000D01*
X140085000Y-125960000D02*
X140085000Y-124393000D01*
X140085000Y-129607000D02*
X140085000Y-128040000D01*
X140125000Y-125960000D02*
X140125000Y-124364000D01*
X140125000Y-129636000D02*
X140125000Y-128040000D01*
X140165000Y-125960000D02*
X140165000Y-124336000D01*
X140165000Y-129664000D02*
X140165000Y-128040000D01*
X140205000Y-125960000D02*
X140205000Y-124310000D01*
X140205000Y-129690000D02*
X140205000Y-128040000D01*
X140245000Y-125960000D02*
X140245000Y-124284000D01*
X140245000Y-129716000D02*
X140245000Y-128040000D01*
X140285000Y-125960000D02*
X140285000Y-124258000D01*
X140285000Y-129742000D02*
X140285000Y-128040000D01*
X140325000Y-125960000D02*
X140325000Y-124234000D01*
X140325000Y-129766000D02*
X140325000Y-128040000D01*
X140365000Y-125960000D02*
X140365000Y-124210000D01*
X140365000Y-129790000D02*
X140365000Y-128040000D01*
X140405000Y-125960000D02*
X140405000Y-124188000D01*
X140405000Y-129812000D02*
X140405000Y-128040000D01*
X140445000Y-125960000D02*
X140445000Y-124166000D01*
X140445000Y-129834000D02*
X140445000Y-128040000D01*
X140485000Y-125960000D02*
X140485000Y-124144000D01*
X140485000Y-129856000D02*
X140485000Y-128040000D01*
X140525000Y-125960000D02*
X140525000Y-124124000D01*
X140525000Y-129876000D02*
X140525000Y-128040000D01*
X140565000Y-125960000D02*
X140565000Y-124104000D01*
X140565000Y-129896000D02*
X140565000Y-128040000D01*
X140605000Y-125960000D02*
X140605000Y-124084000D01*
X140605000Y-129916000D02*
X140605000Y-128040000D01*
X140645000Y-125960000D02*
X140645000Y-124066000D01*
X140645000Y-129934000D02*
X140645000Y-128040000D01*
X140685000Y-125960000D02*
X140685000Y-124048000D01*
X140685000Y-129952000D02*
X140685000Y-128040000D01*
X140725000Y-125960000D02*
X140725000Y-124030000D01*
X140725000Y-129970000D02*
X140725000Y-128040000D01*
X140765000Y-125960000D02*
X140765000Y-124014000D01*
X140765000Y-129986000D02*
X140765000Y-128040000D01*
X140805000Y-125960000D02*
X140805000Y-123998000D01*
X140805000Y-130002000D02*
X140805000Y-128040000D01*
X140845000Y-125960000D02*
X140845000Y-123982000D01*
X140845000Y-130018000D02*
X140845000Y-128040000D01*
X140885000Y-125960000D02*
X140885000Y-123967000D01*
X140885000Y-130033000D02*
X140885000Y-128040000D01*
X140925000Y-125960000D02*
X140925000Y-123953000D01*
X140925000Y-130047000D02*
X140925000Y-128040000D01*
X140965000Y-125960000D02*
X140965000Y-123939000D01*
X140965000Y-130061000D02*
X140965000Y-128040000D01*
X141005000Y-125960000D02*
X141005000Y-123926000D01*
X141005000Y-130074000D02*
X141005000Y-128040000D01*
X141045000Y-125960000D02*
X141045000Y-123914000D01*
X141045000Y-130086000D02*
X141045000Y-128040000D01*
X141085000Y-125960000D02*
X141085000Y-123902000D01*
X141085000Y-130098000D02*
X141085000Y-128040000D01*
X141125000Y-125960000D02*
X141125000Y-123890000D01*
X141125000Y-130110000D02*
X141125000Y-128040000D01*
X141165000Y-125960000D02*
X141165000Y-123879000D01*
X141165000Y-130121000D02*
X141165000Y-128040000D01*
X141205000Y-125960000D02*
X141205000Y-123869000D01*
X141205000Y-130131000D02*
X141205000Y-128040000D01*
X141245000Y-125960000D02*
X141245000Y-123859000D01*
X141245000Y-130141000D02*
X141245000Y-128040000D01*
X141285000Y-125960000D02*
X141285000Y-123850000D01*
X141285000Y-130150000D02*
X141285000Y-128040000D01*
X141326000Y-125960000D02*
X141326000Y-123841000D01*
X141326000Y-130159000D02*
X141326000Y-128040000D01*
X141366000Y-125960000D02*
X141366000Y-123833000D01*
X141366000Y-130167000D02*
X141366000Y-128040000D01*
X141406000Y-125960000D02*
X141406000Y-123825000D01*
X141406000Y-130175000D02*
X141406000Y-128040000D01*
X141446000Y-125960000D02*
X141446000Y-123818000D01*
X141446000Y-130182000D02*
X141446000Y-128040000D01*
X141486000Y-125960000D02*
X141486000Y-123811000D01*
X141486000Y-130189000D02*
X141486000Y-128040000D01*
X141526000Y-125960000D02*
X141526000Y-123805000D01*
X141526000Y-130195000D02*
X141526000Y-128040000D01*
X141566000Y-125960000D02*
X141566000Y-123799000D01*
X141566000Y-130201000D02*
X141566000Y-128040000D01*
X141606000Y-125960000D02*
X141606000Y-123794000D01*
X141606000Y-130206000D02*
X141606000Y-128040000D01*
X141646000Y-125960000D02*
X141646000Y-123789000D01*
X141646000Y-130211000D02*
X141646000Y-128040000D01*
X141686000Y-125960000D02*
X141686000Y-123785000D01*
X141686000Y-130215000D02*
X141686000Y-128040000D01*
X141726000Y-125960000D02*
X141726000Y-123782000D01*
X141726000Y-130218000D02*
X141726000Y-128040000D01*
X141766000Y-125960000D02*
X141766000Y-123778000D01*
X141766000Y-130222000D02*
X141766000Y-128040000D01*
X141806000Y-130224000D02*
X141806000Y-123776000D01*
X141846000Y-130227000D02*
X141846000Y-123773000D01*
X141886000Y-130228000D02*
X141886000Y-123772000D01*
X141926000Y-130230000D02*
X141926000Y-123770000D01*
X141966000Y-130230000D02*
X141966000Y-123770000D01*
X142006000Y-130230000D02*
X142006000Y-123770000D01*
X145276000Y-127000000D02*
G75*
G03*
X145276000Y-127000000I-3270000J0D01*
G01*
%TO.C,U4*%
X179690000Y-115802000D02*
X193690000Y-115802000D01*
X193690000Y-115802000D02*
X190690000Y-130302000D01*
X190690000Y-130302000D02*
X193690000Y-144802000D01*
X193690000Y-144802000D02*
X179690000Y-144802000D01*
X179690000Y-144802000D02*
X182690000Y-130302000D01*
X182690000Y-130302000D02*
X179690000Y-115802000D01*
X191690000Y-141802000D02*
X189190000Y-131802000D01*
X189190000Y-131802000D02*
X187690000Y-131802000D01*
X187690000Y-131802000D02*
X187690000Y-132802000D01*
X187690000Y-132802000D02*
X185690000Y-131802000D01*
X185690000Y-131802000D02*
X187690000Y-130802000D01*
X187690000Y-130802000D02*
X187690000Y-131802000D01*
X185690000Y-132802000D02*
X185690000Y-130802000D01*
X185690000Y-130802000D02*
X185690000Y-131802000D01*
X185690000Y-131802000D02*
X184190000Y-131802000D01*
X184190000Y-131802000D02*
X181690000Y-141802000D01*
X186190000Y-130802000D02*
X185690000Y-129302000D01*
X185690000Y-129302000D02*
X185590000Y-129702000D01*
X187190000Y-130802000D02*
X186690000Y-129302000D01*
X186690000Y-129302000D02*
X186590000Y-129702000D01*
X191690000Y-118802000D02*
X189690000Y-127802000D01*
X188690000Y-127802000D02*
X188190000Y-128802000D01*
X188190000Y-128802000D02*
X187690000Y-127302000D01*
X187690000Y-127302000D02*
X187190000Y-128802000D01*
X187190000Y-128802000D02*
X186690000Y-127302000D01*
X186690000Y-127302000D02*
X186190000Y-128802000D01*
X186190000Y-128802000D02*
X185690000Y-127302000D01*
X185690000Y-127302000D02*
X185190000Y-128802000D01*
X185190000Y-128802000D02*
X184690000Y-127802000D01*
X181690000Y-118802000D02*
X183690000Y-127802000D01*
X189690000Y-127802000D02*
X188690000Y-127802000D01*
X184690000Y-127802000D02*
X183690000Y-127802000D01*
X186690000Y-129302000D02*
X186990000Y-129502000D01*
X185690000Y-129302000D02*
X185990000Y-129502000D01*
%TO.C,U5*%
X149210000Y-116056000D02*
X163210000Y-116056000D01*
X163210000Y-116056000D02*
X160210000Y-130556000D01*
X160210000Y-130556000D02*
X163210000Y-145056000D01*
X163210000Y-145056000D02*
X149210000Y-145056000D01*
X149210000Y-145056000D02*
X152210000Y-130556000D01*
X152210000Y-130556000D02*
X149210000Y-116056000D01*
X161210000Y-142056000D02*
X158710000Y-132056000D01*
X158710000Y-132056000D02*
X157210000Y-132056000D01*
X157210000Y-132056000D02*
X157210000Y-133056000D01*
X157210000Y-133056000D02*
X155210000Y-132056000D01*
X155210000Y-132056000D02*
X157210000Y-131056000D01*
X157210000Y-131056000D02*
X157210000Y-132056000D01*
X155210000Y-133056000D02*
X155210000Y-131056000D01*
X155210000Y-131056000D02*
X155210000Y-132056000D01*
X155210000Y-132056000D02*
X153710000Y-132056000D01*
X153710000Y-132056000D02*
X151210000Y-142056000D01*
X155710000Y-131056000D02*
X155210000Y-129556000D01*
X155210000Y-129556000D02*
X155110000Y-129956000D01*
X156710000Y-131056000D02*
X156210000Y-129556000D01*
X156210000Y-129556000D02*
X156110000Y-129956000D01*
X161210000Y-119056000D02*
X159210000Y-128056000D01*
X158210000Y-128056000D02*
X157710000Y-129056000D01*
X157710000Y-129056000D02*
X157210000Y-127556000D01*
X157210000Y-127556000D02*
X156710000Y-129056000D01*
X156710000Y-129056000D02*
X156210000Y-127556000D01*
X156210000Y-127556000D02*
X155710000Y-129056000D01*
X155710000Y-129056000D02*
X155210000Y-127556000D01*
X155210000Y-127556000D02*
X154710000Y-129056000D01*
X154710000Y-129056000D02*
X154210000Y-128056000D01*
X151210000Y-119056000D02*
X153210000Y-128056000D01*
X159210000Y-128056000D02*
X158210000Y-128056000D01*
X154210000Y-128056000D02*
X153210000Y-128056000D01*
X156210000Y-129556000D02*
X156510000Y-129756000D01*
X155210000Y-129556000D02*
X155510000Y-129756000D01*
%TO.C,C1*%
X134370000Y-87780000D02*
X134370000Y-95020000D01*
X131630000Y-87780000D02*
X131630000Y-95020000D01*
X134370000Y-87780000D02*
X131630000Y-87780000D01*
X134370000Y-95020000D02*
X131630000Y-95020000D01*
%TO.C,C3*%
X174120000Y-74500000D02*
G75*
G03*
X174120000Y-74500000I-2620000J0D01*
G01*
X171500000Y-75540000D02*
X171500000Y-77080000D01*
X171500000Y-71920000D02*
X171500000Y-73460000D01*
X171540000Y-75540000D02*
X171540000Y-77080000D01*
X171540000Y-71920000D02*
X171540000Y-73460000D01*
X171580000Y-71921000D02*
X171580000Y-73460000D01*
X171580000Y-75540000D02*
X171580000Y-77079000D01*
X171620000Y-71922000D02*
X171620000Y-73460000D01*
X171620000Y-75540000D02*
X171620000Y-77078000D01*
X171660000Y-71924000D02*
X171660000Y-73460000D01*
X171660000Y-75540000D02*
X171660000Y-77076000D01*
X171700000Y-71927000D02*
X171700000Y-73460000D01*
X171700000Y-75540000D02*
X171700000Y-77073000D01*
X171740000Y-71931000D02*
X171740000Y-73460000D01*
X171740000Y-75540000D02*
X171740000Y-77069000D01*
X171780000Y-71935000D02*
X171780000Y-73460000D01*
X171780000Y-75540000D02*
X171780000Y-77065000D01*
X171820000Y-71939000D02*
X171820000Y-73460000D01*
X171820000Y-75540000D02*
X171820000Y-77061000D01*
X171860000Y-71944000D02*
X171860000Y-73460000D01*
X171860000Y-75540000D02*
X171860000Y-77056000D01*
X171900000Y-71950000D02*
X171900000Y-73460000D01*
X171900000Y-75540000D02*
X171900000Y-77050000D01*
X171940000Y-71957000D02*
X171940000Y-73460000D01*
X171940000Y-75540000D02*
X171940000Y-77043000D01*
X171980000Y-71964000D02*
X171980000Y-73460000D01*
X171980000Y-75540000D02*
X171980000Y-77036000D01*
X172020000Y-71972000D02*
X172020000Y-73460000D01*
X172020000Y-75540000D02*
X172020000Y-77028000D01*
X172060000Y-71980000D02*
X172060000Y-73460000D01*
X172060000Y-75540000D02*
X172060000Y-77020000D01*
X172100000Y-71989000D02*
X172100000Y-73460000D01*
X172100000Y-75540000D02*
X172100000Y-77011000D01*
X172140000Y-71999000D02*
X172140000Y-73460000D01*
X172140000Y-75540000D02*
X172140000Y-77001000D01*
X172180000Y-72009000D02*
X172180000Y-73460000D01*
X172180000Y-75540000D02*
X172180000Y-76991000D01*
X172221000Y-72020000D02*
X172221000Y-73460000D01*
X172221000Y-75540000D02*
X172221000Y-76980000D01*
X172261000Y-72032000D02*
X172261000Y-73460000D01*
X172261000Y-75540000D02*
X172261000Y-76968000D01*
X172301000Y-72045000D02*
X172301000Y-73460000D01*
X172301000Y-75540000D02*
X172301000Y-76955000D01*
X172341000Y-72058000D02*
X172341000Y-73460000D01*
X172341000Y-75540000D02*
X172341000Y-76942000D01*
X172381000Y-72072000D02*
X172381000Y-73460000D01*
X172381000Y-75540000D02*
X172381000Y-76928000D01*
X172421000Y-72086000D02*
X172421000Y-73460000D01*
X172421000Y-75540000D02*
X172421000Y-76914000D01*
X172461000Y-72102000D02*
X172461000Y-73460000D01*
X172461000Y-75540000D02*
X172461000Y-76898000D01*
X172501000Y-72118000D02*
X172501000Y-73460000D01*
X172501000Y-75540000D02*
X172501000Y-76882000D01*
X172541000Y-72135000D02*
X172541000Y-73460000D01*
X172541000Y-75540000D02*
X172541000Y-76865000D01*
X172581000Y-72152000D02*
X172581000Y-73460000D01*
X172581000Y-75540000D02*
X172581000Y-76848000D01*
X172621000Y-72171000D02*
X172621000Y-73460000D01*
X172621000Y-75540000D02*
X172621000Y-76829000D01*
X172661000Y-72190000D02*
X172661000Y-73460000D01*
X172661000Y-75540000D02*
X172661000Y-76810000D01*
X172701000Y-72210000D02*
X172701000Y-73460000D01*
X172701000Y-75540000D02*
X172701000Y-76790000D01*
X172741000Y-72232000D02*
X172741000Y-73460000D01*
X172741000Y-75540000D02*
X172741000Y-76768000D01*
X172781000Y-72253000D02*
X172781000Y-73460000D01*
X172781000Y-75540000D02*
X172781000Y-76747000D01*
X172821000Y-72276000D02*
X172821000Y-73460000D01*
X172821000Y-75540000D02*
X172821000Y-76724000D01*
X172861000Y-72300000D02*
X172861000Y-73460000D01*
X172861000Y-75540000D02*
X172861000Y-76700000D01*
X172901000Y-72325000D02*
X172901000Y-73460000D01*
X172901000Y-75540000D02*
X172901000Y-76675000D01*
X172941000Y-72351000D02*
X172941000Y-73460000D01*
X172941000Y-75540000D02*
X172941000Y-76649000D01*
X172981000Y-72378000D02*
X172981000Y-73460000D01*
X172981000Y-75540000D02*
X172981000Y-76622000D01*
X173021000Y-72405000D02*
X173021000Y-73460000D01*
X173021000Y-75540000D02*
X173021000Y-76595000D01*
X173061000Y-72435000D02*
X173061000Y-73460000D01*
X173061000Y-75540000D02*
X173061000Y-76565000D01*
X173101000Y-72465000D02*
X173101000Y-73460000D01*
X173101000Y-75540000D02*
X173101000Y-76535000D01*
X173141000Y-72496000D02*
X173141000Y-73460000D01*
X173141000Y-75540000D02*
X173141000Y-76504000D01*
X173181000Y-72529000D02*
X173181000Y-73460000D01*
X173181000Y-75540000D02*
X173181000Y-76471000D01*
X173221000Y-72563000D02*
X173221000Y-73460000D01*
X173221000Y-75540000D02*
X173221000Y-76437000D01*
X173261000Y-72599000D02*
X173261000Y-73460000D01*
X173261000Y-75540000D02*
X173261000Y-76401000D01*
X173301000Y-72636000D02*
X173301000Y-73460000D01*
X173301000Y-75540000D02*
X173301000Y-76364000D01*
X173341000Y-72674000D02*
X173341000Y-73460000D01*
X173341000Y-75540000D02*
X173341000Y-76326000D01*
X173381000Y-72715000D02*
X173381000Y-73460000D01*
X173381000Y-75540000D02*
X173381000Y-76285000D01*
X173421000Y-72757000D02*
X173421000Y-73460000D01*
X173421000Y-75540000D02*
X173421000Y-76243000D01*
X173461000Y-72801000D02*
X173461000Y-73460000D01*
X173461000Y-75540000D02*
X173461000Y-76199000D01*
X173501000Y-72847000D02*
X173501000Y-73460000D01*
X173501000Y-75540000D02*
X173501000Y-76153000D01*
X173541000Y-72895000D02*
X173541000Y-76105000D01*
X173581000Y-72946000D02*
X173581000Y-76054000D01*
X173621000Y-73000000D02*
X173621000Y-76000000D01*
X173661000Y-73057000D02*
X173661000Y-75943000D01*
X173701000Y-73117000D02*
X173701000Y-75883000D01*
X173741000Y-73181000D02*
X173741000Y-75819000D01*
X173781000Y-73249000D02*
X173781000Y-75751000D01*
X173821000Y-73322000D02*
X173821000Y-75678000D01*
X173861000Y-73402000D02*
X173861000Y-75598000D01*
X173901000Y-73489000D02*
X173901000Y-75511000D01*
X173941000Y-73585000D02*
X173941000Y-75415000D01*
X173981000Y-73695000D02*
X173981000Y-75305000D01*
X174021000Y-73823000D02*
X174021000Y-75177000D01*
X174061000Y-73982000D02*
X174061000Y-75018000D01*
X174101000Y-74216000D02*
X174101000Y-74784000D01*
X168695225Y-73025000D02*
X169195225Y-73025000D01*
X168945225Y-72775000D02*
X168945225Y-73275000D01*
%TO.C,C4*%
X175120000Y-118130000D02*
X175120000Y-121870000D01*
X167880000Y-118130000D02*
X167880000Y-121870000D01*
X167880000Y-121870000D02*
X175120000Y-121870000D01*
X167880000Y-118130000D02*
X175120000Y-118130000D01*
%TO.C,C6*%
X143225225Y-116639000D02*
X143225225Y-117139000D01*
X142975225Y-116889000D02*
X143475225Y-116889000D01*
X148381000Y-118080000D02*
X148381000Y-118648000D01*
X148341000Y-117846000D02*
X148341000Y-118882000D01*
X148301000Y-117687000D02*
X148301000Y-119041000D01*
X148261000Y-117559000D02*
X148261000Y-119169000D01*
X148221000Y-117449000D02*
X148221000Y-119279000D01*
X148181000Y-117353000D02*
X148181000Y-119375000D01*
X148141000Y-117266000D02*
X148141000Y-119462000D01*
X148101000Y-117186000D02*
X148101000Y-119542000D01*
X148061000Y-117113000D02*
X148061000Y-119615000D01*
X148021000Y-117045000D02*
X148021000Y-119683000D01*
X147981000Y-116981000D02*
X147981000Y-119747000D01*
X147941000Y-116921000D02*
X147941000Y-119807000D01*
X147901000Y-116864000D02*
X147901000Y-119864000D01*
X147861000Y-116810000D02*
X147861000Y-119918000D01*
X147821000Y-116759000D02*
X147821000Y-119969000D01*
X147781000Y-119404000D02*
X147781000Y-120017000D01*
X147781000Y-116711000D02*
X147781000Y-117324000D01*
X147741000Y-119404000D02*
X147741000Y-120063000D01*
X147741000Y-116665000D02*
X147741000Y-117324000D01*
X147701000Y-119404000D02*
X147701000Y-120107000D01*
X147701000Y-116621000D02*
X147701000Y-117324000D01*
X147661000Y-119404000D02*
X147661000Y-120149000D01*
X147661000Y-116579000D02*
X147661000Y-117324000D01*
X147621000Y-119404000D02*
X147621000Y-120190000D01*
X147621000Y-116538000D02*
X147621000Y-117324000D01*
X147581000Y-119404000D02*
X147581000Y-120228000D01*
X147581000Y-116500000D02*
X147581000Y-117324000D01*
X147541000Y-119404000D02*
X147541000Y-120265000D01*
X147541000Y-116463000D02*
X147541000Y-117324000D01*
X147501000Y-119404000D02*
X147501000Y-120301000D01*
X147501000Y-116427000D02*
X147501000Y-117324000D01*
X147461000Y-119404000D02*
X147461000Y-120335000D01*
X147461000Y-116393000D02*
X147461000Y-117324000D01*
X147421000Y-119404000D02*
X147421000Y-120368000D01*
X147421000Y-116360000D02*
X147421000Y-117324000D01*
X147381000Y-119404000D02*
X147381000Y-120399000D01*
X147381000Y-116329000D02*
X147381000Y-117324000D01*
X147341000Y-119404000D02*
X147341000Y-120429000D01*
X147341000Y-116299000D02*
X147341000Y-117324000D01*
X147301000Y-119404000D02*
X147301000Y-120459000D01*
X147301000Y-116269000D02*
X147301000Y-117324000D01*
X147261000Y-119404000D02*
X147261000Y-120486000D01*
X147261000Y-116242000D02*
X147261000Y-117324000D01*
X147221000Y-119404000D02*
X147221000Y-120513000D01*
X147221000Y-116215000D02*
X147221000Y-117324000D01*
X147181000Y-119404000D02*
X147181000Y-120539000D01*
X147181000Y-116189000D02*
X147181000Y-117324000D01*
X147141000Y-119404000D02*
X147141000Y-120564000D01*
X147141000Y-116164000D02*
X147141000Y-117324000D01*
X147101000Y-119404000D02*
X147101000Y-120588000D01*
X147101000Y-116140000D02*
X147101000Y-117324000D01*
X147061000Y-119404000D02*
X147061000Y-120611000D01*
X147061000Y-116117000D02*
X147061000Y-117324000D01*
X147021000Y-119404000D02*
X147021000Y-120632000D01*
X147021000Y-116096000D02*
X147021000Y-117324000D01*
X146981000Y-119404000D02*
X146981000Y-120654000D01*
X146981000Y-116074000D02*
X146981000Y-117324000D01*
X146941000Y-119404000D02*
X146941000Y-120674000D01*
X146941000Y-116054000D02*
X146941000Y-117324000D01*
X146901000Y-119404000D02*
X146901000Y-120693000D01*
X146901000Y-116035000D02*
X146901000Y-117324000D01*
X146861000Y-119404000D02*
X146861000Y-120712000D01*
X146861000Y-116016000D02*
X146861000Y-117324000D01*
X146821000Y-119404000D02*
X146821000Y-120729000D01*
X146821000Y-115999000D02*
X146821000Y-117324000D01*
X146781000Y-119404000D02*
X146781000Y-120746000D01*
X146781000Y-115982000D02*
X146781000Y-117324000D01*
X146741000Y-119404000D02*
X146741000Y-120762000D01*
X146741000Y-115966000D02*
X146741000Y-117324000D01*
X146701000Y-119404000D02*
X146701000Y-120778000D01*
X146701000Y-115950000D02*
X146701000Y-117324000D01*
X146661000Y-119404000D02*
X146661000Y-120792000D01*
X146661000Y-115936000D02*
X146661000Y-117324000D01*
X146621000Y-119404000D02*
X146621000Y-120806000D01*
X146621000Y-115922000D02*
X146621000Y-117324000D01*
X146581000Y-119404000D02*
X146581000Y-120819000D01*
X146581000Y-115909000D02*
X146581000Y-117324000D01*
X146541000Y-119404000D02*
X146541000Y-120832000D01*
X146541000Y-115896000D02*
X146541000Y-117324000D01*
X146501000Y-119404000D02*
X146501000Y-120844000D01*
X146501000Y-115884000D02*
X146501000Y-117324000D01*
X146460000Y-119404000D02*
X146460000Y-120855000D01*
X146460000Y-115873000D02*
X146460000Y-117324000D01*
X146420000Y-119404000D02*
X146420000Y-120865000D01*
X146420000Y-115863000D02*
X146420000Y-117324000D01*
X146380000Y-119404000D02*
X146380000Y-120875000D01*
X146380000Y-115853000D02*
X146380000Y-117324000D01*
X146340000Y-119404000D02*
X146340000Y-120884000D01*
X146340000Y-115844000D02*
X146340000Y-117324000D01*
X146300000Y-119404000D02*
X146300000Y-120892000D01*
X146300000Y-115836000D02*
X146300000Y-117324000D01*
X146260000Y-119404000D02*
X146260000Y-120900000D01*
X146260000Y-115828000D02*
X146260000Y-117324000D01*
X146220000Y-119404000D02*
X146220000Y-120907000D01*
X146220000Y-115821000D02*
X146220000Y-117324000D01*
X146180000Y-119404000D02*
X146180000Y-120914000D01*
X146180000Y-115814000D02*
X146180000Y-117324000D01*
X146140000Y-119404000D02*
X146140000Y-120920000D01*
X146140000Y-115808000D02*
X146140000Y-117324000D01*
X146100000Y-119404000D02*
X146100000Y-120925000D01*
X146100000Y-115803000D02*
X146100000Y-117324000D01*
X146060000Y-119404000D02*
X146060000Y-120929000D01*
X146060000Y-115799000D02*
X146060000Y-117324000D01*
X146020000Y-119404000D02*
X146020000Y-120933000D01*
X146020000Y-115795000D02*
X146020000Y-117324000D01*
X145980000Y-119404000D02*
X145980000Y-120937000D01*
X145980000Y-115791000D02*
X145980000Y-117324000D01*
X145940000Y-119404000D02*
X145940000Y-120940000D01*
X145940000Y-115788000D02*
X145940000Y-117324000D01*
X145900000Y-119404000D02*
X145900000Y-120942000D01*
X145900000Y-115786000D02*
X145900000Y-117324000D01*
X145860000Y-119404000D02*
X145860000Y-120943000D01*
X145860000Y-115785000D02*
X145860000Y-117324000D01*
X145820000Y-115784000D02*
X145820000Y-117324000D01*
X145820000Y-119404000D02*
X145820000Y-120944000D01*
X145780000Y-115784000D02*
X145780000Y-117324000D01*
X145780000Y-119404000D02*
X145780000Y-120944000D01*
X148400000Y-118364000D02*
G75*
G03*
X148400000Y-118364000I-2620000J0D01*
G01*
%TO.C,C7*%
X194525000Y-124804775D02*
X195025000Y-124804775D01*
X194775000Y-125054775D02*
X194775000Y-124554775D01*
X195966000Y-119649000D02*
X196534000Y-119649000D01*
X195732000Y-119689000D02*
X196768000Y-119689000D01*
X195573000Y-119729000D02*
X196927000Y-119729000D01*
X195445000Y-119769000D02*
X197055000Y-119769000D01*
X195335000Y-119809000D02*
X197165000Y-119809000D01*
X195239000Y-119849000D02*
X197261000Y-119849000D01*
X195152000Y-119889000D02*
X197348000Y-119889000D01*
X195072000Y-119929000D02*
X197428000Y-119929000D01*
X194999000Y-119969000D02*
X197501000Y-119969000D01*
X194931000Y-120009000D02*
X197569000Y-120009000D01*
X194867000Y-120049000D02*
X197633000Y-120049000D01*
X194807000Y-120089000D02*
X197693000Y-120089000D01*
X194750000Y-120129000D02*
X197750000Y-120129000D01*
X194696000Y-120169000D02*
X197804000Y-120169000D01*
X194645000Y-120209000D02*
X197855000Y-120209000D01*
X197290000Y-120249000D02*
X197903000Y-120249000D01*
X194597000Y-120249000D02*
X195210000Y-120249000D01*
X197290000Y-120289000D02*
X197949000Y-120289000D01*
X194551000Y-120289000D02*
X195210000Y-120289000D01*
X197290000Y-120329000D02*
X197993000Y-120329000D01*
X194507000Y-120329000D02*
X195210000Y-120329000D01*
X197290000Y-120369000D02*
X198035000Y-120369000D01*
X194465000Y-120369000D02*
X195210000Y-120369000D01*
X197290000Y-120409000D02*
X198076000Y-120409000D01*
X194424000Y-120409000D02*
X195210000Y-120409000D01*
X197290000Y-120449000D02*
X198114000Y-120449000D01*
X194386000Y-120449000D02*
X195210000Y-120449000D01*
X197290000Y-120489000D02*
X198151000Y-120489000D01*
X194349000Y-120489000D02*
X195210000Y-120489000D01*
X197290000Y-120529000D02*
X198187000Y-120529000D01*
X194313000Y-120529000D02*
X195210000Y-120529000D01*
X197290000Y-120569000D02*
X198221000Y-120569000D01*
X194279000Y-120569000D02*
X195210000Y-120569000D01*
X197290000Y-120609000D02*
X198254000Y-120609000D01*
X194246000Y-120609000D02*
X195210000Y-120609000D01*
X197290000Y-120649000D02*
X198285000Y-120649000D01*
X194215000Y-120649000D02*
X195210000Y-120649000D01*
X197290000Y-120689000D02*
X198315000Y-120689000D01*
X194185000Y-120689000D02*
X195210000Y-120689000D01*
X197290000Y-120729000D02*
X198345000Y-120729000D01*
X194155000Y-120729000D02*
X195210000Y-120729000D01*
X197290000Y-120769000D02*
X198372000Y-120769000D01*
X194128000Y-120769000D02*
X195210000Y-120769000D01*
X197290000Y-120809000D02*
X198399000Y-120809000D01*
X194101000Y-120809000D02*
X195210000Y-120809000D01*
X197290000Y-120849000D02*
X198425000Y-120849000D01*
X194075000Y-120849000D02*
X195210000Y-120849000D01*
X197290000Y-120889000D02*
X198450000Y-120889000D01*
X194050000Y-120889000D02*
X195210000Y-120889000D01*
X197290000Y-120929000D02*
X198474000Y-120929000D01*
X194026000Y-120929000D02*
X195210000Y-120929000D01*
X197290000Y-120969000D02*
X198497000Y-120969000D01*
X194003000Y-120969000D02*
X195210000Y-120969000D01*
X197290000Y-121009000D02*
X198518000Y-121009000D01*
X193982000Y-121009000D02*
X195210000Y-121009000D01*
X197290000Y-121049000D02*
X198540000Y-121049000D01*
X193960000Y-121049000D02*
X195210000Y-121049000D01*
X197290000Y-121089000D02*
X198560000Y-121089000D01*
X193940000Y-121089000D02*
X195210000Y-121089000D01*
X197290000Y-121129000D02*
X198579000Y-121129000D01*
X193921000Y-121129000D02*
X195210000Y-121129000D01*
X197290000Y-121169000D02*
X198598000Y-121169000D01*
X193902000Y-121169000D02*
X195210000Y-121169000D01*
X197290000Y-121209000D02*
X198615000Y-121209000D01*
X193885000Y-121209000D02*
X195210000Y-121209000D01*
X197290000Y-121249000D02*
X198632000Y-121249000D01*
X193868000Y-121249000D02*
X195210000Y-121249000D01*
X197290000Y-121289000D02*
X198648000Y-121289000D01*
X193852000Y-121289000D02*
X195210000Y-121289000D01*
X197290000Y-121329000D02*
X198664000Y-121329000D01*
X193836000Y-121329000D02*
X195210000Y-121329000D01*
X197290000Y-121369000D02*
X198678000Y-121369000D01*
X193822000Y-121369000D02*
X195210000Y-121369000D01*
X197290000Y-121409000D02*
X198692000Y-121409000D01*
X193808000Y-121409000D02*
X195210000Y-121409000D01*
X197290000Y-121449000D02*
X198705000Y-121449000D01*
X193795000Y-121449000D02*
X195210000Y-121449000D01*
X197290000Y-121489000D02*
X198718000Y-121489000D01*
X193782000Y-121489000D02*
X195210000Y-121489000D01*
X197290000Y-121529000D02*
X198730000Y-121529000D01*
X193770000Y-121529000D02*
X195210000Y-121529000D01*
X197290000Y-121570000D02*
X198741000Y-121570000D01*
X193759000Y-121570000D02*
X195210000Y-121570000D01*
X197290000Y-121610000D02*
X198751000Y-121610000D01*
X193749000Y-121610000D02*
X195210000Y-121610000D01*
X197290000Y-121650000D02*
X198761000Y-121650000D01*
X193739000Y-121650000D02*
X195210000Y-121650000D01*
X197290000Y-121690000D02*
X198770000Y-121690000D01*
X193730000Y-121690000D02*
X195210000Y-121690000D01*
X197290000Y-121730000D02*
X198778000Y-121730000D01*
X193722000Y-121730000D02*
X195210000Y-121730000D01*
X197290000Y-121770000D02*
X198786000Y-121770000D01*
X193714000Y-121770000D02*
X195210000Y-121770000D01*
X197290000Y-121810000D02*
X198793000Y-121810000D01*
X193707000Y-121810000D02*
X195210000Y-121810000D01*
X197290000Y-121850000D02*
X198800000Y-121850000D01*
X193700000Y-121850000D02*
X195210000Y-121850000D01*
X197290000Y-121890000D02*
X198806000Y-121890000D01*
X193694000Y-121890000D02*
X195210000Y-121890000D01*
X197290000Y-121930000D02*
X198811000Y-121930000D01*
X193689000Y-121930000D02*
X195210000Y-121930000D01*
X197290000Y-121970000D02*
X198815000Y-121970000D01*
X193685000Y-121970000D02*
X195210000Y-121970000D01*
X197290000Y-122010000D02*
X198819000Y-122010000D01*
X193681000Y-122010000D02*
X195210000Y-122010000D01*
X197290000Y-122050000D02*
X198823000Y-122050000D01*
X193677000Y-122050000D02*
X195210000Y-122050000D01*
X197290000Y-122090000D02*
X198826000Y-122090000D01*
X193674000Y-122090000D02*
X195210000Y-122090000D01*
X197290000Y-122130000D02*
X198828000Y-122130000D01*
X193672000Y-122130000D02*
X195210000Y-122130000D01*
X197290000Y-122170000D02*
X198829000Y-122170000D01*
X193671000Y-122170000D02*
X195210000Y-122170000D01*
X193670000Y-122210000D02*
X195210000Y-122210000D01*
X197290000Y-122210000D02*
X198830000Y-122210000D01*
X193670000Y-122250000D02*
X195210000Y-122250000D01*
X197290000Y-122250000D02*
X198830000Y-122250000D01*
X198870000Y-122250000D02*
G75*
G03*
X198870000Y-122250000I-2620000J0D01*
G01*
%TO.C,Q1*%
X149150000Y-77740000D02*
X149150000Y-81340000D01*
X149877205Y-77215816D02*
G75*
G03*
X149150000Y-77740000I1122795J-2324184D01*
G01*
X152098807Y-77183600D02*
G75*
G02*
X153600000Y-79540000I-1098807J-2356400D01*
G01*
X152098807Y-81896400D02*
G75*
G03*
X153600000Y-79540000I-1098807J2356400D01*
G01*
X149877205Y-81864184D02*
G75*
G02*
X149150000Y-81340000I1122795J2324184D01*
G01*
%TO.C,R1*%
X151538000Y-99028000D02*
X154278000Y-99028000D01*
X154278000Y-99028000D02*
X154278000Y-92488000D01*
X154278000Y-92488000D02*
X151538000Y-92488000D01*
X151538000Y-92488000D02*
X151538000Y-99028000D01*
X152908000Y-99798000D02*
X152908000Y-99028000D01*
X152908000Y-91718000D02*
X152908000Y-92488000D01*
%TO.C,R2*%
X146500873Y-80226600D02*
X144563400Y-78289127D01*
X144563400Y-78289127D02*
X139938922Y-82913605D01*
X139938922Y-82913605D02*
X141876395Y-84851078D01*
X141876395Y-84851078D02*
X146500873Y-80226600D01*
X146076609Y-78713391D02*
X145532137Y-79257863D01*
X140363186Y-84426814D02*
X140907658Y-83882342D01*
%TO.C,R3*%
X147574000Y-99036000D02*
X147574000Y-98266000D01*
X147574000Y-90956000D02*
X147574000Y-91726000D01*
X148944000Y-98266000D02*
X148944000Y-91726000D01*
X146204000Y-98266000D02*
X148944000Y-98266000D01*
X146204000Y-91726000D02*
X146204000Y-98266000D01*
X148944000Y-91726000D02*
X146204000Y-91726000D01*
%TO.C,R4*%
X181832000Y-113638000D02*
X181832000Y-110898000D01*
X181832000Y-110898000D02*
X175292000Y-110898000D01*
X175292000Y-110898000D02*
X175292000Y-113638000D01*
X175292000Y-113638000D02*
X181832000Y-113638000D01*
X182602000Y-112268000D02*
X181832000Y-112268000D01*
X174522000Y-112268000D02*
X175292000Y-112268000D01*
%TO.C,R5*%
X183110000Y-80010000D02*
X182340000Y-80010000D01*
X175030000Y-80010000D02*
X175800000Y-80010000D01*
X182340000Y-78640000D02*
X175800000Y-78640000D01*
X182340000Y-81380000D02*
X182340000Y-78640000D01*
X175800000Y-81380000D02*
X182340000Y-81380000D01*
X175800000Y-78640000D02*
X175800000Y-81380000D01*
%TO.C,R6*%
X144050000Y-85244000D02*
X144050000Y-87984000D01*
X144050000Y-87984000D02*
X150590000Y-87984000D01*
X150590000Y-87984000D02*
X150590000Y-85244000D01*
X150590000Y-85244000D02*
X144050000Y-85244000D01*
X143280000Y-86614000D02*
X144050000Y-86614000D01*
X151360000Y-86614000D02*
X150590000Y-86614000D01*
%TO.C,R7*%
X140870000Y-98012000D02*
X143610000Y-98012000D01*
X143610000Y-98012000D02*
X143610000Y-91472000D01*
X143610000Y-91472000D02*
X140870000Y-91472000D01*
X140870000Y-91472000D02*
X140870000Y-98012000D01*
X142240000Y-98782000D02*
X142240000Y-98012000D01*
X142240000Y-90702000D02*
X142240000Y-91472000D01*
%TO.C,R8*%
X175440000Y-108620000D02*
X175440000Y-105880000D01*
X175440000Y-105880000D02*
X168900000Y-105880000D01*
X168900000Y-105880000D02*
X168900000Y-108620000D01*
X168900000Y-108620000D02*
X175440000Y-108620000D01*
X176210000Y-107250000D02*
X175440000Y-107250000D01*
X168130000Y-107250000D02*
X168900000Y-107250000D01*
%TO.C,R9*%
X194154814Y-86458814D02*
X193610342Y-85914342D01*
X188441391Y-80745391D02*
X188985863Y-81289863D01*
X194579078Y-84945605D02*
X189954600Y-80321127D01*
X192641605Y-86883078D02*
X194579078Y-84945605D01*
X188017127Y-82258600D02*
X192641605Y-86883078D01*
X189954600Y-80321127D02*
X188017127Y-82258600D01*
%TO.C,R10*%
X143100814Y-75593186D02*
X142556342Y-76137658D01*
X137387391Y-81306609D02*
X137931863Y-80762137D01*
X141587605Y-75168922D02*
X136963127Y-79793400D01*
X143525078Y-77106395D02*
X141587605Y-75168922D01*
X138900600Y-81730873D02*
X143525078Y-77106395D01*
X136963127Y-79793400D02*
X138900600Y-81730873D01*
%TO.C,R11*%
X157810000Y-77630000D02*
X157810000Y-80370000D01*
X157810000Y-80370000D02*
X164350000Y-80370000D01*
X164350000Y-80370000D02*
X164350000Y-77630000D01*
X164350000Y-77630000D02*
X157810000Y-77630000D01*
X157040000Y-79000000D02*
X157810000Y-79000000D01*
X165120000Y-79000000D02*
X164350000Y-79000000D01*
%TO.C,R12*%
X189810000Y-92630000D02*
X189810000Y-95370000D01*
X189810000Y-95370000D02*
X196350000Y-95370000D01*
X196350000Y-95370000D02*
X196350000Y-92630000D01*
X196350000Y-92630000D02*
X189810000Y-92630000D01*
X189040000Y-94000000D02*
X189810000Y-94000000D01*
X197120000Y-94000000D02*
X196350000Y-94000000D01*
%TO.C,R13*%
X157250000Y-84582000D02*
X158020000Y-84582000D01*
X165330000Y-84582000D02*
X164560000Y-84582000D01*
X158020000Y-85952000D02*
X164560000Y-85952000D01*
X158020000Y-83212000D02*
X158020000Y-85952000D01*
X164560000Y-83212000D02*
X158020000Y-83212000D01*
X164560000Y-85952000D02*
X164560000Y-83212000D01*
%TO.C,R14*%
X165584000Y-95758000D02*
X164814000Y-95758000D01*
X157504000Y-95758000D02*
X158274000Y-95758000D01*
X164814000Y-94388000D02*
X158274000Y-94388000D01*
X164814000Y-97128000D02*
X164814000Y-94388000D01*
X158274000Y-97128000D02*
X164814000Y-97128000D01*
X158274000Y-94388000D02*
X158274000Y-97128000D01*
%TO.C,R15*%
X196572000Y-99822000D02*
X195802000Y-99822000D01*
X188492000Y-99822000D02*
X189262000Y-99822000D01*
X195802000Y-98452000D02*
X189262000Y-98452000D01*
X195802000Y-101192000D02*
X195802000Y-98452000D01*
X189262000Y-101192000D02*
X195802000Y-101192000D01*
X189262000Y-98452000D02*
X189262000Y-101192000D01*
%TO.C,R16*%
X165584000Y-90424000D02*
X164814000Y-90424000D01*
X157504000Y-90424000D02*
X158274000Y-90424000D01*
X164814000Y-89054000D02*
X158274000Y-89054000D01*
X164814000Y-91794000D02*
X164814000Y-89054000D01*
X158274000Y-91794000D02*
X164814000Y-91794000D01*
X158274000Y-89054000D02*
X158274000Y-91794000D01*
%TO.C,U1*%
X182950000Y-84610000D02*
X172670000Y-84610000D01*
X182950000Y-102630000D02*
X182950000Y-84610000D01*
X172670000Y-102630000D02*
X182950000Y-102630000D01*
X172670000Y-84610000D02*
X172670000Y-102630000D01*
X180460000Y-84670000D02*
X178810000Y-84670000D01*
X180460000Y-102570000D02*
X180460000Y-84670000D01*
X175160000Y-102570000D02*
X180460000Y-102570000D01*
X175160000Y-84670000D02*
X175160000Y-102570000D01*
X176810000Y-84670000D02*
X175160000Y-84670000D01*
X178810000Y-84670000D02*
G75*
G02*
X176810000Y-84670000I-1000000J0D01*
G01*
%TO.C,C9*%
X152718000Y-104902000D02*
G75*
G03*
X152718000Y-104902000I-2620000J0D01*
G01*
X150098000Y-105942000D02*
X150098000Y-107482000D01*
X150098000Y-102322000D02*
X150098000Y-103862000D01*
X150138000Y-105942000D02*
X150138000Y-107482000D01*
X150138000Y-102322000D02*
X150138000Y-103862000D01*
X150178000Y-102323000D02*
X150178000Y-103862000D01*
X150178000Y-105942000D02*
X150178000Y-107481000D01*
X150218000Y-102324000D02*
X150218000Y-103862000D01*
X150218000Y-105942000D02*
X150218000Y-107480000D01*
X150258000Y-102326000D02*
X150258000Y-103862000D01*
X150258000Y-105942000D02*
X150258000Y-107478000D01*
X150298000Y-102329000D02*
X150298000Y-103862000D01*
X150298000Y-105942000D02*
X150298000Y-107475000D01*
X150338000Y-102333000D02*
X150338000Y-103862000D01*
X150338000Y-105942000D02*
X150338000Y-107471000D01*
X150378000Y-102337000D02*
X150378000Y-103862000D01*
X150378000Y-105942000D02*
X150378000Y-107467000D01*
X150418000Y-102341000D02*
X150418000Y-103862000D01*
X150418000Y-105942000D02*
X150418000Y-107463000D01*
X150458000Y-102346000D02*
X150458000Y-103862000D01*
X150458000Y-105942000D02*
X150458000Y-107458000D01*
X150498000Y-102352000D02*
X150498000Y-103862000D01*
X150498000Y-105942000D02*
X150498000Y-107452000D01*
X150538000Y-102359000D02*
X150538000Y-103862000D01*
X150538000Y-105942000D02*
X150538000Y-107445000D01*
X150578000Y-102366000D02*
X150578000Y-103862000D01*
X150578000Y-105942000D02*
X150578000Y-107438000D01*
X150618000Y-102374000D02*
X150618000Y-103862000D01*
X150618000Y-105942000D02*
X150618000Y-107430000D01*
X150658000Y-102382000D02*
X150658000Y-103862000D01*
X150658000Y-105942000D02*
X150658000Y-107422000D01*
X150698000Y-102391000D02*
X150698000Y-103862000D01*
X150698000Y-105942000D02*
X150698000Y-107413000D01*
X150738000Y-102401000D02*
X150738000Y-103862000D01*
X150738000Y-105942000D02*
X150738000Y-107403000D01*
X150778000Y-102411000D02*
X150778000Y-103862000D01*
X150778000Y-105942000D02*
X150778000Y-107393000D01*
X150819000Y-102422000D02*
X150819000Y-103862000D01*
X150819000Y-105942000D02*
X150819000Y-107382000D01*
X150859000Y-102434000D02*
X150859000Y-103862000D01*
X150859000Y-105942000D02*
X150859000Y-107370000D01*
X150899000Y-102447000D02*
X150899000Y-103862000D01*
X150899000Y-105942000D02*
X150899000Y-107357000D01*
X150939000Y-102460000D02*
X150939000Y-103862000D01*
X150939000Y-105942000D02*
X150939000Y-107344000D01*
X150979000Y-102474000D02*
X150979000Y-103862000D01*
X150979000Y-105942000D02*
X150979000Y-107330000D01*
X151019000Y-102488000D02*
X151019000Y-103862000D01*
X151019000Y-105942000D02*
X151019000Y-107316000D01*
X151059000Y-102504000D02*
X151059000Y-103862000D01*
X151059000Y-105942000D02*
X151059000Y-107300000D01*
X151099000Y-102520000D02*
X151099000Y-103862000D01*
X151099000Y-105942000D02*
X151099000Y-107284000D01*
X151139000Y-102537000D02*
X151139000Y-103862000D01*
X151139000Y-105942000D02*
X151139000Y-107267000D01*
X151179000Y-102554000D02*
X151179000Y-103862000D01*
X151179000Y-105942000D02*
X151179000Y-107250000D01*
X151219000Y-102573000D02*
X151219000Y-103862000D01*
X151219000Y-105942000D02*
X151219000Y-107231000D01*
X151259000Y-102592000D02*
X151259000Y-103862000D01*
X151259000Y-105942000D02*
X151259000Y-107212000D01*
X151299000Y-102612000D02*
X151299000Y-103862000D01*
X151299000Y-105942000D02*
X151299000Y-107192000D01*
X151339000Y-102634000D02*
X151339000Y-103862000D01*
X151339000Y-105942000D02*
X151339000Y-107170000D01*
X151379000Y-102655000D02*
X151379000Y-103862000D01*
X151379000Y-105942000D02*
X151379000Y-107149000D01*
X151419000Y-102678000D02*
X151419000Y-103862000D01*
X151419000Y-105942000D02*
X151419000Y-107126000D01*
X151459000Y-102702000D02*
X151459000Y-103862000D01*
X151459000Y-105942000D02*
X151459000Y-107102000D01*
X151499000Y-102727000D02*
X151499000Y-103862000D01*
X151499000Y-105942000D02*
X151499000Y-107077000D01*
X151539000Y-102753000D02*
X151539000Y-103862000D01*
X151539000Y-105942000D02*
X151539000Y-107051000D01*
X151579000Y-102780000D02*
X151579000Y-103862000D01*
X151579000Y-105942000D02*
X151579000Y-107024000D01*
X151619000Y-102807000D02*
X151619000Y-103862000D01*
X151619000Y-105942000D02*
X151619000Y-106997000D01*
X151659000Y-102837000D02*
X151659000Y-103862000D01*
X151659000Y-105942000D02*
X151659000Y-106967000D01*
X151699000Y-102867000D02*
X151699000Y-103862000D01*
X151699000Y-105942000D02*
X151699000Y-106937000D01*
X151739000Y-102898000D02*
X151739000Y-103862000D01*
X151739000Y-105942000D02*
X151739000Y-106906000D01*
X151779000Y-102931000D02*
X151779000Y-103862000D01*
X151779000Y-105942000D02*
X151779000Y-106873000D01*
X151819000Y-102965000D02*
X151819000Y-103862000D01*
X151819000Y-105942000D02*
X151819000Y-106839000D01*
X151859000Y-103001000D02*
X151859000Y-103862000D01*
X151859000Y-105942000D02*
X151859000Y-106803000D01*
X151899000Y-103038000D02*
X151899000Y-103862000D01*
X151899000Y-105942000D02*
X151899000Y-106766000D01*
X151939000Y-103076000D02*
X151939000Y-103862000D01*
X151939000Y-105942000D02*
X151939000Y-106728000D01*
X151979000Y-103117000D02*
X151979000Y-103862000D01*
X151979000Y-105942000D02*
X151979000Y-106687000D01*
X152019000Y-103159000D02*
X152019000Y-103862000D01*
X152019000Y-105942000D02*
X152019000Y-106645000D01*
X152059000Y-103203000D02*
X152059000Y-103862000D01*
X152059000Y-105942000D02*
X152059000Y-106601000D01*
X152099000Y-103249000D02*
X152099000Y-103862000D01*
X152099000Y-105942000D02*
X152099000Y-106555000D01*
X152139000Y-103297000D02*
X152139000Y-106507000D01*
X152179000Y-103348000D02*
X152179000Y-106456000D01*
X152219000Y-103402000D02*
X152219000Y-106402000D01*
X152259000Y-103459000D02*
X152259000Y-106345000D01*
X152299000Y-103519000D02*
X152299000Y-106285000D01*
X152339000Y-103583000D02*
X152339000Y-106221000D01*
X152379000Y-103651000D02*
X152379000Y-106153000D01*
X152419000Y-103724000D02*
X152419000Y-106080000D01*
X152459000Y-103804000D02*
X152459000Y-106000000D01*
X152499000Y-103891000D02*
X152499000Y-105913000D01*
X152539000Y-103987000D02*
X152539000Y-105817000D01*
X152579000Y-104097000D02*
X152579000Y-105707000D01*
X152619000Y-104225000D02*
X152619000Y-105579000D01*
X152659000Y-104384000D02*
X152659000Y-105420000D01*
X152699000Y-104618000D02*
X152699000Y-105186000D01*
X147293225Y-103427000D02*
X147793225Y-103427000D01*
X147543225Y-103177000D02*
X147543225Y-103677000D01*
%TO.C,C2*%
D12*
X168037142Y-81994666D02*
X168084761Y-82042285D01*
X168132380Y-82185142D01*
X168132380Y-82280380D01*
X168084761Y-82423238D01*
X167989523Y-82518476D01*
X167894285Y-82566095D01*
X167703809Y-82613714D01*
X167560952Y-82613714D01*
X167370476Y-82566095D01*
X167275238Y-82518476D01*
X167180000Y-82423238D01*
X167132380Y-82280380D01*
X167132380Y-82185142D01*
X167180000Y-82042285D01*
X167227619Y-81994666D01*
X167227619Y-81613714D02*
X167180000Y-81566095D01*
X167132380Y-81470857D01*
X167132380Y-81232761D01*
X167180000Y-81137523D01*
X167227619Y-81089904D01*
X167322857Y-81042285D01*
X167418095Y-81042285D01*
X167560952Y-81089904D01*
X168132380Y-81661333D01*
X168132380Y-81042285D01*
%TO.C,C8*%
X135993142Y-91606666D02*
X136040761Y-91654285D01*
X136088380Y-91797142D01*
X136088380Y-91892380D01*
X136040761Y-92035238D01*
X135945523Y-92130476D01*
X135850285Y-92178095D01*
X135659809Y-92225714D01*
X135516952Y-92225714D01*
X135326476Y-92178095D01*
X135231238Y-92130476D01*
X135136000Y-92035238D01*
X135088380Y-91892380D01*
X135088380Y-91797142D01*
X135136000Y-91654285D01*
X135183619Y-91606666D01*
X135516952Y-91035238D02*
X135469333Y-91130476D01*
X135421714Y-91178095D01*
X135326476Y-91225714D01*
X135278857Y-91225714D01*
X135183619Y-91178095D01*
X135136000Y-91130476D01*
X135088380Y-91035238D01*
X135088380Y-90844761D01*
X135136000Y-90749523D01*
X135183619Y-90701904D01*
X135278857Y-90654285D01*
X135326476Y-90654285D01*
X135421714Y-90701904D01*
X135469333Y-90749523D01*
X135516952Y-90844761D01*
X135516952Y-91035238D01*
X135564571Y-91130476D01*
X135612190Y-91178095D01*
X135707428Y-91225714D01*
X135897904Y-91225714D01*
X135993142Y-91178095D01*
X136040761Y-91130476D01*
X136088380Y-91035238D01*
X136088380Y-90844761D01*
X136040761Y-90749523D01*
X135993142Y-90701904D01*
X135897904Y-90654285D01*
X135707428Y-90654285D01*
X135612190Y-90701904D01*
X135564571Y-90749523D01*
X135516952Y-90844761D01*
%TO.C,C5*%
X141839333Y-131421142D02*
X141791714Y-131468761D01*
X141648857Y-131516380D01*
X141553619Y-131516380D01*
X141410761Y-131468761D01*
X141315523Y-131373523D01*
X141267904Y-131278285D01*
X141220285Y-131087809D01*
X141220285Y-130944952D01*
X141267904Y-130754476D01*
X141315523Y-130659238D01*
X141410761Y-130564000D01*
X141553619Y-130516380D01*
X141648857Y-130516380D01*
X141791714Y-130564000D01*
X141839333Y-130611619D01*
X142744095Y-130516380D02*
X142267904Y-130516380D01*
X142220285Y-130992571D01*
X142267904Y-130944952D01*
X142363142Y-130897333D01*
X142601238Y-130897333D01*
X142696476Y-130944952D01*
X142744095Y-130992571D01*
X142791714Y-131087809D01*
X142791714Y-131325904D01*
X142744095Y-131421142D01*
X142696476Y-131468761D01*
X142601238Y-131516380D01*
X142363142Y-131516380D01*
X142267904Y-131468761D01*
X142220285Y-131421142D01*
%TO.C,Intensity1*%
X207208380Y-121006761D02*
X206208380Y-121006761D01*
X206541714Y-120530571D02*
X207208380Y-120530571D01*
X206636952Y-120530571D02*
X206589333Y-120482952D01*
X206541714Y-120387714D01*
X206541714Y-120244857D01*
X206589333Y-120149619D01*
X206684571Y-120102000D01*
X207208380Y-120102000D01*
X206541714Y-119768666D02*
X206541714Y-119387714D01*
X206208380Y-119625809D02*
X207065523Y-119625809D01*
X207160761Y-119578190D01*
X207208380Y-119482952D01*
X207208380Y-119387714D01*
X207160761Y-118673428D02*
X207208380Y-118768666D01*
X207208380Y-118959142D01*
X207160761Y-119054380D01*
X207065523Y-119102000D01*
X206684571Y-119102000D01*
X206589333Y-119054380D01*
X206541714Y-118959142D01*
X206541714Y-118768666D01*
X206589333Y-118673428D01*
X206684571Y-118625809D01*
X206779809Y-118625809D01*
X206875047Y-119102000D01*
X206541714Y-118197238D02*
X207208380Y-118197238D01*
X206636952Y-118197238D02*
X206589333Y-118149619D01*
X206541714Y-118054380D01*
X206541714Y-117911523D01*
X206589333Y-117816285D01*
X206684571Y-117768666D01*
X207208380Y-117768666D01*
X207160761Y-117340095D02*
X207208380Y-117244857D01*
X207208380Y-117054380D01*
X207160761Y-116959142D01*
X207065523Y-116911523D01*
X207017904Y-116911523D01*
X206922666Y-116959142D01*
X206875047Y-117054380D01*
X206875047Y-117197238D01*
X206827428Y-117292476D01*
X206732190Y-117340095D01*
X206684571Y-117340095D01*
X206589333Y-117292476D01*
X206541714Y-117197238D01*
X206541714Y-117054380D01*
X206589333Y-116959142D01*
X207208380Y-116482952D02*
X206541714Y-116482952D01*
X206208380Y-116482952D02*
X206256000Y-116530571D01*
X206303619Y-116482952D01*
X206256000Y-116435333D01*
X206208380Y-116482952D01*
X206303619Y-116482952D01*
X206541714Y-116149619D02*
X206541714Y-115768666D01*
X206208380Y-116006761D02*
X207065523Y-116006761D01*
X207160761Y-115959142D01*
X207208380Y-115863904D01*
X207208380Y-115768666D01*
X206541714Y-115530571D02*
X207208380Y-115292476D01*
X206541714Y-115054380D02*
X207208380Y-115292476D01*
X207446476Y-115387714D01*
X207494095Y-115435333D01*
X207541714Y-115530571D01*
X207208380Y-114149619D02*
X207208380Y-114721047D01*
X207208380Y-114435333D02*
X206208380Y-114435333D01*
X206351238Y-114530571D01*
X206446476Y-114625809D01*
X206494095Y-114721047D01*
%TO.C,Rate1*%
X129952380Y-115333333D02*
X129476190Y-115666666D01*
X129952380Y-115904761D02*
X128952380Y-115904761D01*
X128952380Y-115523809D01*
X129000000Y-115428571D01*
X129047619Y-115380952D01*
X129142857Y-115333333D01*
X129285714Y-115333333D01*
X129380952Y-115380952D01*
X129428571Y-115428571D01*
X129476190Y-115523809D01*
X129476190Y-115904761D01*
X129952380Y-114476190D02*
X129428571Y-114476190D01*
X129333333Y-114523809D01*
X129285714Y-114619047D01*
X129285714Y-114809523D01*
X129333333Y-114904761D01*
X129904761Y-114476190D02*
X129952380Y-114571428D01*
X129952380Y-114809523D01*
X129904761Y-114904761D01*
X129809523Y-114952380D01*
X129714285Y-114952380D01*
X129619047Y-114904761D01*
X129571428Y-114809523D01*
X129571428Y-114571428D01*
X129523809Y-114476190D01*
X129285714Y-114142857D02*
X129285714Y-113761904D01*
X128952380Y-114000000D02*
X129809523Y-114000000D01*
X129904761Y-113952380D01*
X129952380Y-113857142D01*
X129952380Y-113761904D01*
X129904761Y-113047619D02*
X129952380Y-113142857D01*
X129952380Y-113333333D01*
X129904761Y-113428571D01*
X129809523Y-113476190D01*
X129428571Y-113476190D01*
X129333333Y-113428571D01*
X129285714Y-113333333D01*
X129285714Y-113142857D01*
X129333333Y-113047619D01*
X129428571Y-113000000D01*
X129523809Y-113000000D01*
X129619047Y-113476190D01*
X129952380Y-112047619D02*
X129952380Y-112619047D01*
X129952380Y-112333333D02*
X128952380Y-112333333D01*
X129095238Y-112428571D01*
X129190476Y-112523809D01*
X129238095Y-112619047D01*
%TO.C,U4*%
X185928095Y-124504380D02*
X185928095Y-125313904D01*
X185975714Y-125409142D01*
X186023333Y-125456761D01*
X186118571Y-125504380D01*
X186309047Y-125504380D01*
X186404285Y-125456761D01*
X186451904Y-125409142D01*
X186499523Y-125313904D01*
X186499523Y-124504380D01*
X187404285Y-124837714D02*
X187404285Y-125504380D01*
X187166190Y-124456761D02*
X186928095Y-125171047D01*
X187547142Y-125171047D01*
%TO.C,U5*%
X155448095Y-125008380D02*
X155448095Y-125817904D01*
X155495714Y-125913142D01*
X155543333Y-125960761D01*
X155638571Y-126008380D01*
X155829047Y-126008380D01*
X155924285Y-125960761D01*
X155971904Y-125913142D01*
X156019523Y-125817904D01*
X156019523Y-125008380D01*
X156971904Y-125008380D02*
X156495714Y-125008380D01*
X156448095Y-125484571D01*
X156495714Y-125436952D01*
X156590952Y-125389333D01*
X156829047Y-125389333D01*
X156924285Y-125436952D01*
X156971904Y-125484571D01*
X157019523Y-125579809D01*
X157019523Y-125817904D01*
X156971904Y-125913142D01*
X156924285Y-125960761D01*
X156829047Y-126008380D01*
X156590952Y-126008380D01*
X156495714Y-125960761D01*
X156448095Y-125913142D01*
%TO.C,C1*%
X131167142Y-91352666D02*
X131214761Y-91400285D01*
X131262380Y-91543142D01*
X131262380Y-91638380D01*
X131214761Y-91781238D01*
X131119523Y-91876476D01*
X131024285Y-91924095D01*
X130833809Y-91971714D01*
X130690952Y-91971714D01*
X130500476Y-91924095D01*
X130405238Y-91876476D01*
X130310000Y-91781238D01*
X130262380Y-91638380D01*
X130262380Y-91543142D01*
X130310000Y-91400285D01*
X130357619Y-91352666D01*
X131262380Y-90400285D02*
X131262380Y-90971714D01*
X131262380Y-90686000D02*
X130262380Y-90686000D01*
X130405238Y-90781238D01*
X130500476Y-90876476D01*
X130548095Y-90971714D01*
%TO.C,C3*%
X171333333Y-71107142D02*
X171285714Y-71154761D01*
X171142857Y-71202380D01*
X171047619Y-71202380D01*
X170904761Y-71154761D01*
X170809523Y-71059523D01*
X170761904Y-70964285D01*
X170714285Y-70773809D01*
X170714285Y-70630952D01*
X170761904Y-70440476D01*
X170809523Y-70345238D01*
X170904761Y-70250000D01*
X171047619Y-70202380D01*
X171142857Y-70202380D01*
X171285714Y-70250000D01*
X171333333Y-70297619D01*
X171666666Y-70202380D02*
X172285714Y-70202380D01*
X171952380Y-70583333D01*
X172095238Y-70583333D01*
X172190476Y-70630952D01*
X172238095Y-70678571D01*
X172285714Y-70773809D01*
X172285714Y-71011904D01*
X172238095Y-71107142D01*
X172190476Y-71154761D01*
X172095238Y-71202380D01*
X171809523Y-71202380D01*
X171714285Y-71154761D01*
X171666666Y-71107142D01*
%TO.C,C4*%
X171333333Y-117357142D02*
X171285714Y-117404761D01*
X171142857Y-117452380D01*
X171047619Y-117452380D01*
X170904761Y-117404761D01*
X170809523Y-117309523D01*
X170761904Y-117214285D01*
X170714285Y-117023809D01*
X170714285Y-116880952D01*
X170761904Y-116690476D01*
X170809523Y-116595238D01*
X170904761Y-116500000D01*
X171047619Y-116452380D01*
X171142857Y-116452380D01*
X171285714Y-116500000D01*
X171333333Y-116547619D01*
X172190476Y-116785714D02*
X172190476Y-117452380D01*
X171952380Y-116404761D02*
X171714285Y-117119047D01*
X172333333Y-117119047D01*
%TO.C,C6*%
X145613333Y-114971142D02*
X145565714Y-115018761D01*
X145422857Y-115066380D01*
X145327619Y-115066380D01*
X145184761Y-115018761D01*
X145089523Y-114923523D01*
X145041904Y-114828285D01*
X144994285Y-114637809D01*
X144994285Y-114494952D01*
X145041904Y-114304476D01*
X145089523Y-114209238D01*
X145184761Y-114114000D01*
X145327619Y-114066380D01*
X145422857Y-114066380D01*
X145565714Y-114114000D01*
X145613333Y-114161619D01*
X146470476Y-114066380D02*
X146280000Y-114066380D01*
X146184761Y-114114000D01*
X146137142Y-114161619D01*
X146041904Y-114304476D01*
X145994285Y-114494952D01*
X145994285Y-114875904D01*
X146041904Y-114971142D01*
X146089523Y-115018761D01*
X146184761Y-115066380D01*
X146375238Y-115066380D01*
X146470476Y-115018761D01*
X146518095Y-114971142D01*
X146565714Y-114875904D01*
X146565714Y-114637809D01*
X146518095Y-114542571D01*
X146470476Y-114494952D01*
X146375238Y-114447333D01*
X146184761Y-114447333D01*
X146089523Y-114494952D01*
X146041904Y-114542571D01*
X145994285Y-114637809D01*
%TO.C,C7*%
X192857142Y-122416666D02*
X192904761Y-122464285D01*
X192952380Y-122607142D01*
X192952380Y-122702380D01*
X192904761Y-122845238D01*
X192809523Y-122940476D01*
X192714285Y-122988095D01*
X192523809Y-123035714D01*
X192380952Y-123035714D01*
X192190476Y-122988095D01*
X192095238Y-122940476D01*
X192000000Y-122845238D01*
X191952380Y-122702380D01*
X191952380Y-122607142D01*
X192000000Y-122464285D01*
X192047619Y-122416666D01*
X191952380Y-122083333D02*
X191952380Y-121416666D01*
X192952380Y-121845238D01*
%TO.C,J1*%
X139112666Y-102674380D02*
X139112666Y-103388666D01*
X139065047Y-103531523D01*
X138969809Y-103626761D01*
X138826952Y-103674380D01*
X138731714Y-103674380D01*
X140112666Y-103674380D02*
X139541238Y-103674380D01*
X139826952Y-103674380D02*
X139826952Y-102674380D01*
X139731714Y-102817238D01*
X139636476Y-102912476D01*
X139541238Y-102960095D01*
%TO.C,J2*%
X152320666Y-112990380D02*
X152320666Y-113704666D01*
X152273047Y-113847523D01*
X152177809Y-113942761D01*
X152034952Y-113990380D01*
X151939714Y-113990380D01*
X152749238Y-113085619D02*
X152796857Y-113038000D01*
X152892095Y-112990380D01*
X153130190Y-112990380D01*
X153225428Y-113038000D01*
X153273047Y-113085619D01*
X153320666Y-113180857D01*
X153320666Y-113276095D01*
X153273047Y-113418952D01*
X152701619Y-113990380D01*
X153320666Y-113990380D01*
%TO.C,J3*%
X190166666Y-103690380D02*
X190166666Y-104404666D01*
X190119047Y-104547523D01*
X190023809Y-104642761D01*
X189880952Y-104690380D01*
X189785714Y-104690380D01*
X190547619Y-103690380D02*
X191166666Y-103690380D01*
X190833333Y-104071333D01*
X190976190Y-104071333D01*
X191071428Y-104118952D01*
X191119047Y-104166571D01*
X191166666Y-104261809D01*
X191166666Y-104499904D01*
X191119047Y-104595142D01*
X191071428Y-104642761D01*
X190976190Y-104690380D01*
X190690476Y-104690380D01*
X190595238Y-104642761D01*
X190547619Y-104595142D01*
%TO.C,J4*%
X142160666Y-109024380D02*
X142160666Y-109738666D01*
X142113047Y-109881523D01*
X142017809Y-109976761D01*
X141874952Y-110024380D01*
X141779714Y-110024380D01*
X143065428Y-109357714D02*
X143065428Y-110024380D01*
X142827333Y-108976761D02*
X142589238Y-109691047D01*
X143208285Y-109691047D01*
%TO.C,J5*%
X132508666Y-101814380D02*
X132508666Y-102528666D01*
X132461047Y-102671523D01*
X132365809Y-102766761D01*
X132222952Y-102814380D01*
X132127714Y-102814380D01*
X133461047Y-101814380D02*
X132984857Y-101814380D01*
X132937238Y-102290571D01*
X132984857Y-102242952D01*
X133080095Y-102195333D01*
X133318190Y-102195333D01*
X133413428Y-102242952D01*
X133461047Y-102290571D01*
X133508666Y-102385809D01*
X133508666Y-102623904D01*
X133461047Y-102719142D01*
X133413428Y-102766761D01*
X133318190Y-102814380D01*
X133080095Y-102814380D01*
X132984857Y-102766761D01*
X132937238Y-102719142D01*
%TO.C,J6*%
X180666666Y-71002380D02*
X180666666Y-71716666D01*
X180619047Y-71859523D01*
X180523809Y-71954761D01*
X180380952Y-72002380D01*
X180285714Y-72002380D01*
X181571428Y-71002380D02*
X181380952Y-71002380D01*
X181285714Y-71050000D01*
X181238095Y-71097619D01*
X181142857Y-71240476D01*
X181095238Y-71430952D01*
X181095238Y-71811904D01*
X181142857Y-71907142D01*
X181190476Y-71954761D01*
X181285714Y-72002380D01*
X181476190Y-72002380D01*
X181571428Y-71954761D01*
X181619047Y-71907142D01*
X181666666Y-71811904D01*
X181666666Y-71573809D01*
X181619047Y-71478571D01*
X181571428Y-71430952D01*
X181476190Y-71383333D01*
X181285714Y-71383333D01*
X181190476Y-71430952D01*
X181142857Y-71478571D01*
X181095238Y-71573809D01*
%TO.C,J7*%
X163166666Y-69252380D02*
X163166666Y-69966666D01*
X163119047Y-70109523D01*
X163023809Y-70204761D01*
X162880952Y-70252380D01*
X162785714Y-70252380D01*
X163547619Y-69252380D02*
X164214285Y-69252380D01*
X163785714Y-70252380D01*
%TO.C,Q1*%
X154547619Y-81595238D02*
X154500000Y-81690476D01*
X154404761Y-81785714D01*
X154261904Y-81928571D01*
X154214285Y-82023809D01*
X154214285Y-82119047D01*
X154452380Y-82071428D02*
X154404761Y-82166666D01*
X154309523Y-82261904D01*
X154119047Y-82309523D01*
X153785714Y-82309523D01*
X153595238Y-82261904D01*
X153500000Y-82166666D01*
X153452380Y-82071428D01*
X153452380Y-81880952D01*
X153500000Y-81785714D01*
X153595238Y-81690476D01*
X153785714Y-81642857D01*
X154119047Y-81642857D01*
X154309523Y-81690476D01*
X154404761Y-81785714D01*
X154452380Y-81880952D01*
X154452380Y-82071428D01*
X154452380Y-80690476D02*
X154452380Y-81261904D01*
X154452380Y-80976190D02*
X153452380Y-80976190D01*
X153595238Y-81071428D01*
X153690476Y-81166666D01*
X153738095Y-81261904D01*
%TO.C,R1*%
X150990380Y-95924666D02*
X150514190Y-96258000D01*
X150990380Y-96496095D02*
X149990380Y-96496095D01*
X149990380Y-96115142D01*
X150038000Y-96019904D01*
X150085619Y-95972285D01*
X150180857Y-95924666D01*
X150323714Y-95924666D01*
X150418952Y-95972285D01*
X150466571Y-96019904D01*
X150514190Y-96115142D01*
X150514190Y-96496095D01*
X150990380Y-94972285D02*
X150990380Y-95543714D01*
X150990380Y-95258000D02*
X149990380Y-95258000D01*
X150133238Y-95353238D01*
X150228476Y-95448476D01*
X150276095Y-95543714D01*
%TO.C,R2*%
X145097771Y-83683678D02*
X144525351Y-83582663D01*
X144693710Y-84087739D02*
X143986603Y-83380633D01*
X144255977Y-83111258D01*
X144356992Y-83077587D01*
X144424336Y-83077587D01*
X144525351Y-83111258D01*
X144626366Y-83212274D01*
X144660038Y-83313289D01*
X144660038Y-83380633D01*
X144626366Y-83481648D01*
X144356992Y-83751022D01*
X144727382Y-82774541D02*
X144727382Y-82707197D01*
X144761053Y-82606182D01*
X144929412Y-82437823D01*
X145030428Y-82404152D01*
X145097771Y-82404152D01*
X145198786Y-82437823D01*
X145266130Y-82505167D01*
X145333473Y-82639854D01*
X145333473Y-83447976D01*
X145771206Y-83010243D01*
%TO.C,R3*%
X145994380Y-94908666D02*
X145518190Y-95242000D01*
X145994380Y-95480095D02*
X144994380Y-95480095D01*
X144994380Y-95099142D01*
X145042000Y-95003904D01*
X145089619Y-94956285D01*
X145184857Y-94908666D01*
X145327714Y-94908666D01*
X145422952Y-94956285D01*
X145470571Y-95003904D01*
X145518190Y-95099142D01*
X145518190Y-95480095D01*
X144994380Y-94575333D02*
X144994380Y-93956285D01*
X145375333Y-94289619D01*
X145375333Y-94146761D01*
X145422952Y-94051523D01*
X145470571Y-94003904D01*
X145565809Y-93956285D01*
X145803904Y-93956285D01*
X145899142Y-94003904D01*
X145946761Y-94051523D01*
X145994380Y-94146761D01*
X145994380Y-94432476D01*
X145946761Y-94527714D01*
X145899142Y-94575333D01*
%TO.C,R4*%
X178395333Y-115090380D02*
X178062000Y-114614190D01*
X177823904Y-115090380D02*
X177823904Y-114090380D01*
X178204857Y-114090380D01*
X178300095Y-114138000D01*
X178347714Y-114185619D01*
X178395333Y-114280857D01*
X178395333Y-114423714D01*
X178347714Y-114518952D01*
X178300095Y-114566571D01*
X178204857Y-114614190D01*
X177823904Y-114614190D01*
X179252476Y-114423714D02*
X179252476Y-115090380D01*
X179014380Y-114042761D02*
X178776285Y-114757047D01*
X179395333Y-114757047D01*
%TO.C,R5*%
X178903333Y-78092380D02*
X178570000Y-77616190D01*
X178331904Y-78092380D02*
X178331904Y-77092380D01*
X178712857Y-77092380D01*
X178808095Y-77140000D01*
X178855714Y-77187619D01*
X178903333Y-77282857D01*
X178903333Y-77425714D01*
X178855714Y-77520952D01*
X178808095Y-77568571D01*
X178712857Y-77616190D01*
X178331904Y-77616190D01*
X179808095Y-77092380D02*
X179331904Y-77092380D01*
X179284285Y-77568571D01*
X179331904Y-77520952D01*
X179427142Y-77473333D01*
X179665238Y-77473333D01*
X179760476Y-77520952D01*
X179808095Y-77568571D01*
X179855714Y-77663809D01*
X179855714Y-77901904D01*
X179808095Y-77997142D01*
X179760476Y-78044761D01*
X179665238Y-78092380D01*
X179427142Y-78092380D01*
X179331904Y-78044761D01*
X179284285Y-77997142D01*
%TO.C,R6*%
X147153333Y-84696380D02*
X146820000Y-84220190D01*
X146581904Y-84696380D02*
X146581904Y-83696380D01*
X146962857Y-83696380D01*
X147058095Y-83744000D01*
X147105714Y-83791619D01*
X147153333Y-83886857D01*
X147153333Y-84029714D01*
X147105714Y-84124952D01*
X147058095Y-84172571D01*
X146962857Y-84220190D01*
X146581904Y-84220190D01*
X148010476Y-83696380D02*
X147820000Y-83696380D01*
X147724761Y-83744000D01*
X147677142Y-83791619D01*
X147581904Y-83934476D01*
X147534285Y-84124952D01*
X147534285Y-84505904D01*
X147581904Y-84601142D01*
X147629523Y-84648761D01*
X147724761Y-84696380D01*
X147915238Y-84696380D01*
X148010476Y-84648761D01*
X148058095Y-84601142D01*
X148105714Y-84505904D01*
X148105714Y-84267809D01*
X148058095Y-84172571D01*
X148010476Y-84124952D01*
X147915238Y-84077333D01*
X147724761Y-84077333D01*
X147629523Y-84124952D01*
X147581904Y-84172571D01*
X147534285Y-84267809D01*
%TO.C,R7*%
X140660380Y-94400666D02*
X140184190Y-94734000D01*
X140660380Y-94972095D02*
X139660380Y-94972095D01*
X139660380Y-94591142D01*
X139708000Y-94495904D01*
X139755619Y-94448285D01*
X139850857Y-94400666D01*
X139993714Y-94400666D01*
X140088952Y-94448285D01*
X140136571Y-94495904D01*
X140184190Y-94591142D01*
X140184190Y-94972095D01*
X139660380Y-94067333D02*
X139660380Y-93400666D01*
X140660380Y-93829238D01*
%TO.C,R8*%
X172003333Y-110072380D02*
X171670000Y-109596190D01*
X171431904Y-110072380D02*
X171431904Y-109072380D01*
X171812857Y-109072380D01*
X171908095Y-109120000D01*
X171955714Y-109167619D01*
X172003333Y-109262857D01*
X172003333Y-109405714D01*
X171955714Y-109500952D01*
X171908095Y-109548571D01*
X171812857Y-109596190D01*
X171431904Y-109596190D01*
X172574761Y-109500952D02*
X172479523Y-109453333D01*
X172431904Y-109405714D01*
X172384285Y-109310476D01*
X172384285Y-109262857D01*
X172431904Y-109167619D01*
X172479523Y-109120000D01*
X172574761Y-109072380D01*
X172765238Y-109072380D01*
X172860476Y-109120000D01*
X172908095Y-109167619D01*
X172955714Y-109262857D01*
X172955714Y-109310476D01*
X172908095Y-109405714D01*
X172860476Y-109453333D01*
X172765238Y-109500952D01*
X172574761Y-109500952D01*
X172479523Y-109548571D01*
X172431904Y-109596190D01*
X172384285Y-109691428D01*
X172384285Y-109881904D01*
X172431904Y-109977142D01*
X172479523Y-110024761D01*
X172574761Y-110072380D01*
X172765238Y-110072380D01*
X172860476Y-110024761D01*
X172908095Y-109977142D01*
X172955714Y-109881904D01*
X172955714Y-109691428D01*
X172908095Y-109596190D01*
X172860476Y-109548571D01*
X172765238Y-109500952D01*
%TO.C,R9*%
X192536213Y-82128289D02*
X192637228Y-81555869D01*
X192132152Y-81724228D02*
X192839258Y-81017121D01*
X193108633Y-81286495D01*
X193142304Y-81387510D01*
X193142304Y-81454854D01*
X193108633Y-81555869D01*
X193007617Y-81656884D01*
X192906602Y-81690556D01*
X192839258Y-81690556D01*
X192738243Y-81656884D01*
X192468869Y-81387510D01*
X192872930Y-82465007D02*
X193007617Y-82599694D01*
X193108633Y-82633365D01*
X193175976Y-82633365D01*
X193344335Y-82599694D01*
X193512694Y-82498678D01*
X193782068Y-82229304D01*
X193815739Y-82128289D01*
X193815739Y-82060946D01*
X193782068Y-81959930D01*
X193647381Y-81825243D01*
X193546365Y-81791571D01*
X193479022Y-81791571D01*
X193378007Y-81825243D01*
X193209648Y-81993602D01*
X193175976Y-82094617D01*
X193175976Y-82161961D01*
X193209648Y-82262976D01*
X193344335Y-82397663D01*
X193445350Y-82431335D01*
X193512694Y-82431335D01*
X193613709Y-82397663D01*
%TO.C,R10*%
X138433571Y-77548504D02*
X137861152Y-77447489D01*
X138029510Y-77952565D02*
X137322404Y-77245458D01*
X137591778Y-76976084D01*
X137692793Y-76942412D01*
X137760136Y-76942412D01*
X137861152Y-76976084D01*
X137962167Y-77077099D01*
X137995839Y-77178115D01*
X137995839Y-77245458D01*
X137962167Y-77346473D01*
X137692793Y-77615847D01*
X139107007Y-76875069D02*
X138702946Y-77279130D01*
X138904976Y-77077099D02*
X138197869Y-76369992D01*
X138231541Y-76538351D01*
X138231541Y-76673038D01*
X138197869Y-76774054D01*
X138837633Y-75730229D02*
X138904976Y-75662886D01*
X139005991Y-75629214D01*
X139073335Y-75629214D01*
X139174350Y-75662886D01*
X139342709Y-75763901D01*
X139511068Y-75932260D01*
X139612083Y-76100618D01*
X139645755Y-76201634D01*
X139645755Y-76268977D01*
X139612083Y-76369992D01*
X139544739Y-76437336D01*
X139443724Y-76471008D01*
X139376381Y-76471008D01*
X139275365Y-76437336D01*
X139107007Y-76336321D01*
X138938648Y-76167962D01*
X138837633Y-75999603D01*
X138803961Y-75898588D01*
X138803961Y-75831244D01*
X138837633Y-75730229D01*
%TO.C,R11*%
X160437142Y-77082380D02*
X160103809Y-76606190D01*
X159865714Y-77082380D02*
X159865714Y-76082380D01*
X160246666Y-76082380D01*
X160341904Y-76130000D01*
X160389523Y-76177619D01*
X160437142Y-76272857D01*
X160437142Y-76415714D01*
X160389523Y-76510952D01*
X160341904Y-76558571D01*
X160246666Y-76606190D01*
X159865714Y-76606190D01*
X161389523Y-77082380D02*
X160818095Y-77082380D01*
X161103809Y-77082380D02*
X161103809Y-76082380D01*
X161008571Y-76225238D01*
X160913333Y-76320476D01*
X160818095Y-76368095D01*
X162341904Y-77082380D02*
X161770476Y-77082380D01*
X162056190Y-77082380D02*
X162056190Y-76082380D01*
X161960952Y-76225238D01*
X161865714Y-76320476D01*
X161770476Y-76368095D01*
%TO.C,R12*%
X192437142Y-92082380D02*
X192103809Y-91606190D01*
X191865714Y-92082380D02*
X191865714Y-91082380D01*
X192246666Y-91082380D01*
X192341904Y-91130000D01*
X192389523Y-91177619D01*
X192437142Y-91272857D01*
X192437142Y-91415714D01*
X192389523Y-91510952D01*
X192341904Y-91558571D01*
X192246666Y-91606190D01*
X191865714Y-91606190D01*
X193389523Y-92082380D02*
X192818095Y-92082380D01*
X193103809Y-92082380D02*
X193103809Y-91082380D01*
X193008571Y-91225238D01*
X192913333Y-91320476D01*
X192818095Y-91368095D01*
X193770476Y-91177619D02*
X193818095Y-91130000D01*
X193913333Y-91082380D01*
X194151428Y-91082380D01*
X194246666Y-91130000D01*
X194294285Y-91177619D01*
X194341904Y-91272857D01*
X194341904Y-91368095D01*
X194294285Y-91510952D01*
X193722857Y-92082380D01*
X194341904Y-92082380D01*
%TO.C,R13*%
X160647142Y-83034380D02*
X160313809Y-82558190D01*
X160075714Y-83034380D02*
X160075714Y-82034380D01*
X160456666Y-82034380D01*
X160551904Y-82082000D01*
X160599523Y-82129619D01*
X160647142Y-82224857D01*
X160647142Y-82367714D01*
X160599523Y-82462952D01*
X160551904Y-82510571D01*
X160456666Y-82558190D01*
X160075714Y-82558190D01*
X161599523Y-83034380D02*
X161028095Y-83034380D01*
X161313809Y-83034380D02*
X161313809Y-82034380D01*
X161218571Y-82177238D01*
X161123333Y-82272476D01*
X161028095Y-82320095D01*
X161932857Y-82034380D02*
X162551904Y-82034380D01*
X162218571Y-82415333D01*
X162361428Y-82415333D01*
X162456666Y-82462952D01*
X162504285Y-82510571D01*
X162551904Y-82605809D01*
X162551904Y-82843904D01*
X162504285Y-82939142D01*
X162456666Y-82986761D01*
X162361428Y-83034380D01*
X162075714Y-83034380D01*
X161980476Y-82986761D01*
X161932857Y-82939142D01*
%TO.C,R14*%
X160901142Y-93840380D02*
X160567809Y-93364190D01*
X160329714Y-93840380D02*
X160329714Y-92840380D01*
X160710666Y-92840380D01*
X160805904Y-92888000D01*
X160853523Y-92935619D01*
X160901142Y-93030857D01*
X160901142Y-93173714D01*
X160853523Y-93268952D01*
X160805904Y-93316571D01*
X160710666Y-93364190D01*
X160329714Y-93364190D01*
X161853523Y-93840380D02*
X161282095Y-93840380D01*
X161567809Y-93840380D02*
X161567809Y-92840380D01*
X161472571Y-92983238D01*
X161377333Y-93078476D01*
X161282095Y-93126095D01*
X162710666Y-93173714D02*
X162710666Y-93840380D01*
X162472571Y-92792761D02*
X162234476Y-93507047D01*
X162853523Y-93507047D01*
%TO.C,R15*%
X191889142Y-97904380D02*
X191555809Y-97428190D01*
X191317714Y-97904380D02*
X191317714Y-96904380D01*
X191698666Y-96904380D01*
X191793904Y-96952000D01*
X191841523Y-96999619D01*
X191889142Y-97094857D01*
X191889142Y-97237714D01*
X191841523Y-97332952D01*
X191793904Y-97380571D01*
X191698666Y-97428190D01*
X191317714Y-97428190D01*
X192841523Y-97904380D02*
X192270095Y-97904380D01*
X192555809Y-97904380D02*
X192555809Y-96904380D01*
X192460571Y-97047238D01*
X192365333Y-97142476D01*
X192270095Y-97190095D01*
X193746285Y-96904380D02*
X193270095Y-96904380D01*
X193222476Y-97380571D01*
X193270095Y-97332952D01*
X193365333Y-97285333D01*
X193603428Y-97285333D01*
X193698666Y-97332952D01*
X193746285Y-97380571D01*
X193793904Y-97475809D01*
X193793904Y-97713904D01*
X193746285Y-97809142D01*
X193698666Y-97856761D01*
X193603428Y-97904380D01*
X193365333Y-97904380D01*
X193270095Y-97856761D01*
X193222476Y-97809142D01*
%TO.C,R16*%
X160901142Y-88506380D02*
X160567809Y-88030190D01*
X160329714Y-88506380D02*
X160329714Y-87506380D01*
X160710666Y-87506380D01*
X160805904Y-87554000D01*
X160853523Y-87601619D01*
X160901142Y-87696857D01*
X160901142Y-87839714D01*
X160853523Y-87934952D01*
X160805904Y-87982571D01*
X160710666Y-88030190D01*
X160329714Y-88030190D01*
X161853523Y-88506380D02*
X161282095Y-88506380D01*
X161567809Y-88506380D02*
X161567809Y-87506380D01*
X161472571Y-87649238D01*
X161377333Y-87744476D01*
X161282095Y-87792095D01*
X162710666Y-87506380D02*
X162520190Y-87506380D01*
X162424952Y-87554000D01*
X162377333Y-87601619D01*
X162282095Y-87744476D01*
X162234476Y-87934952D01*
X162234476Y-88315904D01*
X162282095Y-88411142D01*
X162329714Y-88458761D01*
X162424952Y-88506380D01*
X162615428Y-88506380D01*
X162710666Y-88458761D01*
X162758285Y-88411142D01*
X162805904Y-88315904D01*
X162805904Y-88077809D01*
X162758285Y-87982571D01*
X162710666Y-87934952D01*
X162615428Y-87887333D01*
X162424952Y-87887333D01*
X162329714Y-87934952D01*
X162282095Y-87982571D01*
X162234476Y-88077809D01*
%TO.C,U1*%
X177048095Y-83122380D02*
X177048095Y-83931904D01*
X177095714Y-84027142D01*
X177143333Y-84074761D01*
X177238571Y-84122380D01*
X177429047Y-84122380D01*
X177524285Y-84074761D01*
X177571904Y-84027142D01*
X177619523Y-83931904D01*
X177619523Y-83122380D01*
X178619523Y-84122380D02*
X178048095Y-84122380D01*
X178333809Y-84122380D02*
X178333809Y-83122380D01*
X178238571Y-83265238D01*
X178143333Y-83360476D01*
X178048095Y-83408095D01*
%TO.C,H1*%
X202488095Y-97702380D02*
X202488095Y-96702380D01*
X202488095Y-97178571D02*
X203059523Y-97178571D01*
X203059523Y-97702380D02*
X203059523Y-96702380D01*
X204059523Y-97702380D02*
X203488095Y-97702380D01*
X203773809Y-97702380D02*
X203773809Y-96702380D01*
X203678571Y-96845238D01*
X203583333Y-96940476D01*
X203488095Y-96988095D01*
%TO.C,H2*%
X147254095Y-71334380D02*
X147254095Y-70334380D01*
X147254095Y-70810571D02*
X147825523Y-70810571D01*
X147825523Y-71334380D02*
X147825523Y-70334380D01*
X148254095Y-70429619D02*
X148301714Y-70382000D01*
X148396952Y-70334380D01*
X148635047Y-70334380D01*
X148730285Y-70382000D01*
X148777904Y-70429619D01*
X148825523Y-70524857D01*
X148825523Y-70620095D01*
X148777904Y-70762952D01*
X148206476Y-71334380D01*
X148825523Y-71334380D01*
%TO.C,H3*%
X145034095Y-132596380D02*
X145034095Y-131596380D01*
X145034095Y-132072571D02*
X145605523Y-132072571D01*
X145605523Y-132596380D02*
X145605523Y-131596380D01*
X145986476Y-131596380D02*
X146605523Y-131596380D01*
X146272190Y-131977333D01*
X146415047Y-131977333D01*
X146510285Y-132024952D01*
X146557904Y-132072571D01*
X146605523Y-132167809D01*
X146605523Y-132405904D01*
X146557904Y-132501142D01*
X146510285Y-132548761D01*
X146415047Y-132596380D01*
X146129333Y-132596380D01*
X146034095Y-132548761D01*
X145986476Y-132501142D01*
%TO.C,C9*%
X149931333Y-101509142D02*
X149883714Y-101556761D01*
X149740857Y-101604380D01*
X149645619Y-101604380D01*
X149502761Y-101556761D01*
X149407523Y-101461523D01*
X149359904Y-101366285D01*
X149312285Y-101175809D01*
X149312285Y-101032952D01*
X149359904Y-100842476D01*
X149407523Y-100747238D01*
X149502761Y-100652000D01*
X149645619Y-100604380D01*
X149740857Y-100604380D01*
X149883714Y-100652000D01*
X149931333Y-100699619D01*
X150407523Y-101604380D02*
X150598000Y-101604380D01*
X150693238Y-101556761D01*
X150740857Y-101509142D01*
X150836095Y-101366285D01*
X150883714Y-101175809D01*
X150883714Y-100794857D01*
X150836095Y-100699619D01*
X150788476Y-100652000D01*
X150693238Y-100604380D01*
X150502761Y-100604380D01*
X150407523Y-100652000D01*
X150359904Y-100699619D01*
X150312285Y-100794857D01*
X150312285Y-101032952D01*
X150359904Y-101128190D01*
X150407523Y-101175809D01*
X150502761Y-101223428D01*
X150693238Y-101223428D01*
X150788476Y-101175809D01*
X150836095Y-101128190D01*
X150883714Y-101032952D01*
%TO.C,H4*%
X197238095Y-130702380D02*
X197238095Y-129702380D01*
X197238095Y-130178571D02*
X197809523Y-130178571D01*
X197809523Y-130702380D02*
X197809523Y-129702380D01*
X198714285Y-130035714D02*
X198714285Y-130702380D01*
X198476190Y-129654761D02*
X198238095Y-130369047D01*
X198857142Y-130369047D01*
%TD*%
%LPC*%
D13*
%TO.C,C2*%
X170180000Y-84328000D03*
X170180000Y-79328000D03*
%TD*%
%TO.C,C8*%
X137668000Y-89154000D03*
X137668000Y-94154000D03*
%TD*%
%TO.C,C5*%
X140756000Y-127000000D03*
D14*
X143256000Y-127000000D03*
%TD*%
D15*
%TO.C,Intensity1*%
X203454000Y-109876000D03*
X203454000Y-117676000D03*
G36*
G01*
X205153999Y-127426000D02*
X201754001Y-127426000D01*
G75*
G02*
X201504000Y-127175999I0J250001D01*
G01*
X201504000Y-123776001D01*
G75*
G02*
X201754001Y-123526000I250001J0D01*
G01*
X205153999Y-123526000D01*
G75*
G02*
X205404000Y-123776001I0J-250001D01*
G01*
X205404000Y-127175999D01*
G75*
G02*
X205153999Y-127426000I-250001J0D01*
G01*
G37*
%TD*%
%TO.C,Rate1*%
X133096000Y-106574000D03*
X133096000Y-114374000D03*
G36*
G01*
X134795999Y-124124000D02*
X131396001Y-124124000D01*
G75*
G02*
X131146000Y-123873999I0J250001D01*
G01*
X131146000Y-120474001D01*
G75*
G02*
X131396001Y-120224000I250001J0D01*
G01*
X134795999Y-120224000D01*
G75*
G02*
X135046000Y-120474001I0J-250001D01*
G01*
X135046000Y-123873999D01*
G75*
G02*
X134795999Y-124124000I-250001J0D01*
G01*
G37*
%TD*%
D16*
%TO.C,U4*%
X191690000Y-117302000D03*
X181690000Y-117302000D03*
X191770000Y-143302000D03*
X181690000Y-143302000D03*
%TD*%
%TO.C,U5*%
X161210000Y-117556000D03*
X151210000Y-117556000D03*
X161290000Y-143556000D03*
X151210000Y-143556000D03*
%TD*%
D13*
%TO.C,C1*%
X133000000Y-93900000D03*
X133000000Y-88900000D03*
%TD*%
%TO.C,C3*%
X172500000Y-74500000D03*
D14*
X170500000Y-74500000D03*
%TD*%
D13*
%TO.C,C4*%
X169000000Y-120000000D03*
X174000000Y-120000000D03*
%TD*%
D14*
%TO.C,C6*%
X144780000Y-118364000D03*
D13*
X146780000Y-118364000D03*
%TD*%
D14*
%TO.C,C7*%
X196250000Y-123250000D03*
D13*
X196250000Y-121250000D03*
%TD*%
D17*
%TO.C,D2*%
X167750000Y-115000000D03*
D18*
X170290000Y-115000000D03*
%TD*%
%TO.C,J1*%
G36*
G01*
X137696000Y-107671999D02*
X137696000Y-104672001D01*
G75*
G02*
X137946001Y-104422000I250001J0D01*
G01*
X140945999Y-104422000D01*
G75*
G02*
X141196000Y-104672001I0J-250001D01*
G01*
X141196000Y-107671999D01*
G75*
G02*
X140945999Y-107922000I-250001J0D01*
G01*
X137946001Y-107922000D01*
G75*
G02*
X137696000Y-107671999I0J250001D01*
G01*
G37*
%TD*%
%TO.C,J2*%
G36*
G01*
X150904000Y-111989999D02*
X150904000Y-108990001D01*
G75*
G02*
X151154001Y-108740000I250001J0D01*
G01*
X154153999Y-108740000D01*
G75*
G02*
X154404000Y-108990001I0J-250001D01*
G01*
X154404000Y-111989999D01*
G75*
G02*
X154153999Y-112240000I-250001J0D01*
G01*
X151154001Y-112240000D01*
G75*
G02*
X150904000Y-111989999I0J250001D01*
G01*
G37*
%TD*%
%TO.C,J3*%
G36*
G01*
X188750000Y-108687999D02*
X188750000Y-105688001D01*
G75*
G02*
X189000001Y-105438000I250001J0D01*
G01*
X191999999Y-105438000D01*
G75*
G02*
X192250000Y-105688001I0J-250001D01*
G01*
X192250000Y-108687999D01*
G75*
G02*
X191999999Y-108938000I-250001J0D01*
G01*
X189000001Y-108938000D01*
G75*
G02*
X188750000Y-108687999I0J250001D01*
G01*
G37*
%TD*%
%TO.C,J4*%
G36*
G01*
X140744000Y-114021999D02*
X140744000Y-111022001D01*
G75*
G02*
X140994001Y-110772000I250001J0D01*
G01*
X143993999Y-110772000D01*
G75*
G02*
X144244000Y-111022001I0J-250001D01*
G01*
X144244000Y-114021999D01*
G75*
G02*
X143993999Y-114272000I-250001J0D01*
G01*
X140994001Y-114272000D01*
G75*
G02*
X140744000Y-114021999I0J250001D01*
G01*
G37*
%TD*%
%TO.C,J5*%
G36*
G01*
X131250000Y-100813999D02*
X131250000Y-97814001D01*
G75*
G02*
X131500001Y-97564000I250001J0D01*
G01*
X134499999Y-97564000D01*
G75*
G02*
X134750000Y-97814001I0J-250001D01*
G01*
X134750000Y-100813999D01*
G75*
G02*
X134499999Y-101064000I-250001J0D01*
G01*
X131500001Y-101064000D01*
G75*
G02*
X131250000Y-100813999I0J250001D01*
G01*
G37*
%TD*%
%TO.C,J6*%
G36*
G01*
X179250000Y-75999999D02*
X179250000Y-73000001D01*
G75*
G02*
X179500001Y-72750000I250001J0D01*
G01*
X182499999Y-72750000D01*
G75*
G02*
X182750000Y-73000001I0J-250001D01*
G01*
X182750000Y-75999999D01*
G75*
G02*
X182499999Y-76250000I-250001J0D01*
G01*
X179500001Y-76250000D01*
G75*
G02*
X179250000Y-75999999I0J250001D01*
G01*
G37*
%TD*%
%TO.C,J7*%
G36*
G01*
X161750000Y-74249999D02*
X161750000Y-71250001D01*
G75*
G02*
X162000001Y-71000000I250001J0D01*
G01*
X164999999Y-71000000D01*
G75*
G02*
X165250000Y-71250001I0J-250001D01*
G01*
X165250000Y-74249999D01*
G75*
G02*
X164999999Y-74500000I-250001J0D01*
G01*
X162000001Y-74500000D01*
G75*
G02*
X161750000Y-74249999I0J250001D01*
G01*
G37*
%TD*%
D19*
%TO.C,Q1*%
X151000000Y-79540000D03*
X151000000Y-82080000D03*
D20*
X151000000Y-77000000D03*
%TD*%
D21*
%TO.C,R1*%
X152908000Y-90678000D03*
D13*
X152908000Y-100838000D03*
%TD*%
%TO.C,R2*%
G36*
G01*
X140193480Y-84596520D02*
X140193480Y-84596520D01*
G75*
G02*
X140193480Y-85727890I-565685J-565685D01*
G01*
X140193480Y-85727890D01*
G75*
G02*
X139062110Y-85727890I-565685J565685D01*
G01*
X139062110Y-85727890D01*
G75*
G02*
X139062110Y-84596520I565685J565685D01*
G01*
X139062110Y-84596520D01*
G75*
G02*
X140193480Y-84596520I565685J-565685D01*
G01*
G37*
X146812000Y-77978000D03*
%TD*%
%TO.C,R3*%
X147574000Y-89916000D03*
D21*
X147574000Y-100076000D03*
%TD*%
%TO.C,R4*%
X173482000Y-112268000D03*
D13*
X183642000Y-112268000D03*
%TD*%
%TO.C,R5*%
X173990000Y-80010000D03*
D21*
X184150000Y-80010000D03*
%TD*%
%TO.C,R6*%
X152400000Y-86614000D03*
D13*
X142240000Y-86614000D03*
%TD*%
D21*
%TO.C,R7*%
X142240000Y-89662000D03*
D13*
X142240000Y-99822000D03*
%TD*%
D21*
%TO.C,R8*%
X167090000Y-107250000D03*
D13*
X177250000Y-107250000D03*
%TD*%
%TO.C,R9*%
X187706000Y-80010000D03*
G36*
G01*
X194324520Y-86628520D02*
X194324520Y-86628520D01*
G75*
G02*
X195455890Y-86628520I565685J-565685D01*
G01*
X195455890Y-86628520D01*
G75*
G02*
X195455890Y-87759890I-565685J-565685D01*
G01*
X195455890Y-87759890D01*
G75*
G02*
X194324520Y-87759890I-565685J565685D01*
G01*
X194324520Y-87759890D01*
G75*
G02*
X194324520Y-86628520I565685J565685D01*
G01*
G37*
%TD*%
%TO.C,R10*%
X136652000Y-82042000D03*
G36*
G01*
X143270520Y-75423480D02*
X143270520Y-75423480D01*
G75*
G02*
X143270520Y-74292110I565685J565685D01*
G01*
X143270520Y-74292110D01*
G75*
G02*
X144401890Y-74292110I565685J-565685D01*
G01*
X144401890Y-74292110D01*
G75*
G02*
X144401890Y-75423480I-565685J-565685D01*
G01*
X144401890Y-75423480D01*
G75*
G02*
X143270520Y-75423480I-565685J565685D01*
G01*
G37*
%TD*%
D21*
%TO.C,R11*%
X166160000Y-79000000D03*
D13*
X156000000Y-79000000D03*
%TD*%
D21*
%TO.C,R12*%
X198160000Y-94000000D03*
D13*
X188000000Y-94000000D03*
%TD*%
%TO.C,R13*%
X166370000Y-84582000D03*
D21*
X156210000Y-84582000D03*
%TD*%
D13*
%TO.C,R14*%
X156464000Y-95758000D03*
D21*
X166624000Y-95758000D03*
%TD*%
D13*
%TO.C,R15*%
X187452000Y-99822000D03*
D21*
X197612000Y-99822000D03*
%TD*%
D13*
%TO.C,R16*%
X156464000Y-90424000D03*
D21*
X166624000Y-90424000D03*
%TD*%
D14*
%TO.C,U1*%
X174000000Y-86000000D03*
D21*
X181620000Y-101240000D03*
X174000000Y-88540000D03*
X181620000Y-98700000D03*
X174000000Y-91080000D03*
X181620000Y-96160000D03*
X174000000Y-93620000D03*
X181620000Y-93620000D03*
X174000000Y-96160000D03*
X181620000Y-91080000D03*
X174000000Y-98700000D03*
X181620000Y-88540000D03*
X174000000Y-101240000D03*
X181620000Y-86000000D03*
%TD*%
D22*
%TO.C,H1*%
X203250000Y-101250000D03*
D23*
X203250000Y-101250000D03*
%TD*%
%TO.C,H2*%
X152750000Y-72000000D03*
D22*
X152750000Y-72000000D03*
%TD*%
D23*
%TO.C,H3*%
X145796000Y-136144000D03*
D22*
X145796000Y-136144000D03*
%TD*%
D14*
%TO.C,C9*%
X149098000Y-104902000D03*
D13*
X151098000Y-104902000D03*
%TD*%
D23*
%TO.C,H4*%
X198000000Y-134250000D03*
D22*
X198000000Y-134250000D03*
%TD*%
M02*
