M48
; DRILL file {KiCad (5.1.12)-1} date 05/06/22 09:07:06
; FORMAT={-:-/ absolute / metric / decimal}
; #@! TF.CreationDate,2022-05-06T09:07:06-07:00
; #@! TF.GenerationSoftware,Kicad,Pcbnew,(5.1.12)-1
; #@! TF.FileFunction,Plated,1,2,PTH
FMAT,2
METRIC
T1C0.400
T2C0.800
T3C0.900
T4C1.000
T5C1.550
T6C1.750
T7C3.000
%
G90
G05
T1
X157.962Y-124.18
X162.95Y-131.5
X163.0Y-126.0
X167.5Y-130.0
X167.75Y-131.55
X171.5Y-127.0
X172.5Y-125.73
X172.5Y-128.25
X173.5Y-132.25
X174.0Y-144.0
X176.46Y-124.46
X177.0Y-130.25
X178.5Y-123.5
X178.55Y-131.55
T2
X133.0Y-88.9
X133.0Y-93.9
X136.652Y-82.042
X137.668Y-89.154
X137.668Y-94.154
X139.628Y-85.162
X140.756Y-127.0
X142.24Y-86.614
X142.24Y-89.662
X142.24Y-99.822
X143.256Y-127.0
X143.836Y-74.858
X144.78Y-118.364
X146.78Y-118.364
X146.812Y-77.978
X147.574Y-89.916
X147.574Y-100.076
X149.098Y-104.902
X151.0Y-77.0
X151.0Y-79.54
X151.0Y-82.08
X151.098Y-104.902
X152.4Y-86.614
X152.908Y-90.678
X152.908Y-100.838
X156.0Y-79.0
X156.21Y-84.582
X156.464Y-90.424
X156.464Y-95.758
X166.16Y-79.0
X166.37Y-84.582
X166.624Y-90.424
X166.624Y-95.758
X167.09Y-107.25
X169.0Y-120.0
X170.18Y-79.328
X170.18Y-84.328
X170.5Y-74.5
X172.5Y-74.5
X173.482Y-112.268
X173.99Y-80.01
X174.0Y-86.0
X174.0Y-88.54
X174.0Y-91.08
X174.0Y-93.62
X174.0Y-96.16
X174.0Y-98.7
X174.0Y-101.24
X174.0Y-120.0
X177.25Y-107.25
X181.62Y-86.0
X181.62Y-88.54
X181.62Y-91.08
X181.62Y-93.62
X181.62Y-96.16
X181.62Y-98.7
X181.62Y-101.24
X183.642Y-112.268
X184.15Y-80.01
X187.452Y-99.822
X187.706Y-80.01
X188.0Y-94.0
X194.89Y-87.194
X196.25Y-121.25
X196.25Y-123.25
X197.612Y-99.822
X198.16Y-94.0
T3
X167.75Y-115.0
X170.29Y-115.0
T4
X151.21Y-117.556
X151.21Y-143.556
X161.21Y-117.556
X161.29Y-143.556
X181.69Y-117.302
X181.69Y-143.302
X191.69Y-117.302
X191.77Y-143.302
T5
X133.0Y-99.314
X139.446Y-106.172
X142.494Y-112.522
X152.654Y-110.49
X163.5Y-72.75
X181.0Y-74.5
X190.5Y-107.188
T6
X133.096Y-106.574
X133.096Y-114.374
X133.096Y-122.174
X203.454Y-109.876
X203.454Y-117.676
X203.454Y-125.476
T7
X145.796Y-136.144
X152.75Y-72.0
X198.0Y-134.25
X203.25Y-101.25
T0
M30
