%TF.GenerationSoftware,KiCad,Pcbnew,(5.1.12)-1*%
%TF.CreationDate,2022-05-06T09:07:04-07:00*%
%TF.ProjectId,HarmonicTremolo_V01,4861726d-6f6e-4696-9354-72656d6f6c6f,rev?*%
%TF.SameCoordinates,Original*%
%TF.FileFunction,Copper,L1,Top*%
%TF.FilePolarity,Positive*%
%FSLAX46Y46*%
G04 Gerber Fmt 4.6, Leading zero omitted, Abs format (unit mm)*
G04 Created by KiCad (PCBNEW (5.1.12)-1) date 2022-05-06 09:07:04*
%MOMM*%
%LPD*%
G01*
G04 APERTURE LIST*
%TA.AperFunction,ComponentPad*%
%ADD10C,1.600000*%
%TD*%
%TA.AperFunction,ComponentPad*%
%ADD11R,1.600000X1.600000*%
%TD*%
%TA.AperFunction,ComponentPad*%
%ADD12C,3.900000*%
%TD*%
%TA.AperFunction,ComponentPad*%
%ADD13C,2.250000*%
%TD*%
%TA.AperFunction,ComponentPad*%
%ADD14R,1.800000X1.800000*%
%TD*%
%TA.AperFunction,ComponentPad*%
%ADD15C,1.800000*%
%TD*%
%TA.AperFunction,ComponentPad*%
%ADD16C,1.500000*%
%TD*%
%TA.AperFunction,ComponentPad*%
%ADD17R,1.500000X1.500000*%
%TD*%
%TA.AperFunction,ComponentPad*%
%ADD18O,1.600000X1.600000*%
%TD*%
%TA.AperFunction,ConnectorPad*%
%ADD19C,6.000000*%
%TD*%
%TA.AperFunction,ComponentPad*%
%ADD20C,3.400000*%
%TD*%
%TA.AperFunction,ViaPad*%
%ADD21C,0.800000*%
%TD*%
%TA.AperFunction,Conductor*%
%ADD22C,0.600000*%
%TD*%
%TA.AperFunction,Conductor*%
%ADD23C,0.254000*%
%TD*%
%TA.AperFunction,Conductor*%
%ADD24C,0.100000*%
%TD*%
G04 APERTURE END LIST*
D10*
%TO.P,C2,1*%
%TO.N,Net-(C2-Pad1)*%
X170180000Y-84328000D03*
%TO.P,C2,2*%
%TO.N,Net-(C2-Pad2)*%
X170180000Y-79328000D03*
%TD*%
%TO.P,C8,1*%
%TO.N,Net-(C8-Pad1)*%
X137668000Y-89154000D03*
%TO.P,C8,2*%
%TO.N,High*%
X137668000Y-94154000D03*
%TD*%
%TO.P,C5,2*%
%TO.N,GND*%
X140756000Y-127000000D03*
D11*
%TO.P,C5,1*%
%TO.N,+9V*%
X143256000Y-127000000D03*
%TD*%
D12*
%TO.P,Intensity1,3*%
%TO.N,Net-(Intensity1-Pad2)*%
X203454000Y-109876000D03*
%TO.P,Intensity1,2*%
X203454000Y-117676000D03*
%TO.P,Intensity1,1*%
%TO.N,Net-(Intensity1-Pad1)*%
%TA.AperFunction,ComponentPad*%
G36*
G01*
X205153999Y-127426000D02*
X201754001Y-127426000D01*
G75*
G02*
X201504000Y-127175999I0J250001D01*
G01*
X201504000Y-123776001D01*
G75*
G02*
X201754001Y-123526000I250001J0D01*
G01*
X205153999Y-123526000D01*
G75*
G02*
X205404000Y-123776001I0J-250001D01*
G01*
X205404000Y-127175999D01*
G75*
G02*
X205153999Y-127426000I-250001J0D01*
G01*
G37*
%TD.AperFunction*%
%TD*%
%TO.P,Rate1,3*%
%TO.N,Net-(R21-Pad2)*%
X133096000Y-106574000D03*
%TO.P,Rate1,2*%
X133096000Y-114374000D03*
%TO.P,Rate1,1*%
%TO.N,Net-(R23-Pad1)*%
%TA.AperFunction,ComponentPad*%
G36*
G01*
X134795999Y-124124000D02*
X131396001Y-124124000D01*
G75*
G02*
X131146000Y-123873999I0J250001D01*
G01*
X131146000Y-120474001D01*
G75*
G02*
X131396001Y-120224000I250001J0D01*
G01*
X134795999Y-120224000D01*
G75*
G02*
X135046000Y-120474001I0J-250001D01*
G01*
X135046000Y-123873999D01*
G75*
G02*
X134795999Y-124124000I-250001J0D01*
G01*
G37*
%TD.AperFunction*%
%TD*%
D13*
%TO.P,U4,4*%
%TO.N,High*%
X191690000Y-117302000D03*
%TO.P,U4,3*%
%TO.N,ModH*%
X181690000Y-117302000D03*
%TO.P,U4,2*%
%TO.N,Net-(U3-Pad1)*%
X191770000Y-143302000D03*
%TO.P,U4,1*%
%TO.N,Net-(R25-Pad1)*%
X181690000Y-143302000D03*
%TD*%
%TO.P,U5,4*%
%TO.N,Low*%
X161210000Y-117556000D03*
%TO.P,U5,3*%
%TO.N,ModL*%
X151210000Y-117556000D03*
%TO.P,U5,2*%
%TO.N,Net-(R26-Pad2)*%
X161290000Y-143556000D03*
%TO.P,U5,1*%
%TO.N,Net-(R27-Pad1)*%
X151210000Y-143556000D03*
%TD*%
D10*
%TO.P,C1,2*%
%TO.N,Net-(C1-Pad2)*%
X133000000Y-93900000D03*
%TO.P,C1,1*%
%TO.N,Net-(C1-Pad1)*%
X133000000Y-88900000D03*
%TD*%
%TO.P,C3,2*%
%TO.N,Net-(C3-Pad2)*%
X172500000Y-74500000D03*
D11*
%TO.P,C3,1*%
%TO.N,Net-(C3-Pad1)*%
X170500000Y-74500000D03*
%TD*%
D10*
%TO.P,C4,1*%
%TO.N,Net-(C4-Pad1)*%
X169000000Y-120000000D03*
%TO.P,C4,2*%
%TO.N,Net-(C4-Pad2)*%
X174000000Y-120000000D03*
%TD*%
D11*
%TO.P,C6,1*%
%TO.N,4.5V*%
X144780000Y-118364000D03*
D10*
%TO.P,C6,2*%
%TO.N,GND*%
X146780000Y-118364000D03*
%TD*%
D11*
%TO.P,C7,1*%
%TO.N,Net-(C7-Pad1)*%
X196250000Y-123250000D03*
D10*
%TO.P,C7,2*%
%TO.N,GND*%
X196250000Y-121250000D03*
%TD*%
D14*
%TO.P,D2,1*%
%TO.N,Net-(D2-Pad1)*%
X167750000Y-115000000D03*
D15*
%TO.P,D2,2*%
%TO.N,Net-(D2-Pad2)*%
X170290000Y-115000000D03*
%TD*%
%TO.P,J1,1*%
%TO.N,Net-(J1-Pad1)*%
%TA.AperFunction,ComponentPad*%
G36*
G01*
X137696000Y-107671999D02*
X137696000Y-104672001D01*
G75*
G02*
X137946001Y-104422000I250001J0D01*
G01*
X140945999Y-104422000D01*
G75*
G02*
X141196000Y-104672001I0J-250001D01*
G01*
X141196000Y-107671999D01*
G75*
G02*
X140945999Y-107922000I-250001J0D01*
G01*
X137946001Y-107922000D01*
G75*
G02*
X137696000Y-107671999I0J250001D01*
G01*
G37*
%TD.AperFunction*%
%TD*%
%TO.P,J2,1*%
%TO.N,Net-(J2-Pad1)*%
%TA.AperFunction,ComponentPad*%
G36*
G01*
X150904000Y-111989999D02*
X150904000Y-108990001D01*
G75*
G02*
X151154001Y-108740000I250001J0D01*
G01*
X154153999Y-108740000D01*
G75*
G02*
X154404000Y-108990001I0J-250001D01*
G01*
X154404000Y-111989999D01*
G75*
G02*
X154153999Y-112240000I-250001J0D01*
G01*
X151154001Y-112240000D01*
G75*
G02*
X150904000Y-111989999I0J250001D01*
G01*
G37*
%TD.AperFunction*%
%TD*%
%TO.P,J3,1*%
%TO.N,Net-(J3-Pad1)*%
%TA.AperFunction,ComponentPad*%
G36*
G01*
X188750000Y-108687999D02*
X188750000Y-105688001D01*
G75*
G02*
X189000001Y-105438000I250001J0D01*
G01*
X191999999Y-105438000D01*
G75*
G02*
X192250000Y-105688001I0J-250001D01*
G01*
X192250000Y-108687999D01*
G75*
G02*
X191999999Y-108938000I-250001J0D01*
G01*
X189000001Y-108938000D01*
G75*
G02*
X188750000Y-108687999I0J250001D01*
G01*
G37*
%TD.AperFunction*%
%TD*%
%TO.P,J4,1*%
%TO.N,Net-(C9-Pad1)*%
%TA.AperFunction,ComponentPad*%
G36*
G01*
X140744000Y-114021999D02*
X140744000Y-111022001D01*
G75*
G02*
X140994001Y-110772000I250001J0D01*
G01*
X143993999Y-110772000D01*
G75*
G02*
X144244000Y-111022001I0J-250001D01*
G01*
X144244000Y-114021999D01*
G75*
G02*
X143993999Y-114272000I-250001J0D01*
G01*
X140994001Y-114272000D01*
G75*
G02*
X140744000Y-114021999I0J250001D01*
G01*
G37*
%TD.AperFunction*%
%TD*%
%TO.P,J5,1*%
%TO.N,Net-(C1-Pad2)*%
%TA.AperFunction,ComponentPad*%
G36*
G01*
X131250000Y-100813999D02*
X131250000Y-97814001D01*
G75*
G02*
X131500001Y-97564000I250001J0D01*
G01*
X134499999Y-97564000D01*
G75*
G02*
X134750000Y-97814001I0J-250001D01*
G01*
X134750000Y-100813999D01*
G75*
G02*
X134499999Y-101064000I-250001J0D01*
G01*
X131500001Y-101064000D01*
G75*
G02*
X131250000Y-100813999I0J250001D01*
G01*
G37*
%TD.AperFunction*%
%TD*%
%TO.P,J6,1*%
%TO.N,Net-(C3-Pad2)*%
%TA.AperFunction,ComponentPad*%
G36*
G01*
X179250000Y-75999999D02*
X179250000Y-73000001D01*
G75*
G02*
X179500001Y-72750000I250001J0D01*
G01*
X182499999Y-72750000D01*
G75*
G02*
X182750000Y-73000001I0J-250001D01*
G01*
X182750000Y-75999999D01*
G75*
G02*
X182499999Y-76250000I-250001J0D01*
G01*
X179500001Y-76250000D01*
G75*
G02*
X179250000Y-75999999I0J250001D01*
G01*
G37*
%TD.AperFunction*%
%TD*%
%TO.P,J7,1*%
%TO.N,+9V*%
%TA.AperFunction,ComponentPad*%
G36*
G01*
X161750000Y-74249999D02*
X161750000Y-71250001D01*
G75*
G02*
X162000001Y-71000000I250001J0D01*
G01*
X164999999Y-71000000D01*
G75*
G02*
X165250000Y-71250001I0J-250001D01*
G01*
X165250000Y-74249999D01*
G75*
G02*
X164999999Y-74500000I-250001J0D01*
G01*
X162000001Y-74500000D01*
G75*
G02*
X161750000Y-74249999I0J250001D01*
G01*
G37*
%TD.AperFunction*%
%TD*%
D16*
%TO.P,Q1,2*%
%TO.N,Net-(C2-Pad2)*%
X151000000Y-79540000D03*
%TO.P,Q1,3*%
%TO.N,Net-(C1-Pad1)*%
X151000000Y-82080000D03*
D17*
%TO.P,Q1,1*%
%TO.N,+9V*%
X151000000Y-77000000D03*
%TD*%
D18*
%TO.P,R1,2*%
%TO.N,Net-(R1-Pad2)*%
X152908000Y-90678000D03*
D10*
%TO.P,R1,1*%
%TO.N,Net-(C9-Pad1)*%
X152908000Y-100838000D03*
%TD*%
%TO.P,R2,2*%
%TO.N,Net-(C1-Pad1)*%
%TA.AperFunction,ComponentPad*%
G36*
G01*
X140193480Y-84596520D02*
X140193480Y-84596520D01*
G75*
G02*
X140193480Y-85727890I-565685J-565685D01*
G01*
X140193480Y-85727890D01*
G75*
G02*
X139062110Y-85727890I-565685J565685D01*
G01*
X139062110Y-85727890D01*
G75*
G02*
X139062110Y-84596520I565685J565685D01*
G01*
X139062110Y-84596520D01*
G75*
G02*
X140193480Y-84596520I565685J-565685D01*
G01*
G37*
%TD.AperFunction*%
%TO.P,R2,1*%
%TO.N,+9V*%
X146812000Y-77978000D03*
%TD*%
%TO.P,R3,1*%
%TO.N,Net-(C8-Pad1)*%
X147574000Y-89916000D03*
D18*
%TO.P,R3,2*%
%TO.N,Net-(R1-Pad2)*%
X147574000Y-100076000D03*
%TD*%
%TO.P,R4,2*%
%TO.N,ModL*%
X173482000Y-112268000D03*
D10*
%TO.P,R4,1*%
%TO.N,Net-(R4-Pad1)*%
X183642000Y-112268000D03*
%TD*%
%TO.P,R5,1*%
%TO.N,Net-(C3-Pad1)*%
X173990000Y-80010000D03*
D18*
%TO.P,R5,2*%
%TO.N,Net-(R4-Pad1)*%
X184150000Y-80010000D03*
%TD*%
%TO.P,R6,2*%
%TO.N,Net-(C2-Pad1)*%
X152400000Y-86614000D03*
D10*
%TO.P,R6,1*%
%TO.N,Net-(R1-Pad2)*%
X142240000Y-86614000D03*
%TD*%
D18*
%TO.P,R7,2*%
%TO.N,Net-(C8-Pad1)*%
X142240000Y-89662000D03*
D10*
%TO.P,R7,1*%
%TO.N,Net-(J1-Pad1)*%
X142240000Y-99822000D03*
%TD*%
D18*
%TO.P,R8,2*%
%TO.N,Net-(J2-Pad1)*%
X167090000Y-107250000D03*
D10*
%TO.P,R8,1*%
%TO.N,Net-(J3-Pad1)*%
X177250000Y-107250000D03*
%TD*%
%TO.P,R9,1*%
%TO.N,Net-(R4-Pad1)*%
X187706000Y-80010000D03*
%TO.P,R9,2*%
%TO.N,ModH*%
%TA.AperFunction,ComponentPad*%
G36*
G01*
X194324520Y-86628520D02*
X194324520Y-86628520D01*
G75*
G02*
X195455890Y-86628520I565685J-565685D01*
G01*
X195455890Y-86628520D01*
G75*
G02*
X195455890Y-87759890I-565685J-565685D01*
G01*
X195455890Y-87759890D01*
G75*
G02*
X194324520Y-87759890I-565685J565685D01*
G01*
X194324520Y-87759890D01*
G75*
G02*
X194324520Y-86628520I565685J565685D01*
G01*
G37*
%TD.AperFunction*%
%TD*%
%TO.P,R10,1*%
%TO.N,Net-(C1-Pad1)*%
X136652000Y-82042000D03*
%TO.P,R10,2*%
%TO.N,GND*%
%TA.AperFunction,ComponentPad*%
G36*
G01*
X143270520Y-75423480D02*
X143270520Y-75423480D01*
G75*
G02*
X143270520Y-74292110I565685J565685D01*
G01*
X143270520Y-74292110D01*
G75*
G02*
X144401890Y-74292110I565685J-565685D01*
G01*
X144401890Y-74292110D01*
G75*
G02*
X144401890Y-75423480I-565685J-565685D01*
G01*
X144401890Y-75423480D01*
G75*
G02*
X143270520Y-75423480I-565685J565685D01*
G01*
G37*
%TD.AperFunction*%
%TD*%
D18*
%TO.P,R11,2*%
%TO.N,GND*%
X166160000Y-79000000D03*
D10*
%TO.P,R11,1*%
%TO.N,Net-(C2-Pad2)*%
X156000000Y-79000000D03*
%TD*%
D18*
%TO.P,R12,2*%
%TO.N,4.5V*%
X198160000Y-94000000D03*
D10*
%TO.P,R12,1*%
%TO.N,Net-(R12-Pad1)*%
X188000000Y-94000000D03*
%TD*%
%TO.P,R13,1*%
%TO.N,Net-(C2-Pad1)*%
X166370000Y-84582000D03*
D18*
%TO.P,R13,2*%
%TO.N,4.5V*%
X156210000Y-84582000D03*
%TD*%
D10*
%TO.P,R14,1*%
%TO.N,4.5V*%
X156464000Y-95758000D03*
D18*
%TO.P,R14,2*%
%TO.N,Net-(R14-Pad2)*%
X166624000Y-95758000D03*
%TD*%
D10*
%TO.P,R15,1*%
%TO.N,Net-(R15-Pad1)*%
X187452000Y-99822000D03*
D18*
%TO.P,R15,2*%
%TO.N,4.5V*%
X197612000Y-99822000D03*
%TD*%
D10*
%TO.P,R16,1*%
%TO.N,Net-(J2-Pad1)*%
X156464000Y-90424000D03*
D18*
%TO.P,R16,2*%
%TO.N,Net-(R16-Pad2)*%
X166624000Y-90424000D03*
%TD*%
D11*
%TO.P,U1,1*%
%TO.N,Net-(C8-Pad1)*%
X174000000Y-86000000D03*
D18*
%TO.P,U1,8*%
%TO.N,Net-(C9-Pad1)*%
X181620000Y-101240000D03*
%TO.P,U1,2*%
%TO.N,Net-(R1-Pad2)*%
X174000000Y-88540000D03*
%TO.P,U1,9*%
%TO.N,Net-(J3-Pad1)*%
X181620000Y-98700000D03*
%TO.P,U1,3*%
%TO.N,Net-(R16-Pad2)*%
X174000000Y-91080000D03*
%TO.P,U1,10*%
%TO.N,Net-(R15-Pad1)*%
X181620000Y-96160000D03*
%TO.P,U1,4*%
%TO.N,+9V*%
X174000000Y-93620000D03*
%TO.P,U1,11*%
%TO.N,GND*%
X181620000Y-93620000D03*
%TO.P,U1,5*%
%TO.N,Net-(R14-Pad2)*%
X174000000Y-96160000D03*
%TO.P,U1,12*%
%TO.N,Net-(R12-Pad1)*%
X181620000Y-91080000D03*
%TO.P,U1,6*%
%TO.N,Net-(J1-Pad1)*%
X174000000Y-98700000D03*
%TO.P,U1,13*%
%TO.N,Net-(R4-Pad1)*%
X181620000Y-88540000D03*
%TO.P,U1,7*%
%TO.N,Net-(J2-Pad1)*%
X174000000Y-101240000D03*
%TO.P,U1,14*%
%TO.N,Net-(C3-Pad1)*%
X181620000Y-86000000D03*
%TD*%
D19*
%TO.P,H1,1*%
%TO.N,GND*%
X203250000Y-101250000D03*
D20*
X203250000Y-101250000D03*
%TD*%
%TO.P,H2,1*%
%TO.N,GND*%
X152750000Y-72000000D03*
D19*
X152750000Y-72000000D03*
%TD*%
D20*
%TO.P,H3,1*%
%TO.N,Net-(H3-Pad1)*%
X145796000Y-136144000D03*
D19*
X145796000Y-136144000D03*
%TD*%
D11*
%TO.P,C9,1*%
%TO.N,Net-(C9-Pad1)*%
X149098000Y-104902000D03*
D10*
%TO.P,C9,2*%
%TO.N,Low*%
X151098000Y-104902000D03*
%TD*%
D20*
%TO.P,H4,1*%
%TO.N,GND*%
X198000000Y-134250000D03*
D19*
X198000000Y-134250000D03*
%TD*%
D21*
%TO.N,4.5V*%
X174000000Y-144000000D03*
X173500000Y-132250000D03*
X167500000Y-130000000D03*
X163000000Y-126000000D03*
%TO.N,+9V*%
X162950000Y-131500000D03*
X171500000Y-127000000D03*
%TO.N,Net-(Intensity1-Pad1)*%
X176460000Y-124460000D03*
X177000000Y-130250000D03*
%TO.N,Net-(R21-Pad2)*%
X157962000Y-124180000D03*
%TO.N,Net-(C4-Pad1)*%
X172500000Y-125730000D03*
%TO.N,Net-(C7-Pad1)*%
X172500000Y-128250000D03*
%TO.N,Net-(D2-Pad2)*%
X178500000Y-123500000D03*
X178550000Y-131550000D03*
%TO.N,Net-(R23-Pad1)*%
X167750000Y-131550000D03*
%TD*%
D22*
%TO.N,Net-(C1-Pad1)*%
X136652000Y-82186410D02*
X139627795Y-85162205D01*
X136652000Y-82042000D02*
X136652000Y-82186410D01*
X142710000Y-82080000D02*
X151000000Y-82080000D01*
X139627795Y-85162205D02*
X142710000Y-82080000D01*
X136737795Y-85162205D02*
X133000000Y-88900000D01*
X139627795Y-85162205D02*
X136737795Y-85162205D01*
%TO.N,Net-(C2-Pad1)*%
X164338000Y-86614000D02*
X166370000Y-84582000D01*
X152400000Y-86614000D02*
X164338000Y-86614000D01*
X169926000Y-84582000D02*
X170180000Y-84328000D01*
X166370000Y-84582000D02*
X169926000Y-84582000D01*
%TO.N,Net-(C2-Pad2)*%
X155460000Y-79540000D02*
X156000000Y-79000000D01*
X151000000Y-79540000D02*
X155460000Y-79540000D01*
X168907999Y-80600001D02*
X170180000Y-79328000D01*
X157600001Y-80600001D02*
X168907999Y-80600001D01*
X156000000Y-79000000D02*
X157600001Y-80600001D01*
%TO.N,Net-(C3-Pad2)*%
X172500000Y-74500000D02*
X181000000Y-74500000D01*
%TO.N,Net-(C3-Pad1)*%
X170000000Y-75000000D02*
X170500000Y-74500000D01*
X170500000Y-76520000D02*
X173990000Y-80010000D01*
X170500000Y-74500000D02*
X170500000Y-76520000D01*
X175630000Y-80010000D02*
X181620000Y-86000000D01*
X173990000Y-80010000D02*
X175630000Y-80010000D01*
%TO.N,+9V*%
X167450000Y-127000000D02*
X162950000Y-131500000D01*
X171500000Y-127000000D02*
X167450000Y-127000000D01*
X147790000Y-77000000D02*
X146812000Y-77978000D01*
X151000000Y-77000000D02*
X147790000Y-77000000D01*
X159250000Y-77000000D02*
X163500000Y-72750000D01*
X151000000Y-77000000D02*
X159250000Y-77000000D01*
%TO.N,Net-(Intensity1-Pad1)*%
X176460000Y-129710000D02*
X177000000Y-130250000D01*
X176460000Y-124460000D02*
X176460000Y-129710000D01*
%TO.N,Net-(J2-Pad1)*%
X163850000Y-110490000D02*
X167090000Y-107250000D01*
X152654000Y-110490000D02*
X163850000Y-110490000D01*
%TO.N,Net-(J3-Pad1)*%
X190438000Y-107250000D02*
X190500000Y-107188000D01*
X177250000Y-107250000D02*
X190438000Y-107250000D01*
X190108000Y-107188000D02*
X181620000Y-98700000D01*
X190500000Y-107188000D02*
X190108000Y-107188000D01*
%TO.N,Low*%
X151098000Y-106033370D02*
X148336000Y-108795370D01*
X151098000Y-104902000D02*
X151098000Y-106033370D01*
X148336000Y-108795370D02*
X148336000Y-112268000D01*
X154059002Y-117556000D02*
X161210000Y-117556000D01*
X148771002Y-112268000D02*
X154059002Y-117556000D01*
X148336000Y-112268000D02*
X148771002Y-112268000D01*
%TO.N,Net-(R12-Pad1)*%
X184540000Y-94000000D02*
X181620000Y-91080000D01*
X188000000Y-94000000D02*
X184540000Y-94000000D01*
%TO.N,High*%
X143179999Y-103301999D02*
X137668000Y-97790000D01*
X154609999Y-103301999D02*
X143179999Y-103301999D01*
X175260000Y-110236000D02*
X169784001Y-104760001D01*
X137668000Y-97790000D02*
X137668000Y-94154000D01*
X156068001Y-104760001D02*
X154609999Y-103301999D01*
X178562000Y-110236000D02*
X175260000Y-110236000D01*
X183702999Y-115376999D02*
X178562000Y-110236000D01*
X189764999Y-115376999D02*
X183702999Y-115376999D01*
X169784001Y-104760001D02*
X156068001Y-104760001D01*
X191690000Y-117302000D02*
X189764999Y-115376999D01*
%TO.N,Net-(R21-Pad2)*%
X157962000Y-124180000D02*
X146278000Y-124180000D01*
X136472000Y-114374000D02*
X133096000Y-114374000D01*
X146278000Y-124180000D02*
X136472000Y-114374000D01*
%TO.N,ModL*%
X151210000Y-117556000D02*
X153288000Y-119634000D01*
X161981002Y-119634000D02*
X165608000Y-116007002D01*
X153288000Y-119634000D02*
X161981002Y-119634000D01*
X167241998Y-112268000D02*
X173482000Y-112268000D01*
X165608000Y-113901998D02*
X167241998Y-112268000D01*
X165608000Y-116007002D02*
X165608000Y-113901998D01*
%TO.N,ModH*%
X195000000Y-87304000D02*
X194890205Y-87194205D01*
X195000000Y-116841002D02*
X195000000Y-87304000D01*
X192614001Y-119227001D02*
X195000000Y-116841002D01*
X183615001Y-119227001D02*
X192614001Y-119227001D01*
X181690000Y-117302000D02*
X183615001Y-119227001D01*
%TO.N,Net-(C4-Pad1)*%
X172500000Y-123500000D02*
X169000000Y-120000000D01*
X172500000Y-125730000D02*
X172500000Y-123500000D01*
%TO.N,Net-(C7-Pad1)*%
X191750000Y-127750000D02*
X196250000Y-123250000D01*
X172500000Y-130500000D02*
X173049999Y-131049999D01*
X172500000Y-128250000D02*
X172500000Y-130500000D01*
X174076001Y-131049999D02*
X177776002Y-134750000D01*
X173049999Y-131049999D02*
X174076001Y-131049999D01*
X184750000Y-134750000D02*
X187750000Y-131750000D01*
X177776002Y-134750000D02*
X184750000Y-134750000D01*
X187750000Y-131750000D02*
X196250000Y-123250000D01*
X186749999Y-132750001D02*
X187750000Y-131750000D01*
%TO.N,Net-(D2-Pad2)*%
X178550000Y-123550000D02*
X178500000Y-123500000D01*
X178550000Y-131550000D02*
X178550000Y-123550000D01*
X171368002Y-115000000D02*
X170290000Y-115000000D01*
X178500000Y-122131998D02*
X171368002Y-115000000D01*
X178500000Y-123500000D02*
X178500000Y-122131998D01*
%TO.N,Net-(J1-Pad1)*%
X142240000Y-99822000D02*
X144526000Y-102108000D01*
X144526000Y-102108000D02*
X147066000Y-102108000D01*
X147066000Y-102108000D02*
X147574000Y-102108000D01*
X148082000Y-102108000D02*
X151490000Y-98700000D01*
X147066000Y-102108000D02*
X148082000Y-102108000D01*
X151490000Y-98700000D02*
X155554000Y-98700000D01*
X155554000Y-98700000D02*
X174000000Y-98700000D01*
X155088000Y-98700000D02*
X155554000Y-98700000D01*
%TO.N,Net-(R1-Pad2)*%
X173598000Y-88138000D02*
X174000000Y-88540000D01*
X152908000Y-90678000D02*
X155448000Y-93218000D01*
X169322000Y-93218000D02*
X174000000Y-88540000D01*
X155448000Y-93218000D02*
X169322000Y-93218000D01*
%TO.N,Net-(R4-Pad1)*%
X184256000Y-80116000D02*
X184150000Y-80010000D01*
X184256000Y-88540000D02*
X184256000Y-80116000D01*
X181620000Y-88540000D02*
X184256000Y-88540000D01*
X187706000Y-80010000D02*
X184150000Y-80010000D01*
%TO.N,Net-(R15-Pad1)*%
X183790000Y-96160000D02*
X187452000Y-99822000D01*
X181620000Y-96160000D02*
X183790000Y-96160000D01*
%TO.N,Net-(R16-Pad2)*%
X173840001Y-91239999D02*
X174000000Y-91080000D01*
%TO.N,Net-(R23-Pad1)*%
X166599999Y-132700001D02*
X167750000Y-131550000D01*
X141470002Y-122174000D02*
X151996003Y-132700001D01*
X133096000Y-122174000D02*
X141470002Y-122174000D01*
X151996003Y-132700001D02*
X152004001Y-132700001D01*
X152004001Y-132700001D02*
X156210000Y-136906000D01*
X162394000Y-136906000D02*
X167750000Y-131550000D01*
X156210000Y-136906000D02*
X162394000Y-136906000D01*
%TO.N,Net-(C8-Pad1)*%
X141732000Y-89154000D02*
X142240000Y-89662000D01*
X137668000Y-89154000D02*
X141732000Y-89154000D01*
X147320000Y-89662000D02*
X147574000Y-89916000D01*
X142240000Y-89662000D02*
X147320000Y-89662000D01*
X171176001Y-88823999D02*
X174000000Y-86000000D01*
X148666001Y-88823999D02*
X171176001Y-88823999D01*
X147574000Y-89916000D02*
X148666001Y-88823999D01*
%TO.N,Net-(C9-Pad1)*%
X173231999Y-102840001D02*
X180019999Y-102840001D01*
X180019999Y-102840001D02*
X181620000Y-101240000D01*
X171229998Y-100838000D02*
X173231999Y-102840001D01*
X152908000Y-100838000D02*
X171229998Y-100838000D01*
%TD*%
D23*
%TO.N,4.5V*%
X209373000Y-99105680D02*
X209373000Y-127703647D01*
X191890915Y-148463000D01*
X151005317Y-148463000D01*
X146279789Y-143382655D01*
X149450000Y-143382655D01*
X149450000Y-143729345D01*
X149517636Y-144069373D01*
X149650308Y-144389673D01*
X149842919Y-144677935D01*
X150088065Y-144923081D01*
X150376327Y-145115692D01*
X150696627Y-145248364D01*
X151036655Y-145316000D01*
X151383345Y-145316000D01*
X151723373Y-145248364D01*
X152043673Y-145115692D01*
X152331935Y-144923081D01*
X152577081Y-144677935D01*
X152769692Y-144389673D01*
X152902364Y-144069373D01*
X152970000Y-143729345D01*
X152970000Y-143382655D01*
X159530000Y-143382655D01*
X159530000Y-143729345D01*
X159597636Y-144069373D01*
X159730308Y-144389673D01*
X159922919Y-144677935D01*
X160168065Y-144923081D01*
X160456327Y-145115692D01*
X160776627Y-145248364D01*
X161116655Y-145316000D01*
X161463345Y-145316000D01*
X161803373Y-145248364D01*
X162123673Y-145115692D01*
X162411935Y-144923081D01*
X162657081Y-144677935D01*
X162849692Y-144389673D01*
X162982364Y-144069373D01*
X163050000Y-143729345D01*
X163050000Y-143382655D01*
X162999477Y-143128655D01*
X179930000Y-143128655D01*
X179930000Y-143475345D01*
X179997636Y-143815373D01*
X180130308Y-144135673D01*
X180322919Y-144423935D01*
X180568065Y-144669081D01*
X180856327Y-144861692D01*
X181176627Y-144994364D01*
X181516655Y-145062000D01*
X181863345Y-145062000D01*
X182203373Y-144994364D01*
X182523673Y-144861692D01*
X182811935Y-144669081D01*
X183057081Y-144423935D01*
X183249692Y-144135673D01*
X183382364Y-143815373D01*
X183450000Y-143475345D01*
X183450000Y-143128655D01*
X190010000Y-143128655D01*
X190010000Y-143475345D01*
X190077636Y-143815373D01*
X190210308Y-144135673D01*
X190402919Y-144423935D01*
X190648065Y-144669081D01*
X190936327Y-144861692D01*
X191256627Y-144994364D01*
X191596655Y-145062000D01*
X191943345Y-145062000D01*
X192283373Y-144994364D01*
X192603673Y-144861692D01*
X192891935Y-144669081D01*
X193137081Y-144423935D01*
X193329692Y-144135673D01*
X193462364Y-143815373D01*
X193530000Y-143475345D01*
X193530000Y-143128655D01*
X193462364Y-142788627D01*
X193329692Y-142468327D01*
X193137081Y-142180065D01*
X192891935Y-141934919D01*
X192603673Y-141742308D01*
X192283373Y-141609636D01*
X191943345Y-141542000D01*
X191596655Y-141542000D01*
X191256627Y-141609636D01*
X190936327Y-141742308D01*
X190648065Y-141934919D01*
X190402919Y-142180065D01*
X190210308Y-142468327D01*
X190077636Y-142788627D01*
X190010000Y-143128655D01*
X183450000Y-143128655D01*
X183382364Y-142788627D01*
X183249692Y-142468327D01*
X183057081Y-142180065D01*
X182811935Y-141934919D01*
X182523673Y-141742308D01*
X182203373Y-141609636D01*
X181863345Y-141542000D01*
X181516655Y-141542000D01*
X181176627Y-141609636D01*
X180856327Y-141742308D01*
X180568065Y-141934919D01*
X180322919Y-142180065D01*
X180130308Y-142468327D01*
X179997636Y-142788627D01*
X179930000Y-143128655D01*
X162999477Y-143128655D01*
X162982364Y-143042627D01*
X162849692Y-142722327D01*
X162657081Y-142434065D01*
X162411935Y-142188919D01*
X162123673Y-141996308D01*
X161803373Y-141863636D01*
X161463345Y-141796000D01*
X161116655Y-141796000D01*
X160776627Y-141863636D01*
X160456327Y-141996308D01*
X160168065Y-142188919D01*
X159922919Y-142434065D01*
X159730308Y-142722327D01*
X159597636Y-143042627D01*
X159530000Y-143382655D01*
X152970000Y-143382655D01*
X152902364Y-143042627D01*
X152769692Y-142722327D01*
X152577081Y-142434065D01*
X152331935Y-142188919D01*
X152043673Y-141996308D01*
X151723373Y-141863636D01*
X151383345Y-141796000D01*
X151036655Y-141796000D01*
X150696627Y-141863636D01*
X150376327Y-141996308D01*
X150088065Y-142188919D01*
X149842919Y-142434065D01*
X149650308Y-142722327D01*
X149517636Y-143042627D01*
X149450000Y-143382655D01*
X146279789Y-143382655D01*
X139213677Y-135785984D01*
X142161000Y-135785984D01*
X142161000Y-136502016D01*
X142300691Y-137204290D01*
X142574705Y-137865818D01*
X142972511Y-138461177D01*
X143478823Y-138967489D01*
X144074182Y-139365295D01*
X144735710Y-139639309D01*
X145437984Y-139779000D01*
X146154016Y-139779000D01*
X146856290Y-139639309D01*
X147517818Y-139365295D01*
X148113177Y-138967489D01*
X148619489Y-138461177D01*
X149017295Y-137865818D01*
X149291309Y-137204290D01*
X149431000Y-136502016D01*
X149431000Y-135785984D01*
X149291309Y-135083710D01*
X149017295Y-134422182D01*
X148619489Y-133826823D01*
X148113177Y-133320511D01*
X147517818Y-132922705D01*
X146856290Y-132648691D01*
X146154016Y-132509000D01*
X145437984Y-132509000D01*
X144735710Y-132648691D01*
X144074182Y-132922705D01*
X143478823Y-133320511D01*
X142972511Y-133826823D01*
X142574705Y-134422182D01*
X142300691Y-135083710D01*
X142161000Y-135785984D01*
X139213677Y-135785984D01*
X128143000Y-123884066D01*
X128143000Y-120474001D01*
X130507928Y-120474001D01*
X130507928Y-123873999D01*
X130524992Y-124047253D01*
X130575529Y-124213850D01*
X130657595Y-124367386D01*
X130768039Y-124501961D01*
X130902614Y-124612405D01*
X131056150Y-124694471D01*
X131222747Y-124745008D01*
X131396001Y-124762072D01*
X134795999Y-124762072D01*
X134969253Y-124745008D01*
X135135850Y-124694471D01*
X135289386Y-124612405D01*
X135423961Y-124501961D01*
X135534405Y-124367386D01*
X135616471Y-124213850D01*
X135667008Y-124047253D01*
X135684072Y-123873999D01*
X135684072Y-123109000D01*
X141082713Y-123109000D01*
X143535641Y-125561928D01*
X142456000Y-125561928D01*
X142331518Y-125574188D01*
X142211820Y-125610498D01*
X142101506Y-125669463D01*
X142004815Y-125748815D01*
X141925463Y-125845506D01*
X141866498Y-125955820D01*
X141837339Y-126051943D01*
X141670759Y-125885363D01*
X141435727Y-125728320D01*
X141174574Y-125620147D01*
X140897335Y-125565000D01*
X140614665Y-125565000D01*
X140337426Y-125620147D01*
X140076273Y-125728320D01*
X139841241Y-125885363D01*
X139641363Y-126085241D01*
X139484320Y-126320273D01*
X139376147Y-126581426D01*
X139321000Y-126858665D01*
X139321000Y-127141335D01*
X139376147Y-127418574D01*
X139484320Y-127679727D01*
X139641363Y-127914759D01*
X139841241Y-128114637D01*
X140076273Y-128271680D01*
X140337426Y-128379853D01*
X140614665Y-128435000D01*
X140897335Y-128435000D01*
X141174574Y-128379853D01*
X141435727Y-128271680D01*
X141670759Y-128114637D01*
X141837339Y-127948057D01*
X141866498Y-128044180D01*
X141925463Y-128154494D01*
X142004815Y-128251185D01*
X142101506Y-128330537D01*
X142211820Y-128389502D01*
X142331518Y-128425812D01*
X142456000Y-128438072D01*
X144056000Y-128438072D01*
X144180482Y-128425812D01*
X144300180Y-128389502D01*
X144410494Y-128330537D01*
X144507185Y-128251185D01*
X144586537Y-128154494D01*
X144645502Y-128044180D01*
X144681812Y-127924482D01*
X144694072Y-127800000D01*
X144694072Y-126720359D01*
X151302378Y-133328666D01*
X151331659Y-133364345D01*
X151411946Y-133430235D01*
X155516370Y-137534659D01*
X155545656Y-137570344D01*
X155688028Y-137687186D01*
X155850460Y-137774007D01*
X156026708Y-137827471D01*
X156210000Y-137845524D01*
X156255932Y-137841000D01*
X162348068Y-137841000D01*
X162394000Y-137845524D01*
X162439932Y-137841000D01*
X162577292Y-137827471D01*
X162753540Y-137774007D01*
X162915972Y-137687186D01*
X163058344Y-137570344D01*
X163087630Y-137534659D01*
X167738997Y-132883292D01*
X168094859Y-132527431D01*
X168240256Y-132467205D01*
X168409774Y-132353937D01*
X168553937Y-132209774D01*
X168667205Y-132040256D01*
X168745226Y-131851898D01*
X168785000Y-131651939D01*
X168785000Y-131448061D01*
X168745226Y-131248102D01*
X168667205Y-131059744D01*
X168553937Y-130890226D01*
X168409774Y-130746063D01*
X168240256Y-130632795D01*
X168051898Y-130554774D01*
X167851939Y-130515000D01*
X167648061Y-130515000D01*
X167448102Y-130554774D01*
X167259744Y-130632795D01*
X167090226Y-130746063D01*
X166946063Y-130890226D01*
X166832795Y-131059744D01*
X166772569Y-131205141D01*
X166477711Y-131500000D01*
X162006711Y-135971000D01*
X156597289Y-135971000D01*
X152697631Y-132071342D01*
X152668345Y-132035657D01*
X152588063Y-131969771D01*
X152016353Y-131398061D01*
X161915000Y-131398061D01*
X161915000Y-131601939D01*
X161954774Y-131801898D01*
X162032795Y-131990256D01*
X162146063Y-132159774D01*
X162290226Y-132303937D01*
X162459744Y-132417205D01*
X162648102Y-132495226D01*
X162848061Y-132535000D01*
X163051939Y-132535000D01*
X163251898Y-132495226D01*
X163440256Y-132417205D01*
X163609774Y-132303937D01*
X163753937Y-132159774D01*
X163867205Y-131990256D01*
X163927431Y-131844858D01*
X167837290Y-127935000D01*
X171052705Y-127935000D01*
X171198102Y-127995226D01*
X171398061Y-128035000D01*
X171487489Y-128035000D01*
X171465000Y-128148061D01*
X171465000Y-128351939D01*
X171504774Y-128551898D01*
X171565000Y-128697296D01*
X171565001Y-130454058D01*
X171560476Y-130500000D01*
X171578529Y-130683291D01*
X171622587Y-130828528D01*
X171631994Y-130859540D01*
X171718815Y-131021972D01*
X171835657Y-131164344D01*
X171871336Y-131193625D01*
X172356369Y-131678658D01*
X172385655Y-131714343D01*
X172528027Y-131831185D01*
X172690459Y-131918006D01*
X172813242Y-131955252D01*
X172866706Y-131971470D01*
X173049998Y-131989523D01*
X173095930Y-131984999D01*
X173688712Y-131984999D01*
X177082372Y-135378659D01*
X177111658Y-135414344D01*
X177254030Y-135531186D01*
X177359882Y-135587765D01*
X177416461Y-135618007D01*
X177592710Y-135671472D01*
X177776002Y-135689524D01*
X177821937Y-135685000D01*
X184704068Y-135685000D01*
X184750000Y-135689524D01*
X184795932Y-135685000D01*
X184933292Y-135671471D01*
X185109540Y-135618007D01*
X185271972Y-135531186D01*
X185414344Y-135414344D01*
X185443630Y-135378659D01*
X186930305Y-133891984D01*
X194365000Y-133891984D01*
X194365000Y-134608016D01*
X194504691Y-135310290D01*
X194778705Y-135971818D01*
X195176511Y-136567177D01*
X195682823Y-137073489D01*
X196278182Y-137471295D01*
X196939710Y-137745309D01*
X197641984Y-137885000D01*
X198358016Y-137885000D01*
X199060290Y-137745309D01*
X199721818Y-137471295D01*
X200317177Y-137073489D01*
X200823489Y-136567177D01*
X201221295Y-135971818D01*
X201495309Y-135310290D01*
X201635000Y-134608016D01*
X201635000Y-133891984D01*
X201495309Y-133189710D01*
X201221295Y-132528182D01*
X200823489Y-131932823D01*
X200317177Y-131426511D01*
X199721818Y-131028705D01*
X199060290Y-130754691D01*
X198358016Y-130615000D01*
X197641984Y-130615000D01*
X196939710Y-130754691D01*
X196278182Y-131028705D01*
X195682823Y-131426511D01*
X195176511Y-131932823D01*
X194778705Y-132528182D01*
X194504691Y-133189710D01*
X194365000Y-133891984D01*
X186930305Y-133891984D01*
X188443623Y-132378666D01*
X196134218Y-124688072D01*
X197050000Y-124688072D01*
X197174482Y-124675812D01*
X197294180Y-124639502D01*
X197404494Y-124580537D01*
X197501185Y-124501185D01*
X197580537Y-124404494D01*
X197639502Y-124294180D01*
X197675812Y-124174482D01*
X197688072Y-124050000D01*
X197688072Y-123776001D01*
X200865928Y-123776001D01*
X200865928Y-127175999D01*
X200882992Y-127349253D01*
X200933529Y-127515850D01*
X201015595Y-127669386D01*
X201126039Y-127803961D01*
X201260614Y-127914405D01*
X201414150Y-127996471D01*
X201580747Y-128047008D01*
X201754001Y-128064072D01*
X205153999Y-128064072D01*
X205327253Y-128047008D01*
X205493850Y-127996471D01*
X205647386Y-127914405D01*
X205781961Y-127803961D01*
X205892405Y-127669386D01*
X205974471Y-127515850D01*
X206025008Y-127349253D01*
X206042072Y-127175999D01*
X206042072Y-123776001D01*
X206025008Y-123602747D01*
X205974471Y-123436150D01*
X205892405Y-123282614D01*
X205781961Y-123148039D01*
X205647386Y-123037595D01*
X205493850Y-122955529D01*
X205327253Y-122904992D01*
X205153999Y-122887928D01*
X201754001Y-122887928D01*
X201580747Y-122904992D01*
X201414150Y-122955529D01*
X201260614Y-123037595D01*
X201126039Y-123148039D01*
X201015595Y-123282614D01*
X200933529Y-123436150D01*
X200882992Y-123602747D01*
X200865928Y-123776001D01*
X197688072Y-123776001D01*
X197688072Y-122450000D01*
X197675812Y-122325518D01*
X197639502Y-122205820D01*
X197580537Y-122095506D01*
X197501185Y-121998815D01*
X197484607Y-121985210D01*
X197521680Y-121929727D01*
X197629853Y-121668574D01*
X197685000Y-121391335D01*
X197685000Y-121108665D01*
X197629853Y-120831426D01*
X197521680Y-120570273D01*
X197364637Y-120335241D01*
X197164759Y-120135363D01*
X196929727Y-119978320D01*
X196668574Y-119870147D01*
X196391335Y-119815000D01*
X196108665Y-119815000D01*
X195831426Y-119870147D01*
X195570273Y-119978320D01*
X195335241Y-120135363D01*
X195135363Y-120335241D01*
X194978320Y-120570273D01*
X194870147Y-120831426D01*
X194815000Y-121108665D01*
X194815000Y-121391335D01*
X194870147Y-121668574D01*
X194978320Y-121929727D01*
X195015393Y-121985210D01*
X194998815Y-121998815D01*
X194919463Y-122095506D01*
X194860498Y-122205820D01*
X194824188Y-122325518D01*
X194811928Y-122450000D01*
X194811928Y-123365782D01*
X187121334Y-131056377D01*
X184362711Y-133815000D01*
X178163291Y-133815000D01*
X174769631Y-130421340D01*
X174740345Y-130385655D01*
X174597973Y-130268813D01*
X174435541Y-130181992D01*
X174259293Y-130128528D01*
X174121933Y-130114999D01*
X174076001Y-130110475D01*
X174030069Y-130114999D01*
X173437288Y-130114999D01*
X173435000Y-130112711D01*
X173435000Y-128697295D01*
X173495226Y-128551898D01*
X173535000Y-128351939D01*
X173535000Y-128148061D01*
X173495226Y-127948102D01*
X173417205Y-127759744D01*
X173303937Y-127590226D01*
X173159774Y-127446063D01*
X172990256Y-127332795D01*
X172801898Y-127254774D01*
X172601939Y-127215000D01*
X172512511Y-127215000D01*
X172535000Y-127101939D01*
X172535000Y-126898061D01*
X172508533Y-126765000D01*
X172601939Y-126765000D01*
X172801898Y-126725226D01*
X172990256Y-126647205D01*
X173159774Y-126533937D01*
X173303937Y-126389774D01*
X173417205Y-126220256D01*
X173495226Y-126031898D01*
X173535000Y-125831939D01*
X173535000Y-125628061D01*
X173495226Y-125428102D01*
X173435000Y-125282705D01*
X173435000Y-123545924D01*
X173439523Y-123499999D01*
X173435000Y-123454074D01*
X173435000Y-123454068D01*
X173421471Y-123316708D01*
X173368007Y-123140460D01*
X173281186Y-122978028D01*
X173164344Y-122835656D01*
X173128664Y-122806374D01*
X170435000Y-120112711D01*
X170435000Y-119858665D01*
X170379853Y-119581426D01*
X170271680Y-119320273D01*
X170114637Y-119085241D01*
X169914759Y-118885363D01*
X169679727Y-118728320D01*
X169418574Y-118620147D01*
X169141335Y-118565000D01*
X168858665Y-118565000D01*
X168581426Y-118620147D01*
X168320273Y-118728320D01*
X168085241Y-118885363D01*
X167885363Y-119085241D01*
X167728320Y-119320273D01*
X167620147Y-119581426D01*
X167565000Y-119858665D01*
X167565000Y-120141335D01*
X167620147Y-120418574D01*
X167728320Y-120679727D01*
X167885363Y-120914759D01*
X168085241Y-121114637D01*
X168320273Y-121271680D01*
X168581426Y-121379853D01*
X168858665Y-121435000D01*
X169112711Y-121435000D01*
X171565001Y-123887291D01*
X171565000Y-125282704D01*
X171504774Y-125428102D01*
X171465000Y-125628061D01*
X171465000Y-125831939D01*
X171491467Y-125965000D01*
X171398061Y-125965000D01*
X171198102Y-126004774D01*
X171052705Y-126065000D01*
X167495931Y-126065000D01*
X167449999Y-126060476D01*
X167266708Y-126078529D01*
X167090460Y-126131993D01*
X166928028Y-126218814D01*
X166785656Y-126335656D01*
X166756374Y-126371336D01*
X162605142Y-130522569D01*
X162459744Y-130582795D01*
X162290226Y-130696063D01*
X162146063Y-130840226D01*
X162032795Y-131009744D01*
X161954774Y-131198102D01*
X161915000Y-131398061D01*
X152016353Y-131398061D01*
X142163632Y-121545341D01*
X142134346Y-121509656D01*
X141991974Y-121392814D01*
X141829542Y-121305993D01*
X141653294Y-121252529D01*
X141515934Y-121239000D01*
X141470002Y-121234476D01*
X141424070Y-121239000D01*
X135684072Y-121239000D01*
X135684072Y-120474001D01*
X135667008Y-120300747D01*
X135616471Y-120134150D01*
X135534405Y-119980614D01*
X135423961Y-119846039D01*
X135289386Y-119735595D01*
X135135850Y-119653529D01*
X134969253Y-119602992D01*
X134795999Y-119585928D01*
X131396001Y-119585928D01*
X131222747Y-119602992D01*
X131056150Y-119653529D01*
X130902614Y-119735595D01*
X130768039Y-119846039D01*
X130657595Y-119980614D01*
X130575529Y-120134150D01*
X130524992Y-120300747D01*
X130507928Y-120474001D01*
X128143000Y-120474001D01*
X128143000Y-114119400D01*
X130511000Y-114119400D01*
X130511000Y-114628600D01*
X130610340Y-115128017D01*
X130805202Y-115598457D01*
X131088099Y-116021842D01*
X131448158Y-116381901D01*
X131871543Y-116664798D01*
X132341983Y-116859660D01*
X132841400Y-116959000D01*
X133350600Y-116959000D01*
X133850017Y-116859660D01*
X134320457Y-116664798D01*
X134743842Y-116381901D01*
X135103901Y-116021842D01*
X135386798Y-115598457D01*
X135506695Y-115309000D01*
X136084711Y-115309000D01*
X145584375Y-124808665D01*
X145613656Y-124844344D01*
X145756028Y-124961186D01*
X145918460Y-125048007D01*
X145991707Y-125070226D01*
X146094707Y-125101471D01*
X146277999Y-125119524D01*
X146323931Y-125115000D01*
X157514705Y-125115000D01*
X157660102Y-125175226D01*
X157860061Y-125215000D01*
X158063939Y-125215000D01*
X158263898Y-125175226D01*
X158452256Y-125097205D01*
X158621774Y-124983937D01*
X158765937Y-124839774D01*
X158879205Y-124670256D01*
X158957226Y-124481898D01*
X158997000Y-124281939D01*
X158997000Y-124078061D01*
X158957226Y-123878102D01*
X158879205Y-123689744D01*
X158765937Y-123520226D01*
X158621774Y-123376063D01*
X158452256Y-123262795D01*
X158263898Y-123184774D01*
X158063939Y-123145000D01*
X157860061Y-123145000D01*
X157660102Y-123184774D01*
X157514705Y-123245000D01*
X146665290Y-123245000D01*
X142584290Y-119164000D01*
X143341928Y-119164000D01*
X143354188Y-119288482D01*
X143390498Y-119408180D01*
X143449463Y-119518494D01*
X143528815Y-119615185D01*
X143625506Y-119694537D01*
X143735820Y-119753502D01*
X143855518Y-119789812D01*
X143980000Y-119802072D01*
X144494250Y-119799000D01*
X144653000Y-119640250D01*
X144653000Y-118491000D01*
X143503750Y-118491000D01*
X143345000Y-118649750D01*
X143341928Y-119164000D01*
X142584290Y-119164000D01*
X140984290Y-117564000D01*
X143341928Y-117564000D01*
X143345000Y-118078250D01*
X143503750Y-118237000D01*
X144653000Y-118237000D01*
X144653000Y-117087750D01*
X144907000Y-117087750D01*
X144907000Y-118237000D01*
X144927000Y-118237000D01*
X144927000Y-118491000D01*
X144907000Y-118491000D01*
X144907000Y-119640250D01*
X145065750Y-119799000D01*
X145580000Y-119802072D01*
X145704482Y-119789812D01*
X145824180Y-119753502D01*
X145934494Y-119694537D01*
X146031185Y-119615185D01*
X146044790Y-119598607D01*
X146100273Y-119635680D01*
X146361426Y-119743853D01*
X146638665Y-119799000D01*
X146921335Y-119799000D01*
X147198574Y-119743853D01*
X147459727Y-119635680D01*
X147694759Y-119478637D01*
X147894637Y-119278759D01*
X148051680Y-119043727D01*
X148159853Y-118782574D01*
X148215000Y-118505335D01*
X148215000Y-118222665D01*
X148159853Y-117945426D01*
X148051680Y-117684273D01*
X147894637Y-117449241D01*
X147694759Y-117249363D01*
X147459727Y-117092320D01*
X147198574Y-116984147D01*
X146921335Y-116929000D01*
X146638665Y-116929000D01*
X146361426Y-116984147D01*
X146100273Y-117092320D01*
X146044790Y-117129393D01*
X146031185Y-117112815D01*
X145934494Y-117033463D01*
X145824180Y-116974498D01*
X145704482Y-116938188D01*
X145580000Y-116925928D01*
X145065750Y-116929000D01*
X144907000Y-117087750D01*
X144653000Y-117087750D01*
X144494250Y-116929000D01*
X143980000Y-116925928D01*
X143855518Y-116938188D01*
X143735820Y-116974498D01*
X143625506Y-117033463D01*
X143528815Y-117112815D01*
X143449463Y-117209506D01*
X143390498Y-117319820D01*
X143354188Y-117439518D01*
X143341928Y-117564000D01*
X140984290Y-117564000D01*
X137165630Y-113745341D01*
X137136344Y-113709656D01*
X136993972Y-113592814D01*
X136831540Y-113505993D01*
X136655292Y-113452529D01*
X136517932Y-113439000D01*
X136472000Y-113434476D01*
X136426068Y-113439000D01*
X135506695Y-113439000D01*
X135386798Y-113149543D01*
X135103901Y-112726158D01*
X134743842Y-112366099D01*
X134320457Y-112083202D01*
X133850017Y-111888340D01*
X133350600Y-111789000D01*
X132841400Y-111789000D01*
X132341983Y-111888340D01*
X131871543Y-112083202D01*
X131448158Y-112366099D01*
X131088099Y-112726158D01*
X130805202Y-113149543D01*
X130610340Y-113619983D01*
X130511000Y-114119400D01*
X128143000Y-114119400D01*
X128143000Y-111022001D01*
X140105928Y-111022001D01*
X140105928Y-114021999D01*
X140122992Y-114195253D01*
X140173529Y-114361850D01*
X140255595Y-114515386D01*
X140366039Y-114649961D01*
X140500614Y-114760405D01*
X140654150Y-114842471D01*
X140820747Y-114893008D01*
X140994001Y-114910072D01*
X143993999Y-114910072D01*
X144167253Y-114893008D01*
X144333850Y-114842471D01*
X144487386Y-114760405D01*
X144621961Y-114649961D01*
X144732405Y-114515386D01*
X144814471Y-114361850D01*
X144865008Y-114195253D01*
X144882072Y-114021999D01*
X144882072Y-111022001D01*
X144865008Y-110848747D01*
X144814471Y-110682150D01*
X144732405Y-110528614D01*
X144621961Y-110394039D01*
X144487386Y-110283595D01*
X144333850Y-110201529D01*
X144167253Y-110150992D01*
X143993999Y-110133928D01*
X140994001Y-110133928D01*
X140820747Y-110150992D01*
X140654150Y-110201529D01*
X140500614Y-110283595D01*
X140366039Y-110394039D01*
X140255595Y-110528614D01*
X140173529Y-110682150D01*
X140122992Y-110848747D01*
X140105928Y-111022001D01*
X128143000Y-111022001D01*
X128143000Y-106319400D01*
X130511000Y-106319400D01*
X130511000Y-106828600D01*
X130610340Y-107328017D01*
X130805202Y-107798457D01*
X131088099Y-108221842D01*
X131448158Y-108581901D01*
X131871543Y-108864798D01*
X132341983Y-109059660D01*
X132841400Y-109159000D01*
X133350600Y-109159000D01*
X133850017Y-109059660D01*
X134320457Y-108864798D01*
X134743842Y-108581901D01*
X135103901Y-108221842D01*
X135386798Y-107798457D01*
X135581660Y-107328017D01*
X135681000Y-106828600D01*
X135681000Y-106319400D01*
X135581660Y-105819983D01*
X135386798Y-105349543D01*
X135103901Y-104926158D01*
X134849744Y-104672001D01*
X137057928Y-104672001D01*
X137057928Y-107671999D01*
X137074992Y-107845253D01*
X137125529Y-108011850D01*
X137207595Y-108165386D01*
X137318039Y-108299961D01*
X137452614Y-108410405D01*
X137606150Y-108492471D01*
X137772747Y-108543008D01*
X137946001Y-108560072D01*
X140945999Y-108560072D01*
X141119253Y-108543008D01*
X141285850Y-108492471D01*
X141439386Y-108410405D01*
X141573961Y-108299961D01*
X141684405Y-108165386D01*
X141766471Y-108011850D01*
X141817008Y-107845253D01*
X141834072Y-107671999D01*
X141834072Y-104672001D01*
X141817008Y-104498747D01*
X141766471Y-104332150D01*
X141684405Y-104178614D01*
X141573961Y-104044039D01*
X141439386Y-103933595D01*
X141285850Y-103851529D01*
X141119253Y-103800992D01*
X140945999Y-103783928D01*
X137946001Y-103783928D01*
X137772747Y-103800992D01*
X137606150Y-103851529D01*
X137452614Y-103933595D01*
X137318039Y-104044039D01*
X137207595Y-104178614D01*
X137125529Y-104332150D01*
X137074992Y-104498747D01*
X137057928Y-104672001D01*
X134849744Y-104672001D01*
X134743842Y-104566099D01*
X134320457Y-104283202D01*
X133850017Y-104088340D01*
X133350600Y-103989000D01*
X132841400Y-103989000D01*
X132341983Y-104088340D01*
X131871543Y-104283202D01*
X131448158Y-104566099D01*
X131088099Y-104926158D01*
X130805202Y-105349543D01*
X130610340Y-105819983D01*
X130511000Y-106319400D01*
X128143000Y-106319400D01*
X128143000Y-97814001D01*
X130611928Y-97814001D01*
X130611928Y-100813999D01*
X130628992Y-100987253D01*
X130679529Y-101153850D01*
X130761595Y-101307386D01*
X130872039Y-101441961D01*
X131006614Y-101552405D01*
X131160150Y-101634471D01*
X131326747Y-101685008D01*
X131500001Y-101702072D01*
X134499999Y-101702072D01*
X134673253Y-101685008D01*
X134839850Y-101634471D01*
X134993386Y-101552405D01*
X135127961Y-101441961D01*
X135238405Y-101307386D01*
X135320471Y-101153850D01*
X135371008Y-100987253D01*
X135388072Y-100813999D01*
X135388072Y-97814001D01*
X135371008Y-97640747D01*
X135320471Y-97474150D01*
X135238405Y-97320614D01*
X135127961Y-97186039D01*
X134993386Y-97075595D01*
X134839850Y-96993529D01*
X134673253Y-96942992D01*
X134499999Y-96925928D01*
X131500001Y-96925928D01*
X131326747Y-96942992D01*
X131160150Y-96993529D01*
X131006614Y-97075595D01*
X130872039Y-97186039D01*
X130761595Y-97320614D01*
X130679529Y-97474150D01*
X130628992Y-97640747D01*
X130611928Y-97814001D01*
X128143000Y-97814001D01*
X128143000Y-93758665D01*
X131565000Y-93758665D01*
X131565000Y-94041335D01*
X131620147Y-94318574D01*
X131728320Y-94579727D01*
X131885363Y-94814759D01*
X132085241Y-95014637D01*
X132320273Y-95171680D01*
X132581426Y-95279853D01*
X132858665Y-95335000D01*
X133141335Y-95335000D01*
X133418574Y-95279853D01*
X133679727Y-95171680D01*
X133914759Y-95014637D01*
X134114637Y-94814759D01*
X134271680Y-94579727D01*
X134379853Y-94318574D01*
X134435000Y-94041335D01*
X134435000Y-93758665D01*
X134379853Y-93481426D01*
X134271680Y-93220273D01*
X134114637Y-92985241D01*
X133914759Y-92785363D01*
X133679727Y-92628320D01*
X133418574Y-92520147D01*
X133141335Y-92465000D01*
X132858665Y-92465000D01*
X132581426Y-92520147D01*
X132320273Y-92628320D01*
X132085241Y-92785363D01*
X131885363Y-92985241D01*
X131728320Y-93220273D01*
X131620147Y-93481426D01*
X131565000Y-93758665D01*
X128143000Y-93758665D01*
X128143000Y-88758665D01*
X131565000Y-88758665D01*
X131565000Y-89041335D01*
X131620147Y-89318574D01*
X131728320Y-89579727D01*
X131885363Y-89814759D01*
X132085241Y-90014637D01*
X132320273Y-90171680D01*
X132581426Y-90279853D01*
X132858665Y-90335000D01*
X133141335Y-90335000D01*
X133418574Y-90279853D01*
X133679727Y-90171680D01*
X133914759Y-90014637D01*
X134114637Y-89814759D01*
X134271680Y-89579727D01*
X134379853Y-89318574D01*
X134435000Y-89041335D01*
X134435000Y-88787289D01*
X137125085Y-86097205D01*
X138533399Y-86097205D01*
X138713036Y-86276842D01*
X138948068Y-86433885D01*
X139209221Y-86542058D01*
X139486460Y-86597205D01*
X139769130Y-86597205D01*
X140046369Y-86542058D01*
X140213898Y-86472665D01*
X140805000Y-86472665D01*
X140805000Y-86755335D01*
X140860147Y-87032574D01*
X140968320Y-87293727D01*
X141125363Y-87528759D01*
X141325241Y-87728637D01*
X141560273Y-87885680D01*
X141821426Y-87993853D01*
X142098665Y-88049000D01*
X142381335Y-88049000D01*
X142658574Y-87993853D01*
X142919727Y-87885680D01*
X143154759Y-87728637D01*
X143354637Y-87528759D01*
X143511680Y-87293727D01*
X143619853Y-87032574D01*
X143675000Y-86755335D01*
X143675000Y-86472665D01*
X143619853Y-86195426D01*
X143511680Y-85934273D01*
X143354637Y-85699241D01*
X143154759Y-85499363D01*
X142919727Y-85342320D01*
X142658574Y-85234147D01*
X142381335Y-85179000D01*
X142098665Y-85179000D01*
X141821426Y-85234147D01*
X141560273Y-85342320D01*
X141325241Y-85499363D01*
X141125363Y-85699241D01*
X140968320Y-85934273D01*
X140860147Y-86195426D01*
X140805000Y-86472665D01*
X140213898Y-86472665D01*
X140307522Y-86433885D01*
X140542554Y-86276842D01*
X140742432Y-86076964D01*
X140899475Y-85841932D01*
X141007648Y-85580779D01*
X141062795Y-85303540D01*
X141062795Y-85049494D01*
X141879328Y-84232961D01*
X154818096Y-84232961D01*
X154940085Y-84455000D01*
X156083000Y-84455000D01*
X156083000Y-83311376D01*
X156337000Y-83311376D01*
X156337000Y-84455000D01*
X157479915Y-84455000D01*
X157601904Y-84232961D01*
X157561246Y-84098913D01*
X157441037Y-83844580D01*
X157273519Y-83618586D01*
X157065131Y-83429615D01*
X156823881Y-83284930D01*
X156559040Y-83190091D01*
X156337000Y-83311376D01*
X156083000Y-83311376D01*
X155860960Y-83190091D01*
X155596119Y-83284930D01*
X155354869Y-83429615D01*
X155146481Y-83618586D01*
X154978963Y-83844580D01*
X154858754Y-84098913D01*
X154818096Y-84232961D01*
X141879328Y-84232961D01*
X143097290Y-83015000D01*
X149976315Y-83015000D01*
X150117114Y-83155799D01*
X150343957Y-83307371D01*
X150596011Y-83411775D01*
X150863589Y-83465000D01*
X151136411Y-83465000D01*
X151403989Y-83411775D01*
X151656043Y-83307371D01*
X151882886Y-83155799D01*
X152075799Y-82962886D01*
X152227371Y-82736043D01*
X152331775Y-82483989D01*
X152385000Y-82216411D01*
X152385000Y-81943589D01*
X152331775Y-81676011D01*
X152227371Y-81423957D01*
X152075799Y-81197114D01*
X151882886Y-81004201D01*
X151656043Y-80852629D01*
X151553127Y-80810000D01*
X151656043Y-80767371D01*
X151882886Y-80615799D01*
X152023685Y-80475000D01*
X155414068Y-80475000D01*
X155460000Y-80479524D01*
X155505932Y-80475000D01*
X155643292Y-80461471D01*
X155781292Y-80419609D01*
X155858665Y-80435000D01*
X156112711Y-80435000D01*
X156906375Y-81228665D01*
X156935657Y-81264345D01*
X157078029Y-81381187D01*
X157240461Y-81468008D01*
X157363244Y-81505254D01*
X157416708Y-81521472D01*
X157600000Y-81539525D01*
X157645932Y-81535001D01*
X168862067Y-81535001D01*
X168907999Y-81539525D01*
X168953931Y-81535001D01*
X169091291Y-81521472D01*
X169267539Y-81468008D01*
X169429971Y-81381187D01*
X169572343Y-81264345D01*
X169601629Y-81228660D01*
X170067289Y-80763000D01*
X170321335Y-80763000D01*
X170598574Y-80707853D01*
X170859727Y-80599680D01*
X171094759Y-80442637D01*
X171294637Y-80242759D01*
X171451680Y-80007727D01*
X171559853Y-79746574D01*
X171615000Y-79469335D01*
X171615000Y-79186665D01*
X171559853Y-78909426D01*
X171554703Y-78896992D01*
X172555000Y-79897290D01*
X172555000Y-80151335D01*
X172610147Y-80428574D01*
X172718320Y-80689727D01*
X172875363Y-80924759D01*
X173075241Y-81124637D01*
X173310273Y-81281680D01*
X173571426Y-81389853D01*
X173848665Y-81445000D01*
X174131335Y-81445000D01*
X174408574Y-81389853D01*
X174669727Y-81281680D01*
X174904759Y-81124637D01*
X175084396Y-80945000D01*
X175242711Y-80945000D01*
X180185000Y-85887290D01*
X180185000Y-86141335D01*
X180240147Y-86418574D01*
X180348320Y-86679727D01*
X180505363Y-86914759D01*
X180705241Y-87114637D01*
X180937759Y-87270000D01*
X180705241Y-87425363D01*
X180505363Y-87625241D01*
X180348320Y-87860273D01*
X180240147Y-88121426D01*
X180185000Y-88398665D01*
X180185000Y-88681335D01*
X180240147Y-88958574D01*
X180348320Y-89219727D01*
X180505363Y-89454759D01*
X180705241Y-89654637D01*
X180937759Y-89810000D01*
X180705241Y-89965363D01*
X180505363Y-90165241D01*
X180348320Y-90400273D01*
X180240147Y-90661426D01*
X180185000Y-90938665D01*
X180185000Y-91221335D01*
X180240147Y-91498574D01*
X180348320Y-91759727D01*
X180505363Y-91994759D01*
X180705241Y-92194637D01*
X180937759Y-92350000D01*
X180705241Y-92505363D01*
X180505363Y-92705241D01*
X180348320Y-92940273D01*
X180240147Y-93201426D01*
X180185000Y-93478665D01*
X180185000Y-93761335D01*
X180240147Y-94038574D01*
X180348320Y-94299727D01*
X180505363Y-94534759D01*
X180705241Y-94734637D01*
X180937759Y-94890000D01*
X180705241Y-95045363D01*
X180505363Y-95245241D01*
X180348320Y-95480273D01*
X180240147Y-95741426D01*
X180185000Y-96018665D01*
X180185000Y-96301335D01*
X180240147Y-96578574D01*
X180348320Y-96839727D01*
X180505363Y-97074759D01*
X180705241Y-97274637D01*
X180937759Y-97430000D01*
X180705241Y-97585363D01*
X180505363Y-97785241D01*
X180348320Y-98020273D01*
X180240147Y-98281426D01*
X180185000Y-98558665D01*
X180185000Y-98841335D01*
X180240147Y-99118574D01*
X180348320Y-99379727D01*
X180505363Y-99614759D01*
X180705241Y-99814637D01*
X180937759Y-99970000D01*
X180705241Y-100125363D01*
X180505363Y-100325241D01*
X180348320Y-100560273D01*
X180240147Y-100821426D01*
X180185000Y-101098665D01*
X180185000Y-101352710D01*
X179632710Y-101905001D01*
X175277780Y-101905001D01*
X175379853Y-101658574D01*
X175435000Y-101381335D01*
X175435000Y-101098665D01*
X175379853Y-100821426D01*
X175271680Y-100560273D01*
X175114637Y-100325241D01*
X174914759Y-100125363D01*
X174682241Y-99970000D01*
X174914759Y-99814637D01*
X175114637Y-99614759D01*
X175271680Y-99379727D01*
X175379853Y-99118574D01*
X175435000Y-98841335D01*
X175435000Y-98558665D01*
X175379853Y-98281426D01*
X175271680Y-98020273D01*
X175114637Y-97785241D01*
X174914759Y-97585363D01*
X174682241Y-97430000D01*
X174914759Y-97274637D01*
X175114637Y-97074759D01*
X175271680Y-96839727D01*
X175379853Y-96578574D01*
X175435000Y-96301335D01*
X175435000Y-96018665D01*
X175379853Y-95741426D01*
X175271680Y-95480273D01*
X175114637Y-95245241D01*
X174914759Y-95045363D01*
X174682241Y-94890000D01*
X174914759Y-94734637D01*
X175114637Y-94534759D01*
X175271680Y-94299727D01*
X175379853Y-94038574D01*
X175435000Y-93761335D01*
X175435000Y-93478665D01*
X175379853Y-93201426D01*
X175271680Y-92940273D01*
X175114637Y-92705241D01*
X174914759Y-92505363D01*
X174682241Y-92350000D01*
X174914759Y-92194637D01*
X175114637Y-91994759D01*
X175271680Y-91759727D01*
X175379853Y-91498574D01*
X175435000Y-91221335D01*
X175435000Y-90938665D01*
X175379853Y-90661426D01*
X175271680Y-90400273D01*
X175114637Y-90165241D01*
X174914759Y-89965363D01*
X174682241Y-89810000D01*
X174914759Y-89654637D01*
X175114637Y-89454759D01*
X175271680Y-89219727D01*
X175379853Y-88958574D01*
X175435000Y-88681335D01*
X175435000Y-88398665D01*
X175379853Y-88121426D01*
X175271680Y-87860273D01*
X175114637Y-87625241D01*
X174916039Y-87426643D01*
X174924482Y-87425812D01*
X175044180Y-87389502D01*
X175154494Y-87330537D01*
X175251185Y-87251185D01*
X175330537Y-87154494D01*
X175389502Y-87044180D01*
X175425812Y-86924482D01*
X175438072Y-86800000D01*
X175438072Y-85200000D01*
X175425812Y-85075518D01*
X175389502Y-84955820D01*
X175330537Y-84845506D01*
X175251185Y-84748815D01*
X175154494Y-84669463D01*
X175044180Y-84610498D01*
X174924482Y-84574188D01*
X174800000Y-84561928D01*
X173200000Y-84561928D01*
X173075518Y-84574188D01*
X172955820Y-84610498D01*
X172845506Y-84669463D01*
X172748815Y-84748815D01*
X172669463Y-84845506D01*
X172610498Y-84955820D01*
X172574188Y-85075518D01*
X172561928Y-85200000D01*
X172561928Y-86115783D01*
X170788712Y-87888999D01*
X153071714Y-87888999D01*
X153079727Y-87885680D01*
X153314759Y-87728637D01*
X153494396Y-87549000D01*
X164292068Y-87549000D01*
X164338000Y-87553524D01*
X164383932Y-87549000D01*
X164521292Y-87535471D01*
X164697540Y-87482007D01*
X164859972Y-87395186D01*
X165002344Y-87278344D01*
X165031630Y-87242659D01*
X166257289Y-86017000D01*
X166511335Y-86017000D01*
X166788574Y-85961853D01*
X167049727Y-85853680D01*
X167284759Y-85696637D01*
X167464396Y-85517000D01*
X169376533Y-85517000D01*
X169500273Y-85599680D01*
X169761426Y-85707853D01*
X170038665Y-85763000D01*
X170321335Y-85763000D01*
X170598574Y-85707853D01*
X170859727Y-85599680D01*
X171094759Y-85442637D01*
X171294637Y-85242759D01*
X171451680Y-85007727D01*
X171559853Y-84746574D01*
X171615000Y-84469335D01*
X171615000Y-84186665D01*
X171559853Y-83909426D01*
X171451680Y-83648273D01*
X171294637Y-83413241D01*
X171094759Y-83213363D01*
X170859727Y-83056320D01*
X170598574Y-82948147D01*
X170321335Y-82893000D01*
X170038665Y-82893000D01*
X169761426Y-82948147D01*
X169500273Y-83056320D01*
X169265241Y-83213363D01*
X169065363Y-83413241D01*
X168909171Y-83647000D01*
X167464396Y-83647000D01*
X167284759Y-83467363D01*
X167049727Y-83310320D01*
X166788574Y-83202147D01*
X166511335Y-83147000D01*
X166228665Y-83147000D01*
X165951426Y-83202147D01*
X165690273Y-83310320D01*
X165455241Y-83467363D01*
X165255363Y-83667241D01*
X165098320Y-83902273D01*
X164990147Y-84163426D01*
X164935000Y-84440665D01*
X164935000Y-84694711D01*
X163950711Y-85679000D01*
X157126207Y-85679000D01*
X157273519Y-85545414D01*
X157441037Y-85319420D01*
X157561246Y-85065087D01*
X157601904Y-84931039D01*
X157479915Y-84709000D01*
X156337000Y-84709000D01*
X156337000Y-84729000D01*
X156083000Y-84729000D01*
X156083000Y-84709000D01*
X154940085Y-84709000D01*
X154818096Y-84931039D01*
X154858754Y-85065087D01*
X154978963Y-85319420D01*
X155146481Y-85545414D01*
X155293793Y-85679000D01*
X153494396Y-85679000D01*
X153314759Y-85499363D01*
X153079727Y-85342320D01*
X152818574Y-85234147D01*
X152541335Y-85179000D01*
X152258665Y-85179000D01*
X151981426Y-85234147D01*
X151720273Y-85342320D01*
X151485241Y-85499363D01*
X151285363Y-85699241D01*
X151128320Y-85934273D01*
X151020147Y-86195426D01*
X150965000Y-86472665D01*
X150965000Y-86755335D01*
X151020147Y-87032574D01*
X151128320Y-87293727D01*
X151285363Y-87528759D01*
X151485241Y-87728637D01*
X151720273Y-87885680D01*
X151728286Y-87888999D01*
X148711936Y-87888999D01*
X148666001Y-87884475D01*
X148482709Y-87902527D01*
X148306460Y-87955992D01*
X148249881Y-87986234D01*
X148144029Y-88042813D01*
X148001657Y-88159655D01*
X147972371Y-88195340D01*
X147686711Y-88481000D01*
X147432665Y-88481000D01*
X147155426Y-88536147D01*
X146894273Y-88644320D01*
X146770533Y-88727000D01*
X143334396Y-88727000D01*
X143154759Y-88547363D01*
X142919727Y-88390320D01*
X142658574Y-88282147D01*
X142381335Y-88227000D01*
X142098665Y-88227000D01*
X141976907Y-88251220D01*
X141915292Y-88232529D01*
X141777932Y-88219000D01*
X141732000Y-88214476D01*
X141686068Y-88219000D01*
X138762396Y-88219000D01*
X138582759Y-88039363D01*
X138347727Y-87882320D01*
X138086574Y-87774147D01*
X137809335Y-87719000D01*
X137526665Y-87719000D01*
X137249426Y-87774147D01*
X136988273Y-87882320D01*
X136753241Y-88039363D01*
X136553363Y-88239241D01*
X136396320Y-88474273D01*
X136288147Y-88735426D01*
X136233000Y-89012665D01*
X136233000Y-89295335D01*
X136288147Y-89572574D01*
X136396320Y-89833727D01*
X136553363Y-90068759D01*
X136753241Y-90268637D01*
X136988273Y-90425680D01*
X137249426Y-90533853D01*
X137526665Y-90589000D01*
X137809335Y-90589000D01*
X138086574Y-90533853D01*
X138347727Y-90425680D01*
X138582759Y-90268637D01*
X138762396Y-90089000D01*
X140863637Y-90089000D01*
X140968320Y-90341727D01*
X141125363Y-90576759D01*
X141325241Y-90776637D01*
X141560273Y-90933680D01*
X141821426Y-91041853D01*
X142098665Y-91097000D01*
X142381335Y-91097000D01*
X142658574Y-91041853D01*
X142919727Y-90933680D01*
X143154759Y-90776637D01*
X143334396Y-90597000D01*
X146303171Y-90597000D01*
X146459363Y-90830759D01*
X146659241Y-91030637D01*
X146894273Y-91187680D01*
X147155426Y-91295853D01*
X147432665Y-91351000D01*
X147715335Y-91351000D01*
X147992574Y-91295853D01*
X148253727Y-91187680D01*
X148488759Y-91030637D01*
X148688637Y-90830759D01*
X148845680Y-90595727D01*
X148953853Y-90334574D01*
X149009000Y-90057335D01*
X149009000Y-89803289D01*
X149053290Y-89758999D01*
X151797605Y-89758999D01*
X151793363Y-89763241D01*
X151636320Y-89998273D01*
X151528147Y-90259426D01*
X151473000Y-90536665D01*
X151473000Y-90819335D01*
X151528147Y-91096574D01*
X151636320Y-91357727D01*
X151793363Y-91592759D01*
X151993241Y-91792637D01*
X152228273Y-91949680D01*
X152489426Y-92057853D01*
X152766665Y-92113000D01*
X153020711Y-92113000D01*
X154754374Y-93846664D01*
X154783656Y-93882344D01*
X154926028Y-93999186D01*
X155088460Y-94086007D01*
X155211243Y-94123253D01*
X155264707Y-94139471D01*
X155283110Y-94141283D01*
X155402068Y-94153000D01*
X155402074Y-94153000D01*
X155447999Y-94157523D01*
X155493924Y-94153000D01*
X169276068Y-94153000D01*
X169322000Y-94157524D01*
X169367932Y-94153000D01*
X169505292Y-94139471D01*
X169681540Y-94086007D01*
X169843972Y-93999186D01*
X169986344Y-93882344D01*
X170015630Y-93846659D01*
X172577602Y-91284688D01*
X172620147Y-91498574D01*
X172728320Y-91759727D01*
X172885363Y-91994759D01*
X173085241Y-92194637D01*
X173317759Y-92350000D01*
X173085241Y-92505363D01*
X172885363Y-92705241D01*
X172728320Y-92940273D01*
X172620147Y-93201426D01*
X172565000Y-93478665D01*
X172565000Y-93761335D01*
X172620147Y-94038574D01*
X172728320Y-94299727D01*
X172885363Y-94534759D01*
X173085241Y-94734637D01*
X173317759Y-94890000D01*
X173085241Y-95045363D01*
X172885363Y-95245241D01*
X172728320Y-95480273D01*
X172620147Y-95741426D01*
X172565000Y-96018665D01*
X172565000Y-96301335D01*
X172620147Y-96578574D01*
X172728320Y-96839727D01*
X172885363Y-97074759D01*
X173085241Y-97274637D01*
X173317759Y-97430000D01*
X173085241Y-97585363D01*
X172905604Y-97765000D01*
X151535932Y-97765000D01*
X151490000Y-97760476D01*
X151444068Y-97765000D01*
X151306708Y-97778529D01*
X151130460Y-97831993D01*
X150968028Y-97918814D01*
X150825656Y-98035656D01*
X150796370Y-98071341D01*
X148996398Y-99871313D01*
X148953853Y-99657426D01*
X148845680Y-99396273D01*
X148688637Y-99161241D01*
X148488759Y-98961363D01*
X148253727Y-98804320D01*
X147992574Y-98696147D01*
X147715335Y-98641000D01*
X147432665Y-98641000D01*
X147155426Y-98696147D01*
X146894273Y-98804320D01*
X146659241Y-98961363D01*
X146459363Y-99161241D01*
X146302320Y-99396273D01*
X146194147Y-99657426D01*
X146139000Y-99934665D01*
X146139000Y-100217335D01*
X146194147Y-100494574D01*
X146302320Y-100755727D01*
X146459363Y-100990759D01*
X146641604Y-101173000D01*
X144913290Y-101173000D01*
X143675000Y-99934711D01*
X143675000Y-99680665D01*
X143619853Y-99403426D01*
X143511680Y-99142273D01*
X143354637Y-98907241D01*
X143154759Y-98707363D01*
X142919727Y-98550320D01*
X142658574Y-98442147D01*
X142381335Y-98387000D01*
X142098665Y-98387000D01*
X141821426Y-98442147D01*
X141560273Y-98550320D01*
X141325241Y-98707363D01*
X141125363Y-98907241D01*
X140968320Y-99142273D01*
X140860147Y-99403426D01*
X140817602Y-99617313D01*
X138603000Y-97402711D01*
X138603000Y-96750702D01*
X155650903Y-96750702D01*
X155722486Y-96994671D01*
X155977996Y-97115571D01*
X156252184Y-97184300D01*
X156534512Y-97198217D01*
X156814130Y-97156787D01*
X157080292Y-97061603D01*
X157205514Y-96994671D01*
X157277097Y-96750702D01*
X156464000Y-95937605D01*
X155650903Y-96750702D01*
X138603000Y-96750702D01*
X138603000Y-95828512D01*
X155023783Y-95828512D01*
X155065213Y-96108130D01*
X155160397Y-96374292D01*
X155227329Y-96499514D01*
X155471298Y-96571097D01*
X156284395Y-95758000D01*
X156643605Y-95758000D01*
X157456702Y-96571097D01*
X157700671Y-96499514D01*
X157821571Y-96244004D01*
X157890300Y-95969816D01*
X157904217Y-95687488D01*
X157893724Y-95616665D01*
X165189000Y-95616665D01*
X165189000Y-95899335D01*
X165244147Y-96176574D01*
X165352320Y-96437727D01*
X165509363Y-96672759D01*
X165709241Y-96872637D01*
X165944273Y-97029680D01*
X166205426Y-97137853D01*
X166482665Y-97193000D01*
X166765335Y-97193000D01*
X167042574Y-97137853D01*
X167303727Y-97029680D01*
X167538759Y-96872637D01*
X167738637Y-96672759D01*
X167895680Y-96437727D01*
X168003853Y-96176574D01*
X168059000Y-95899335D01*
X168059000Y-95616665D01*
X168003853Y-95339426D01*
X167895680Y-95078273D01*
X167738637Y-94843241D01*
X167538759Y-94643363D01*
X167303727Y-94486320D01*
X167042574Y-94378147D01*
X166765335Y-94323000D01*
X166482665Y-94323000D01*
X166205426Y-94378147D01*
X165944273Y-94486320D01*
X165709241Y-94643363D01*
X165509363Y-94843241D01*
X165352320Y-95078273D01*
X165244147Y-95339426D01*
X165189000Y-95616665D01*
X157893724Y-95616665D01*
X157862787Y-95407870D01*
X157767603Y-95141708D01*
X157700671Y-95016486D01*
X157456702Y-94944903D01*
X156643605Y-95758000D01*
X156284395Y-95758000D01*
X155471298Y-94944903D01*
X155227329Y-95016486D01*
X155106429Y-95271996D01*
X155037700Y-95546184D01*
X155023783Y-95828512D01*
X138603000Y-95828512D01*
X138603000Y-95248396D01*
X138782637Y-95068759D01*
X138939680Y-94833727D01*
X138968024Y-94765298D01*
X155650903Y-94765298D01*
X156464000Y-95578395D01*
X157277097Y-94765298D01*
X157205514Y-94521329D01*
X156950004Y-94400429D01*
X156675816Y-94331700D01*
X156393488Y-94317783D01*
X156113870Y-94359213D01*
X155847708Y-94454397D01*
X155722486Y-94521329D01*
X155650903Y-94765298D01*
X138968024Y-94765298D01*
X139047853Y-94572574D01*
X139103000Y-94295335D01*
X139103000Y-94012665D01*
X139047853Y-93735426D01*
X138939680Y-93474273D01*
X138782637Y-93239241D01*
X138582759Y-93039363D01*
X138347727Y-92882320D01*
X138086574Y-92774147D01*
X137809335Y-92719000D01*
X137526665Y-92719000D01*
X137249426Y-92774147D01*
X136988273Y-92882320D01*
X136753241Y-93039363D01*
X136553363Y-93239241D01*
X136396320Y-93474273D01*
X136288147Y-93735426D01*
X136233000Y-94012665D01*
X136233000Y-94295335D01*
X136288147Y-94572574D01*
X136396320Y-94833727D01*
X136553363Y-95068759D01*
X136733001Y-95248397D01*
X136733000Y-97744068D01*
X136728476Y-97790000D01*
X136733000Y-97835931D01*
X136746529Y-97973291D01*
X136799993Y-98149539D01*
X136886814Y-98311971D01*
X137003656Y-98454344D01*
X137039341Y-98483630D01*
X142486369Y-103930658D01*
X142515655Y-103966343D01*
X142658027Y-104083185D01*
X142820459Y-104170006D01*
X142892827Y-104191958D01*
X142996707Y-104223471D01*
X143179999Y-104241523D01*
X143225934Y-104236999D01*
X147659928Y-104236999D01*
X147659928Y-105702000D01*
X147672188Y-105826482D01*
X147708498Y-105946180D01*
X147767463Y-106056494D01*
X147846815Y-106153185D01*
X147943506Y-106232537D01*
X148053820Y-106291502D01*
X148173518Y-106327812D01*
X148298000Y-106340072D01*
X149469009Y-106340072D01*
X147707341Y-108101740D01*
X147671656Y-108131026D01*
X147554814Y-108273399D01*
X147467993Y-108435831D01*
X147430305Y-108560072D01*
X147414529Y-108612079D01*
X147396476Y-108795370D01*
X147401000Y-108841302D01*
X147401001Y-112222058D01*
X147396476Y-112268000D01*
X147414529Y-112451292D01*
X147467993Y-112627540D01*
X147554814Y-112789972D01*
X147671656Y-112932344D01*
X147814028Y-113049186D01*
X147976460Y-113136007D01*
X148152708Y-113189471D01*
X148290068Y-113203000D01*
X148336000Y-113207524D01*
X148381932Y-113203000D01*
X148383713Y-113203000D01*
X150986658Y-115805945D01*
X150696627Y-115863636D01*
X150376327Y-115996308D01*
X150088065Y-116188919D01*
X149842919Y-116434065D01*
X149650308Y-116722327D01*
X149517636Y-117042627D01*
X149450000Y-117382655D01*
X149450000Y-117729345D01*
X149517636Y-118069373D01*
X149650308Y-118389673D01*
X149842919Y-118677935D01*
X150088065Y-118923081D01*
X150376327Y-119115692D01*
X150696627Y-119248364D01*
X151036655Y-119316000D01*
X151383345Y-119316000D01*
X151603850Y-119272139D01*
X152594370Y-120262659D01*
X152623656Y-120298344D01*
X152766028Y-120415186D01*
X152928460Y-120502007D01*
X152994273Y-120521971D01*
X153104708Y-120555472D01*
X153288000Y-120573524D01*
X153333935Y-120569000D01*
X161935070Y-120569000D01*
X161981002Y-120573524D01*
X162026934Y-120569000D01*
X162164294Y-120555471D01*
X162340542Y-120502007D01*
X162502974Y-120415186D01*
X162645346Y-120298344D01*
X162674632Y-120262659D01*
X166236660Y-116700631D01*
X166272344Y-116671346D01*
X166389186Y-116528974D01*
X166458176Y-116399901D01*
X166495506Y-116430537D01*
X166605820Y-116489502D01*
X166725518Y-116525812D01*
X166850000Y-116538072D01*
X168650000Y-116538072D01*
X168774482Y-116525812D01*
X168894180Y-116489502D01*
X169004494Y-116430537D01*
X169101185Y-116351185D01*
X169180537Y-116254494D01*
X169239502Y-116144180D01*
X169245056Y-116125873D01*
X169311495Y-116192312D01*
X169562905Y-116360299D01*
X169842257Y-116476011D01*
X170138816Y-116535000D01*
X170441184Y-116535000D01*
X170737743Y-116476011D01*
X171017095Y-116360299D01*
X171250234Y-116204521D01*
X173651851Y-118606138D01*
X173581426Y-118620147D01*
X173320273Y-118728320D01*
X173085241Y-118885363D01*
X172885363Y-119085241D01*
X172728320Y-119320273D01*
X172620147Y-119581426D01*
X172565000Y-119858665D01*
X172565000Y-120141335D01*
X172620147Y-120418574D01*
X172728320Y-120679727D01*
X172885363Y-120914759D01*
X173085241Y-121114637D01*
X173320273Y-121271680D01*
X173581426Y-121379853D01*
X173858665Y-121435000D01*
X174141335Y-121435000D01*
X174418574Y-121379853D01*
X174679727Y-121271680D01*
X174914759Y-121114637D01*
X175114637Y-120914759D01*
X175271680Y-120679727D01*
X175379853Y-120418574D01*
X175393862Y-120348149D01*
X177565001Y-122519289D01*
X177565000Y-123052704D01*
X177504774Y-123198102D01*
X177465000Y-123398061D01*
X177465000Y-123601939D01*
X177504774Y-123801898D01*
X177582795Y-123990256D01*
X177615001Y-124038456D01*
X177615000Y-129416146D01*
X177490256Y-129332795D01*
X177395000Y-129293338D01*
X177395000Y-124907295D01*
X177455226Y-124761898D01*
X177495000Y-124561939D01*
X177495000Y-124358061D01*
X177455226Y-124158102D01*
X177377205Y-123969744D01*
X177263937Y-123800226D01*
X177119774Y-123656063D01*
X176950256Y-123542795D01*
X176761898Y-123464774D01*
X176561939Y-123425000D01*
X176358061Y-123425000D01*
X176158102Y-123464774D01*
X175969744Y-123542795D01*
X175800226Y-123656063D01*
X175656063Y-123800226D01*
X175542795Y-123969744D01*
X175464774Y-124158102D01*
X175425000Y-124358061D01*
X175425000Y-124561939D01*
X175464774Y-124761898D01*
X175525000Y-124907296D01*
X175525001Y-129664058D01*
X175520476Y-129710000D01*
X175538529Y-129893291D01*
X175591135Y-130066707D01*
X175591994Y-130069540D01*
X175678815Y-130231972D01*
X175795657Y-130374344D01*
X175831336Y-130403625D01*
X176022569Y-130594858D01*
X176082795Y-130740256D01*
X176196063Y-130909774D01*
X176340226Y-131053937D01*
X176509744Y-131167205D01*
X176698102Y-131245226D01*
X176898061Y-131285000D01*
X177101939Y-131285000D01*
X177301898Y-131245226D01*
X177490256Y-131167205D01*
X177615000Y-131083854D01*
X177615000Y-131102704D01*
X177554774Y-131248102D01*
X177515000Y-131448061D01*
X177515000Y-131651939D01*
X177554774Y-131851898D01*
X177632795Y-132040256D01*
X177746063Y-132209774D01*
X177890226Y-132353937D01*
X178059744Y-132467205D01*
X178248102Y-132545226D01*
X178448061Y-132585000D01*
X178651939Y-132585000D01*
X178851898Y-132545226D01*
X179040256Y-132467205D01*
X179209774Y-132353937D01*
X179353937Y-132209774D01*
X179467205Y-132040256D01*
X179545226Y-131851898D01*
X179585000Y-131651939D01*
X179585000Y-131448061D01*
X179545226Y-131248102D01*
X179485000Y-131102705D01*
X179485000Y-123826586D01*
X179495226Y-123801898D01*
X179535000Y-123601939D01*
X179535000Y-123398061D01*
X179495226Y-123198102D01*
X179435000Y-123052705D01*
X179435000Y-122177929D01*
X179439524Y-122131997D01*
X179421471Y-121948705D01*
X179405253Y-121895241D01*
X179368007Y-121772458D01*
X179281186Y-121610026D01*
X179164344Y-121467654D01*
X179128665Y-121438373D01*
X172061632Y-114371341D01*
X172032346Y-114335656D01*
X171889974Y-114218814D01*
X171727542Y-114131993D01*
X171551294Y-114078529D01*
X171518246Y-114075274D01*
X171482312Y-114021495D01*
X171268505Y-113807688D01*
X171017095Y-113639701D01*
X170737743Y-113523989D01*
X170441184Y-113465000D01*
X170138816Y-113465000D01*
X169842257Y-113523989D01*
X169562905Y-113639701D01*
X169311495Y-113807688D01*
X169245056Y-113874127D01*
X169239502Y-113855820D01*
X169180537Y-113745506D01*
X169101185Y-113648815D01*
X169004494Y-113569463D01*
X168894180Y-113510498D01*
X168774482Y-113474188D01*
X168650000Y-113461928D01*
X167370360Y-113461928D01*
X167629288Y-113203000D01*
X172387604Y-113203000D01*
X172567241Y-113382637D01*
X172802273Y-113539680D01*
X173063426Y-113647853D01*
X173340665Y-113703000D01*
X173623335Y-113703000D01*
X173900574Y-113647853D01*
X174161727Y-113539680D01*
X174396759Y-113382637D01*
X174596637Y-113182759D01*
X174753680Y-112947727D01*
X174861853Y-112686574D01*
X174917000Y-112409335D01*
X174917000Y-112126665D01*
X174861853Y-111849426D01*
X174753680Y-111588273D01*
X174596637Y-111353241D01*
X174396759Y-111153363D01*
X174161727Y-110996320D01*
X173900574Y-110888147D01*
X173623335Y-110833000D01*
X173340665Y-110833000D01*
X173063426Y-110888147D01*
X172802273Y-110996320D01*
X172567241Y-111153363D01*
X172387604Y-111333000D01*
X167287929Y-111333000D01*
X167241997Y-111328476D01*
X167058705Y-111346529D01*
X167036579Y-111353241D01*
X166882458Y-111399993D01*
X166720026Y-111486814D01*
X166577654Y-111603656D01*
X166548372Y-111639336D01*
X164979336Y-113208373D01*
X164943657Y-113237654D01*
X164826815Y-113380026D01*
X164797711Y-113434476D01*
X164739994Y-113542458D01*
X164686529Y-113718707D01*
X164668476Y-113901998D01*
X164673001Y-113947940D01*
X164673000Y-115619713D01*
X162960055Y-117332658D01*
X162902364Y-117042627D01*
X162769692Y-116722327D01*
X162577081Y-116434065D01*
X162331935Y-116188919D01*
X162043673Y-115996308D01*
X161723373Y-115863636D01*
X161383345Y-115796000D01*
X161036655Y-115796000D01*
X160696627Y-115863636D01*
X160376327Y-115996308D01*
X160088065Y-116188919D01*
X159842919Y-116434065D01*
X159718013Y-116621000D01*
X154446292Y-116621000D01*
X149464632Y-111639341D01*
X149435346Y-111603656D01*
X149292974Y-111486814D01*
X149271000Y-111475069D01*
X149271000Y-109182659D01*
X149463658Y-108990001D01*
X150265928Y-108990001D01*
X150265928Y-111989999D01*
X150282992Y-112163253D01*
X150333529Y-112329850D01*
X150415595Y-112483386D01*
X150526039Y-112617961D01*
X150660614Y-112728405D01*
X150814150Y-112810471D01*
X150980747Y-112861008D01*
X151154001Y-112878072D01*
X154153999Y-112878072D01*
X154327253Y-112861008D01*
X154493850Y-112810471D01*
X154647386Y-112728405D01*
X154781961Y-112617961D01*
X154892405Y-112483386D01*
X154974471Y-112329850D01*
X155025008Y-112163253D01*
X155042072Y-111989999D01*
X155042072Y-111425000D01*
X163804068Y-111425000D01*
X163850000Y-111429524D01*
X163895932Y-111425000D01*
X164033292Y-111411471D01*
X164209540Y-111358007D01*
X164371972Y-111271186D01*
X164514344Y-111154344D01*
X164543630Y-111118659D01*
X166977289Y-108685000D01*
X167231335Y-108685000D01*
X167508574Y-108629853D01*
X167769727Y-108521680D01*
X168004759Y-108364637D01*
X168204637Y-108164759D01*
X168361680Y-107929727D01*
X168469853Y-107668574D01*
X168525000Y-107391335D01*
X168525000Y-107108665D01*
X168469853Y-106831426D01*
X168361680Y-106570273D01*
X168204637Y-106335241D01*
X168004759Y-106135363D01*
X167769727Y-105978320D01*
X167508574Y-105870147D01*
X167231335Y-105815000D01*
X166948665Y-105815000D01*
X166671426Y-105870147D01*
X166410273Y-105978320D01*
X166175241Y-106135363D01*
X165975363Y-106335241D01*
X165818320Y-106570273D01*
X165710147Y-106831426D01*
X165655000Y-107108665D01*
X165655000Y-107362711D01*
X163462711Y-109555000D01*
X155042072Y-109555000D01*
X155042072Y-108990001D01*
X155025008Y-108816747D01*
X154974471Y-108650150D01*
X154892405Y-108496614D01*
X154781961Y-108362039D01*
X154647386Y-108251595D01*
X154493850Y-108169529D01*
X154327253Y-108118992D01*
X154153999Y-108101928D01*
X151154001Y-108101928D01*
X150980747Y-108118992D01*
X150814150Y-108169529D01*
X150660614Y-108251595D01*
X150526039Y-108362039D01*
X150415595Y-108496614D01*
X150333529Y-108650150D01*
X150282992Y-108816747D01*
X150265928Y-108990001D01*
X149463658Y-108990001D01*
X151726659Y-106727000D01*
X151762344Y-106697714D01*
X151879186Y-106555342D01*
X151966007Y-106392910D01*
X152019471Y-106216662D01*
X152033000Y-106079302D01*
X152037524Y-106033370D01*
X152033803Y-105995593D01*
X152212637Y-105816759D01*
X152369680Y-105581727D01*
X152477853Y-105320574D01*
X152533000Y-105043335D01*
X152533000Y-104760665D01*
X152477853Y-104483426D01*
X152375780Y-104236999D01*
X154222710Y-104236999D01*
X155374375Y-105388665D01*
X155403657Y-105424345D01*
X155546029Y-105541187D01*
X155708461Y-105628008D01*
X155831244Y-105665254D01*
X155884708Y-105681472D01*
X156068000Y-105699525D01*
X156113932Y-105695001D01*
X169396712Y-105695001D01*
X174566375Y-110864664D01*
X174595656Y-110900344D01*
X174738028Y-111017186D01*
X174900460Y-111104007D01*
X175023243Y-111141253D01*
X175076707Y-111157471D01*
X175259999Y-111175524D01*
X175305931Y-111171000D01*
X178174711Y-111171000D01*
X183009374Y-116005663D01*
X183038655Y-116041343D01*
X183181027Y-116158185D01*
X183244875Y-116192312D01*
X183343458Y-116245006D01*
X183519707Y-116298471D01*
X183702999Y-116316523D01*
X183748934Y-116311999D01*
X189377710Y-116311999D01*
X189973861Y-116908151D01*
X189930000Y-117128655D01*
X189930000Y-117475345D01*
X189997636Y-117815373D01*
X190130308Y-118135673D01*
X190234763Y-118292001D01*
X184002291Y-118292001D01*
X183406139Y-117695849D01*
X183450000Y-117475345D01*
X183450000Y-117128655D01*
X183382364Y-116788627D01*
X183249692Y-116468327D01*
X183057081Y-116180065D01*
X182811935Y-115934919D01*
X182523673Y-115742308D01*
X182203373Y-115609636D01*
X181863345Y-115542000D01*
X181516655Y-115542000D01*
X181176627Y-115609636D01*
X180856327Y-115742308D01*
X180568065Y-115934919D01*
X180322919Y-116180065D01*
X180130308Y-116468327D01*
X179997636Y-116788627D01*
X179930000Y-117128655D01*
X179930000Y-117475345D01*
X179997636Y-117815373D01*
X180130308Y-118135673D01*
X180322919Y-118423935D01*
X180568065Y-118669081D01*
X180856327Y-118861692D01*
X181176627Y-118994364D01*
X181516655Y-119062000D01*
X181863345Y-119062000D01*
X182083849Y-119018139D01*
X182921375Y-119855665D01*
X182950657Y-119891345D01*
X183093029Y-120008187D01*
X183198881Y-120064766D01*
X183255460Y-120095008D01*
X183431709Y-120148473D01*
X183615001Y-120166525D01*
X183660936Y-120162001D01*
X192568069Y-120162001D01*
X192614001Y-120166525D01*
X192659933Y-120162001D01*
X192797293Y-120148472D01*
X192973541Y-120095008D01*
X193135973Y-120008187D01*
X193278345Y-119891345D01*
X193307631Y-119855660D01*
X195628666Y-117534626D01*
X195664344Y-117505346D01*
X195733236Y-117421400D01*
X200869000Y-117421400D01*
X200869000Y-117930600D01*
X200968340Y-118430017D01*
X201163202Y-118900457D01*
X201446099Y-119323842D01*
X201806158Y-119683901D01*
X202229543Y-119966798D01*
X202699983Y-120161660D01*
X203199400Y-120261000D01*
X203708600Y-120261000D01*
X204208017Y-120161660D01*
X204678457Y-119966798D01*
X205101842Y-119683901D01*
X205461901Y-119323842D01*
X205744798Y-118900457D01*
X205939660Y-118430017D01*
X206039000Y-117930600D01*
X206039000Y-117421400D01*
X205939660Y-116921983D01*
X205744798Y-116451543D01*
X205461901Y-116028158D01*
X205101842Y-115668099D01*
X204678457Y-115385202D01*
X204208017Y-115190340D01*
X203708600Y-115091000D01*
X203199400Y-115091000D01*
X202699983Y-115190340D01*
X202229543Y-115385202D01*
X201806158Y-115668099D01*
X201446099Y-116028158D01*
X201163202Y-116451543D01*
X200968340Y-116921983D01*
X200869000Y-117421400D01*
X195733236Y-117421400D01*
X195781186Y-117362974D01*
X195868007Y-117200542D01*
X195921471Y-117024294D01*
X195935000Y-116886934D01*
X195935000Y-116886933D01*
X195939524Y-116841003D01*
X195935000Y-116795071D01*
X195935000Y-109621400D01*
X200869000Y-109621400D01*
X200869000Y-110130600D01*
X200968340Y-110630017D01*
X201163202Y-111100457D01*
X201446099Y-111523842D01*
X201806158Y-111883901D01*
X202229543Y-112166798D01*
X202699983Y-112361660D01*
X203199400Y-112461000D01*
X203708600Y-112461000D01*
X204208017Y-112361660D01*
X204678457Y-112166798D01*
X205101842Y-111883901D01*
X205461901Y-111523842D01*
X205744798Y-111100457D01*
X205939660Y-110630017D01*
X206039000Y-110130600D01*
X206039000Y-109621400D01*
X205939660Y-109121983D01*
X205744798Y-108651543D01*
X205461901Y-108228158D01*
X205101842Y-107868099D01*
X204678457Y-107585202D01*
X204208017Y-107390340D01*
X203708600Y-107291000D01*
X203199400Y-107291000D01*
X202699983Y-107390340D01*
X202229543Y-107585202D01*
X201806158Y-107868099D01*
X201446099Y-108228158D01*
X201163202Y-108651543D01*
X200968340Y-109121983D01*
X200869000Y-109621400D01*
X195935000Y-109621400D01*
X195935000Y-100171039D01*
X196220096Y-100171039D01*
X196260754Y-100305087D01*
X196380963Y-100559420D01*
X196548481Y-100785414D01*
X196756869Y-100974385D01*
X196998119Y-101119070D01*
X197262960Y-101213909D01*
X197485000Y-101092624D01*
X197485000Y-99949000D01*
X197739000Y-99949000D01*
X197739000Y-101092624D01*
X197961040Y-101213909D01*
X198225881Y-101119070D01*
X198467131Y-100974385D01*
X198557998Y-100891984D01*
X199615000Y-100891984D01*
X199615000Y-101608016D01*
X199754691Y-102310290D01*
X200028705Y-102971818D01*
X200426511Y-103567177D01*
X200932823Y-104073489D01*
X201528182Y-104471295D01*
X202189710Y-104745309D01*
X202891984Y-104885000D01*
X203608016Y-104885000D01*
X204310290Y-104745309D01*
X204971818Y-104471295D01*
X205567177Y-104073489D01*
X206073489Y-103567177D01*
X206471295Y-102971818D01*
X206745309Y-102310290D01*
X206885000Y-101608016D01*
X206885000Y-100891984D01*
X206745309Y-100189710D01*
X206471295Y-99528182D01*
X206073489Y-98932823D01*
X205567177Y-98426511D01*
X204971818Y-98028705D01*
X204310290Y-97754691D01*
X203608016Y-97615000D01*
X202891984Y-97615000D01*
X202189710Y-97754691D01*
X201528182Y-98028705D01*
X200932823Y-98426511D01*
X200426511Y-98932823D01*
X200028705Y-99528182D01*
X199754691Y-100189710D01*
X199615000Y-100891984D01*
X198557998Y-100891984D01*
X198675519Y-100785414D01*
X198843037Y-100559420D01*
X198963246Y-100305087D01*
X199003904Y-100171039D01*
X198881915Y-99949000D01*
X197739000Y-99949000D01*
X197485000Y-99949000D01*
X196342085Y-99949000D01*
X196220096Y-100171039D01*
X195935000Y-100171039D01*
X195935000Y-99472961D01*
X196220096Y-99472961D01*
X196342085Y-99695000D01*
X197485000Y-99695000D01*
X197485000Y-98551376D01*
X197739000Y-98551376D01*
X197739000Y-99695000D01*
X198881915Y-99695000D01*
X199003904Y-99472961D01*
X198963246Y-99338913D01*
X198843037Y-99084580D01*
X198675519Y-98858586D01*
X198467131Y-98669615D01*
X198225881Y-98524930D01*
X197961040Y-98430091D01*
X197739000Y-98551376D01*
X197485000Y-98551376D01*
X197262960Y-98430091D01*
X196998119Y-98524930D01*
X196756869Y-98669615D01*
X196548481Y-98858586D01*
X196380963Y-99084580D01*
X196260754Y-99338913D01*
X196220096Y-99472961D01*
X195935000Y-99472961D01*
X195935000Y-94349039D01*
X196768096Y-94349039D01*
X196808754Y-94483087D01*
X196928963Y-94737420D01*
X197096481Y-94963414D01*
X197304869Y-95152385D01*
X197546119Y-95297070D01*
X197810960Y-95391909D01*
X198033000Y-95270624D01*
X198033000Y-94127000D01*
X198287000Y-94127000D01*
X198287000Y-95270624D01*
X198509040Y-95391909D01*
X198773881Y-95297070D01*
X199015131Y-95152385D01*
X199223519Y-94963414D01*
X199391037Y-94737420D01*
X199511246Y-94483087D01*
X199551904Y-94349039D01*
X199429915Y-94127000D01*
X198287000Y-94127000D01*
X198033000Y-94127000D01*
X196890085Y-94127000D01*
X196768096Y-94349039D01*
X195935000Y-94349039D01*
X195935000Y-93650961D01*
X196768096Y-93650961D01*
X196890085Y-93873000D01*
X198033000Y-93873000D01*
X198033000Y-92729376D01*
X198287000Y-92729376D01*
X198287000Y-93873000D01*
X199429915Y-93873000D01*
X199551904Y-93650961D01*
X199511246Y-93516913D01*
X199391037Y-93262580D01*
X199223519Y-93036586D01*
X199015131Y-92847615D01*
X198773881Y-92702930D01*
X198509040Y-92608091D01*
X198287000Y-92729376D01*
X198033000Y-92729376D01*
X197810960Y-92608091D01*
X197546119Y-92702930D01*
X197304869Y-92847615D01*
X197096481Y-93036586D01*
X196928963Y-93262580D01*
X196808754Y-93516913D01*
X196768096Y-93650961D01*
X195935000Y-93650961D01*
X195935000Y-88178806D01*
X196004842Y-88108964D01*
X196161885Y-87873932D01*
X196270058Y-87612779D01*
X196325205Y-87335540D01*
X196325205Y-87052870D01*
X196270058Y-86775631D01*
X196161885Y-86514478D01*
X196004842Y-86279446D01*
X195804964Y-86079568D01*
X195569932Y-85922525D01*
X195308779Y-85814352D01*
X195031540Y-85759205D01*
X194748870Y-85759205D01*
X194471631Y-85814352D01*
X194210478Y-85922525D01*
X193975446Y-86079568D01*
X193775568Y-86279446D01*
X193618525Y-86514478D01*
X193510352Y-86775631D01*
X193455205Y-87052870D01*
X193455205Y-87335540D01*
X193510352Y-87612779D01*
X193618525Y-87873932D01*
X193775568Y-88108964D01*
X193975446Y-88308842D01*
X194065001Y-88368681D01*
X194065000Y-116453712D01*
X193440055Y-117078658D01*
X193382364Y-116788627D01*
X193249692Y-116468327D01*
X193057081Y-116180065D01*
X192811935Y-115934919D01*
X192523673Y-115742308D01*
X192203373Y-115609636D01*
X191863345Y-115542000D01*
X191516655Y-115542000D01*
X191296151Y-115585861D01*
X190458629Y-114748340D01*
X190429343Y-114712655D01*
X190286971Y-114595813D01*
X190124539Y-114508992D01*
X189948291Y-114455528D01*
X189810931Y-114441999D01*
X189764999Y-114437475D01*
X189719067Y-114441999D01*
X184090289Y-114441999D01*
X183314199Y-113665909D01*
X183500665Y-113703000D01*
X183783335Y-113703000D01*
X184060574Y-113647853D01*
X184321727Y-113539680D01*
X184556759Y-113382637D01*
X184756637Y-113182759D01*
X184913680Y-112947727D01*
X185021853Y-112686574D01*
X185077000Y-112409335D01*
X185077000Y-112126665D01*
X185021853Y-111849426D01*
X184913680Y-111588273D01*
X184756637Y-111353241D01*
X184556759Y-111153363D01*
X184321727Y-110996320D01*
X184060574Y-110888147D01*
X183783335Y-110833000D01*
X183500665Y-110833000D01*
X183223426Y-110888147D01*
X182962273Y-110996320D01*
X182727241Y-111153363D01*
X182527363Y-111353241D01*
X182370320Y-111588273D01*
X182262147Y-111849426D01*
X182207000Y-112126665D01*
X182207000Y-112409335D01*
X182244091Y-112595801D01*
X179255630Y-109607341D01*
X179226344Y-109571656D01*
X179083972Y-109454814D01*
X178921540Y-109367993D01*
X178745292Y-109314529D01*
X178607932Y-109301000D01*
X178562000Y-109296476D01*
X178516068Y-109301000D01*
X175647290Y-109301000D01*
X170477631Y-104131342D01*
X170448345Y-104095657D01*
X170305973Y-103978815D01*
X170143541Y-103891994D01*
X169967293Y-103838530D01*
X169829933Y-103825001D01*
X169784001Y-103820477D01*
X169738069Y-103825001D01*
X156455291Y-103825001D01*
X155303629Y-102673340D01*
X155274343Y-102637655D01*
X155131971Y-102520813D01*
X154969539Y-102433992D01*
X154793291Y-102380528D01*
X154655931Y-102366999D01*
X154609999Y-102362475D01*
X154564067Y-102366999D01*
X149145290Y-102366999D01*
X151877289Y-99635000D01*
X152125486Y-99635000D01*
X151993241Y-99723363D01*
X151793363Y-99923241D01*
X151636320Y-100158273D01*
X151528147Y-100419426D01*
X151473000Y-100696665D01*
X151473000Y-100979335D01*
X151528147Y-101256574D01*
X151636320Y-101517727D01*
X151793363Y-101752759D01*
X151993241Y-101952637D01*
X152228273Y-102109680D01*
X152489426Y-102217853D01*
X152766665Y-102273000D01*
X153049335Y-102273000D01*
X153326574Y-102217853D01*
X153587727Y-102109680D01*
X153822759Y-101952637D01*
X154002396Y-101773000D01*
X170842709Y-101773000D01*
X172538369Y-103468660D01*
X172567655Y-103504345D01*
X172710027Y-103621187D01*
X172872459Y-103708008D01*
X173048707Y-103761472D01*
X173231999Y-103779525D01*
X173277931Y-103775001D01*
X179974067Y-103775001D01*
X180019999Y-103779525D01*
X180065931Y-103775001D01*
X180203291Y-103761472D01*
X180379539Y-103708008D01*
X180541971Y-103621187D01*
X180684343Y-103504345D01*
X180713629Y-103468660D01*
X181507290Y-102675000D01*
X181761335Y-102675000D01*
X182038574Y-102619853D01*
X182299727Y-102511680D01*
X182534759Y-102354637D01*
X182734637Y-102154759D01*
X182891680Y-101919727D01*
X182999853Y-101658574D01*
X183042398Y-101444687D01*
X187912711Y-106315000D01*
X178344396Y-106315000D01*
X178164759Y-106135363D01*
X177929727Y-105978320D01*
X177668574Y-105870147D01*
X177391335Y-105815000D01*
X177108665Y-105815000D01*
X176831426Y-105870147D01*
X176570273Y-105978320D01*
X176335241Y-106135363D01*
X176135363Y-106335241D01*
X175978320Y-106570273D01*
X175870147Y-106831426D01*
X175815000Y-107108665D01*
X175815000Y-107391335D01*
X175870147Y-107668574D01*
X175978320Y-107929727D01*
X176135363Y-108164759D01*
X176335241Y-108364637D01*
X176570273Y-108521680D01*
X176831426Y-108629853D01*
X177108665Y-108685000D01*
X177391335Y-108685000D01*
X177668574Y-108629853D01*
X177929727Y-108521680D01*
X178164759Y-108364637D01*
X178344396Y-108185000D01*
X188111928Y-108185000D01*
X188111928Y-108687999D01*
X188128992Y-108861253D01*
X188179529Y-109027850D01*
X188261595Y-109181386D01*
X188372039Y-109315961D01*
X188506614Y-109426405D01*
X188660150Y-109508471D01*
X188826747Y-109559008D01*
X189000001Y-109576072D01*
X191999999Y-109576072D01*
X192173253Y-109559008D01*
X192339850Y-109508471D01*
X192493386Y-109426405D01*
X192627961Y-109315961D01*
X192738405Y-109181386D01*
X192820471Y-109027850D01*
X192871008Y-108861253D01*
X192888072Y-108687999D01*
X192888072Y-105688001D01*
X192871008Y-105514747D01*
X192820471Y-105348150D01*
X192738405Y-105194614D01*
X192627961Y-105060039D01*
X192493386Y-104949595D01*
X192339850Y-104867529D01*
X192173253Y-104816992D01*
X191999999Y-104799928D01*
X189042217Y-104799928D01*
X183055000Y-98812711D01*
X183055000Y-98558665D01*
X182999853Y-98281426D01*
X182891680Y-98020273D01*
X182734637Y-97785241D01*
X182534759Y-97585363D01*
X182302241Y-97430000D01*
X182534759Y-97274637D01*
X182714396Y-97095000D01*
X183402711Y-97095000D01*
X186017000Y-99709290D01*
X186017000Y-99963335D01*
X186072147Y-100240574D01*
X186180320Y-100501727D01*
X186337363Y-100736759D01*
X186537241Y-100936637D01*
X186772273Y-101093680D01*
X187033426Y-101201853D01*
X187310665Y-101257000D01*
X187593335Y-101257000D01*
X187870574Y-101201853D01*
X188131727Y-101093680D01*
X188366759Y-100936637D01*
X188566637Y-100736759D01*
X188723680Y-100501727D01*
X188831853Y-100240574D01*
X188887000Y-99963335D01*
X188887000Y-99680665D01*
X188831853Y-99403426D01*
X188723680Y-99142273D01*
X188566637Y-98907241D01*
X188366759Y-98707363D01*
X188131727Y-98550320D01*
X187870574Y-98442147D01*
X187593335Y-98387000D01*
X187339290Y-98387000D01*
X184483630Y-95531341D01*
X184454344Y-95495656D01*
X184311972Y-95378814D01*
X184149540Y-95291993D01*
X183973292Y-95238529D01*
X183835932Y-95225000D01*
X183790000Y-95220476D01*
X183744068Y-95225000D01*
X182714396Y-95225000D01*
X182534759Y-95045363D01*
X182302241Y-94890000D01*
X182534759Y-94734637D01*
X182734637Y-94534759D01*
X182891680Y-94299727D01*
X182999853Y-94038574D01*
X183042398Y-93824687D01*
X183846370Y-94628659D01*
X183875656Y-94664344D01*
X184018028Y-94781186D01*
X184116326Y-94833727D01*
X184180459Y-94868007D01*
X184356708Y-94921472D01*
X184540000Y-94939524D01*
X184585935Y-94935000D01*
X186905604Y-94935000D01*
X187085241Y-95114637D01*
X187320273Y-95271680D01*
X187581426Y-95379853D01*
X187858665Y-95435000D01*
X188141335Y-95435000D01*
X188418574Y-95379853D01*
X188679727Y-95271680D01*
X188914759Y-95114637D01*
X189114637Y-94914759D01*
X189271680Y-94679727D01*
X189379853Y-94418574D01*
X189435000Y-94141335D01*
X189435000Y-93858665D01*
X189379853Y-93581426D01*
X189271680Y-93320273D01*
X189114637Y-93085241D01*
X188914759Y-92885363D01*
X188679727Y-92728320D01*
X188418574Y-92620147D01*
X188141335Y-92565000D01*
X187858665Y-92565000D01*
X187581426Y-92620147D01*
X187320273Y-92728320D01*
X187085241Y-92885363D01*
X186905604Y-93065000D01*
X184927289Y-93065000D01*
X183055000Y-91192711D01*
X183055000Y-90938665D01*
X182999853Y-90661426D01*
X182891680Y-90400273D01*
X182734637Y-90165241D01*
X182534759Y-89965363D01*
X182302241Y-89810000D01*
X182534759Y-89654637D01*
X182714396Y-89475000D01*
X184210068Y-89475000D01*
X184256000Y-89479524D01*
X184301932Y-89475000D01*
X184439292Y-89461471D01*
X184615540Y-89408007D01*
X184777972Y-89321186D01*
X184920344Y-89204344D01*
X185037186Y-89061972D01*
X185124007Y-88899540D01*
X185177471Y-88723292D01*
X185195524Y-88540000D01*
X185191000Y-88494068D01*
X185191000Y-80998396D01*
X185244396Y-80945000D01*
X186611604Y-80945000D01*
X186791241Y-81124637D01*
X187026273Y-81281680D01*
X187287426Y-81389853D01*
X187564665Y-81445000D01*
X187847335Y-81445000D01*
X188124574Y-81389853D01*
X188385727Y-81281680D01*
X188620759Y-81124637D01*
X188820637Y-80924759D01*
X188977680Y-80689727D01*
X189085853Y-80428574D01*
X189141000Y-80151335D01*
X189141000Y-79868665D01*
X189085853Y-79591426D01*
X188977680Y-79330273D01*
X188820637Y-79095241D01*
X188620759Y-78895363D01*
X188385727Y-78738320D01*
X188124574Y-78630147D01*
X187847335Y-78575000D01*
X187564665Y-78575000D01*
X187287426Y-78630147D01*
X187026273Y-78738320D01*
X186791241Y-78895363D01*
X186611604Y-79075000D01*
X185244396Y-79075000D01*
X185064759Y-78895363D01*
X184829727Y-78738320D01*
X184568574Y-78630147D01*
X184291335Y-78575000D01*
X184008665Y-78575000D01*
X183731426Y-78630147D01*
X183470273Y-78738320D01*
X183235241Y-78895363D01*
X183035363Y-79095241D01*
X182878320Y-79330273D01*
X182770147Y-79591426D01*
X182715000Y-79868665D01*
X182715000Y-80151335D01*
X182770147Y-80428574D01*
X182878320Y-80689727D01*
X183035363Y-80924759D01*
X183235241Y-81124637D01*
X183321001Y-81181940D01*
X183321000Y-87605000D01*
X182714396Y-87605000D01*
X182534759Y-87425363D01*
X182302241Y-87270000D01*
X182534759Y-87114637D01*
X182734637Y-86914759D01*
X182891680Y-86679727D01*
X182999853Y-86418574D01*
X183055000Y-86141335D01*
X183055000Y-85858665D01*
X182999853Y-85581426D01*
X182891680Y-85320273D01*
X182734637Y-85085241D01*
X182534759Y-84885363D01*
X182299727Y-84728320D01*
X182038574Y-84620147D01*
X181761335Y-84565000D01*
X181507290Y-84565000D01*
X176323630Y-79381341D01*
X176294344Y-79345656D01*
X176151972Y-79228814D01*
X175989540Y-79141993D01*
X175813292Y-79088529D01*
X175675932Y-79075000D01*
X175630000Y-79070476D01*
X175584068Y-79075000D01*
X175084396Y-79075000D01*
X174904759Y-78895363D01*
X174669727Y-78738320D01*
X174408574Y-78630147D01*
X174131335Y-78575000D01*
X173877290Y-78575000D01*
X171435000Y-76132711D01*
X171435000Y-75922621D01*
X171544180Y-75889502D01*
X171654494Y-75830537D01*
X171751185Y-75751185D01*
X171764790Y-75734607D01*
X171820273Y-75771680D01*
X172081426Y-75879853D01*
X172358665Y-75935000D01*
X172641335Y-75935000D01*
X172918574Y-75879853D01*
X173179727Y-75771680D01*
X173414759Y-75614637D01*
X173594396Y-75435000D01*
X178611928Y-75435000D01*
X178611928Y-75999999D01*
X178628992Y-76173253D01*
X178679529Y-76339850D01*
X178761595Y-76493386D01*
X178872039Y-76627961D01*
X179006614Y-76738405D01*
X179160150Y-76820471D01*
X179326747Y-76871008D01*
X179500001Y-76888072D01*
X182499999Y-76888072D01*
X182673253Y-76871008D01*
X182839850Y-76820471D01*
X182993386Y-76738405D01*
X183127961Y-76627961D01*
X183238405Y-76493386D01*
X183320471Y-76339850D01*
X183371008Y-76173253D01*
X183388072Y-75999999D01*
X183388072Y-73000001D01*
X183371008Y-72826747D01*
X183320471Y-72660150D01*
X183238405Y-72506614D01*
X183127961Y-72372039D01*
X182993386Y-72261595D01*
X182839850Y-72179529D01*
X182673253Y-72128992D01*
X182499999Y-72111928D01*
X179500001Y-72111928D01*
X179326747Y-72128992D01*
X179160150Y-72179529D01*
X179006614Y-72261595D01*
X178872039Y-72372039D01*
X178761595Y-72506614D01*
X178679529Y-72660150D01*
X178628992Y-72826747D01*
X178611928Y-73000001D01*
X178611928Y-73565000D01*
X173594396Y-73565000D01*
X173414759Y-73385363D01*
X173179727Y-73228320D01*
X172918574Y-73120147D01*
X172641335Y-73065000D01*
X172358665Y-73065000D01*
X172081426Y-73120147D01*
X171820273Y-73228320D01*
X171764790Y-73265393D01*
X171751185Y-73248815D01*
X171654494Y-73169463D01*
X171544180Y-73110498D01*
X171424482Y-73074188D01*
X171300000Y-73061928D01*
X169700000Y-73061928D01*
X169575518Y-73074188D01*
X169455820Y-73110498D01*
X169345506Y-73169463D01*
X169248815Y-73248815D01*
X169169463Y-73345506D01*
X169110498Y-73455820D01*
X169074188Y-73575518D01*
X169061928Y-73700000D01*
X169061928Y-74985258D01*
X169060476Y-75000000D01*
X169061928Y-75014742D01*
X169061928Y-75300000D01*
X169074188Y-75424482D01*
X169110498Y-75544180D01*
X169169463Y-75654494D01*
X169248815Y-75751185D01*
X169345506Y-75830537D01*
X169455820Y-75889502D01*
X169565001Y-75922622D01*
X169565001Y-76474058D01*
X169560476Y-76520000D01*
X169578529Y-76703291D01*
X169627087Y-76863363D01*
X169631994Y-76879540D01*
X169718815Y-77041972D01*
X169835657Y-77184344D01*
X169871336Y-77213625D01*
X170611008Y-77953297D01*
X170598574Y-77948147D01*
X170321335Y-77893000D01*
X170038665Y-77893000D01*
X169761426Y-77948147D01*
X169500273Y-78056320D01*
X169265241Y-78213363D01*
X169065363Y-78413241D01*
X168908320Y-78648273D01*
X168800147Y-78909426D01*
X168745000Y-79186665D01*
X168745000Y-79440711D01*
X168520710Y-79665001D01*
X167437780Y-79665001D01*
X167539853Y-79418574D01*
X167595000Y-79141335D01*
X167595000Y-78858665D01*
X167539853Y-78581426D01*
X167431680Y-78320273D01*
X167274637Y-78085241D01*
X167074759Y-77885363D01*
X166839727Y-77728320D01*
X166578574Y-77620147D01*
X166301335Y-77565000D01*
X166018665Y-77565000D01*
X165741426Y-77620147D01*
X165480273Y-77728320D01*
X165245241Y-77885363D01*
X165045363Y-78085241D01*
X164888320Y-78320273D01*
X164780147Y-78581426D01*
X164725000Y-78858665D01*
X164725000Y-79141335D01*
X164780147Y-79418574D01*
X164882220Y-79665001D01*
X157987291Y-79665001D01*
X157435000Y-79112711D01*
X157435000Y-78858665D01*
X157379853Y-78581426D01*
X157271680Y-78320273D01*
X157114637Y-78085241D01*
X156964396Y-77935000D01*
X159204068Y-77935000D01*
X159250000Y-77939524D01*
X159295932Y-77935000D01*
X159433292Y-77921471D01*
X159609540Y-77868007D01*
X159771972Y-77781186D01*
X159914344Y-77664344D01*
X159943630Y-77628659D01*
X162434217Y-75138072D01*
X164999999Y-75138072D01*
X165173253Y-75121008D01*
X165339850Y-75070471D01*
X165493386Y-74988405D01*
X165627961Y-74877961D01*
X165738405Y-74743386D01*
X165820471Y-74589850D01*
X165871008Y-74423253D01*
X165888072Y-74249999D01*
X165888072Y-71250001D01*
X165871008Y-71076747D01*
X165820471Y-70910150D01*
X165738405Y-70756614D01*
X165627961Y-70622039D01*
X165493386Y-70511595D01*
X165339850Y-70429529D01*
X165173253Y-70378992D01*
X164999999Y-70361928D01*
X162000001Y-70361928D01*
X161826747Y-70378992D01*
X161660150Y-70429529D01*
X161506614Y-70511595D01*
X161372039Y-70622039D01*
X161261595Y-70756614D01*
X161179529Y-70910150D01*
X161128992Y-71076747D01*
X161111928Y-71250001D01*
X161111928Y-73815783D01*
X158862711Y-76065000D01*
X152357454Y-76065000D01*
X152339502Y-76005820D01*
X152280537Y-75895506D01*
X152201185Y-75798815D01*
X152104494Y-75719463D01*
X151994180Y-75660498D01*
X151874482Y-75624188D01*
X151750000Y-75611928D01*
X150250000Y-75611928D01*
X150125518Y-75624188D01*
X150005820Y-75660498D01*
X149895506Y-75719463D01*
X149798815Y-75798815D01*
X149719463Y-75895506D01*
X149660498Y-76005820D01*
X149642546Y-76065000D01*
X147835932Y-76065000D01*
X147790000Y-76060476D01*
X147744068Y-76065000D01*
X147606708Y-76078529D01*
X147430460Y-76131993D01*
X147268028Y-76218814D01*
X147125656Y-76335656D01*
X147096370Y-76371341D01*
X146924711Y-76543000D01*
X146670665Y-76543000D01*
X146393426Y-76598147D01*
X146132273Y-76706320D01*
X145897241Y-76863363D01*
X145697363Y-77063241D01*
X145540320Y-77298273D01*
X145432147Y-77559426D01*
X145377000Y-77836665D01*
X145377000Y-78119335D01*
X145432147Y-78396574D01*
X145540320Y-78657727D01*
X145697363Y-78892759D01*
X145897241Y-79092637D01*
X146132273Y-79249680D01*
X146393426Y-79357853D01*
X146670665Y-79413000D01*
X146953335Y-79413000D01*
X147230574Y-79357853D01*
X147491727Y-79249680D01*
X147726759Y-79092637D01*
X147926637Y-78892759D01*
X148083680Y-78657727D01*
X148191853Y-78396574D01*
X148247000Y-78119335D01*
X148247000Y-77935000D01*
X149642546Y-77935000D01*
X149660498Y-77994180D01*
X149719463Y-78104494D01*
X149798815Y-78201185D01*
X149895506Y-78280537D01*
X150005820Y-78339502D01*
X150125518Y-78375812D01*
X150233483Y-78386445D01*
X150117114Y-78464201D01*
X149924201Y-78657114D01*
X149772629Y-78883957D01*
X149668225Y-79136011D01*
X149615000Y-79403589D01*
X149615000Y-79676411D01*
X149668225Y-79943989D01*
X149772629Y-80196043D01*
X149924201Y-80422886D01*
X150117114Y-80615799D01*
X150343957Y-80767371D01*
X150446873Y-80810000D01*
X150343957Y-80852629D01*
X150117114Y-81004201D01*
X149976315Y-81145000D01*
X142755931Y-81145000D01*
X142709999Y-81140476D01*
X142526707Y-81158529D01*
X142475730Y-81173993D01*
X142350460Y-81211993D01*
X142188028Y-81298814D01*
X142045656Y-81415656D01*
X142016374Y-81451336D01*
X139740506Y-83727205D01*
X139515084Y-83727205D01*
X138067790Y-82279911D01*
X138087000Y-82183335D01*
X138087000Y-81900665D01*
X138031853Y-81623426D01*
X137923680Y-81362273D01*
X137766637Y-81127241D01*
X137566759Y-80927363D01*
X137331727Y-80770320D01*
X137070574Y-80662147D01*
X136793335Y-80607000D01*
X136510665Y-80607000D01*
X136233426Y-80662147D01*
X135972273Y-80770320D01*
X135737241Y-80927363D01*
X135537363Y-81127241D01*
X135380320Y-81362273D01*
X135272147Y-81623426D01*
X135217000Y-81900665D01*
X135217000Y-82183335D01*
X135272147Y-82460574D01*
X135380320Y-82721727D01*
X135537363Y-82956759D01*
X135737241Y-83156637D01*
X135972273Y-83313680D01*
X136233426Y-83421853D01*
X136510665Y-83477000D01*
X136620301Y-83477000D01*
X137370506Y-84227205D01*
X136783726Y-84227205D01*
X136737794Y-84222681D01*
X136554502Y-84240734D01*
X136532376Y-84247446D01*
X136378255Y-84294198D01*
X136215823Y-84381019D01*
X136073451Y-84497861D01*
X136044171Y-84533539D01*
X133112711Y-87465000D01*
X132858665Y-87465000D01*
X132581426Y-87520147D01*
X132320273Y-87628320D01*
X132085241Y-87785363D01*
X131885363Y-87985241D01*
X131728320Y-88220273D01*
X131620147Y-88481426D01*
X131565000Y-88758665D01*
X128143000Y-88758665D01*
X128143000Y-83872542D01*
X132949520Y-79057804D01*
X137496588Y-74716460D01*
X142401205Y-74716460D01*
X142401205Y-74999130D01*
X142456352Y-75276369D01*
X142564525Y-75537522D01*
X142721568Y-75772554D01*
X142921446Y-75972432D01*
X143156478Y-76129475D01*
X143417631Y-76237648D01*
X143694870Y-76292795D01*
X143977540Y-76292795D01*
X144254779Y-76237648D01*
X144515932Y-76129475D01*
X144750964Y-75972432D01*
X144950842Y-75772554D01*
X145107885Y-75537522D01*
X145216058Y-75276369D01*
X145271205Y-74999130D01*
X145271205Y-74716460D01*
X145216058Y-74439221D01*
X145107885Y-74178068D01*
X144950842Y-73943036D01*
X144750964Y-73743158D01*
X144515932Y-73586115D01*
X144254779Y-73477942D01*
X143977540Y-73422795D01*
X143694870Y-73422795D01*
X143417631Y-73477942D01*
X143156478Y-73586115D01*
X142921446Y-73743158D01*
X142721568Y-73943036D01*
X142564525Y-74178068D01*
X142456352Y-74439221D01*
X142401205Y-74716460D01*
X137496588Y-74716460D01*
X140716754Y-71641984D01*
X149115000Y-71641984D01*
X149115000Y-72358016D01*
X149254691Y-73060290D01*
X149528705Y-73721818D01*
X149926511Y-74317177D01*
X150432823Y-74823489D01*
X151028182Y-75221295D01*
X151689710Y-75495309D01*
X152391984Y-75635000D01*
X153108016Y-75635000D01*
X153810290Y-75495309D01*
X154471818Y-75221295D01*
X155067177Y-74823489D01*
X155573489Y-74317177D01*
X155971295Y-73721818D01*
X156245309Y-73060290D01*
X156385000Y-72358016D01*
X156385000Y-71641984D01*
X156245309Y-70939710D01*
X155971295Y-70278182D01*
X155573489Y-69682823D01*
X155067177Y-69176511D01*
X154471818Y-68778705D01*
X153810290Y-68504691D01*
X153108016Y-68365000D01*
X152391984Y-68365000D01*
X151689710Y-68504691D01*
X151028182Y-68778705D01*
X150432823Y-69176511D01*
X149926511Y-69682823D01*
X149528705Y-70278182D01*
X149254691Y-70939710D01*
X149115000Y-71641984D01*
X140716754Y-71641984D01*
X144322892Y-68199000D01*
X183836191Y-68199000D01*
X209373000Y-99105680D01*
%TA.AperFunction,Conductor*%
D24*
G36*
X209373000Y-99105680D02*
G01*
X209373000Y-127703647D01*
X191890915Y-148463000D01*
X151005317Y-148463000D01*
X146279789Y-143382655D01*
X149450000Y-143382655D01*
X149450000Y-143729345D01*
X149517636Y-144069373D01*
X149650308Y-144389673D01*
X149842919Y-144677935D01*
X150088065Y-144923081D01*
X150376327Y-145115692D01*
X150696627Y-145248364D01*
X151036655Y-145316000D01*
X151383345Y-145316000D01*
X151723373Y-145248364D01*
X152043673Y-145115692D01*
X152331935Y-144923081D01*
X152577081Y-144677935D01*
X152769692Y-144389673D01*
X152902364Y-144069373D01*
X152970000Y-143729345D01*
X152970000Y-143382655D01*
X159530000Y-143382655D01*
X159530000Y-143729345D01*
X159597636Y-144069373D01*
X159730308Y-144389673D01*
X159922919Y-144677935D01*
X160168065Y-144923081D01*
X160456327Y-145115692D01*
X160776627Y-145248364D01*
X161116655Y-145316000D01*
X161463345Y-145316000D01*
X161803373Y-145248364D01*
X162123673Y-145115692D01*
X162411935Y-144923081D01*
X162657081Y-144677935D01*
X162849692Y-144389673D01*
X162982364Y-144069373D01*
X163050000Y-143729345D01*
X163050000Y-143382655D01*
X162999477Y-143128655D01*
X179930000Y-143128655D01*
X179930000Y-143475345D01*
X179997636Y-143815373D01*
X180130308Y-144135673D01*
X180322919Y-144423935D01*
X180568065Y-144669081D01*
X180856327Y-144861692D01*
X181176627Y-144994364D01*
X181516655Y-145062000D01*
X181863345Y-145062000D01*
X182203373Y-144994364D01*
X182523673Y-144861692D01*
X182811935Y-144669081D01*
X183057081Y-144423935D01*
X183249692Y-144135673D01*
X183382364Y-143815373D01*
X183450000Y-143475345D01*
X183450000Y-143128655D01*
X190010000Y-143128655D01*
X190010000Y-143475345D01*
X190077636Y-143815373D01*
X190210308Y-144135673D01*
X190402919Y-144423935D01*
X190648065Y-144669081D01*
X190936327Y-144861692D01*
X191256627Y-144994364D01*
X191596655Y-145062000D01*
X191943345Y-145062000D01*
X192283373Y-144994364D01*
X192603673Y-144861692D01*
X192891935Y-144669081D01*
X193137081Y-144423935D01*
X193329692Y-144135673D01*
X193462364Y-143815373D01*
X193530000Y-143475345D01*
X193530000Y-143128655D01*
X193462364Y-142788627D01*
X193329692Y-142468327D01*
X193137081Y-142180065D01*
X192891935Y-141934919D01*
X192603673Y-141742308D01*
X192283373Y-141609636D01*
X191943345Y-141542000D01*
X191596655Y-141542000D01*
X191256627Y-141609636D01*
X190936327Y-141742308D01*
X190648065Y-141934919D01*
X190402919Y-142180065D01*
X190210308Y-142468327D01*
X190077636Y-142788627D01*
X190010000Y-143128655D01*
X183450000Y-143128655D01*
X183382364Y-142788627D01*
X183249692Y-142468327D01*
X183057081Y-142180065D01*
X182811935Y-141934919D01*
X182523673Y-141742308D01*
X182203373Y-141609636D01*
X181863345Y-141542000D01*
X181516655Y-141542000D01*
X181176627Y-141609636D01*
X180856327Y-141742308D01*
X180568065Y-141934919D01*
X180322919Y-142180065D01*
X180130308Y-142468327D01*
X179997636Y-142788627D01*
X179930000Y-143128655D01*
X162999477Y-143128655D01*
X162982364Y-143042627D01*
X162849692Y-142722327D01*
X162657081Y-142434065D01*
X162411935Y-142188919D01*
X162123673Y-141996308D01*
X161803373Y-141863636D01*
X161463345Y-141796000D01*
X161116655Y-141796000D01*
X160776627Y-141863636D01*
X160456327Y-141996308D01*
X160168065Y-142188919D01*
X159922919Y-142434065D01*
X159730308Y-142722327D01*
X159597636Y-143042627D01*
X159530000Y-143382655D01*
X152970000Y-143382655D01*
X152902364Y-143042627D01*
X152769692Y-142722327D01*
X152577081Y-142434065D01*
X152331935Y-142188919D01*
X152043673Y-141996308D01*
X151723373Y-141863636D01*
X151383345Y-141796000D01*
X151036655Y-141796000D01*
X150696627Y-141863636D01*
X150376327Y-141996308D01*
X150088065Y-142188919D01*
X149842919Y-142434065D01*
X149650308Y-142722327D01*
X149517636Y-143042627D01*
X149450000Y-143382655D01*
X146279789Y-143382655D01*
X139213677Y-135785984D01*
X142161000Y-135785984D01*
X142161000Y-136502016D01*
X142300691Y-137204290D01*
X142574705Y-137865818D01*
X142972511Y-138461177D01*
X143478823Y-138967489D01*
X144074182Y-139365295D01*
X144735710Y-139639309D01*
X145437984Y-139779000D01*
X146154016Y-139779000D01*
X146856290Y-139639309D01*
X147517818Y-139365295D01*
X148113177Y-138967489D01*
X148619489Y-138461177D01*
X149017295Y-137865818D01*
X149291309Y-137204290D01*
X149431000Y-136502016D01*
X149431000Y-135785984D01*
X149291309Y-135083710D01*
X149017295Y-134422182D01*
X148619489Y-133826823D01*
X148113177Y-133320511D01*
X147517818Y-132922705D01*
X146856290Y-132648691D01*
X146154016Y-132509000D01*
X145437984Y-132509000D01*
X144735710Y-132648691D01*
X144074182Y-132922705D01*
X143478823Y-133320511D01*
X142972511Y-133826823D01*
X142574705Y-134422182D01*
X142300691Y-135083710D01*
X142161000Y-135785984D01*
X139213677Y-135785984D01*
X128143000Y-123884066D01*
X128143000Y-120474001D01*
X130507928Y-120474001D01*
X130507928Y-123873999D01*
X130524992Y-124047253D01*
X130575529Y-124213850D01*
X130657595Y-124367386D01*
X130768039Y-124501961D01*
X130902614Y-124612405D01*
X131056150Y-124694471D01*
X131222747Y-124745008D01*
X131396001Y-124762072D01*
X134795999Y-124762072D01*
X134969253Y-124745008D01*
X135135850Y-124694471D01*
X135289386Y-124612405D01*
X135423961Y-124501961D01*
X135534405Y-124367386D01*
X135616471Y-124213850D01*
X135667008Y-124047253D01*
X135684072Y-123873999D01*
X135684072Y-123109000D01*
X141082713Y-123109000D01*
X143535641Y-125561928D01*
X142456000Y-125561928D01*
X142331518Y-125574188D01*
X142211820Y-125610498D01*
X142101506Y-125669463D01*
X142004815Y-125748815D01*
X141925463Y-125845506D01*
X141866498Y-125955820D01*
X141837339Y-126051943D01*
X141670759Y-125885363D01*
X141435727Y-125728320D01*
X141174574Y-125620147D01*
X140897335Y-125565000D01*
X140614665Y-125565000D01*
X140337426Y-125620147D01*
X140076273Y-125728320D01*
X139841241Y-125885363D01*
X139641363Y-126085241D01*
X139484320Y-126320273D01*
X139376147Y-126581426D01*
X139321000Y-126858665D01*
X139321000Y-127141335D01*
X139376147Y-127418574D01*
X139484320Y-127679727D01*
X139641363Y-127914759D01*
X139841241Y-128114637D01*
X140076273Y-128271680D01*
X140337426Y-128379853D01*
X140614665Y-128435000D01*
X140897335Y-128435000D01*
X141174574Y-128379853D01*
X141435727Y-128271680D01*
X141670759Y-128114637D01*
X141837339Y-127948057D01*
X141866498Y-128044180D01*
X141925463Y-128154494D01*
X142004815Y-128251185D01*
X142101506Y-128330537D01*
X142211820Y-128389502D01*
X142331518Y-128425812D01*
X142456000Y-128438072D01*
X144056000Y-128438072D01*
X144180482Y-128425812D01*
X144300180Y-128389502D01*
X144410494Y-128330537D01*
X144507185Y-128251185D01*
X144586537Y-128154494D01*
X144645502Y-128044180D01*
X144681812Y-127924482D01*
X144694072Y-127800000D01*
X144694072Y-126720359D01*
X151302378Y-133328666D01*
X151331659Y-133364345D01*
X151411946Y-133430235D01*
X155516370Y-137534659D01*
X155545656Y-137570344D01*
X155688028Y-137687186D01*
X155850460Y-137774007D01*
X156026708Y-137827471D01*
X156210000Y-137845524D01*
X156255932Y-137841000D01*
X162348068Y-137841000D01*
X162394000Y-137845524D01*
X162439932Y-137841000D01*
X162577292Y-137827471D01*
X162753540Y-137774007D01*
X162915972Y-137687186D01*
X163058344Y-137570344D01*
X163087630Y-137534659D01*
X167738997Y-132883292D01*
X168094859Y-132527431D01*
X168240256Y-132467205D01*
X168409774Y-132353937D01*
X168553937Y-132209774D01*
X168667205Y-132040256D01*
X168745226Y-131851898D01*
X168785000Y-131651939D01*
X168785000Y-131448061D01*
X168745226Y-131248102D01*
X168667205Y-131059744D01*
X168553937Y-130890226D01*
X168409774Y-130746063D01*
X168240256Y-130632795D01*
X168051898Y-130554774D01*
X167851939Y-130515000D01*
X167648061Y-130515000D01*
X167448102Y-130554774D01*
X167259744Y-130632795D01*
X167090226Y-130746063D01*
X166946063Y-130890226D01*
X166832795Y-131059744D01*
X166772569Y-131205141D01*
X166477711Y-131500000D01*
X162006711Y-135971000D01*
X156597289Y-135971000D01*
X152697631Y-132071342D01*
X152668345Y-132035657D01*
X152588063Y-131969771D01*
X152016353Y-131398061D01*
X161915000Y-131398061D01*
X161915000Y-131601939D01*
X161954774Y-131801898D01*
X162032795Y-131990256D01*
X162146063Y-132159774D01*
X162290226Y-132303937D01*
X162459744Y-132417205D01*
X162648102Y-132495226D01*
X162848061Y-132535000D01*
X163051939Y-132535000D01*
X163251898Y-132495226D01*
X163440256Y-132417205D01*
X163609774Y-132303937D01*
X163753937Y-132159774D01*
X163867205Y-131990256D01*
X163927431Y-131844858D01*
X167837290Y-127935000D01*
X171052705Y-127935000D01*
X171198102Y-127995226D01*
X171398061Y-128035000D01*
X171487489Y-128035000D01*
X171465000Y-128148061D01*
X171465000Y-128351939D01*
X171504774Y-128551898D01*
X171565000Y-128697296D01*
X171565001Y-130454058D01*
X171560476Y-130500000D01*
X171578529Y-130683291D01*
X171622587Y-130828528D01*
X171631994Y-130859540D01*
X171718815Y-131021972D01*
X171835657Y-131164344D01*
X171871336Y-131193625D01*
X172356369Y-131678658D01*
X172385655Y-131714343D01*
X172528027Y-131831185D01*
X172690459Y-131918006D01*
X172813242Y-131955252D01*
X172866706Y-131971470D01*
X173049998Y-131989523D01*
X173095930Y-131984999D01*
X173688712Y-131984999D01*
X177082372Y-135378659D01*
X177111658Y-135414344D01*
X177254030Y-135531186D01*
X177359882Y-135587765D01*
X177416461Y-135618007D01*
X177592710Y-135671472D01*
X177776002Y-135689524D01*
X177821937Y-135685000D01*
X184704068Y-135685000D01*
X184750000Y-135689524D01*
X184795932Y-135685000D01*
X184933292Y-135671471D01*
X185109540Y-135618007D01*
X185271972Y-135531186D01*
X185414344Y-135414344D01*
X185443630Y-135378659D01*
X186930305Y-133891984D01*
X194365000Y-133891984D01*
X194365000Y-134608016D01*
X194504691Y-135310290D01*
X194778705Y-135971818D01*
X195176511Y-136567177D01*
X195682823Y-137073489D01*
X196278182Y-137471295D01*
X196939710Y-137745309D01*
X197641984Y-137885000D01*
X198358016Y-137885000D01*
X199060290Y-137745309D01*
X199721818Y-137471295D01*
X200317177Y-137073489D01*
X200823489Y-136567177D01*
X201221295Y-135971818D01*
X201495309Y-135310290D01*
X201635000Y-134608016D01*
X201635000Y-133891984D01*
X201495309Y-133189710D01*
X201221295Y-132528182D01*
X200823489Y-131932823D01*
X200317177Y-131426511D01*
X199721818Y-131028705D01*
X199060290Y-130754691D01*
X198358016Y-130615000D01*
X197641984Y-130615000D01*
X196939710Y-130754691D01*
X196278182Y-131028705D01*
X195682823Y-131426511D01*
X195176511Y-131932823D01*
X194778705Y-132528182D01*
X194504691Y-133189710D01*
X194365000Y-133891984D01*
X186930305Y-133891984D01*
X188443623Y-132378666D01*
X196134218Y-124688072D01*
X197050000Y-124688072D01*
X197174482Y-124675812D01*
X197294180Y-124639502D01*
X197404494Y-124580537D01*
X197501185Y-124501185D01*
X197580537Y-124404494D01*
X197639502Y-124294180D01*
X197675812Y-124174482D01*
X197688072Y-124050000D01*
X197688072Y-123776001D01*
X200865928Y-123776001D01*
X200865928Y-127175999D01*
X200882992Y-127349253D01*
X200933529Y-127515850D01*
X201015595Y-127669386D01*
X201126039Y-127803961D01*
X201260614Y-127914405D01*
X201414150Y-127996471D01*
X201580747Y-128047008D01*
X201754001Y-128064072D01*
X205153999Y-128064072D01*
X205327253Y-128047008D01*
X205493850Y-127996471D01*
X205647386Y-127914405D01*
X205781961Y-127803961D01*
X205892405Y-127669386D01*
X205974471Y-127515850D01*
X206025008Y-127349253D01*
X206042072Y-127175999D01*
X206042072Y-123776001D01*
X206025008Y-123602747D01*
X205974471Y-123436150D01*
X205892405Y-123282614D01*
X205781961Y-123148039D01*
X205647386Y-123037595D01*
X205493850Y-122955529D01*
X205327253Y-122904992D01*
X205153999Y-122887928D01*
X201754001Y-122887928D01*
X201580747Y-122904992D01*
X201414150Y-122955529D01*
X201260614Y-123037595D01*
X201126039Y-123148039D01*
X201015595Y-123282614D01*
X200933529Y-123436150D01*
X200882992Y-123602747D01*
X200865928Y-123776001D01*
X197688072Y-123776001D01*
X197688072Y-122450000D01*
X197675812Y-122325518D01*
X197639502Y-122205820D01*
X197580537Y-122095506D01*
X197501185Y-121998815D01*
X197484607Y-121985210D01*
X197521680Y-121929727D01*
X197629853Y-121668574D01*
X197685000Y-121391335D01*
X197685000Y-121108665D01*
X197629853Y-120831426D01*
X197521680Y-120570273D01*
X197364637Y-120335241D01*
X197164759Y-120135363D01*
X196929727Y-119978320D01*
X196668574Y-119870147D01*
X196391335Y-119815000D01*
X196108665Y-119815000D01*
X195831426Y-119870147D01*
X195570273Y-119978320D01*
X195335241Y-120135363D01*
X195135363Y-120335241D01*
X194978320Y-120570273D01*
X194870147Y-120831426D01*
X194815000Y-121108665D01*
X194815000Y-121391335D01*
X194870147Y-121668574D01*
X194978320Y-121929727D01*
X195015393Y-121985210D01*
X194998815Y-121998815D01*
X194919463Y-122095506D01*
X194860498Y-122205820D01*
X194824188Y-122325518D01*
X194811928Y-122450000D01*
X194811928Y-123365782D01*
X187121334Y-131056377D01*
X184362711Y-133815000D01*
X178163291Y-133815000D01*
X174769631Y-130421340D01*
X174740345Y-130385655D01*
X174597973Y-130268813D01*
X174435541Y-130181992D01*
X174259293Y-130128528D01*
X174121933Y-130114999D01*
X174076001Y-130110475D01*
X174030069Y-130114999D01*
X173437288Y-130114999D01*
X173435000Y-130112711D01*
X173435000Y-128697295D01*
X173495226Y-128551898D01*
X173535000Y-128351939D01*
X173535000Y-128148061D01*
X173495226Y-127948102D01*
X173417205Y-127759744D01*
X173303937Y-127590226D01*
X173159774Y-127446063D01*
X172990256Y-127332795D01*
X172801898Y-127254774D01*
X172601939Y-127215000D01*
X172512511Y-127215000D01*
X172535000Y-127101939D01*
X172535000Y-126898061D01*
X172508533Y-126765000D01*
X172601939Y-126765000D01*
X172801898Y-126725226D01*
X172990256Y-126647205D01*
X173159774Y-126533937D01*
X173303937Y-126389774D01*
X173417205Y-126220256D01*
X173495226Y-126031898D01*
X173535000Y-125831939D01*
X173535000Y-125628061D01*
X173495226Y-125428102D01*
X173435000Y-125282705D01*
X173435000Y-123545924D01*
X173439523Y-123499999D01*
X173435000Y-123454074D01*
X173435000Y-123454068D01*
X173421471Y-123316708D01*
X173368007Y-123140460D01*
X173281186Y-122978028D01*
X173164344Y-122835656D01*
X173128664Y-122806374D01*
X170435000Y-120112711D01*
X170435000Y-119858665D01*
X170379853Y-119581426D01*
X170271680Y-119320273D01*
X170114637Y-119085241D01*
X169914759Y-118885363D01*
X169679727Y-118728320D01*
X169418574Y-118620147D01*
X169141335Y-118565000D01*
X168858665Y-118565000D01*
X168581426Y-118620147D01*
X168320273Y-118728320D01*
X168085241Y-118885363D01*
X167885363Y-119085241D01*
X167728320Y-119320273D01*
X167620147Y-119581426D01*
X167565000Y-119858665D01*
X167565000Y-120141335D01*
X167620147Y-120418574D01*
X167728320Y-120679727D01*
X167885363Y-120914759D01*
X168085241Y-121114637D01*
X168320273Y-121271680D01*
X168581426Y-121379853D01*
X168858665Y-121435000D01*
X169112711Y-121435000D01*
X171565001Y-123887291D01*
X171565000Y-125282704D01*
X171504774Y-125428102D01*
X171465000Y-125628061D01*
X171465000Y-125831939D01*
X171491467Y-125965000D01*
X171398061Y-125965000D01*
X171198102Y-126004774D01*
X171052705Y-126065000D01*
X167495931Y-126065000D01*
X167449999Y-126060476D01*
X167266708Y-126078529D01*
X167090460Y-126131993D01*
X166928028Y-126218814D01*
X166785656Y-126335656D01*
X166756374Y-126371336D01*
X162605142Y-130522569D01*
X162459744Y-130582795D01*
X162290226Y-130696063D01*
X162146063Y-130840226D01*
X162032795Y-131009744D01*
X161954774Y-131198102D01*
X161915000Y-131398061D01*
X152016353Y-131398061D01*
X142163632Y-121545341D01*
X142134346Y-121509656D01*
X141991974Y-121392814D01*
X141829542Y-121305993D01*
X141653294Y-121252529D01*
X141515934Y-121239000D01*
X141470002Y-121234476D01*
X141424070Y-121239000D01*
X135684072Y-121239000D01*
X135684072Y-120474001D01*
X135667008Y-120300747D01*
X135616471Y-120134150D01*
X135534405Y-119980614D01*
X135423961Y-119846039D01*
X135289386Y-119735595D01*
X135135850Y-119653529D01*
X134969253Y-119602992D01*
X134795999Y-119585928D01*
X131396001Y-119585928D01*
X131222747Y-119602992D01*
X131056150Y-119653529D01*
X130902614Y-119735595D01*
X130768039Y-119846039D01*
X130657595Y-119980614D01*
X130575529Y-120134150D01*
X130524992Y-120300747D01*
X130507928Y-120474001D01*
X128143000Y-120474001D01*
X128143000Y-114119400D01*
X130511000Y-114119400D01*
X130511000Y-114628600D01*
X130610340Y-115128017D01*
X130805202Y-115598457D01*
X131088099Y-116021842D01*
X131448158Y-116381901D01*
X131871543Y-116664798D01*
X132341983Y-116859660D01*
X132841400Y-116959000D01*
X133350600Y-116959000D01*
X133850017Y-116859660D01*
X134320457Y-116664798D01*
X134743842Y-116381901D01*
X135103901Y-116021842D01*
X135386798Y-115598457D01*
X135506695Y-115309000D01*
X136084711Y-115309000D01*
X145584375Y-124808665D01*
X145613656Y-124844344D01*
X145756028Y-124961186D01*
X145918460Y-125048007D01*
X145991707Y-125070226D01*
X146094707Y-125101471D01*
X146277999Y-125119524D01*
X146323931Y-125115000D01*
X157514705Y-125115000D01*
X157660102Y-125175226D01*
X157860061Y-125215000D01*
X158063939Y-125215000D01*
X158263898Y-125175226D01*
X158452256Y-125097205D01*
X158621774Y-124983937D01*
X158765937Y-124839774D01*
X158879205Y-124670256D01*
X158957226Y-124481898D01*
X158997000Y-124281939D01*
X158997000Y-124078061D01*
X158957226Y-123878102D01*
X158879205Y-123689744D01*
X158765937Y-123520226D01*
X158621774Y-123376063D01*
X158452256Y-123262795D01*
X158263898Y-123184774D01*
X158063939Y-123145000D01*
X157860061Y-123145000D01*
X157660102Y-123184774D01*
X157514705Y-123245000D01*
X146665290Y-123245000D01*
X142584290Y-119164000D01*
X143341928Y-119164000D01*
X143354188Y-119288482D01*
X143390498Y-119408180D01*
X143449463Y-119518494D01*
X143528815Y-119615185D01*
X143625506Y-119694537D01*
X143735820Y-119753502D01*
X143855518Y-119789812D01*
X143980000Y-119802072D01*
X144494250Y-119799000D01*
X144653000Y-119640250D01*
X144653000Y-118491000D01*
X143503750Y-118491000D01*
X143345000Y-118649750D01*
X143341928Y-119164000D01*
X142584290Y-119164000D01*
X140984290Y-117564000D01*
X143341928Y-117564000D01*
X143345000Y-118078250D01*
X143503750Y-118237000D01*
X144653000Y-118237000D01*
X144653000Y-117087750D01*
X144907000Y-117087750D01*
X144907000Y-118237000D01*
X144927000Y-118237000D01*
X144927000Y-118491000D01*
X144907000Y-118491000D01*
X144907000Y-119640250D01*
X145065750Y-119799000D01*
X145580000Y-119802072D01*
X145704482Y-119789812D01*
X145824180Y-119753502D01*
X145934494Y-119694537D01*
X146031185Y-119615185D01*
X146044790Y-119598607D01*
X146100273Y-119635680D01*
X146361426Y-119743853D01*
X146638665Y-119799000D01*
X146921335Y-119799000D01*
X147198574Y-119743853D01*
X147459727Y-119635680D01*
X147694759Y-119478637D01*
X147894637Y-119278759D01*
X148051680Y-119043727D01*
X148159853Y-118782574D01*
X148215000Y-118505335D01*
X148215000Y-118222665D01*
X148159853Y-117945426D01*
X148051680Y-117684273D01*
X147894637Y-117449241D01*
X147694759Y-117249363D01*
X147459727Y-117092320D01*
X147198574Y-116984147D01*
X146921335Y-116929000D01*
X146638665Y-116929000D01*
X146361426Y-116984147D01*
X146100273Y-117092320D01*
X146044790Y-117129393D01*
X146031185Y-117112815D01*
X145934494Y-117033463D01*
X145824180Y-116974498D01*
X145704482Y-116938188D01*
X145580000Y-116925928D01*
X145065750Y-116929000D01*
X144907000Y-117087750D01*
X144653000Y-117087750D01*
X144494250Y-116929000D01*
X143980000Y-116925928D01*
X143855518Y-116938188D01*
X143735820Y-116974498D01*
X143625506Y-117033463D01*
X143528815Y-117112815D01*
X143449463Y-117209506D01*
X143390498Y-117319820D01*
X143354188Y-117439518D01*
X143341928Y-117564000D01*
X140984290Y-117564000D01*
X137165630Y-113745341D01*
X137136344Y-113709656D01*
X136993972Y-113592814D01*
X136831540Y-113505993D01*
X136655292Y-113452529D01*
X136517932Y-113439000D01*
X136472000Y-113434476D01*
X136426068Y-113439000D01*
X135506695Y-113439000D01*
X135386798Y-113149543D01*
X135103901Y-112726158D01*
X134743842Y-112366099D01*
X134320457Y-112083202D01*
X133850017Y-111888340D01*
X133350600Y-111789000D01*
X132841400Y-111789000D01*
X132341983Y-111888340D01*
X131871543Y-112083202D01*
X131448158Y-112366099D01*
X131088099Y-112726158D01*
X130805202Y-113149543D01*
X130610340Y-113619983D01*
X130511000Y-114119400D01*
X128143000Y-114119400D01*
X128143000Y-111022001D01*
X140105928Y-111022001D01*
X140105928Y-114021999D01*
X140122992Y-114195253D01*
X140173529Y-114361850D01*
X140255595Y-114515386D01*
X140366039Y-114649961D01*
X140500614Y-114760405D01*
X140654150Y-114842471D01*
X140820747Y-114893008D01*
X140994001Y-114910072D01*
X143993999Y-114910072D01*
X144167253Y-114893008D01*
X144333850Y-114842471D01*
X144487386Y-114760405D01*
X144621961Y-114649961D01*
X144732405Y-114515386D01*
X144814471Y-114361850D01*
X144865008Y-114195253D01*
X144882072Y-114021999D01*
X144882072Y-111022001D01*
X144865008Y-110848747D01*
X144814471Y-110682150D01*
X144732405Y-110528614D01*
X144621961Y-110394039D01*
X144487386Y-110283595D01*
X144333850Y-110201529D01*
X144167253Y-110150992D01*
X143993999Y-110133928D01*
X140994001Y-110133928D01*
X140820747Y-110150992D01*
X140654150Y-110201529D01*
X140500614Y-110283595D01*
X140366039Y-110394039D01*
X140255595Y-110528614D01*
X140173529Y-110682150D01*
X140122992Y-110848747D01*
X140105928Y-111022001D01*
X128143000Y-111022001D01*
X128143000Y-106319400D01*
X130511000Y-106319400D01*
X130511000Y-106828600D01*
X130610340Y-107328017D01*
X130805202Y-107798457D01*
X131088099Y-108221842D01*
X131448158Y-108581901D01*
X131871543Y-108864798D01*
X132341983Y-109059660D01*
X132841400Y-109159000D01*
X133350600Y-109159000D01*
X133850017Y-109059660D01*
X134320457Y-108864798D01*
X134743842Y-108581901D01*
X135103901Y-108221842D01*
X135386798Y-107798457D01*
X135581660Y-107328017D01*
X135681000Y-106828600D01*
X135681000Y-106319400D01*
X135581660Y-105819983D01*
X135386798Y-105349543D01*
X135103901Y-104926158D01*
X134849744Y-104672001D01*
X137057928Y-104672001D01*
X137057928Y-107671999D01*
X137074992Y-107845253D01*
X137125529Y-108011850D01*
X137207595Y-108165386D01*
X137318039Y-108299961D01*
X137452614Y-108410405D01*
X137606150Y-108492471D01*
X137772747Y-108543008D01*
X137946001Y-108560072D01*
X140945999Y-108560072D01*
X141119253Y-108543008D01*
X141285850Y-108492471D01*
X141439386Y-108410405D01*
X141573961Y-108299961D01*
X141684405Y-108165386D01*
X141766471Y-108011850D01*
X141817008Y-107845253D01*
X141834072Y-107671999D01*
X141834072Y-104672001D01*
X141817008Y-104498747D01*
X141766471Y-104332150D01*
X141684405Y-104178614D01*
X141573961Y-104044039D01*
X141439386Y-103933595D01*
X141285850Y-103851529D01*
X141119253Y-103800992D01*
X140945999Y-103783928D01*
X137946001Y-103783928D01*
X137772747Y-103800992D01*
X137606150Y-103851529D01*
X137452614Y-103933595D01*
X137318039Y-104044039D01*
X137207595Y-104178614D01*
X137125529Y-104332150D01*
X137074992Y-104498747D01*
X137057928Y-104672001D01*
X134849744Y-104672001D01*
X134743842Y-104566099D01*
X134320457Y-104283202D01*
X133850017Y-104088340D01*
X133350600Y-103989000D01*
X132841400Y-103989000D01*
X132341983Y-104088340D01*
X131871543Y-104283202D01*
X131448158Y-104566099D01*
X131088099Y-104926158D01*
X130805202Y-105349543D01*
X130610340Y-105819983D01*
X130511000Y-106319400D01*
X128143000Y-106319400D01*
X128143000Y-97814001D01*
X130611928Y-97814001D01*
X130611928Y-100813999D01*
X130628992Y-100987253D01*
X130679529Y-101153850D01*
X130761595Y-101307386D01*
X130872039Y-101441961D01*
X131006614Y-101552405D01*
X131160150Y-101634471D01*
X131326747Y-101685008D01*
X131500001Y-101702072D01*
X134499999Y-101702072D01*
X134673253Y-101685008D01*
X134839850Y-101634471D01*
X134993386Y-101552405D01*
X135127961Y-101441961D01*
X135238405Y-101307386D01*
X135320471Y-101153850D01*
X135371008Y-100987253D01*
X135388072Y-100813999D01*
X135388072Y-97814001D01*
X135371008Y-97640747D01*
X135320471Y-97474150D01*
X135238405Y-97320614D01*
X135127961Y-97186039D01*
X134993386Y-97075595D01*
X134839850Y-96993529D01*
X134673253Y-96942992D01*
X134499999Y-96925928D01*
X131500001Y-96925928D01*
X131326747Y-96942992D01*
X131160150Y-96993529D01*
X131006614Y-97075595D01*
X130872039Y-97186039D01*
X130761595Y-97320614D01*
X130679529Y-97474150D01*
X130628992Y-97640747D01*
X130611928Y-97814001D01*
X128143000Y-97814001D01*
X128143000Y-93758665D01*
X131565000Y-93758665D01*
X131565000Y-94041335D01*
X131620147Y-94318574D01*
X131728320Y-94579727D01*
X131885363Y-94814759D01*
X132085241Y-95014637D01*
X132320273Y-95171680D01*
X132581426Y-95279853D01*
X132858665Y-95335000D01*
X133141335Y-95335000D01*
X133418574Y-95279853D01*
X133679727Y-95171680D01*
X133914759Y-95014637D01*
X134114637Y-94814759D01*
X134271680Y-94579727D01*
X134379853Y-94318574D01*
X134435000Y-94041335D01*
X134435000Y-93758665D01*
X134379853Y-93481426D01*
X134271680Y-93220273D01*
X134114637Y-92985241D01*
X133914759Y-92785363D01*
X133679727Y-92628320D01*
X133418574Y-92520147D01*
X133141335Y-92465000D01*
X132858665Y-92465000D01*
X132581426Y-92520147D01*
X132320273Y-92628320D01*
X132085241Y-92785363D01*
X131885363Y-92985241D01*
X131728320Y-93220273D01*
X131620147Y-93481426D01*
X131565000Y-93758665D01*
X128143000Y-93758665D01*
X128143000Y-88758665D01*
X131565000Y-88758665D01*
X131565000Y-89041335D01*
X131620147Y-89318574D01*
X131728320Y-89579727D01*
X131885363Y-89814759D01*
X132085241Y-90014637D01*
X132320273Y-90171680D01*
X132581426Y-90279853D01*
X132858665Y-90335000D01*
X133141335Y-90335000D01*
X133418574Y-90279853D01*
X133679727Y-90171680D01*
X133914759Y-90014637D01*
X134114637Y-89814759D01*
X134271680Y-89579727D01*
X134379853Y-89318574D01*
X134435000Y-89041335D01*
X134435000Y-88787289D01*
X137125085Y-86097205D01*
X138533399Y-86097205D01*
X138713036Y-86276842D01*
X138948068Y-86433885D01*
X139209221Y-86542058D01*
X139486460Y-86597205D01*
X139769130Y-86597205D01*
X140046369Y-86542058D01*
X140213898Y-86472665D01*
X140805000Y-86472665D01*
X140805000Y-86755335D01*
X140860147Y-87032574D01*
X140968320Y-87293727D01*
X141125363Y-87528759D01*
X141325241Y-87728637D01*
X141560273Y-87885680D01*
X141821426Y-87993853D01*
X142098665Y-88049000D01*
X142381335Y-88049000D01*
X142658574Y-87993853D01*
X142919727Y-87885680D01*
X143154759Y-87728637D01*
X143354637Y-87528759D01*
X143511680Y-87293727D01*
X143619853Y-87032574D01*
X143675000Y-86755335D01*
X143675000Y-86472665D01*
X143619853Y-86195426D01*
X143511680Y-85934273D01*
X143354637Y-85699241D01*
X143154759Y-85499363D01*
X142919727Y-85342320D01*
X142658574Y-85234147D01*
X142381335Y-85179000D01*
X142098665Y-85179000D01*
X141821426Y-85234147D01*
X141560273Y-85342320D01*
X141325241Y-85499363D01*
X141125363Y-85699241D01*
X140968320Y-85934273D01*
X140860147Y-86195426D01*
X140805000Y-86472665D01*
X140213898Y-86472665D01*
X140307522Y-86433885D01*
X140542554Y-86276842D01*
X140742432Y-86076964D01*
X140899475Y-85841932D01*
X141007648Y-85580779D01*
X141062795Y-85303540D01*
X141062795Y-85049494D01*
X141879328Y-84232961D01*
X154818096Y-84232961D01*
X154940085Y-84455000D01*
X156083000Y-84455000D01*
X156083000Y-83311376D01*
X156337000Y-83311376D01*
X156337000Y-84455000D01*
X157479915Y-84455000D01*
X157601904Y-84232961D01*
X157561246Y-84098913D01*
X157441037Y-83844580D01*
X157273519Y-83618586D01*
X157065131Y-83429615D01*
X156823881Y-83284930D01*
X156559040Y-83190091D01*
X156337000Y-83311376D01*
X156083000Y-83311376D01*
X155860960Y-83190091D01*
X155596119Y-83284930D01*
X155354869Y-83429615D01*
X155146481Y-83618586D01*
X154978963Y-83844580D01*
X154858754Y-84098913D01*
X154818096Y-84232961D01*
X141879328Y-84232961D01*
X143097290Y-83015000D01*
X149976315Y-83015000D01*
X150117114Y-83155799D01*
X150343957Y-83307371D01*
X150596011Y-83411775D01*
X150863589Y-83465000D01*
X151136411Y-83465000D01*
X151403989Y-83411775D01*
X151656043Y-83307371D01*
X151882886Y-83155799D01*
X152075799Y-82962886D01*
X152227371Y-82736043D01*
X152331775Y-82483989D01*
X152385000Y-82216411D01*
X152385000Y-81943589D01*
X152331775Y-81676011D01*
X152227371Y-81423957D01*
X152075799Y-81197114D01*
X151882886Y-81004201D01*
X151656043Y-80852629D01*
X151553127Y-80810000D01*
X151656043Y-80767371D01*
X151882886Y-80615799D01*
X152023685Y-80475000D01*
X155414068Y-80475000D01*
X155460000Y-80479524D01*
X155505932Y-80475000D01*
X155643292Y-80461471D01*
X155781292Y-80419609D01*
X155858665Y-80435000D01*
X156112711Y-80435000D01*
X156906375Y-81228665D01*
X156935657Y-81264345D01*
X157078029Y-81381187D01*
X157240461Y-81468008D01*
X157363244Y-81505254D01*
X157416708Y-81521472D01*
X157600000Y-81539525D01*
X157645932Y-81535001D01*
X168862067Y-81535001D01*
X168907999Y-81539525D01*
X168953931Y-81535001D01*
X169091291Y-81521472D01*
X169267539Y-81468008D01*
X169429971Y-81381187D01*
X169572343Y-81264345D01*
X169601629Y-81228660D01*
X170067289Y-80763000D01*
X170321335Y-80763000D01*
X170598574Y-80707853D01*
X170859727Y-80599680D01*
X171094759Y-80442637D01*
X171294637Y-80242759D01*
X171451680Y-80007727D01*
X171559853Y-79746574D01*
X171615000Y-79469335D01*
X171615000Y-79186665D01*
X171559853Y-78909426D01*
X171554703Y-78896992D01*
X172555000Y-79897290D01*
X172555000Y-80151335D01*
X172610147Y-80428574D01*
X172718320Y-80689727D01*
X172875363Y-80924759D01*
X173075241Y-81124637D01*
X173310273Y-81281680D01*
X173571426Y-81389853D01*
X173848665Y-81445000D01*
X174131335Y-81445000D01*
X174408574Y-81389853D01*
X174669727Y-81281680D01*
X174904759Y-81124637D01*
X175084396Y-80945000D01*
X175242711Y-80945000D01*
X180185000Y-85887290D01*
X180185000Y-86141335D01*
X180240147Y-86418574D01*
X180348320Y-86679727D01*
X180505363Y-86914759D01*
X180705241Y-87114637D01*
X180937759Y-87270000D01*
X180705241Y-87425363D01*
X180505363Y-87625241D01*
X180348320Y-87860273D01*
X180240147Y-88121426D01*
X180185000Y-88398665D01*
X180185000Y-88681335D01*
X180240147Y-88958574D01*
X180348320Y-89219727D01*
X180505363Y-89454759D01*
X180705241Y-89654637D01*
X180937759Y-89810000D01*
X180705241Y-89965363D01*
X180505363Y-90165241D01*
X180348320Y-90400273D01*
X180240147Y-90661426D01*
X180185000Y-90938665D01*
X180185000Y-91221335D01*
X180240147Y-91498574D01*
X180348320Y-91759727D01*
X180505363Y-91994759D01*
X180705241Y-92194637D01*
X180937759Y-92350000D01*
X180705241Y-92505363D01*
X180505363Y-92705241D01*
X180348320Y-92940273D01*
X180240147Y-93201426D01*
X180185000Y-93478665D01*
X180185000Y-93761335D01*
X180240147Y-94038574D01*
X180348320Y-94299727D01*
X180505363Y-94534759D01*
X180705241Y-94734637D01*
X180937759Y-94890000D01*
X180705241Y-95045363D01*
X180505363Y-95245241D01*
X180348320Y-95480273D01*
X180240147Y-95741426D01*
X180185000Y-96018665D01*
X180185000Y-96301335D01*
X180240147Y-96578574D01*
X180348320Y-96839727D01*
X180505363Y-97074759D01*
X180705241Y-97274637D01*
X180937759Y-97430000D01*
X180705241Y-97585363D01*
X180505363Y-97785241D01*
X180348320Y-98020273D01*
X180240147Y-98281426D01*
X180185000Y-98558665D01*
X180185000Y-98841335D01*
X180240147Y-99118574D01*
X180348320Y-99379727D01*
X180505363Y-99614759D01*
X180705241Y-99814637D01*
X180937759Y-99970000D01*
X180705241Y-100125363D01*
X180505363Y-100325241D01*
X180348320Y-100560273D01*
X180240147Y-100821426D01*
X180185000Y-101098665D01*
X180185000Y-101352710D01*
X179632710Y-101905001D01*
X175277780Y-101905001D01*
X175379853Y-101658574D01*
X175435000Y-101381335D01*
X175435000Y-101098665D01*
X175379853Y-100821426D01*
X175271680Y-100560273D01*
X175114637Y-100325241D01*
X174914759Y-100125363D01*
X174682241Y-99970000D01*
X174914759Y-99814637D01*
X175114637Y-99614759D01*
X175271680Y-99379727D01*
X175379853Y-99118574D01*
X175435000Y-98841335D01*
X175435000Y-98558665D01*
X175379853Y-98281426D01*
X175271680Y-98020273D01*
X175114637Y-97785241D01*
X174914759Y-97585363D01*
X174682241Y-97430000D01*
X174914759Y-97274637D01*
X175114637Y-97074759D01*
X175271680Y-96839727D01*
X175379853Y-96578574D01*
X175435000Y-96301335D01*
X175435000Y-96018665D01*
X175379853Y-95741426D01*
X175271680Y-95480273D01*
X175114637Y-95245241D01*
X174914759Y-95045363D01*
X174682241Y-94890000D01*
X174914759Y-94734637D01*
X175114637Y-94534759D01*
X175271680Y-94299727D01*
X175379853Y-94038574D01*
X175435000Y-93761335D01*
X175435000Y-93478665D01*
X175379853Y-93201426D01*
X175271680Y-92940273D01*
X175114637Y-92705241D01*
X174914759Y-92505363D01*
X174682241Y-92350000D01*
X174914759Y-92194637D01*
X175114637Y-91994759D01*
X175271680Y-91759727D01*
X175379853Y-91498574D01*
X175435000Y-91221335D01*
X175435000Y-90938665D01*
X175379853Y-90661426D01*
X175271680Y-90400273D01*
X175114637Y-90165241D01*
X174914759Y-89965363D01*
X174682241Y-89810000D01*
X174914759Y-89654637D01*
X175114637Y-89454759D01*
X175271680Y-89219727D01*
X175379853Y-88958574D01*
X175435000Y-88681335D01*
X175435000Y-88398665D01*
X175379853Y-88121426D01*
X175271680Y-87860273D01*
X175114637Y-87625241D01*
X174916039Y-87426643D01*
X174924482Y-87425812D01*
X175044180Y-87389502D01*
X175154494Y-87330537D01*
X175251185Y-87251185D01*
X175330537Y-87154494D01*
X175389502Y-87044180D01*
X175425812Y-86924482D01*
X175438072Y-86800000D01*
X175438072Y-85200000D01*
X175425812Y-85075518D01*
X175389502Y-84955820D01*
X175330537Y-84845506D01*
X175251185Y-84748815D01*
X175154494Y-84669463D01*
X175044180Y-84610498D01*
X174924482Y-84574188D01*
X174800000Y-84561928D01*
X173200000Y-84561928D01*
X173075518Y-84574188D01*
X172955820Y-84610498D01*
X172845506Y-84669463D01*
X172748815Y-84748815D01*
X172669463Y-84845506D01*
X172610498Y-84955820D01*
X172574188Y-85075518D01*
X172561928Y-85200000D01*
X172561928Y-86115783D01*
X170788712Y-87888999D01*
X153071714Y-87888999D01*
X153079727Y-87885680D01*
X153314759Y-87728637D01*
X153494396Y-87549000D01*
X164292068Y-87549000D01*
X164338000Y-87553524D01*
X164383932Y-87549000D01*
X164521292Y-87535471D01*
X164697540Y-87482007D01*
X164859972Y-87395186D01*
X165002344Y-87278344D01*
X165031630Y-87242659D01*
X166257289Y-86017000D01*
X166511335Y-86017000D01*
X166788574Y-85961853D01*
X167049727Y-85853680D01*
X167284759Y-85696637D01*
X167464396Y-85517000D01*
X169376533Y-85517000D01*
X169500273Y-85599680D01*
X169761426Y-85707853D01*
X170038665Y-85763000D01*
X170321335Y-85763000D01*
X170598574Y-85707853D01*
X170859727Y-85599680D01*
X171094759Y-85442637D01*
X171294637Y-85242759D01*
X171451680Y-85007727D01*
X171559853Y-84746574D01*
X171615000Y-84469335D01*
X171615000Y-84186665D01*
X171559853Y-83909426D01*
X171451680Y-83648273D01*
X171294637Y-83413241D01*
X171094759Y-83213363D01*
X170859727Y-83056320D01*
X170598574Y-82948147D01*
X170321335Y-82893000D01*
X170038665Y-82893000D01*
X169761426Y-82948147D01*
X169500273Y-83056320D01*
X169265241Y-83213363D01*
X169065363Y-83413241D01*
X168909171Y-83647000D01*
X167464396Y-83647000D01*
X167284759Y-83467363D01*
X167049727Y-83310320D01*
X166788574Y-83202147D01*
X166511335Y-83147000D01*
X166228665Y-83147000D01*
X165951426Y-83202147D01*
X165690273Y-83310320D01*
X165455241Y-83467363D01*
X165255363Y-83667241D01*
X165098320Y-83902273D01*
X164990147Y-84163426D01*
X164935000Y-84440665D01*
X164935000Y-84694711D01*
X163950711Y-85679000D01*
X157126207Y-85679000D01*
X157273519Y-85545414D01*
X157441037Y-85319420D01*
X157561246Y-85065087D01*
X157601904Y-84931039D01*
X157479915Y-84709000D01*
X156337000Y-84709000D01*
X156337000Y-84729000D01*
X156083000Y-84729000D01*
X156083000Y-84709000D01*
X154940085Y-84709000D01*
X154818096Y-84931039D01*
X154858754Y-85065087D01*
X154978963Y-85319420D01*
X155146481Y-85545414D01*
X155293793Y-85679000D01*
X153494396Y-85679000D01*
X153314759Y-85499363D01*
X153079727Y-85342320D01*
X152818574Y-85234147D01*
X152541335Y-85179000D01*
X152258665Y-85179000D01*
X151981426Y-85234147D01*
X151720273Y-85342320D01*
X151485241Y-85499363D01*
X151285363Y-85699241D01*
X151128320Y-85934273D01*
X151020147Y-86195426D01*
X150965000Y-86472665D01*
X150965000Y-86755335D01*
X151020147Y-87032574D01*
X151128320Y-87293727D01*
X151285363Y-87528759D01*
X151485241Y-87728637D01*
X151720273Y-87885680D01*
X151728286Y-87888999D01*
X148711936Y-87888999D01*
X148666001Y-87884475D01*
X148482709Y-87902527D01*
X148306460Y-87955992D01*
X148249881Y-87986234D01*
X148144029Y-88042813D01*
X148001657Y-88159655D01*
X147972371Y-88195340D01*
X147686711Y-88481000D01*
X147432665Y-88481000D01*
X147155426Y-88536147D01*
X146894273Y-88644320D01*
X146770533Y-88727000D01*
X143334396Y-88727000D01*
X143154759Y-88547363D01*
X142919727Y-88390320D01*
X142658574Y-88282147D01*
X142381335Y-88227000D01*
X142098665Y-88227000D01*
X141976907Y-88251220D01*
X141915292Y-88232529D01*
X141777932Y-88219000D01*
X141732000Y-88214476D01*
X141686068Y-88219000D01*
X138762396Y-88219000D01*
X138582759Y-88039363D01*
X138347727Y-87882320D01*
X138086574Y-87774147D01*
X137809335Y-87719000D01*
X137526665Y-87719000D01*
X137249426Y-87774147D01*
X136988273Y-87882320D01*
X136753241Y-88039363D01*
X136553363Y-88239241D01*
X136396320Y-88474273D01*
X136288147Y-88735426D01*
X136233000Y-89012665D01*
X136233000Y-89295335D01*
X136288147Y-89572574D01*
X136396320Y-89833727D01*
X136553363Y-90068759D01*
X136753241Y-90268637D01*
X136988273Y-90425680D01*
X137249426Y-90533853D01*
X137526665Y-90589000D01*
X137809335Y-90589000D01*
X138086574Y-90533853D01*
X138347727Y-90425680D01*
X138582759Y-90268637D01*
X138762396Y-90089000D01*
X140863637Y-90089000D01*
X140968320Y-90341727D01*
X141125363Y-90576759D01*
X141325241Y-90776637D01*
X141560273Y-90933680D01*
X141821426Y-91041853D01*
X142098665Y-91097000D01*
X142381335Y-91097000D01*
X142658574Y-91041853D01*
X142919727Y-90933680D01*
X143154759Y-90776637D01*
X143334396Y-90597000D01*
X146303171Y-90597000D01*
X146459363Y-90830759D01*
X146659241Y-91030637D01*
X146894273Y-91187680D01*
X147155426Y-91295853D01*
X147432665Y-91351000D01*
X147715335Y-91351000D01*
X147992574Y-91295853D01*
X148253727Y-91187680D01*
X148488759Y-91030637D01*
X148688637Y-90830759D01*
X148845680Y-90595727D01*
X148953853Y-90334574D01*
X149009000Y-90057335D01*
X149009000Y-89803289D01*
X149053290Y-89758999D01*
X151797605Y-89758999D01*
X151793363Y-89763241D01*
X151636320Y-89998273D01*
X151528147Y-90259426D01*
X151473000Y-90536665D01*
X151473000Y-90819335D01*
X151528147Y-91096574D01*
X151636320Y-91357727D01*
X151793363Y-91592759D01*
X151993241Y-91792637D01*
X152228273Y-91949680D01*
X152489426Y-92057853D01*
X152766665Y-92113000D01*
X153020711Y-92113000D01*
X154754374Y-93846664D01*
X154783656Y-93882344D01*
X154926028Y-93999186D01*
X155088460Y-94086007D01*
X155211243Y-94123253D01*
X155264707Y-94139471D01*
X155283110Y-94141283D01*
X155402068Y-94153000D01*
X155402074Y-94153000D01*
X155447999Y-94157523D01*
X155493924Y-94153000D01*
X169276068Y-94153000D01*
X169322000Y-94157524D01*
X169367932Y-94153000D01*
X169505292Y-94139471D01*
X169681540Y-94086007D01*
X169843972Y-93999186D01*
X169986344Y-93882344D01*
X170015630Y-93846659D01*
X172577602Y-91284688D01*
X172620147Y-91498574D01*
X172728320Y-91759727D01*
X172885363Y-91994759D01*
X173085241Y-92194637D01*
X173317759Y-92350000D01*
X173085241Y-92505363D01*
X172885363Y-92705241D01*
X172728320Y-92940273D01*
X172620147Y-93201426D01*
X172565000Y-93478665D01*
X172565000Y-93761335D01*
X172620147Y-94038574D01*
X172728320Y-94299727D01*
X172885363Y-94534759D01*
X173085241Y-94734637D01*
X173317759Y-94890000D01*
X173085241Y-95045363D01*
X172885363Y-95245241D01*
X172728320Y-95480273D01*
X172620147Y-95741426D01*
X172565000Y-96018665D01*
X172565000Y-96301335D01*
X172620147Y-96578574D01*
X172728320Y-96839727D01*
X172885363Y-97074759D01*
X173085241Y-97274637D01*
X173317759Y-97430000D01*
X173085241Y-97585363D01*
X172905604Y-97765000D01*
X151535932Y-97765000D01*
X151490000Y-97760476D01*
X151444068Y-97765000D01*
X151306708Y-97778529D01*
X151130460Y-97831993D01*
X150968028Y-97918814D01*
X150825656Y-98035656D01*
X150796370Y-98071341D01*
X148996398Y-99871313D01*
X148953853Y-99657426D01*
X148845680Y-99396273D01*
X148688637Y-99161241D01*
X148488759Y-98961363D01*
X148253727Y-98804320D01*
X147992574Y-98696147D01*
X147715335Y-98641000D01*
X147432665Y-98641000D01*
X147155426Y-98696147D01*
X146894273Y-98804320D01*
X146659241Y-98961363D01*
X146459363Y-99161241D01*
X146302320Y-99396273D01*
X146194147Y-99657426D01*
X146139000Y-99934665D01*
X146139000Y-100217335D01*
X146194147Y-100494574D01*
X146302320Y-100755727D01*
X146459363Y-100990759D01*
X146641604Y-101173000D01*
X144913290Y-101173000D01*
X143675000Y-99934711D01*
X143675000Y-99680665D01*
X143619853Y-99403426D01*
X143511680Y-99142273D01*
X143354637Y-98907241D01*
X143154759Y-98707363D01*
X142919727Y-98550320D01*
X142658574Y-98442147D01*
X142381335Y-98387000D01*
X142098665Y-98387000D01*
X141821426Y-98442147D01*
X141560273Y-98550320D01*
X141325241Y-98707363D01*
X141125363Y-98907241D01*
X140968320Y-99142273D01*
X140860147Y-99403426D01*
X140817602Y-99617313D01*
X138603000Y-97402711D01*
X138603000Y-96750702D01*
X155650903Y-96750702D01*
X155722486Y-96994671D01*
X155977996Y-97115571D01*
X156252184Y-97184300D01*
X156534512Y-97198217D01*
X156814130Y-97156787D01*
X157080292Y-97061603D01*
X157205514Y-96994671D01*
X157277097Y-96750702D01*
X156464000Y-95937605D01*
X155650903Y-96750702D01*
X138603000Y-96750702D01*
X138603000Y-95828512D01*
X155023783Y-95828512D01*
X155065213Y-96108130D01*
X155160397Y-96374292D01*
X155227329Y-96499514D01*
X155471298Y-96571097D01*
X156284395Y-95758000D01*
X156643605Y-95758000D01*
X157456702Y-96571097D01*
X157700671Y-96499514D01*
X157821571Y-96244004D01*
X157890300Y-95969816D01*
X157904217Y-95687488D01*
X157893724Y-95616665D01*
X165189000Y-95616665D01*
X165189000Y-95899335D01*
X165244147Y-96176574D01*
X165352320Y-96437727D01*
X165509363Y-96672759D01*
X165709241Y-96872637D01*
X165944273Y-97029680D01*
X166205426Y-97137853D01*
X166482665Y-97193000D01*
X166765335Y-97193000D01*
X167042574Y-97137853D01*
X167303727Y-97029680D01*
X167538759Y-96872637D01*
X167738637Y-96672759D01*
X167895680Y-96437727D01*
X168003853Y-96176574D01*
X168059000Y-95899335D01*
X168059000Y-95616665D01*
X168003853Y-95339426D01*
X167895680Y-95078273D01*
X167738637Y-94843241D01*
X167538759Y-94643363D01*
X167303727Y-94486320D01*
X167042574Y-94378147D01*
X166765335Y-94323000D01*
X166482665Y-94323000D01*
X166205426Y-94378147D01*
X165944273Y-94486320D01*
X165709241Y-94643363D01*
X165509363Y-94843241D01*
X165352320Y-95078273D01*
X165244147Y-95339426D01*
X165189000Y-95616665D01*
X157893724Y-95616665D01*
X157862787Y-95407870D01*
X157767603Y-95141708D01*
X157700671Y-95016486D01*
X157456702Y-94944903D01*
X156643605Y-95758000D01*
X156284395Y-95758000D01*
X155471298Y-94944903D01*
X155227329Y-95016486D01*
X155106429Y-95271996D01*
X155037700Y-95546184D01*
X155023783Y-95828512D01*
X138603000Y-95828512D01*
X138603000Y-95248396D01*
X138782637Y-95068759D01*
X138939680Y-94833727D01*
X138968024Y-94765298D01*
X155650903Y-94765298D01*
X156464000Y-95578395D01*
X157277097Y-94765298D01*
X157205514Y-94521329D01*
X156950004Y-94400429D01*
X156675816Y-94331700D01*
X156393488Y-94317783D01*
X156113870Y-94359213D01*
X155847708Y-94454397D01*
X155722486Y-94521329D01*
X155650903Y-94765298D01*
X138968024Y-94765298D01*
X139047853Y-94572574D01*
X139103000Y-94295335D01*
X139103000Y-94012665D01*
X139047853Y-93735426D01*
X138939680Y-93474273D01*
X138782637Y-93239241D01*
X138582759Y-93039363D01*
X138347727Y-92882320D01*
X138086574Y-92774147D01*
X137809335Y-92719000D01*
X137526665Y-92719000D01*
X137249426Y-92774147D01*
X136988273Y-92882320D01*
X136753241Y-93039363D01*
X136553363Y-93239241D01*
X136396320Y-93474273D01*
X136288147Y-93735426D01*
X136233000Y-94012665D01*
X136233000Y-94295335D01*
X136288147Y-94572574D01*
X136396320Y-94833727D01*
X136553363Y-95068759D01*
X136733001Y-95248397D01*
X136733000Y-97744068D01*
X136728476Y-97790000D01*
X136733000Y-97835931D01*
X136746529Y-97973291D01*
X136799993Y-98149539D01*
X136886814Y-98311971D01*
X137003656Y-98454344D01*
X137039341Y-98483630D01*
X142486369Y-103930658D01*
X142515655Y-103966343D01*
X142658027Y-104083185D01*
X142820459Y-104170006D01*
X142892827Y-104191958D01*
X142996707Y-104223471D01*
X143179999Y-104241523D01*
X143225934Y-104236999D01*
X147659928Y-104236999D01*
X147659928Y-105702000D01*
X147672188Y-105826482D01*
X147708498Y-105946180D01*
X147767463Y-106056494D01*
X147846815Y-106153185D01*
X147943506Y-106232537D01*
X148053820Y-106291502D01*
X148173518Y-106327812D01*
X148298000Y-106340072D01*
X149469009Y-106340072D01*
X147707341Y-108101740D01*
X147671656Y-108131026D01*
X147554814Y-108273399D01*
X147467993Y-108435831D01*
X147430305Y-108560072D01*
X147414529Y-108612079D01*
X147396476Y-108795370D01*
X147401000Y-108841302D01*
X147401001Y-112222058D01*
X147396476Y-112268000D01*
X147414529Y-112451292D01*
X147467993Y-112627540D01*
X147554814Y-112789972D01*
X147671656Y-112932344D01*
X147814028Y-113049186D01*
X147976460Y-113136007D01*
X148152708Y-113189471D01*
X148290068Y-113203000D01*
X148336000Y-113207524D01*
X148381932Y-113203000D01*
X148383713Y-113203000D01*
X150986658Y-115805945D01*
X150696627Y-115863636D01*
X150376327Y-115996308D01*
X150088065Y-116188919D01*
X149842919Y-116434065D01*
X149650308Y-116722327D01*
X149517636Y-117042627D01*
X149450000Y-117382655D01*
X149450000Y-117729345D01*
X149517636Y-118069373D01*
X149650308Y-118389673D01*
X149842919Y-118677935D01*
X150088065Y-118923081D01*
X150376327Y-119115692D01*
X150696627Y-119248364D01*
X151036655Y-119316000D01*
X151383345Y-119316000D01*
X151603850Y-119272139D01*
X152594370Y-120262659D01*
X152623656Y-120298344D01*
X152766028Y-120415186D01*
X152928460Y-120502007D01*
X152994273Y-120521971D01*
X153104708Y-120555472D01*
X153288000Y-120573524D01*
X153333935Y-120569000D01*
X161935070Y-120569000D01*
X161981002Y-120573524D01*
X162026934Y-120569000D01*
X162164294Y-120555471D01*
X162340542Y-120502007D01*
X162502974Y-120415186D01*
X162645346Y-120298344D01*
X162674632Y-120262659D01*
X166236660Y-116700631D01*
X166272344Y-116671346D01*
X166389186Y-116528974D01*
X166458176Y-116399901D01*
X166495506Y-116430537D01*
X166605820Y-116489502D01*
X166725518Y-116525812D01*
X166850000Y-116538072D01*
X168650000Y-116538072D01*
X168774482Y-116525812D01*
X168894180Y-116489502D01*
X169004494Y-116430537D01*
X169101185Y-116351185D01*
X169180537Y-116254494D01*
X169239502Y-116144180D01*
X169245056Y-116125873D01*
X169311495Y-116192312D01*
X169562905Y-116360299D01*
X169842257Y-116476011D01*
X170138816Y-116535000D01*
X170441184Y-116535000D01*
X170737743Y-116476011D01*
X171017095Y-116360299D01*
X171250234Y-116204521D01*
X173651851Y-118606138D01*
X173581426Y-118620147D01*
X173320273Y-118728320D01*
X173085241Y-118885363D01*
X172885363Y-119085241D01*
X172728320Y-119320273D01*
X172620147Y-119581426D01*
X172565000Y-119858665D01*
X172565000Y-120141335D01*
X172620147Y-120418574D01*
X172728320Y-120679727D01*
X172885363Y-120914759D01*
X173085241Y-121114637D01*
X173320273Y-121271680D01*
X173581426Y-121379853D01*
X173858665Y-121435000D01*
X174141335Y-121435000D01*
X174418574Y-121379853D01*
X174679727Y-121271680D01*
X174914759Y-121114637D01*
X175114637Y-120914759D01*
X175271680Y-120679727D01*
X175379853Y-120418574D01*
X175393862Y-120348149D01*
X177565001Y-122519289D01*
X177565000Y-123052704D01*
X177504774Y-123198102D01*
X177465000Y-123398061D01*
X177465000Y-123601939D01*
X177504774Y-123801898D01*
X177582795Y-123990256D01*
X177615001Y-124038456D01*
X177615000Y-129416146D01*
X177490256Y-129332795D01*
X177395000Y-129293338D01*
X177395000Y-124907295D01*
X177455226Y-124761898D01*
X177495000Y-124561939D01*
X177495000Y-124358061D01*
X177455226Y-124158102D01*
X177377205Y-123969744D01*
X177263937Y-123800226D01*
X177119774Y-123656063D01*
X176950256Y-123542795D01*
X176761898Y-123464774D01*
X176561939Y-123425000D01*
X176358061Y-123425000D01*
X176158102Y-123464774D01*
X175969744Y-123542795D01*
X175800226Y-123656063D01*
X175656063Y-123800226D01*
X175542795Y-123969744D01*
X175464774Y-124158102D01*
X175425000Y-124358061D01*
X175425000Y-124561939D01*
X175464774Y-124761898D01*
X175525000Y-124907296D01*
X175525001Y-129664058D01*
X175520476Y-129710000D01*
X175538529Y-129893291D01*
X175591135Y-130066707D01*
X175591994Y-130069540D01*
X175678815Y-130231972D01*
X175795657Y-130374344D01*
X175831336Y-130403625D01*
X176022569Y-130594858D01*
X176082795Y-130740256D01*
X176196063Y-130909774D01*
X176340226Y-131053937D01*
X176509744Y-131167205D01*
X176698102Y-131245226D01*
X176898061Y-131285000D01*
X177101939Y-131285000D01*
X177301898Y-131245226D01*
X177490256Y-131167205D01*
X177615000Y-131083854D01*
X177615000Y-131102704D01*
X177554774Y-131248102D01*
X177515000Y-131448061D01*
X177515000Y-131651939D01*
X177554774Y-131851898D01*
X177632795Y-132040256D01*
X177746063Y-132209774D01*
X177890226Y-132353937D01*
X178059744Y-132467205D01*
X178248102Y-132545226D01*
X178448061Y-132585000D01*
X178651939Y-132585000D01*
X178851898Y-132545226D01*
X179040256Y-132467205D01*
X179209774Y-132353937D01*
X179353937Y-132209774D01*
X179467205Y-132040256D01*
X179545226Y-131851898D01*
X179585000Y-131651939D01*
X179585000Y-131448061D01*
X179545226Y-131248102D01*
X179485000Y-131102705D01*
X179485000Y-123826586D01*
X179495226Y-123801898D01*
X179535000Y-123601939D01*
X179535000Y-123398061D01*
X179495226Y-123198102D01*
X179435000Y-123052705D01*
X179435000Y-122177929D01*
X179439524Y-122131997D01*
X179421471Y-121948705D01*
X179405253Y-121895241D01*
X179368007Y-121772458D01*
X179281186Y-121610026D01*
X179164344Y-121467654D01*
X179128665Y-121438373D01*
X172061632Y-114371341D01*
X172032346Y-114335656D01*
X171889974Y-114218814D01*
X171727542Y-114131993D01*
X171551294Y-114078529D01*
X171518246Y-114075274D01*
X171482312Y-114021495D01*
X171268505Y-113807688D01*
X171017095Y-113639701D01*
X170737743Y-113523989D01*
X170441184Y-113465000D01*
X170138816Y-113465000D01*
X169842257Y-113523989D01*
X169562905Y-113639701D01*
X169311495Y-113807688D01*
X169245056Y-113874127D01*
X169239502Y-113855820D01*
X169180537Y-113745506D01*
X169101185Y-113648815D01*
X169004494Y-113569463D01*
X168894180Y-113510498D01*
X168774482Y-113474188D01*
X168650000Y-113461928D01*
X167370360Y-113461928D01*
X167629288Y-113203000D01*
X172387604Y-113203000D01*
X172567241Y-113382637D01*
X172802273Y-113539680D01*
X173063426Y-113647853D01*
X173340665Y-113703000D01*
X173623335Y-113703000D01*
X173900574Y-113647853D01*
X174161727Y-113539680D01*
X174396759Y-113382637D01*
X174596637Y-113182759D01*
X174753680Y-112947727D01*
X174861853Y-112686574D01*
X174917000Y-112409335D01*
X174917000Y-112126665D01*
X174861853Y-111849426D01*
X174753680Y-111588273D01*
X174596637Y-111353241D01*
X174396759Y-111153363D01*
X174161727Y-110996320D01*
X173900574Y-110888147D01*
X173623335Y-110833000D01*
X173340665Y-110833000D01*
X173063426Y-110888147D01*
X172802273Y-110996320D01*
X172567241Y-111153363D01*
X172387604Y-111333000D01*
X167287929Y-111333000D01*
X167241997Y-111328476D01*
X167058705Y-111346529D01*
X167036579Y-111353241D01*
X166882458Y-111399993D01*
X166720026Y-111486814D01*
X166577654Y-111603656D01*
X166548372Y-111639336D01*
X164979336Y-113208373D01*
X164943657Y-113237654D01*
X164826815Y-113380026D01*
X164797711Y-113434476D01*
X164739994Y-113542458D01*
X164686529Y-113718707D01*
X164668476Y-113901998D01*
X164673001Y-113947940D01*
X164673000Y-115619713D01*
X162960055Y-117332658D01*
X162902364Y-117042627D01*
X162769692Y-116722327D01*
X162577081Y-116434065D01*
X162331935Y-116188919D01*
X162043673Y-115996308D01*
X161723373Y-115863636D01*
X161383345Y-115796000D01*
X161036655Y-115796000D01*
X160696627Y-115863636D01*
X160376327Y-115996308D01*
X160088065Y-116188919D01*
X159842919Y-116434065D01*
X159718013Y-116621000D01*
X154446292Y-116621000D01*
X149464632Y-111639341D01*
X149435346Y-111603656D01*
X149292974Y-111486814D01*
X149271000Y-111475069D01*
X149271000Y-109182659D01*
X149463658Y-108990001D01*
X150265928Y-108990001D01*
X150265928Y-111989999D01*
X150282992Y-112163253D01*
X150333529Y-112329850D01*
X150415595Y-112483386D01*
X150526039Y-112617961D01*
X150660614Y-112728405D01*
X150814150Y-112810471D01*
X150980747Y-112861008D01*
X151154001Y-112878072D01*
X154153999Y-112878072D01*
X154327253Y-112861008D01*
X154493850Y-112810471D01*
X154647386Y-112728405D01*
X154781961Y-112617961D01*
X154892405Y-112483386D01*
X154974471Y-112329850D01*
X155025008Y-112163253D01*
X155042072Y-111989999D01*
X155042072Y-111425000D01*
X163804068Y-111425000D01*
X163850000Y-111429524D01*
X163895932Y-111425000D01*
X164033292Y-111411471D01*
X164209540Y-111358007D01*
X164371972Y-111271186D01*
X164514344Y-111154344D01*
X164543630Y-111118659D01*
X166977289Y-108685000D01*
X167231335Y-108685000D01*
X167508574Y-108629853D01*
X167769727Y-108521680D01*
X168004759Y-108364637D01*
X168204637Y-108164759D01*
X168361680Y-107929727D01*
X168469853Y-107668574D01*
X168525000Y-107391335D01*
X168525000Y-107108665D01*
X168469853Y-106831426D01*
X168361680Y-106570273D01*
X168204637Y-106335241D01*
X168004759Y-106135363D01*
X167769727Y-105978320D01*
X167508574Y-105870147D01*
X167231335Y-105815000D01*
X166948665Y-105815000D01*
X166671426Y-105870147D01*
X166410273Y-105978320D01*
X166175241Y-106135363D01*
X165975363Y-106335241D01*
X165818320Y-106570273D01*
X165710147Y-106831426D01*
X165655000Y-107108665D01*
X165655000Y-107362711D01*
X163462711Y-109555000D01*
X155042072Y-109555000D01*
X155042072Y-108990001D01*
X155025008Y-108816747D01*
X154974471Y-108650150D01*
X154892405Y-108496614D01*
X154781961Y-108362039D01*
X154647386Y-108251595D01*
X154493850Y-108169529D01*
X154327253Y-108118992D01*
X154153999Y-108101928D01*
X151154001Y-108101928D01*
X150980747Y-108118992D01*
X150814150Y-108169529D01*
X150660614Y-108251595D01*
X150526039Y-108362039D01*
X150415595Y-108496614D01*
X150333529Y-108650150D01*
X150282992Y-108816747D01*
X150265928Y-108990001D01*
X149463658Y-108990001D01*
X151726659Y-106727000D01*
X151762344Y-106697714D01*
X151879186Y-106555342D01*
X151966007Y-106392910D01*
X152019471Y-106216662D01*
X152033000Y-106079302D01*
X152037524Y-106033370D01*
X152033803Y-105995593D01*
X152212637Y-105816759D01*
X152369680Y-105581727D01*
X152477853Y-105320574D01*
X152533000Y-105043335D01*
X152533000Y-104760665D01*
X152477853Y-104483426D01*
X152375780Y-104236999D01*
X154222710Y-104236999D01*
X155374375Y-105388665D01*
X155403657Y-105424345D01*
X155546029Y-105541187D01*
X155708461Y-105628008D01*
X155831244Y-105665254D01*
X155884708Y-105681472D01*
X156068000Y-105699525D01*
X156113932Y-105695001D01*
X169396712Y-105695001D01*
X174566375Y-110864664D01*
X174595656Y-110900344D01*
X174738028Y-111017186D01*
X174900460Y-111104007D01*
X175023243Y-111141253D01*
X175076707Y-111157471D01*
X175259999Y-111175524D01*
X175305931Y-111171000D01*
X178174711Y-111171000D01*
X183009374Y-116005663D01*
X183038655Y-116041343D01*
X183181027Y-116158185D01*
X183244875Y-116192312D01*
X183343458Y-116245006D01*
X183519707Y-116298471D01*
X183702999Y-116316523D01*
X183748934Y-116311999D01*
X189377710Y-116311999D01*
X189973861Y-116908151D01*
X189930000Y-117128655D01*
X189930000Y-117475345D01*
X189997636Y-117815373D01*
X190130308Y-118135673D01*
X190234763Y-118292001D01*
X184002291Y-118292001D01*
X183406139Y-117695849D01*
X183450000Y-117475345D01*
X183450000Y-117128655D01*
X183382364Y-116788627D01*
X183249692Y-116468327D01*
X183057081Y-116180065D01*
X182811935Y-115934919D01*
X182523673Y-115742308D01*
X182203373Y-115609636D01*
X181863345Y-115542000D01*
X181516655Y-115542000D01*
X181176627Y-115609636D01*
X180856327Y-115742308D01*
X180568065Y-115934919D01*
X180322919Y-116180065D01*
X180130308Y-116468327D01*
X179997636Y-116788627D01*
X179930000Y-117128655D01*
X179930000Y-117475345D01*
X179997636Y-117815373D01*
X180130308Y-118135673D01*
X180322919Y-118423935D01*
X180568065Y-118669081D01*
X180856327Y-118861692D01*
X181176627Y-118994364D01*
X181516655Y-119062000D01*
X181863345Y-119062000D01*
X182083849Y-119018139D01*
X182921375Y-119855665D01*
X182950657Y-119891345D01*
X183093029Y-120008187D01*
X183198881Y-120064766D01*
X183255460Y-120095008D01*
X183431709Y-120148473D01*
X183615001Y-120166525D01*
X183660936Y-120162001D01*
X192568069Y-120162001D01*
X192614001Y-120166525D01*
X192659933Y-120162001D01*
X192797293Y-120148472D01*
X192973541Y-120095008D01*
X193135973Y-120008187D01*
X193278345Y-119891345D01*
X193307631Y-119855660D01*
X195628666Y-117534626D01*
X195664344Y-117505346D01*
X195733236Y-117421400D01*
X200869000Y-117421400D01*
X200869000Y-117930600D01*
X200968340Y-118430017D01*
X201163202Y-118900457D01*
X201446099Y-119323842D01*
X201806158Y-119683901D01*
X202229543Y-119966798D01*
X202699983Y-120161660D01*
X203199400Y-120261000D01*
X203708600Y-120261000D01*
X204208017Y-120161660D01*
X204678457Y-119966798D01*
X205101842Y-119683901D01*
X205461901Y-119323842D01*
X205744798Y-118900457D01*
X205939660Y-118430017D01*
X206039000Y-117930600D01*
X206039000Y-117421400D01*
X205939660Y-116921983D01*
X205744798Y-116451543D01*
X205461901Y-116028158D01*
X205101842Y-115668099D01*
X204678457Y-115385202D01*
X204208017Y-115190340D01*
X203708600Y-115091000D01*
X203199400Y-115091000D01*
X202699983Y-115190340D01*
X202229543Y-115385202D01*
X201806158Y-115668099D01*
X201446099Y-116028158D01*
X201163202Y-116451543D01*
X200968340Y-116921983D01*
X200869000Y-117421400D01*
X195733236Y-117421400D01*
X195781186Y-117362974D01*
X195868007Y-117200542D01*
X195921471Y-117024294D01*
X195935000Y-116886934D01*
X195935000Y-116886933D01*
X195939524Y-116841003D01*
X195935000Y-116795071D01*
X195935000Y-109621400D01*
X200869000Y-109621400D01*
X200869000Y-110130600D01*
X200968340Y-110630017D01*
X201163202Y-111100457D01*
X201446099Y-111523842D01*
X201806158Y-111883901D01*
X202229543Y-112166798D01*
X202699983Y-112361660D01*
X203199400Y-112461000D01*
X203708600Y-112461000D01*
X204208017Y-112361660D01*
X204678457Y-112166798D01*
X205101842Y-111883901D01*
X205461901Y-111523842D01*
X205744798Y-111100457D01*
X205939660Y-110630017D01*
X206039000Y-110130600D01*
X206039000Y-109621400D01*
X205939660Y-109121983D01*
X205744798Y-108651543D01*
X205461901Y-108228158D01*
X205101842Y-107868099D01*
X204678457Y-107585202D01*
X204208017Y-107390340D01*
X203708600Y-107291000D01*
X203199400Y-107291000D01*
X202699983Y-107390340D01*
X202229543Y-107585202D01*
X201806158Y-107868099D01*
X201446099Y-108228158D01*
X201163202Y-108651543D01*
X200968340Y-109121983D01*
X200869000Y-109621400D01*
X195935000Y-109621400D01*
X195935000Y-100171039D01*
X196220096Y-100171039D01*
X196260754Y-100305087D01*
X196380963Y-100559420D01*
X196548481Y-100785414D01*
X196756869Y-100974385D01*
X196998119Y-101119070D01*
X197262960Y-101213909D01*
X197485000Y-101092624D01*
X197485000Y-99949000D01*
X197739000Y-99949000D01*
X197739000Y-101092624D01*
X197961040Y-101213909D01*
X198225881Y-101119070D01*
X198467131Y-100974385D01*
X198557998Y-100891984D01*
X199615000Y-100891984D01*
X199615000Y-101608016D01*
X199754691Y-102310290D01*
X200028705Y-102971818D01*
X200426511Y-103567177D01*
X200932823Y-104073489D01*
X201528182Y-104471295D01*
X202189710Y-104745309D01*
X202891984Y-104885000D01*
X203608016Y-104885000D01*
X204310290Y-104745309D01*
X204971818Y-104471295D01*
X205567177Y-104073489D01*
X206073489Y-103567177D01*
X206471295Y-102971818D01*
X206745309Y-102310290D01*
X206885000Y-101608016D01*
X206885000Y-100891984D01*
X206745309Y-100189710D01*
X206471295Y-99528182D01*
X206073489Y-98932823D01*
X205567177Y-98426511D01*
X204971818Y-98028705D01*
X204310290Y-97754691D01*
X203608016Y-97615000D01*
X202891984Y-97615000D01*
X202189710Y-97754691D01*
X201528182Y-98028705D01*
X200932823Y-98426511D01*
X200426511Y-98932823D01*
X200028705Y-99528182D01*
X199754691Y-100189710D01*
X199615000Y-100891984D01*
X198557998Y-100891984D01*
X198675519Y-100785414D01*
X198843037Y-100559420D01*
X198963246Y-100305087D01*
X199003904Y-100171039D01*
X198881915Y-99949000D01*
X197739000Y-99949000D01*
X197485000Y-99949000D01*
X196342085Y-99949000D01*
X196220096Y-100171039D01*
X195935000Y-100171039D01*
X195935000Y-99472961D01*
X196220096Y-99472961D01*
X196342085Y-99695000D01*
X197485000Y-99695000D01*
X197485000Y-98551376D01*
X197739000Y-98551376D01*
X197739000Y-99695000D01*
X198881915Y-99695000D01*
X199003904Y-99472961D01*
X198963246Y-99338913D01*
X198843037Y-99084580D01*
X198675519Y-98858586D01*
X198467131Y-98669615D01*
X198225881Y-98524930D01*
X197961040Y-98430091D01*
X197739000Y-98551376D01*
X197485000Y-98551376D01*
X197262960Y-98430091D01*
X196998119Y-98524930D01*
X196756869Y-98669615D01*
X196548481Y-98858586D01*
X196380963Y-99084580D01*
X196260754Y-99338913D01*
X196220096Y-99472961D01*
X195935000Y-99472961D01*
X195935000Y-94349039D01*
X196768096Y-94349039D01*
X196808754Y-94483087D01*
X196928963Y-94737420D01*
X197096481Y-94963414D01*
X197304869Y-95152385D01*
X197546119Y-95297070D01*
X197810960Y-95391909D01*
X198033000Y-95270624D01*
X198033000Y-94127000D01*
X198287000Y-94127000D01*
X198287000Y-95270624D01*
X198509040Y-95391909D01*
X198773881Y-95297070D01*
X199015131Y-95152385D01*
X199223519Y-94963414D01*
X199391037Y-94737420D01*
X199511246Y-94483087D01*
X199551904Y-94349039D01*
X199429915Y-94127000D01*
X198287000Y-94127000D01*
X198033000Y-94127000D01*
X196890085Y-94127000D01*
X196768096Y-94349039D01*
X195935000Y-94349039D01*
X195935000Y-93650961D01*
X196768096Y-93650961D01*
X196890085Y-93873000D01*
X198033000Y-93873000D01*
X198033000Y-92729376D01*
X198287000Y-92729376D01*
X198287000Y-93873000D01*
X199429915Y-93873000D01*
X199551904Y-93650961D01*
X199511246Y-93516913D01*
X199391037Y-93262580D01*
X199223519Y-93036586D01*
X199015131Y-92847615D01*
X198773881Y-92702930D01*
X198509040Y-92608091D01*
X198287000Y-92729376D01*
X198033000Y-92729376D01*
X197810960Y-92608091D01*
X197546119Y-92702930D01*
X197304869Y-92847615D01*
X197096481Y-93036586D01*
X196928963Y-93262580D01*
X196808754Y-93516913D01*
X196768096Y-93650961D01*
X195935000Y-93650961D01*
X195935000Y-88178806D01*
X196004842Y-88108964D01*
X196161885Y-87873932D01*
X196270058Y-87612779D01*
X196325205Y-87335540D01*
X196325205Y-87052870D01*
X196270058Y-86775631D01*
X196161885Y-86514478D01*
X196004842Y-86279446D01*
X195804964Y-86079568D01*
X195569932Y-85922525D01*
X195308779Y-85814352D01*
X195031540Y-85759205D01*
X194748870Y-85759205D01*
X194471631Y-85814352D01*
X194210478Y-85922525D01*
X193975446Y-86079568D01*
X193775568Y-86279446D01*
X193618525Y-86514478D01*
X193510352Y-86775631D01*
X193455205Y-87052870D01*
X193455205Y-87335540D01*
X193510352Y-87612779D01*
X193618525Y-87873932D01*
X193775568Y-88108964D01*
X193975446Y-88308842D01*
X194065001Y-88368681D01*
X194065000Y-116453712D01*
X193440055Y-117078658D01*
X193382364Y-116788627D01*
X193249692Y-116468327D01*
X193057081Y-116180065D01*
X192811935Y-115934919D01*
X192523673Y-115742308D01*
X192203373Y-115609636D01*
X191863345Y-115542000D01*
X191516655Y-115542000D01*
X191296151Y-115585861D01*
X190458629Y-114748340D01*
X190429343Y-114712655D01*
X190286971Y-114595813D01*
X190124539Y-114508992D01*
X189948291Y-114455528D01*
X189810931Y-114441999D01*
X189764999Y-114437475D01*
X189719067Y-114441999D01*
X184090289Y-114441999D01*
X183314199Y-113665909D01*
X183500665Y-113703000D01*
X183783335Y-113703000D01*
X184060574Y-113647853D01*
X184321727Y-113539680D01*
X184556759Y-113382637D01*
X184756637Y-113182759D01*
X184913680Y-112947727D01*
X185021853Y-112686574D01*
X185077000Y-112409335D01*
X185077000Y-112126665D01*
X185021853Y-111849426D01*
X184913680Y-111588273D01*
X184756637Y-111353241D01*
X184556759Y-111153363D01*
X184321727Y-110996320D01*
X184060574Y-110888147D01*
X183783335Y-110833000D01*
X183500665Y-110833000D01*
X183223426Y-110888147D01*
X182962273Y-110996320D01*
X182727241Y-111153363D01*
X182527363Y-111353241D01*
X182370320Y-111588273D01*
X182262147Y-111849426D01*
X182207000Y-112126665D01*
X182207000Y-112409335D01*
X182244091Y-112595801D01*
X179255630Y-109607341D01*
X179226344Y-109571656D01*
X179083972Y-109454814D01*
X178921540Y-109367993D01*
X178745292Y-109314529D01*
X178607932Y-109301000D01*
X178562000Y-109296476D01*
X178516068Y-109301000D01*
X175647290Y-109301000D01*
X170477631Y-104131342D01*
X170448345Y-104095657D01*
X170305973Y-103978815D01*
X170143541Y-103891994D01*
X169967293Y-103838530D01*
X169829933Y-103825001D01*
X169784001Y-103820477D01*
X169738069Y-103825001D01*
X156455291Y-103825001D01*
X155303629Y-102673340D01*
X155274343Y-102637655D01*
X155131971Y-102520813D01*
X154969539Y-102433992D01*
X154793291Y-102380528D01*
X154655931Y-102366999D01*
X154609999Y-102362475D01*
X154564067Y-102366999D01*
X149145290Y-102366999D01*
X151877289Y-99635000D01*
X152125486Y-99635000D01*
X151993241Y-99723363D01*
X151793363Y-99923241D01*
X151636320Y-100158273D01*
X151528147Y-100419426D01*
X151473000Y-100696665D01*
X151473000Y-100979335D01*
X151528147Y-101256574D01*
X151636320Y-101517727D01*
X151793363Y-101752759D01*
X151993241Y-101952637D01*
X152228273Y-102109680D01*
X152489426Y-102217853D01*
X152766665Y-102273000D01*
X153049335Y-102273000D01*
X153326574Y-102217853D01*
X153587727Y-102109680D01*
X153822759Y-101952637D01*
X154002396Y-101773000D01*
X170842709Y-101773000D01*
X172538369Y-103468660D01*
X172567655Y-103504345D01*
X172710027Y-103621187D01*
X172872459Y-103708008D01*
X173048707Y-103761472D01*
X173231999Y-103779525D01*
X173277931Y-103775001D01*
X179974067Y-103775001D01*
X180019999Y-103779525D01*
X180065931Y-103775001D01*
X180203291Y-103761472D01*
X180379539Y-103708008D01*
X180541971Y-103621187D01*
X180684343Y-103504345D01*
X180713629Y-103468660D01*
X181507290Y-102675000D01*
X181761335Y-102675000D01*
X182038574Y-102619853D01*
X182299727Y-102511680D01*
X182534759Y-102354637D01*
X182734637Y-102154759D01*
X182891680Y-101919727D01*
X182999853Y-101658574D01*
X183042398Y-101444687D01*
X187912711Y-106315000D01*
X178344396Y-106315000D01*
X178164759Y-106135363D01*
X177929727Y-105978320D01*
X177668574Y-105870147D01*
X177391335Y-105815000D01*
X177108665Y-105815000D01*
X176831426Y-105870147D01*
X176570273Y-105978320D01*
X176335241Y-106135363D01*
X176135363Y-106335241D01*
X175978320Y-106570273D01*
X175870147Y-106831426D01*
X175815000Y-107108665D01*
X175815000Y-107391335D01*
X175870147Y-107668574D01*
X175978320Y-107929727D01*
X176135363Y-108164759D01*
X176335241Y-108364637D01*
X176570273Y-108521680D01*
X176831426Y-108629853D01*
X177108665Y-108685000D01*
X177391335Y-108685000D01*
X177668574Y-108629853D01*
X177929727Y-108521680D01*
X178164759Y-108364637D01*
X178344396Y-108185000D01*
X188111928Y-108185000D01*
X188111928Y-108687999D01*
X188128992Y-108861253D01*
X188179529Y-109027850D01*
X188261595Y-109181386D01*
X188372039Y-109315961D01*
X188506614Y-109426405D01*
X188660150Y-109508471D01*
X188826747Y-109559008D01*
X189000001Y-109576072D01*
X191999999Y-109576072D01*
X192173253Y-109559008D01*
X192339850Y-109508471D01*
X192493386Y-109426405D01*
X192627961Y-109315961D01*
X192738405Y-109181386D01*
X192820471Y-109027850D01*
X192871008Y-108861253D01*
X192888072Y-108687999D01*
X192888072Y-105688001D01*
X192871008Y-105514747D01*
X192820471Y-105348150D01*
X192738405Y-105194614D01*
X192627961Y-105060039D01*
X192493386Y-104949595D01*
X192339850Y-104867529D01*
X192173253Y-104816992D01*
X191999999Y-104799928D01*
X189042217Y-104799928D01*
X183055000Y-98812711D01*
X183055000Y-98558665D01*
X182999853Y-98281426D01*
X182891680Y-98020273D01*
X182734637Y-97785241D01*
X182534759Y-97585363D01*
X182302241Y-97430000D01*
X182534759Y-97274637D01*
X182714396Y-97095000D01*
X183402711Y-97095000D01*
X186017000Y-99709290D01*
X186017000Y-99963335D01*
X186072147Y-100240574D01*
X186180320Y-100501727D01*
X186337363Y-100736759D01*
X186537241Y-100936637D01*
X186772273Y-101093680D01*
X187033426Y-101201853D01*
X187310665Y-101257000D01*
X187593335Y-101257000D01*
X187870574Y-101201853D01*
X188131727Y-101093680D01*
X188366759Y-100936637D01*
X188566637Y-100736759D01*
X188723680Y-100501727D01*
X188831853Y-100240574D01*
X188887000Y-99963335D01*
X188887000Y-99680665D01*
X188831853Y-99403426D01*
X188723680Y-99142273D01*
X188566637Y-98907241D01*
X188366759Y-98707363D01*
X188131727Y-98550320D01*
X187870574Y-98442147D01*
X187593335Y-98387000D01*
X187339290Y-98387000D01*
X184483630Y-95531341D01*
X184454344Y-95495656D01*
X184311972Y-95378814D01*
X184149540Y-95291993D01*
X183973292Y-95238529D01*
X183835932Y-95225000D01*
X183790000Y-95220476D01*
X183744068Y-95225000D01*
X182714396Y-95225000D01*
X182534759Y-95045363D01*
X182302241Y-94890000D01*
X182534759Y-94734637D01*
X182734637Y-94534759D01*
X182891680Y-94299727D01*
X182999853Y-94038574D01*
X183042398Y-93824687D01*
X183846370Y-94628659D01*
X183875656Y-94664344D01*
X184018028Y-94781186D01*
X184116326Y-94833727D01*
X184180459Y-94868007D01*
X184356708Y-94921472D01*
X184540000Y-94939524D01*
X184585935Y-94935000D01*
X186905604Y-94935000D01*
X187085241Y-95114637D01*
X187320273Y-95271680D01*
X187581426Y-95379853D01*
X187858665Y-95435000D01*
X188141335Y-95435000D01*
X188418574Y-95379853D01*
X188679727Y-95271680D01*
X188914759Y-95114637D01*
X189114637Y-94914759D01*
X189271680Y-94679727D01*
X189379853Y-94418574D01*
X189435000Y-94141335D01*
X189435000Y-93858665D01*
X189379853Y-93581426D01*
X189271680Y-93320273D01*
X189114637Y-93085241D01*
X188914759Y-92885363D01*
X188679727Y-92728320D01*
X188418574Y-92620147D01*
X188141335Y-92565000D01*
X187858665Y-92565000D01*
X187581426Y-92620147D01*
X187320273Y-92728320D01*
X187085241Y-92885363D01*
X186905604Y-93065000D01*
X184927289Y-93065000D01*
X183055000Y-91192711D01*
X183055000Y-90938665D01*
X182999853Y-90661426D01*
X182891680Y-90400273D01*
X182734637Y-90165241D01*
X182534759Y-89965363D01*
X182302241Y-89810000D01*
X182534759Y-89654637D01*
X182714396Y-89475000D01*
X184210068Y-89475000D01*
X184256000Y-89479524D01*
X184301932Y-89475000D01*
X184439292Y-89461471D01*
X184615540Y-89408007D01*
X184777972Y-89321186D01*
X184920344Y-89204344D01*
X185037186Y-89061972D01*
X185124007Y-88899540D01*
X185177471Y-88723292D01*
X185195524Y-88540000D01*
X185191000Y-88494068D01*
X185191000Y-80998396D01*
X185244396Y-80945000D01*
X186611604Y-80945000D01*
X186791241Y-81124637D01*
X187026273Y-81281680D01*
X187287426Y-81389853D01*
X187564665Y-81445000D01*
X187847335Y-81445000D01*
X188124574Y-81389853D01*
X188385727Y-81281680D01*
X188620759Y-81124637D01*
X188820637Y-80924759D01*
X188977680Y-80689727D01*
X189085853Y-80428574D01*
X189141000Y-80151335D01*
X189141000Y-79868665D01*
X189085853Y-79591426D01*
X188977680Y-79330273D01*
X188820637Y-79095241D01*
X188620759Y-78895363D01*
X188385727Y-78738320D01*
X188124574Y-78630147D01*
X187847335Y-78575000D01*
X187564665Y-78575000D01*
X187287426Y-78630147D01*
X187026273Y-78738320D01*
X186791241Y-78895363D01*
X186611604Y-79075000D01*
X185244396Y-79075000D01*
X185064759Y-78895363D01*
X184829727Y-78738320D01*
X184568574Y-78630147D01*
X184291335Y-78575000D01*
X184008665Y-78575000D01*
X183731426Y-78630147D01*
X183470273Y-78738320D01*
X183235241Y-78895363D01*
X183035363Y-79095241D01*
X182878320Y-79330273D01*
X182770147Y-79591426D01*
X182715000Y-79868665D01*
X182715000Y-80151335D01*
X182770147Y-80428574D01*
X182878320Y-80689727D01*
X183035363Y-80924759D01*
X183235241Y-81124637D01*
X183321001Y-81181940D01*
X183321000Y-87605000D01*
X182714396Y-87605000D01*
X182534759Y-87425363D01*
X182302241Y-87270000D01*
X182534759Y-87114637D01*
X182734637Y-86914759D01*
X182891680Y-86679727D01*
X182999853Y-86418574D01*
X183055000Y-86141335D01*
X183055000Y-85858665D01*
X182999853Y-85581426D01*
X182891680Y-85320273D01*
X182734637Y-85085241D01*
X182534759Y-84885363D01*
X182299727Y-84728320D01*
X182038574Y-84620147D01*
X181761335Y-84565000D01*
X181507290Y-84565000D01*
X176323630Y-79381341D01*
X176294344Y-79345656D01*
X176151972Y-79228814D01*
X175989540Y-79141993D01*
X175813292Y-79088529D01*
X175675932Y-79075000D01*
X175630000Y-79070476D01*
X175584068Y-79075000D01*
X175084396Y-79075000D01*
X174904759Y-78895363D01*
X174669727Y-78738320D01*
X174408574Y-78630147D01*
X174131335Y-78575000D01*
X173877290Y-78575000D01*
X171435000Y-76132711D01*
X171435000Y-75922621D01*
X171544180Y-75889502D01*
X171654494Y-75830537D01*
X171751185Y-75751185D01*
X171764790Y-75734607D01*
X171820273Y-75771680D01*
X172081426Y-75879853D01*
X172358665Y-75935000D01*
X172641335Y-75935000D01*
X172918574Y-75879853D01*
X173179727Y-75771680D01*
X173414759Y-75614637D01*
X173594396Y-75435000D01*
X178611928Y-75435000D01*
X178611928Y-75999999D01*
X178628992Y-76173253D01*
X178679529Y-76339850D01*
X178761595Y-76493386D01*
X178872039Y-76627961D01*
X179006614Y-76738405D01*
X179160150Y-76820471D01*
X179326747Y-76871008D01*
X179500001Y-76888072D01*
X182499999Y-76888072D01*
X182673253Y-76871008D01*
X182839850Y-76820471D01*
X182993386Y-76738405D01*
X183127961Y-76627961D01*
X183238405Y-76493386D01*
X183320471Y-76339850D01*
X183371008Y-76173253D01*
X183388072Y-75999999D01*
X183388072Y-73000001D01*
X183371008Y-72826747D01*
X183320471Y-72660150D01*
X183238405Y-72506614D01*
X183127961Y-72372039D01*
X182993386Y-72261595D01*
X182839850Y-72179529D01*
X182673253Y-72128992D01*
X182499999Y-72111928D01*
X179500001Y-72111928D01*
X179326747Y-72128992D01*
X179160150Y-72179529D01*
X179006614Y-72261595D01*
X178872039Y-72372039D01*
X178761595Y-72506614D01*
X178679529Y-72660150D01*
X178628992Y-72826747D01*
X178611928Y-73000001D01*
X178611928Y-73565000D01*
X173594396Y-73565000D01*
X173414759Y-73385363D01*
X173179727Y-73228320D01*
X172918574Y-73120147D01*
X172641335Y-73065000D01*
X172358665Y-73065000D01*
X172081426Y-73120147D01*
X171820273Y-73228320D01*
X171764790Y-73265393D01*
X171751185Y-73248815D01*
X171654494Y-73169463D01*
X171544180Y-73110498D01*
X171424482Y-73074188D01*
X171300000Y-73061928D01*
X169700000Y-73061928D01*
X169575518Y-73074188D01*
X169455820Y-73110498D01*
X169345506Y-73169463D01*
X169248815Y-73248815D01*
X169169463Y-73345506D01*
X169110498Y-73455820D01*
X169074188Y-73575518D01*
X169061928Y-73700000D01*
X169061928Y-74985258D01*
X169060476Y-75000000D01*
X169061928Y-75014742D01*
X169061928Y-75300000D01*
X169074188Y-75424482D01*
X169110498Y-75544180D01*
X169169463Y-75654494D01*
X169248815Y-75751185D01*
X169345506Y-75830537D01*
X169455820Y-75889502D01*
X169565001Y-75922622D01*
X169565001Y-76474058D01*
X169560476Y-76520000D01*
X169578529Y-76703291D01*
X169627087Y-76863363D01*
X169631994Y-76879540D01*
X169718815Y-77041972D01*
X169835657Y-77184344D01*
X169871336Y-77213625D01*
X170611008Y-77953297D01*
X170598574Y-77948147D01*
X170321335Y-77893000D01*
X170038665Y-77893000D01*
X169761426Y-77948147D01*
X169500273Y-78056320D01*
X169265241Y-78213363D01*
X169065363Y-78413241D01*
X168908320Y-78648273D01*
X168800147Y-78909426D01*
X168745000Y-79186665D01*
X168745000Y-79440711D01*
X168520710Y-79665001D01*
X167437780Y-79665001D01*
X167539853Y-79418574D01*
X167595000Y-79141335D01*
X167595000Y-78858665D01*
X167539853Y-78581426D01*
X167431680Y-78320273D01*
X167274637Y-78085241D01*
X167074759Y-77885363D01*
X166839727Y-77728320D01*
X166578574Y-77620147D01*
X166301335Y-77565000D01*
X166018665Y-77565000D01*
X165741426Y-77620147D01*
X165480273Y-77728320D01*
X165245241Y-77885363D01*
X165045363Y-78085241D01*
X164888320Y-78320273D01*
X164780147Y-78581426D01*
X164725000Y-78858665D01*
X164725000Y-79141335D01*
X164780147Y-79418574D01*
X164882220Y-79665001D01*
X157987291Y-79665001D01*
X157435000Y-79112711D01*
X157435000Y-78858665D01*
X157379853Y-78581426D01*
X157271680Y-78320273D01*
X157114637Y-78085241D01*
X156964396Y-77935000D01*
X159204068Y-77935000D01*
X159250000Y-77939524D01*
X159295932Y-77935000D01*
X159433292Y-77921471D01*
X159609540Y-77868007D01*
X159771972Y-77781186D01*
X159914344Y-77664344D01*
X159943630Y-77628659D01*
X162434217Y-75138072D01*
X164999999Y-75138072D01*
X165173253Y-75121008D01*
X165339850Y-75070471D01*
X165493386Y-74988405D01*
X165627961Y-74877961D01*
X165738405Y-74743386D01*
X165820471Y-74589850D01*
X165871008Y-74423253D01*
X165888072Y-74249999D01*
X165888072Y-71250001D01*
X165871008Y-71076747D01*
X165820471Y-70910150D01*
X165738405Y-70756614D01*
X165627961Y-70622039D01*
X165493386Y-70511595D01*
X165339850Y-70429529D01*
X165173253Y-70378992D01*
X164999999Y-70361928D01*
X162000001Y-70361928D01*
X161826747Y-70378992D01*
X161660150Y-70429529D01*
X161506614Y-70511595D01*
X161372039Y-70622039D01*
X161261595Y-70756614D01*
X161179529Y-70910150D01*
X161128992Y-71076747D01*
X161111928Y-71250001D01*
X161111928Y-73815783D01*
X158862711Y-76065000D01*
X152357454Y-76065000D01*
X152339502Y-76005820D01*
X152280537Y-75895506D01*
X152201185Y-75798815D01*
X152104494Y-75719463D01*
X151994180Y-75660498D01*
X151874482Y-75624188D01*
X151750000Y-75611928D01*
X150250000Y-75611928D01*
X150125518Y-75624188D01*
X150005820Y-75660498D01*
X149895506Y-75719463D01*
X149798815Y-75798815D01*
X149719463Y-75895506D01*
X149660498Y-76005820D01*
X149642546Y-76065000D01*
X147835932Y-76065000D01*
X147790000Y-76060476D01*
X147744068Y-76065000D01*
X147606708Y-76078529D01*
X147430460Y-76131993D01*
X147268028Y-76218814D01*
X147125656Y-76335656D01*
X147096370Y-76371341D01*
X146924711Y-76543000D01*
X146670665Y-76543000D01*
X146393426Y-76598147D01*
X146132273Y-76706320D01*
X145897241Y-76863363D01*
X145697363Y-77063241D01*
X145540320Y-77298273D01*
X145432147Y-77559426D01*
X145377000Y-77836665D01*
X145377000Y-78119335D01*
X145432147Y-78396574D01*
X145540320Y-78657727D01*
X145697363Y-78892759D01*
X145897241Y-79092637D01*
X146132273Y-79249680D01*
X146393426Y-79357853D01*
X146670665Y-79413000D01*
X146953335Y-79413000D01*
X147230574Y-79357853D01*
X147491727Y-79249680D01*
X147726759Y-79092637D01*
X147926637Y-78892759D01*
X148083680Y-78657727D01*
X148191853Y-78396574D01*
X148247000Y-78119335D01*
X148247000Y-77935000D01*
X149642546Y-77935000D01*
X149660498Y-77994180D01*
X149719463Y-78104494D01*
X149798815Y-78201185D01*
X149895506Y-78280537D01*
X150005820Y-78339502D01*
X150125518Y-78375812D01*
X150233483Y-78386445D01*
X150117114Y-78464201D01*
X149924201Y-78657114D01*
X149772629Y-78883957D01*
X149668225Y-79136011D01*
X149615000Y-79403589D01*
X149615000Y-79676411D01*
X149668225Y-79943989D01*
X149772629Y-80196043D01*
X149924201Y-80422886D01*
X150117114Y-80615799D01*
X150343957Y-80767371D01*
X150446873Y-80810000D01*
X150343957Y-80852629D01*
X150117114Y-81004201D01*
X149976315Y-81145000D01*
X142755931Y-81145000D01*
X142709999Y-81140476D01*
X142526707Y-81158529D01*
X142475730Y-81173993D01*
X142350460Y-81211993D01*
X142188028Y-81298814D01*
X142045656Y-81415656D01*
X142016374Y-81451336D01*
X139740506Y-83727205D01*
X139515084Y-83727205D01*
X138067790Y-82279911D01*
X138087000Y-82183335D01*
X138087000Y-81900665D01*
X138031853Y-81623426D01*
X137923680Y-81362273D01*
X137766637Y-81127241D01*
X137566759Y-80927363D01*
X137331727Y-80770320D01*
X137070574Y-80662147D01*
X136793335Y-80607000D01*
X136510665Y-80607000D01*
X136233426Y-80662147D01*
X135972273Y-80770320D01*
X135737241Y-80927363D01*
X135537363Y-81127241D01*
X135380320Y-81362273D01*
X135272147Y-81623426D01*
X135217000Y-81900665D01*
X135217000Y-82183335D01*
X135272147Y-82460574D01*
X135380320Y-82721727D01*
X135537363Y-82956759D01*
X135737241Y-83156637D01*
X135972273Y-83313680D01*
X136233426Y-83421853D01*
X136510665Y-83477000D01*
X136620301Y-83477000D01*
X137370506Y-84227205D01*
X136783726Y-84227205D01*
X136737794Y-84222681D01*
X136554502Y-84240734D01*
X136532376Y-84247446D01*
X136378255Y-84294198D01*
X136215823Y-84381019D01*
X136073451Y-84497861D01*
X136044171Y-84533539D01*
X133112711Y-87465000D01*
X132858665Y-87465000D01*
X132581426Y-87520147D01*
X132320273Y-87628320D01*
X132085241Y-87785363D01*
X131885363Y-87985241D01*
X131728320Y-88220273D01*
X131620147Y-88481426D01*
X131565000Y-88758665D01*
X128143000Y-88758665D01*
X128143000Y-83872542D01*
X132949520Y-79057804D01*
X137496588Y-74716460D01*
X142401205Y-74716460D01*
X142401205Y-74999130D01*
X142456352Y-75276369D01*
X142564525Y-75537522D01*
X142721568Y-75772554D01*
X142921446Y-75972432D01*
X143156478Y-76129475D01*
X143417631Y-76237648D01*
X143694870Y-76292795D01*
X143977540Y-76292795D01*
X144254779Y-76237648D01*
X144515932Y-76129475D01*
X144750964Y-75972432D01*
X144950842Y-75772554D01*
X145107885Y-75537522D01*
X145216058Y-75276369D01*
X145271205Y-74999130D01*
X145271205Y-74716460D01*
X145216058Y-74439221D01*
X145107885Y-74178068D01*
X144950842Y-73943036D01*
X144750964Y-73743158D01*
X144515932Y-73586115D01*
X144254779Y-73477942D01*
X143977540Y-73422795D01*
X143694870Y-73422795D01*
X143417631Y-73477942D01*
X143156478Y-73586115D01*
X142921446Y-73743158D01*
X142721568Y-73943036D01*
X142564525Y-74178068D01*
X142456352Y-74439221D01*
X142401205Y-74716460D01*
X137496588Y-74716460D01*
X140716754Y-71641984D01*
X149115000Y-71641984D01*
X149115000Y-72358016D01*
X149254691Y-73060290D01*
X149528705Y-73721818D01*
X149926511Y-74317177D01*
X150432823Y-74823489D01*
X151028182Y-75221295D01*
X151689710Y-75495309D01*
X152391984Y-75635000D01*
X153108016Y-75635000D01*
X153810290Y-75495309D01*
X154471818Y-75221295D01*
X155067177Y-74823489D01*
X155573489Y-74317177D01*
X155971295Y-73721818D01*
X156245309Y-73060290D01*
X156385000Y-72358016D01*
X156385000Y-71641984D01*
X156245309Y-70939710D01*
X155971295Y-70278182D01*
X155573489Y-69682823D01*
X155067177Y-69176511D01*
X154471818Y-68778705D01*
X153810290Y-68504691D01*
X153108016Y-68365000D01*
X152391984Y-68365000D01*
X151689710Y-68504691D01*
X151028182Y-68778705D01*
X150432823Y-69176511D01*
X149926511Y-69682823D01*
X149528705Y-70278182D01*
X149254691Y-70939710D01*
X149115000Y-71641984D01*
X140716754Y-71641984D01*
X144322892Y-68199000D01*
X183836191Y-68199000D01*
X209373000Y-99105680D01*
G37*
%TD.AperFunction*%
%TD*%
M02*
