%TF.GenerationSoftware,KiCad,Pcbnew,(5.1.12)-1*%
%TF.CreationDate,2022-05-06T09:07:05-07:00*%
%TF.ProjectId,HarmonicTremolo_V01,4861726d-6f6e-4696-9354-72656d6f6c6f,rev?*%
%TF.SameCoordinates,Original*%
%TF.FileFunction,Soldermask,Bot*%
%TF.FilePolarity,Negative*%
%FSLAX46Y46*%
G04 Gerber Fmt 4.6, Leading zero omitted, Abs format (unit mm)*
G04 Created by KiCad (PCBNEW (5.1.12)-1) date 2022-05-06 09:07:05*
%MOMM*%
%LPD*%
G01*
G04 APERTURE LIST*
%ADD10R,0.900000X1.200000*%
%ADD11C,1.600000*%
%ADD12R,1.600000X1.600000*%
%ADD13C,3.900000*%
%ADD14C,2.250000*%
%ADD15R,1.800000X1.800000*%
%ADD16C,1.800000*%
%ADD17C,1.500000*%
%ADD18R,1.500000X1.500000*%
%ADD19O,1.600000X1.600000*%
%ADD20C,6.000000*%
%ADD21C,3.400000*%
G04 APERTURE END LIST*
D10*
%TO.C,D1*%
X157350000Y-131500000D03*
X160650000Y-131500000D03*
%TD*%
%TO.C,R17*%
G36*
G01*
X196986999Y-116978000D02*
X198237001Y-116978000D01*
G75*
G02*
X198487000Y-117227999I0J-249999D01*
G01*
X198487000Y-118028001D01*
G75*
G02*
X198237001Y-118278000I-249999J0D01*
G01*
X196986999Y-118278000D01*
G75*
G02*
X196737000Y-118028001I0J249999D01*
G01*
X196737000Y-117227999D01*
G75*
G02*
X196986999Y-116978000I249999J0D01*
G01*
G37*
G36*
G01*
X196986999Y-113878000D02*
X198237001Y-113878000D01*
G75*
G02*
X198487000Y-114127999I0J-249999D01*
G01*
X198487000Y-114928001D01*
G75*
G02*
X198237001Y-115178000I-249999J0D01*
G01*
X196986999Y-115178000D01*
G75*
G02*
X196737000Y-114928001I0J249999D01*
G01*
X196737000Y-114127999D01*
G75*
G02*
X196986999Y-113878000I249999J0D01*
G01*
G37*
%TD*%
D11*
%TO.C,C2*%
X170180000Y-84328000D03*
X170180000Y-79328000D03*
%TD*%
%TO.C,C8*%
X137668000Y-89154000D03*
X137668000Y-94154000D03*
%TD*%
%TO.C,C5*%
X140756000Y-127000000D03*
D12*
X143256000Y-127000000D03*
%TD*%
D13*
%TO.C,Intensity1*%
X203454000Y-109876000D03*
X203454000Y-117676000D03*
G36*
G01*
X205153999Y-127426000D02*
X201754001Y-127426000D01*
G75*
G02*
X201504000Y-127175999I0J250001D01*
G01*
X201504000Y-123776001D01*
G75*
G02*
X201754001Y-123526000I250001J0D01*
G01*
X205153999Y-123526000D01*
G75*
G02*
X205404000Y-123776001I0J-250001D01*
G01*
X205404000Y-127175999D01*
G75*
G02*
X205153999Y-127426000I-250001J0D01*
G01*
G37*
%TD*%
%TO.C,Rate1*%
X133096000Y-106574000D03*
X133096000Y-114374000D03*
G36*
G01*
X134795999Y-124124000D02*
X131396001Y-124124000D01*
G75*
G02*
X131146000Y-123873999I0J250001D01*
G01*
X131146000Y-120474001D01*
G75*
G02*
X131396001Y-120224000I250001J0D01*
G01*
X134795999Y-120224000D01*
G75*
G02*
X135046000Y-120474001I0J-250001D01*
G01*
X135046000Y-123873999D01*
G75*
G02*
X134795999Y-124124000I-250001J0D01*
G01*
G37*
%TD*%
D14*
%TO.C,U4*%
X191690000Y-117302000D03*
X181690000Y-117302000D03*
X191770000Y-143302000D03*
X181690000Y-143302000D03*
%TD*%
%TO.C,U5*%
X161210000Y-117556000D03*
X151210000Y-117556000D03*
X161290000Y-143556000D03*
X151210000Y-143556000D03*
%TD*%
D11*
%TO.C,C1*%
X133000000Y-93900000D03*
X133000000Y-88900000D03*
%TD*%
%TO.C,C3*%
X172500000Y-74500000D03*
D12*
X170500000Y-74500000D03*
%TD*%
D11*
%TO.C,C4*%
X169000000Y-120000000D03*
X174000000Y-120000000D03*
%TD*%
D12*
%TO.C,C6*%
X144780000Y-118364000D03*
D11*
X146780000Y-118364000D03*
%TD*%
D12*
%TO.C,C7*%
X196250000Y-123250000D03*
D11*
X196250000Y-121250000D03*
%TD*%
D15*
%TO.C,D2*%
X167750000Y-115000000D03*
D16*
X170290000Y-115000000D03*
%TD*%
%TO.C,J1*%
G36*
G01*
X137696000Y-107671999D02*
X137696000Y-104672001D01*
G75*
G02*
X137946001Y-104422000I250001J0D01*
G01*
X140945999Y-104422000D01*
G75*
G02*
X141196000Y-104672001I0J-250001D01*
G01*
X141196000Y-107671999D01*
G75*
G02*
X140945999Y-107922000I-250001J0D01*
G01*
X137946001Y-107922000D01*
G75*
G02*
X137696000Y-107671999I0J250001D01*
G01*
G37*
%TD*%
%TO.C,J2*%
G36*
G01*
X150904000Y-111989999D02*
X150904000Y-108990001D01*
G75*
G02*
X151154001Y-108740000I250001J0D01*
G01*
X154153999Y-108740000D01*
G75*
G02*
X154404000Y-108990001I0J-250001D01*
G01*
X154404000Y-111989999D01*
G75*
G02*
X154153999Y-112240000I-250001J0D01*
G01*
X151154001Y-112240000D01*
G75*
G02*
X150904000Y-111989999I0J250001D01*
G01*
G37*
%TD*%
%TO.C,J3*%
G36*
G01*
X188750000Y-108687999D02*
X188750000Y-105688001D01*
G75*
G02*
X189000001Y-105438000I250001J0D01*
G01*
X191999999Y-105438000D01*
G75*
G02*
X192250000Y-105688001I0J-250001D01*
G01*
X192250000Y-108687999D01*
G75*
G02*
X191999999Y-108938000I-250001J0D01*
G01*
X189000001Y-108938000D01*
G75*
G02*
X188750000Y-108687999I0J250001D01*
G01*
G37*
%TD*%
%TO.C,J4*%
G36*
G01*
X140744000Y-114021999D02*
X140744000Y-111022001D01*
G75*
G02*
X140994001Y-110772000I250001J0D01*
G01*
X143993999Y-110772000D01*
G75*
G02*
X144244000Y-111022001I0J-250001D01*
G01*
X144244000Y-114021999D01*
G75*
G02*
X143993999Y-114272000I-250001J0D01*
G01*
X140994001Y-114272000D01*
G75*
G02*
X140744000Y-114021999I0J250001D01*
G01*
G37*
%TD*%
%TO.C,J5*%
G36*
G01*
X131250000Y-100813999D02*
X131250000Y-97814001D01*
G75*
G02*
X131500001Y-97564000I250001J0D01*
G01*
X134499999Y-97564000D01*
G75*
G02*
X134750000Y-97814001I0J-250001D01*
G01*
X134750000Y-100813999D01*
G75*
G02*
X134499999Y-101064000I-250001J0D01*
G01*
X131500001Y-101064000D01*
G75*
G02*
X131250000Y-100813999I0J250001D01*
G01*
G37*
%TD*%
%TO.C,J6*%
G36*
G01*
X179250000Y-75999999D02*
X179250000Y-73000001D01*
G75*
G02*
X179500001Y-72750000I250001J0D01*
G01*
X182499999Y-72750000D01*
G75*
G02*
X182750000Y-73000001I0J-250001D01*
G01*
X182750000Y-75999999D01*
G75*
G02*
X182499999Y-76250000I-250001J0D01*
G01*
X179500001Y-76250000D01*
G75*
G02*
X179250000Y-75999999I0J250001D01*
G01*
G37*
%TD*%
%TO.C,J7*%
G36*
G01*
X161750000Y-74249999D02*
X161750000Y-71250001D01*
G75*
G02*
X162000001Y-71000000I250001J0D01*
G01*
X164999999Y-71000000D01*
G75*
G02*
X165250000Y-71250001I0J-250001D01*
G01*
X165250000Y-74249999D01*
G75*
G02*
X164999999Y-74500000I-250001J0D01*
G01*
X162000001Y-74500000D01*
G75*
G02*
X161750000Y-74249999I0J250001D01*
G01*
G37*
%TD*%
D17*
%TO.C,Q1*%
X151000000Y-79540000D03*
X151000000Y-82080000D03*
D18*
X151000000Y-77000000D03*
%TD*%
D19*
%TO.C,R1*%
X152908000Y-90678000D03*
D11*
X152908000Y-100838000D03*
%TD*%
%TO.C,R2*%
G36*
G01*
X140193480Y-84596520D02*
X140193480Y-84596520D01*
G75*
G02*
X140193480Y-85727890I-565685J-565685D01*
G01*
X140193480Y-85727890D01*
G75*
G02*
X139062110Y-85727890I-565685J565685D01*
G01*
X139062110Y-85727890D01*
G75*
G02*
X139062110Y-84596520I565685J565685D01*
G01*
X139062110Y-84596520D01*
G75*
G02*
X140193480Y-84596520I565685J-565685D01*
G01*
G37*
X146812000Y-77978000D03*
%TD*%
%TO.C,R3*%
X147574000Y-89916000D03*
D19*
X147574000Y-100076000D03*
%TD*%
%TO.C,R4*%
X173482000Y-112268000D03*
D11*
X183642000Y-112268000D03*
%TD*%
%TO.C,R5*%
X173990000Y-80010000D03*
D19*
X184150000Y-80010000D03*
%TD*%
%TO.C,R6*%
X152400000Y-86614000D03*
D11*
X142240000Y-86614000D03*
%TD*%
D19*
%TO.C,R7*%
X142240000Y-89662000D03*
D11*
X142240000Y-99822000D03*
%TD*%
D19*
%TO.C,R8*%
X167090000Y-107250000D03*
D11*
X177250000Y-107250000D03*
%TD*%
%TO.C,R9*%
X187706000Y-80010000D03*
G36*
G01*
X194324520Y-86628520D02*
X194324520Y-86628520D01*
G75*
G02*
X195455890Y-86628520I565685J-565685D01*
G01*
X195455890Y-86628520D01*
G75*
G02*
X195455890Y-87759890I-565685J-565685D01*
G01*
X195455890Y-87759890D01*
G75*
G02*
X194324520Y-87759890I-565685J565685D01*
G01*
X194324520Y-87759890D01*
G75*
G02*
X194324520Y-86628520I565685J565685D01*
G01*
G37*
%TD*%
%TO.C,R10*%
X136652000Y-82042000D03*
G36*
G01*
X143270520Y-75423480D02*
X143270520Y-75423480D01*
G75*
G02*
X143270520Y-74292110I565685J565685D01*
G01*
X143270520Y-74292110D01*
G75*
G02*
X144401890Y-74292110I565685J-565685D01*
G01*
X144401890Y-74292110D01*
G75*
G02*
X144401890Y-75423480I-565685J-565685D01*
G01*
X144401890Y-75423480D01*
G75*
G02*
X143270520Y-75423480I-565685J565685D01*
G01*
G37*
%TD*%
D19*
%TO.C,R11*%
X166160000Y-79000000D03*
D11*
X156000000Y-79000000D03*
%TD*%
D19*
%TO.C,R12*%
X198160000Y-94000000D03*
D11*
X188000000Y-94000000D03*
%TD*%
%TO.C,R13*%
X166370000Y-84582000D03*
D19*
X156210000Y-84582000D03*
%TD*%
D11*
%TO.C,R14*%
X156464000Y-95758000D03*
D19*
X166624000Y-95758000D03*
%TD*%
D11*
%TO.C,R15*%
X187452000Y-99822000D03*
D19*
X197612000Y-99822000D03*
%TD*%
D11*
%TO.C,R16*%
X156464000Y-90424000D03*
D19*
X166624000Y-90424000D03*
%TD*%
%TO.C,R18*%
G36*
G01*
X165374999Y-121900000D02*
X166625001Y-121900000D01*
G75*
G02*
X166875000Y-122149999I0J-249999D01*
G01*
X166875000Y-122950001D01*
G75*
G02*
X166625001Y-123200000I-249999J0D01*
G01*
X165374999Y-123200000D01*
G75*
G02*
X165125000Y-122950001I0J249999D01*
G01*
X165125000Y-122149999D01*
G75*
G02*
X165374999Y-121900000I249999J0D01*
G01*
G37*
G36*
G01*
X165374999Y-118800000D02*
X166625001Y-118800000D01*
G75*
G02*
X166875000Y-119049999I0J-249999D01*
G01*
X166875000Y-119850001D01*
G75*
G02*
X166625001Y-120100000I-249999J0D01*
G01*
X165374999Y-120100000D01*
G75*
G02*
X165125000Y-119850001I0J249999D01*
G01*
X165125000Y-119049999D01*
G75*
G02*
X165374999Y-118800000I249999J0D01*
G01*
G37*
%TD*%
%TO.C,R19*%
G36*
G01*
X164800000Y-134625001D02*
X164800000Y-133374999D01*
G75*
G02*
X165049999Y-133125000I249999J0D01*
G01*
X165850001Y-133125000D01*
G75*
G02*
X166100000Y-133374999I0J-249999D01*
G01*
X166100000Y-134625001D01*
G75*
G02*
X165850001Y-134875000I-249999J0D01*
G01*
X165049999Y-134875000D01*
G75*
G02*
X164800000Y-134625001I0J249999D01*
G01*
G37*
G36*
G01*
X167900000Y-134625001D02*
X167900000Y-133374999D01*
G75*
G02*
X168149999Y-133125000I249999J0D01*
G01*
X168950001Y-133125000D01*
G75*
G02*
X169200000Y-133374999I0J-249999D01*
G01*
X169200000Y-134625001D01*
G75*
G02*
X168950001Y-134875000I-249999J0D01*
G01*
X168149999Y-134875000D01*
G75*
G02*
X167900000Y-134625001I0J249999D01*
G01*
G37*
%TD*%
%TO.C,R20*%
G36*
G01*
X178625001Y-136100000D02*
X177374999Y-136100000D01*
G75*
G02*
X177125000Y-135850001I0J249999D01*
G01*
X177125000Y-135049999D01*
G75*
G02*
X177374999Y-134800000I249999J0D01*
G01*
X178625001Y-134800000D01*
G75*
G02*
X178875000Y-135049999I0J-249999D01*
G01*
X178875000Y-135850001D01*
G75*
G02*
X178625001Y-136100000I-249999J0D01*
G01*
G37*
G36*
G01*
X178625001Y-139200000D02*
X177374999Y-139200000D01*
G75*
G02*
X177125000Y-138950001I0J249999D01*
G01*
X177125000Y-138149999D01*
G75*
G02*
X177374999Y-137900000I249999J0D01*
G01*
X178625001Y-137900000D01*
G75*
G02*
X178875000Y-138149999I0J-249999D01*
G01*
X178875000Y-138950001D01*
G75*
G02*
X178625001Y-139200000I-249999J0D01*
G01*
G37*
%TD*%
%TO.C,R21*%
G36*
G01*
X161712000Y-121802999D02*
X161712000Y-123053001D01*
G75*
G02*
X161462001Y-123303000I-249999J0D01*
G01*
X160661999Y-123303000D01*
G75*
G02*
X160412000Y-123053001I0J249999D01*
G01*
X160412000Y-121802999D01*
G75*
G02*
X160661999Y-121553000I249999J0D01*
G01*
X161462001Y-121553000D01*
G75*
G02*
X161712000Y-121802999I0J-249999D01*
G01*
G37*
G36*
G01*
X158612000Y-121802999D02*
X158612000Y-123053001D01*
G75*
G02*
X158362001Y-123303000I-249999J0D01*
G01*
X157561999Y-123303000D01*
G75*
G02*
X157312000Y-123053001I0J249999D01*
G01*
X157312000Y-121802999D01*
G75*
G02*
X157561999Y-121553000I249999J0D01*
G01*
X158362001Y-121553000D01*
G75*
G02*
X158612000Y-121802999I0J-249999D01*
G01*
G37*
%TD*%
%TO.C,R22*%
G36*
G01*
X190700000Y-122624999D02*
X190700000Y-123875001D01*
G75*
G02*
X190450001Y-124125000I-249999J0D01*
G01*
X189649999Y-124125000D01*
G75*
G02*
X189400000Y-123875001I0J249999D01*
G01*
X189400000Y-122624999D01*
G75*
G02*
X189649999Y-122375000I249999J0D01*
G01*
X190450001Y-122375000D01*
G75*
G02*
X190700000Y-122624999I0J-249999D01*
G01*
G37*
G36*
G01*
X187600000Y-122624999D02*
X187600000Y-123875001D01*
G75*
G02*
X187350001Y-124125000I-249999J0D01*
G01*
X186549999Y-124125000D01*
G75*
G02*
X186300000Y-123875001I0J249999D01*
G01*
X186300000Y-122624999D01*
G75*
G02*
X186549999Y-122375000I249999J0D01*
G01*
X187350001Y-122375000D01*
G75*
G02*
X187600000Y-122624999I0J-249999D01*
G01*
G37*
%TD*%
%TO.C,R23*%
G36*
G01*
X166625001Y-132200000D02*
X165374999Y-132200000D01*
G75*
G02*
X165125000Y-131950001I0J249999D01*
G01*
X165125000Y-131149999D01*
G75*
G02*
X165374999Y-130900000I249999J0D01*
G01*
X166625001Y-130900000D01*
G75*
G02*
X166875000Y-131149999I0J-249999D01*
G01*
X166875000Y-131950001D01*
G75*
G02*
X166625001Y-132200000I-249999J0D01*
G01*
G37*
G36*
G01*
X166625001Y-129100000D02*
X165374999Y-129100000D01*
G75*
G02*
X165125000Y-128850001I0J249999D01*
G01*
X165125000Y-128049999D01*
G75*
G02*
X165374999Y-127800000I249999J0D01*
G01*
X166625001Y-127800000D01*
G75*
G02*
X166875000Y-128049999I0J-249999D01*
G01*
X166875000Y-128850001D01*
G75*
G02*
X166625001Y-129100000I-249999J0D01*
G01*
G37*
%TD*%
%TO.C,R24*%
G36*
G01*
X168200000Y-125374999D02*
X168200000Y-126625001D01*
G75*
G02*
X167950001Y-126875000I-249999J0D01*
G01*
X167149999Y-126875000D01*
G75*
G02*
X166900000Y-126625001I0J249999D01*
G01*
X166900000Y-125374999D01*
G75*
G02*
X167149999Y-125125000I249999J0D01*
G01*
X167950001Y-125125000D01*
G75*
G02*
X168200000Y-125374999I0J-249999D01*
G01*
G37*
G36*
G01*
X165100000Y-125374999D02*
X165100000Y-126625001D01*
G75*
G02*
X164850001Y-126875000I-249999J0D01*
G01*
X164049999Y-126875000D01*
G75*
G02*
X163800000Y-126625001I0J249999D01*
G01*
X163800000Y-125374999D01*
G75*
G02*
X164049999Y-125125000I249999J0D01*
G01*
X164850001Y-125125000D01*
G75*
G02*
X165100000Y-125374999I0J-249999D01*
G01*
G37*
%TD*%
%TO.C,R25*%
G36*
G01*
X187590000Y-143881001D02*
X187590000Y-142630999D01*
G75*
G02*
X187839999Y-142381000I249999J0D01*
G01*
X188640001Y-142381000D01*
G75*
G02*
X188890000Y-142630999I0J-249999D01*
G01*
X188890000Y-143881001D01*
G75*
G02*
X188640001Y-144131000I-249999J0D01*
G01*
X187839999Y-144131000D01*
G75*
G02*
X187590000Y-143881001I0J249999D01*
G01*
G37*
G36*
G01*
X184490000Y-143881001D02*
X184490000Y-142630999D01*
G75*
G02*
X184739999Y-142381000I249999J0D01*
G01*
X185540001Y-142381000D01*
G75*
G02*
X185790000Y-142630999I0J-249999D01*
G01*
X185790000Y-143881001D01*
G75*
G02*
X185540001Y-144131000I-249999J0D01*
G01*
X184739999Y-144131000D01*
G75*
G02*
X184490000Y-143881001I0J249999D01*
G01*
G37*
%TD*%
%TO.C,R26*%
G36*
G01*
X164625001Y-140200000D02*
X163374999Y-140200000D01*
G75*
G02*
X163125000Y-139950001I0J249999D01*
G01*
X163125000Y-139149999D01*
G75*
G02*
X163374999Y-138900000I249999J0D01*
G01*
X164625001Y-138900000D01*
G75*
G02*
X164875000Y-139149999I0J-249999D01*
G01*
X164875000Y-139950001D01*
G75*
G02*
X164625001Y-140200000I-249999J0D01*
G01*
G37*
G36*
G01*
X164625001Y-137100000D02*
X163374999Y-137100000D01*
G75*
G02*
X163125000Y-136850001I0J249999D01*
G01*
X163125000Y-136049999D01*
G75*
G02*
X163374999Y-135800000I249999J0D01*
G01*
X164625001Y-135800000D01*
G75*
G02*
X164875000Y-136049999I0J-249999D01*
G01*
X164875000Y-136850001D01*
G75*
G02*
X164625001Y-137100000I-249999J0D01*
G01*
G37*
%TD*%
%TO.C,R27*%
G36*
G01*
X157110000Y-144135001D02*
X157110000Y-142884999D01*
G75*
G02*
X157359999Y-142635000I249999J0D01*
G01*
X158160001Y-142635000D01*
G75*
G02*
X158410000Y-142884999I0J-249999D01*
G01*
X158410000Y-144135001D01*
G75*
G02*
X158160001Y-144385000I-249999J0D01*
G01*
X157359999Y-144385000D01*
G75*
G02*
X157110000Y-144135001I0J249999D01*
G01*
G37*
G36*
G01*
X154010000Y-144135001D02*
X154010000Y-142884999D01*
G75*
G02*
X154259999Y-142635000I249999J0D01*
G01*
X155060001Y-142635000D01*
G75*
G02*
X155310000Y-142884999I0J-249999D01*
G01*
X155310000Y-144135001D01*
G75*
G02*
X155060001Y-144385000I-249999J0D01*
G01*
X154259999Y-144385000D01*
G75*
G02*
X154010000Y-144135001I0J249999D01*
G01*
G37*
%TD*%
%TO.C,R28*%
G36*
G01*
X176100000Y-132374999D02*
X176100000Y-133625001D01*
G75*
G02*
X175850001Y-133875000I-249999J0D01*
G01*
X175049999Y-133875000D01*
G75*
G02*
X174800000Y-133625001I0J249999D01*
G01*
X174800000Y-132374999D01*
G75*
G02*
X175049999Y-132125000I249999J0D01*
G01*
X175850001Y-132125000D01*
G75*
G02*
X176100000Y-132374999I0J-249999D01*
G01*
G37*
G36*
G01*
X179200000Y-132374999D02*
X179200000Y-133625001D01*
G75*
G02*
X178950001Y-133875000I-249999J0D01*
G01*
X178149999Y-133875000D01*
G75*
G02*
X177900000Y-133625001I0J249999D01*
G01*
X177900000Y-132374999D01*
G75*
G02*
X178149999Y-132125000I249999J0D01*
G01*
X178950001Y-132125000D01*
G75*
G02*
X179200000Y-132374999I0J-249999D01*
G01*
G37*
%TD*%
%TO.C,R29*%
G36*
G01*
X170100000Y-143374999D02*
X170100000Y-144625001D01*
G75*
G02*
X169850001Y-144875000I-249999J0D01*
G01*
X169049999Y-144875000D01*
G75*
G02*
X168800000Y-144625001I0J249999D01*
G01*
X168800000Y-143374999D01*
G75*
G02*
X169049999Y-143125000I249999J0D01*
G01*
X169850001Y-143125000D01*
G75*
G02*
X170100000Y-143374999I0J-249999D01*
G01*
G37*
G36*
G01*
X173200000Y-143374999D02*
X173200000Y-144625001D01*
G75*
G02*
X172950001Y-144875000I-249999J0D01*
G01*
X172149999Y-144875000D01*
G75*
G02*
X171900000Y-144625001I0J249999D01*
G01*
X171900000Y-143374999D01*
G75*
G02*
X172149999Y-143125000I249999J0D01*
G01*
X172950001Y-143125000D01*
G75*
G02*
X173200000Y-143374999I0J-249999D01*
G01*
G37*
%TD*%
%TO.C,R30*%
G36*
G01*
X163236000Y-112912999D02*
X163236000Y-114163001D01*
G75*
G02*
X162986001Y-114413000I-249999J0D01*
G01*
X162185999Y-114413000D01*
G75*
G02*
X161936000Y-114163001I0J249999D01*
G01*
X161936000Y-112912999D01*
G75*
G02*
X162185999Y-112663000I249999J0D01*
G01*
X162986001Y-112663000D01*
G75*
G02*
X163236000Y-112912999I0J-249999D01*
G01*
G37*
G36*
G01*
X160136000Y-112912999D02*
X160136000Y-114163001D01*
G75*
G02*
X159886001Y-114413000I-249999J0D01*
G01*
X159085999Y-114413000D01*
G75*
G02*
X158836000Y-114163001I0J249999D01*
G01*
X158836000Y-112912999D01*
G75*
G02*
X159085999Y-112663000I249999J0D01*
G01*
X159886001Y-112663000D01*
G75*
G02*
X160136000Y-112912999I0J-249999D01*
G01*
G37*
%TD*%
D12*
%TO.C,U1*%
X174000000Y-86000000D03*
D19*
X181620000Y-101240000D03*
X174000000Y-88540000D03*
X181620000Y-98700000D03*
X174000000Y-91080000D03*
X181620000Y-96160000D03*
X174000000Y-93620000D03*
X181620000Y-93620000D03*
X174000000Y-96160000D03*
X181620000Y-91080000D03*
X174000000Y-98700000D03*
X181620000Y-88540000D03*
X174000000Y-101240000D03*
X181620000Y-86000000D03*
%TD*%
%TO.C,U2*%
G36*
G01*
X168550000Y-130960000D02*
X168550000Y-130660000D01*
G75*
G02*
X168700000Y-130510000I150000J0D01*
G01*
X170350000Y-130510000D01*
G75*
G02*
X170500000Y-130660000I0J-150000D01*
G01*
X170500000Y-130960000D01*
G75*
G02*
X170350000Y-131110000I-150000J0D01*
G01*
X168700000Y-131110000D01*
G75*
G02*
X168550000Y-130960000I0J150000D01*
G01*
G37*
G36*
G01*
X168550000Y-129690000D02*
X168550000Y-129390000D01*
G75*
G02*
X168700000Y-129240000I150000J0D01*
G01*
X170350000Y-129240000D01*
G75*
G02*
X170500000Y-129390000I0J-150000D01*
G01*
X170500000Y-129690000D01*
G75*
G02*
X170350000Y-129840000I-150000J0D01*
G01*
X168700000Y-129840000D01*
G75*
G02*
X168550000Y-129690000I0J150000D01*
G01*
G37*
G36*
G01*
X168550000Y-128420000D02*
X168550000Y-128120000D01*
G75*
G02*
X168700000Y-127970000I150000J0D01*
G01*
X170350000Y-127970000D01*
G75*
G02*
X170500000Y-128120000I0J-150000D01*
G01*
X170500000Y-128420000D01*
G75*
G02*
X170350000Y-128570000I-150000J0D01*
G01*
X168700000Y-128570000D01*
G75*
G02*
X168550000Y-128420000I0J150000D01*
G01*
G37*
G36*
G01*
X168550000Y-127150000D02*
X168550000Y-126850000D01*
G75*
G02*
X168700000Y-126700000I150000J0D01*
G01*
X170350000Y-126700000D01*
G75*
G02*
X170500000Y-126850000I0J-150000D01*
G01*
X170500000Y-127150000D01*
G75*
G02*
X170350000Y-127300000I-150000J0D01*
G01*
X168700000Y-127300000D01*
G75*
G02*
X168550000Y-127150000I0J150000D01*
G01*
G37*
G36*
G01*
X168550000Y-125880000D02*
X168550000Y-125580000D01*
G75*
G02*
X168700000Y-125430000I150000J0D01*
G01*
X170350000Y-125430000D01*
G75*
G02*
X170500000Y-125580000I0J-150000D01*
G01*
X170500000Y-125880000D01*
G75*
G02*
X170350000Y-126030000I-150000J0D01*
G01*
X168700000Y-126030000D01*
G75*
G02*
X168550000Y-125880000I0J150000D01*
G01*
G37*
G36*
G01*
X168550000Y-124610000D02*
X168550000Y-124310000D01*
G75*
G02*
X168700000Y-124160000I150000J0D01*
G01*
X170350000Y-124160000D01*
G75*
G02*
X170500000Y-124310000I0J-150000D01*
G01*
X170500000Y-124610000D01*
G75*
G02*
X170350000Y-124760000I-150000J0D01*
G01*
X168700000Y-124760000D01*
G75*
G02*
X168550000Y-124610000I0J150000D01*
G01*
G37*
G36*
G01*
X168550000Y-123340000D02*
X168550000Y-123040000D01*
G75*
G02*
X168700000Y-122890000I150000J0D01*
G01*
X170350000Y-122890000D01*
G75*
G02*
X170500000Y-123040000I0J-150000D01*
G01*
X170500000Y-123340000D01*
G75*
G02*
X170350000Y-123490000I-150000J0D01*
G01*
X168700000Y-123490000D01*
G75*
G02*
X168550000Y-123340000I0J150000D01*
G01*
G37*
G36*
G01*
X173500000Y-123340000D02*
X173500000Y-123040000D01*
G75*
G02*
X173650000Y-122890000I150000J0D01*
G01*
X175300000Y-122890000D01*
G75*
G02*
X175450000Y-123040000I0J-150000D01*
G01*
X175450000Y-123340000D01*
G75*
G02*
X175300000Y-123490000I-150000J0D01*
G01*
X173650000Y-123490000D01*
G75*
G02*
X173500000Y-123340000I0J150000D01*
G01*
G37*
G36*
G01*
X173500000Y-124610000D02*
X173500000Y-124310000D01*
G75*
G02*
X173650000Y-124160000I150000J0D01*
G01*
X175300000Y-124160000D01*
G75*
G02*
X175450000Y-124310000I0J-150000D01*
G01*
X175450000Y-124610000D01*
G75*
G02*
X175300000Y-124760000I-150000J0D01*
G01*
X173650000Y-124760000D01*
G75*
G02*
X173500000Y-124610000I0J150000D01*
G01*
G37*
G36*
G01*
X173500000Y-125880000D02*
X173500000Y-125580000D01*
G75*
G02*
X173650000Y-125430000I150000J0D01*
G01*
X175300000Y-125430000D01*
G75*
G02*
X175450000Y-125580000I0J-150000D01*
G01*
X175450000Y-125880000D01*
G75*
G02*
X175300000Y-126030000I-150000J0D01*
G01*
X173650000Y-126030000D01*
G75*
G02*
X173500000Y-125880000I0J150000D01*
G01*
G37*
G36*
G01*
X173500000Y-127150000D02*
X173500000Y-126850000D01*
G75*
G02*
X173650000Y-126700000I150000J0D01*
G01*
X175300000Y-126700000D01*
G75*
G02*
X175450000Y-126850000I0J-150000D01*
G01*
X175450000Y-127150000D01*
G75*
G02*
X175300000Y-127300000I-150000J0D01*
G01*
X173650000Y-127300000D01*
G75*
G02*
X173500000Y-127150000I0J150000D01*
G01*
G37*
G36*
G01*
X173500000Y-128420000D02*
X173500000Y-128120000D01*
G75*
G02*
X173650000Y-127970000I150000J0D01*
G01*
X175300000Y-127970000D01*
G75*
G02*
X175450000Y-128120000I0J-150000D01*
G01*
X175450000Y-128420000D01*
G75*
G02*
X175300000Y-128570000I-150000J0D01*
G01*
X173650000Y-128570000D01*
G75*
G02*
X173500000Y-128420000I0J150000D01*
G01*
G37*
G36*
G01*
X173500000Y-129690000D02*
X173500000Y-129390000D01*
G75*
G02*
X173650000Y-129240000I150000J0D01*
G01*
X175300000Y-129240000D01*
G75*
G02*
X175450000Y-129390000I0J-150000D01*
G01*
X175450000Y-129690000D01*
G75*
G02*
X175300000Y-129840000I-150000J0D01*
G01*
X173650000Y-129840000D01*
G75*
G02*
X173500000Y-129690000I0J150000D01*
G01*
G37*
G36*
G01*
X173500000Y-130960000D02*
X173500000Y-130660000D01*
G75*
G02*
X173650000Y-130510000I150000J0D01*
G01*
X175300000Y-130510000D01*
G75*
G02*
X175450000Y-130660000I0J-150000D01*
G01*
X175450000Y-130960000D01*
G75*
G02*
X175300000Y-131110000I-150000J0D01*
G01*
X173650000Y-131110000D01*
G75*
G02*
X173500000Y-130960000I0J150000D01*
G01*
G37*
%TD*%
%TO.C,U3*%
G36*
G01*
X175450000Y-135945000D02*
X175450000Y-136245000D01*
G75*
G02*
X175300000Y-136395000I-150000J0D01*
G01*
X173650000Y-136395000D01*
G75*
G02*
X173500000Y-136245000I0J150000D01*
G01*
X173500000Y-135945000D01*
G75*
G02*
X173650000Y-135795000I150000J0D01*
G01*
X175300000Y-135795000D01*
G75*
G02*
X175450000Y-135945000I0J-150000D01*
G01*
G37*
G36*
G01*
X175450000Y-137215000D02*
X175450000Y-137515000D01*
G75*
G02*
X175300000Y-137665000I-150000J0D01*
G01*
X173650000Y-137665000D01*
G75*
G02*
X173500000Y-137515000I0J150000D01*
G01*
X173500000Y-137215000D01*
G75*
G02*
X173650000Y-137065000I150000J0D01*
G01*
X175300000Y-137065000D01*
G75*
G02*
X175450000Y-137215000I0J-150000D01*
G01*
G37*
G36*
G01*
X175450000Y-138485000D02*
X175450000Y-138785000D01*
G75*
G02*
X175300000Y-138935000I-150000J0D01*
G01*
X173650000Y-138935000D01*
G75*
G02*
X173500000Y-138785000I0J150000D01*
G01*
X173500000Y-138485000D01*
G75*
G02*
X173650000Y-138335000I150000J0D01*
G01*
X175300000Y-138335000D01*
G75*
G02*
X175450000Y-138485000I0J-150000D01*
G01*
G37*
G36*
G01*
X175450000Y-139755000D02*
X175450000Y-140055000D01*
G75*
G02*
X175300000Y-140205000I-150000J0D01*
G01*
X173650000Y-140205000D01*
G75*
G02*
X173500000Y-140055000I0J150000D01*
G01*
X173500000Y-139755000D01*
G75*
G02*
X173650000Y-139605000I150000J0D01*
G01*
X175300000Y-139605000D01*
G75*
G02*
X175450000Y-139755000I0J-150000D01*
G01*
G37*
G36*
G01*
X170500000Y-139755000D02*
X170500000Y-140055000D01*
G75*
G02*
X170350000Y-140205000I-150000J0D01*
G01*
X168700000Y-140205000D01*
G75*
G02*
X168550000Y-140055000I0J150000D01*
G01*
X168550000Y-139755000D01*
G75*
G02*
X168700000Y-139605000I150000J0D01*
G01*
X170350000Y-139605000D01*
G75*
G02*
X170500000Y-139755000I0J-150000D01*
G01*
G37*
G36*
G01*
X170500000Y-138485000D02*
X170500000Y-138785000D01*
G75*
G02*
X170350000Y-138935000I-150000J0D01*
G01*
X168700000Y-138935000D01*
G75*
G02*
X168550000Y-138785000I0J150000D01*
G01*
X168550000Y-138485000D01*
G75*
G02*
X168700000Y-138335000I150000J0D01*
G01*
X170350000Y-138335000D01*
G75*
G02*
X170500000Y-138485000I0J-150000D01*
G01*
G37*
G36*
G01*
X170500000Y-137215000D02*
X170500000Y-137515000D01*
G75*
G02*
X170350000Y-137665000I-150000J0D01*
G01*
X168700000Y-137665000D01*
G75*
G02*
X168550000Y-137515000I0J150000D01*
G01*
X168550000Y-137215000D01*
G75*
G02*
X168700000Y-137065000I150000J0D01*
G01*
X170350000Y-137065000D01*
G75*
G02*
X170500000Y-137215000I0J-150000D01*
G01*
G37*
G36*
G01*
X170500000Y-135945000D02*
X170500000Y-136245000D01*
G75*
G02*
X170350000Y-136395000I-150000J0D01*
G01*
X168700000Y-136395000D01*
G75*
G02*
X168550000Y-136245000I0J150000D01*
G01*
X168550000Y-135945000D01*
G75*
G02*
X168700000Y-135795000I150000J0D01*
G01*
X170350000Y-135795000D01*
G75*
G02*
X170500000Y-135945000I0J-150000D01*
G01*
G37*
%TD*%
D20*
%TO.C,H1*%
X203250000Y-101250000D03*
D21*
X203250000Y-101250000D03*
%TD*%
%TO.C,H2*%
X152750000Y-72000000D03*
D20*
X152750000Y-72000000D03*
%TD*%
D21*
%TO.C,H3*%
X145796000Y-136144000D03*
D20*
X145796000Y-136144000D03*
%TD*%
D12*
%TO.C,C9*%
X149098000Y-104902000D03*
D11*
X151098000Y-104902000D03*
%TD*%
D21*
%TO.C,H4*%
X198000000Y-134250000D03*
D20*
X198000000Y-134250000D03*
%TD*%
M02*
